<svg version="1.1" id="图层_1" xmlns="http://www.w3.org/2000/svg" x="0" y="0" viewBox="0 0 114.5 19.5" xml:space="preserve"><style type="text/css">.st0{fill:#FFFFFF;}</style><g id="XMLID_2_"><path id="XMLID_7_" class="st0" d="M95.6,3.1h9.3V1.2h-9.3V3.1z M102.3,12h-1.5l-0.6,2.7h-0.1L99.6,12h-1.5l0.6,2.7H98v1.4h1.4v2.5 h1.7v-2.5h1.4v-1.4h-0.7L102.3,12z M96.2,4v4.6h8.1V4L96.2,4z M102.4,7h-4.3V5.7h4.3V7z M95.6,18.7h1.9v-7.5h5.5v7.5h1.9V9.6h-9.3 V18.7z M113.3,14.7h-1.7l0.2,2.3h-1.5v-4.4h3V3.1h-3V0.9h-1.7v2.2h-2.9v9.5h2.9V17h-2.9v1.7h7.9L113.3,14.7z M110.3,4.9h1.3v5.9 h-1.3V4.9z M108.6,10.9h-1.2V4.9h1.2V10.9z M61.3,13.3h3.3v2.4h1.9v-2.4h3.3v2.4h1.9V5.2h-3.4l0.3-0.2C69.4,4.6,70.3,4,71,3.4l0,0 V1.2H59.7v1.8h8.9l-0.3,0.2c-1.2,0.8-2.6,1.5-4,1.9l-0.3,0.1L63.8,4h-2.1L62,5.2h-2.6v10.5h1.9V13.3z M66.5,6.9h3.3v1.6h-3.3V6.9z M66.5,10.1h3.3v1.5h-3.3V10.1z M61.3,6.9h3.3v1.6h-3.3V6.9z M61.3,10.1h3.3v1.5h-3.3V10.1z M57,5.4l-0.8-4.1h-2.1l0.8,4.1H57z M57.8,15V8.5h-4v1.8h2.1l0,4.5c-0.2,0.7-0.5,1.2-1,1.5c-0.3,0.2-0.6,0.4-1,0.5l-0.1,0v1.9l0.1,0c1-0.2,1.9-0.6,2.5-1.2l0.1-0.1 l0.1,0.1c0.8,1.1,2.2,1.2,3.2,1.2l0.3,0l0.1,0h12.4v-1.9h-12C58.5,16.8,57.8,16.3,57.8,15z M90.3,14.1h-2.1l-0.5,2.7h-2.9v-4.5h7.5 v-1.8h-7.5V8.4h4.9V6.7H78.1v1.7H83v2.2h-7.5v1.8H83v4.5h-2.9l-0.5-2.7h-2.1l0.5,2.7h-3.3v1.8H93v-1.8h-3.2L90.3,14.1z M47.9,3.3h3 v-2H33.2v2h3.3v5.5h-3.6v2h3.6c0,0,0,1.1,0,1.5c-0.1,2.8-2.4,4.4-3.2,4.5v2.1c0.1,0,5.2-1,5.4-7.1c0-0.2,0-1,0-1h7.1v7.9h2.2v-7.9 h3.3v-2h-3.3V3.3z M45.8,8.7h-7.2V3.3h7.2V8.7z M83.8,2.8L83.8,2.8L83.8,2.8l0.1,0c2.1,1.9,6,3.7,8.8,4.3l0.2,0v-2l-0.1,0 c-2.8-0.6-6.1-2.3-8-4.2l-0.1-0.1h-0.9v0h-0.9l0,0.1c-1.9,1.9-5.2,3.6-8,4.2l-0.1,0v2.1l0.2,0C77.8,6.5,81.7,4.8,83.8,2.8z"/><g id="XMLID_3_"><path id="XMLID_4_" class="st0" d="M16.8,0.6l-6.2,9l6.2,9l0,0h9.6V0.6H16.8z M0.2,18.7h9.6V0.6H0.2V18.7z"/></g></g></svg>