<?xml version="1.0" encoding="utf-8"?>
<!-- Generator: Adobe Illustrator 16.0.0, SVG Export Plug-In . SVG Version: 6.00 Build 0)  -->
<!DOCTYPE svg PUBLIC "-//W3C//DTD SVG 1.1//EN" "http://www.w3.org/Graphics/SVG/1.1/DTD/svg11.dtd">
<svg version="1.1" id="图层_1" xmlns="http://www.w3.org/2000/svg" xmlns:xlink="http://www.w3.org/1999/xlink" x="0px" y="0px"
	 width="553.032px" height="131.365px" viewBox="0 0 553.032 131.365" enable-background="new 0 0 553.032 131.365"
	 xml:space="preserve">
<g>
	<g>
		<path fill="#00366B" d="M55.727,52.507c0-18.021,13.723-32.827,31.287-34.555V0H21.245l-3.7,21.797H36.14l-9.919,58.398h-22.6
			L0,101.485h30.527l-5.14,29.88h25.52l5.142-29.88h30.965V87.032C69.449,85.31,55.727,70.528,55.727,52.507z"/>
		<path fill="#00366B" d="M180.902,101.485l-3.619-21.29h-22.603l-9.918-58.398h18.599L159.658,0H93.892v17.952
			c17.563,1.726,31.289,16.534,31.289,34.555c0,18.021-13.725,32.805-31.289,34.525v14.453h30.964l5.142,29.88h25.519l-5.137-29.88
			H180.902z"/>
		<path fill="#D01F14" d="M80.064,42.581v19.853c0,0.256,0.206,0.465,0.461,0.465h19.856c0.253,0,0.465-0.208,0.465-0.465V42.581
			c0-0.256-0.212-0.464-0.465-0.464H80.525C80.27,42.117,80.064,42.325,80.064,42.581z"/>
	</g>
	<rect x="210.71" fill="#9FA0A0" width="2.345" height="131.366"/>
	<g>
		<g>
			<path fill="#1F1E1D" d="M245.2,79.605v-7.178c3.353-0.153,6.114-1.206,8.29-3.145c1.429-1.276,2.463-2.686,3.104-4.225
				c0.663-1.641,1.001-3.969,1.001-6.983v-7.671H245.2v-7.212h12.396V22.015h-11.705v-7.099h69.821v7.099h-12.106v21.178h12.606
				v7.212h-12.606v29.201h-7.212V50.404h-31.707v6.899c0,4.149-0.421,7.423-1.264,9.83c-1.103,3.121-3.144,5.881-6.137,8.286
				C253.885,78.133,249.854,79.525,245.2,79.605z M264.687,43.192h31.707V22.015h-31.707V43.192z"/>
			<path fill="#1F1E1D" d="M323.811,79.794v-6.905c3.473-0.642,5.216-2.695,5.216-6.18V42.114c0-2.223-1.153-3.335-3.455-3.335
				h-1.761v-7.101h3.716c2.915,0,5.027,0.552,6.328,1.651c1.487,1.305,2.228,3.558,2.228,6.755v27.28
				c0,1.489,0.358,2.632,1.073,3.452c0.72,0.82,1.408,1.345,2.071,1.575c0.615,0.205,1.536,0.306,2.764,0.306h52.557v7.098h-51.751
				c-2.607,0-4.742-0.357-6.412-1.073c-1.172-0.513-2.437-1.394-3.795-2.648c-1.457,1.306-2.749,2.213-3.871,2.727
				C327.411,79.387,325.779,79.718,323.811,79.794z M323.924,22.127v-7.481h13.27v7.481H323.924z M341.492,68.361l-0.075-29.926
				c0-2.998,0.826-5.28,2.494-6.867c1.02-0.998,2.759-1.743,5.215-2.226c-0.868-1.461-1.65-2.956-2.337-4.489h7.475
				c0.718,1.482,1.598,2.967,2.648,4.452h21.865c1.744-2.251,2.802-3.636,3.188-4.145c0.512-0.719,0.769-1.306,0.769-1.763
				c0-1-0.987-1.5-2.954-1.5l-37.213-0.074v-7.059h38.515c3.148,0,5.641,0.661,7.482,1.995c1.791,1.279,2.686,3.005,2.686,5.178
				c0,1.736-0.563,3.507-1.691,5.292c-0.202,0.332-0.752,1.167-1.646,2.498c3.452,1.582,5.179,4.213,5.179,7.897v20.566
				c0,2.914-0.524,5.022-1.578,6.328c-1.479,1.846-3.572,2.996-6.287,3.462c-1.104,0.199-2.954,0.317-5.564,0.341v-6.528
				c0.359,0.025,0.744,0.04,1.152,0.04c2.862,0,4.5-0.805,4.914-2.417H370.88v8.944h-7.139l-0.036-8.944h-15.117v8.944H341.492z
				 M348.588,41.005h15.117v-4.566l-12.009-0.077c-1.996,0-3.019,0.792-3.067,2.38L348.588,41.005z M348.588,52.438h15.117v-4.375
				h-15.117V52.438z M370.88,41.005h15.151l-0.036-2.15c-0.054-1.66-0.87-2.493-2.457-2.493l-12.658,0.077V41.005z M370.88,52.438
				h15.151v-4.375H370.88V52.438z"/>
			<path fill="#1F1E1D" d="M402.298,79.794v-7.098h13.392l-3.227-11.936h7.06l3.224,11.936h11.47V54.625h-29.272v-7.1h29.272v-8.401
				h-29.272v-3.761l-2.646,0.311V28.84c1.046,0,1.828-0.138,2.338-0.421c0.976-0.538,2.213-2.581,3.72-6.138
				c1.333-3.068,2.495-5.048,3.493-5.945c1.15-1.074,2.915-1.611,5.297-1.611h40.508c2.407,0,4.065,0.296,4.985,0.879
				c0.999,0.669,1.779,1.436,2.341,2.305c0.283,0.407,0.768,1.447,1.46,3.109c1.435,3.5,2.57,5.715,3.413,6.635
				c0.613,0.667,1.727,1.064,3.337,1.187v6.833l-2.648-0.311v3.761h-29.229v8.401h29.229v7.1h-29.229v18.072h11.505l3.224-11.936
				h7.096l-3.219,11.936h13.272v7.098H402.298z M411.118,32.066h53.25c-1.076-1.741-2.226-3.967-3.453-6.679
				c-0.59-1.301-1.173-2.236-1.765-2.803c-0.487-0.458-1.511-0.688-3.069-0.688h-36.021c-2.021,0-3.329,0.319-3.917,0.958
				c-0.354,0.412-1.095,1.753-2.224,4.032C412.795,29.162,411.861,30.892,411.118,32.066z"/>
			<path fill="#1F1E1D" d="M481.17,21.708v-6.983h38.861v6.983H481.17z M481.17,79.718V51.593c0-4.938,2.457-7.405,7.364-7.405
				h22.905c5.833,0,8.744,2.287,8.744,6.862v20.537c0,5.392-2.647,8.095-7.94,8.095c-0.611,0-1.623-0.052-3.027-0.156v-6.983
				c0.457,0.054,0.802,0.076,1.033,0.076c1.895,0,2.841-0.869,2.841-2.604l-0.041-15.698c0-1.174-0.179-1.944-0.537-2.304
				c-0.485-0.483-1.277-0.731-2.376-0.731h-18.875c-1.125,0-1.945,0.248-2.454,0.731c-0.359,0.338-0.539,1.026-0.539,2.073v25.633
				H481.17z M519.111,29.224v6.869c0,2.073-0.437,3.525-1.307,4.374c-0.839,0.845-2.353,1.263-4.525,1.263h-26.015
				c-1.812,0-3.113-0.418-3.91-1.263c-0.763-0.82-1.145-2.164-1.145-4.028v-6.481c0-2.228,0.404-3.723,1.222-4.49
				c0.797-0.792,2.226-1.189,4.297-1.189h24.742c2.357,0,3.968,0.296,4.839,0.883C518.507,25.952,519.111,27.306,519.111,29.224z
				 M510.101,30.374h-19.305c-0.74,0-1.263,0.159-1.568,0.461c-0.206,0.18-0.308,0.629-0.308,1.346v1.57
				c0,0.741,0.244,1.27,0.727,1.575c0.229,0.126,0.846,0.189,1.846,0.189h18.717c1.025,0,1.652-0.126,1.88-0.381
				c0.206-0.206,0.307-0.718,0.307-1.537v-1.034c0-0.741-0.138-1.288-0.419-1.652C511.723,30.558,511.095,30.374,510.101,30.374z
				 M490.417,68.558l0.113-7.146h2.102l-0.645-6.864h7.099l0.644,6.864h1.858l0.642-6.864h6.945l-0.647,6.864h2.22v7.146h-6.597
				v11.048h-7.098V68.558H490.417z M522.252,79.718v-7.1h11.32V61.144h-2.953c-1.812-0.025-3.104-0.179-3.875-0.457
				c-1.484-0.592-2.567-1.64-3.26-3.148c-0.436-0.896-0.651-1.871-0.651-2.914v-26.93c0-1.922,0.459-3.454,1.385-4.608
				c1.352-1.661,3.297-2.493,5.826-2.493h3.528v-6.06l7.06-0.076v6.136h3.303c2.58,0,4.497,0.679,5.754,2.037
				c1.2,1.303,1.797,2.9,1.797,4.794l-0.035,25.936c0,2.298-0.396,4-1.189,5.099c-1.279,1.741-2.94,2.625-4.987,2.647l-4.642,0.039
				v11.475l0.192,7.1H522.252z M533.572,54.047V27.729h-1.342c-1.535,0-2.303,0.95-2.303,2.84v20.792
				c0,1.023,0.217,1.741,0.654,2.149c0.331,0.307,0.947,0.473,1.841,0.501L533.572,54.047z M540.632,54.047l1.421-0.037
				c0.996-0.028,1.663-0.283,1.996-0.771c0.229-0.332,0.343-0.937,0.343-1.8l0.041-20.871c0.022-1.89-1-2.84-3.069-2.84h-0.731
				V54.047z"/>
		</g>
		<g>
			<path fill="#595757" d="M245.206,116.488V92.907h3.118v11.706l11.71-11.706h4.231l-9.895,9.56l10.328,14.021h-4.115
				l-8.395-11.937l-3.865,3.78v8.156H245.206z"/>
			<path fill="#595757" d="M264.719,116.488l9.051-23.581h3.366l9.65,23.581h-3.552l-2.748-7.134h-9.869l-2.59,7.134H264.719z
				 M271.521,106.812h7.998l-2.47-6.526c-0.738-1.989-1.301-3.616-1.669-4.896c-0.296,1.518-0.717,3.014-1.271,4.494
				L271.521,106.812z"/>
			<path fill="#595757" d="M289.809,116.488V92.907h3.12v23.581H289.809z"/>
			<path fill="#595757" d="M313.589,116.488V95.693h-7.772v-2.786h18.698v2.786h-7.802v20.795H313.589z"/>
			<path fill="#595757" d="M326.763,105.013c0-3.917,1.057-6.982,3.161-9.196c2.095-2.213,4.814-3.331,8.134-3.331
				c2.181,0,4.146,0.522,5.889,1.577c1.748,1.036,3.078,2.479,3.997,4.342c0.925,1.865,1.379,3.975,1.379,6.34
				c0,2.386-0.487,4.529-1.455,6.415c-0.959,1.885-2.333,3.323-4.095,4.272c-1.777,0.978-3.686,1.478-5.732,1.478
				c-2.218,0-4.199-0.539-5.947-1.616c-1.748-1.073-3.071-2.534-3.975-4.403C327.216,109.047,326.763,107.08,326.763,105.013z
				 M329.987,105.064c0,2.846,0.759,5.078,2.282,6.709c1.531,1.645,3.451,2.458,5.757,2.458c2.346,0,4.283-0.823,5.803-2.486
				c1.51-1.645,2.273-3.989,2.273-7.018c0-1.925-0.325-3.597-0.974-5.038c-0.654-1.426-1.6-2.544-2.846-3.321
				c-1.245-0.798-2.653-1.188-4.206-1.188c-2.218,0-4.114,0.764-5.709,2.27C330.78,98.974,329.987,101.506,329.987,105.064z"/>
			<path fill="#595757" d="M353.311,116.488V92.907h3.202l12.391,18.515V92.907h2.987v23.581h-3.195l-12.391-18.517v18.517H353.311z
				"/>
			<path fill="#595757" d="M388.169,107.248v-2.771l9.986-0.018v8.753c-1.532,1.229-3.111,2.14-4.739,2.754
				c-1.629,0.632-3.305,0.942-5.021,0.942c-2.314,0-4.42-0.513-6.314-1.49c-1.892-1.001-3.323-2.428-4.287-4.321
				c-0.962-1.869-1.444-3.961-1.444-6.276c0-2.295,0.479-4.438,1.438-6.423c0.957-2.005,2.337-3.485,4.136-4.437
				c1.808-0.962,3.883-1.458,6.236-1.458c1.697,0,3.239,0.291,4.618,0.828c1.379,0.557,2.466,1.334,3.247,2.323
				c0.777,0.974,1.379,2.267,1.785,3.854l-2.821,0.776c-0.353-1.207-0.794-2.15-1.318-2.836s-1.278-1.241-2.244-1.651
				c-0.984-0.414-2.062-0.618-3.258-0.618c-1.424,0-2.652,0.218-3.697,0.657c-1.039,0.436-1.877,0.993-2.516,1.72
				c-0.64,0.698-1.141,1.481-1.493,2.327c-0.603,1.456-0.896,3.039-0.896,4.747c0,2.101,0.359,3.851,1.083,5.274
				c0.728,1.401,1.782,2.46,3.166,3.15c1.383,0.684,2.854,1.02,4.398,1.02c1.358,0,2.678-0.244,3.965-0.766
				c1.283-0.521,2.265-1.078,2.927-1.68v-4.383H388.169z"/>
			<path fill="#595757" d="M412.078,116.488V92.907h15.905v2.786h-12.788v7.304h11.073v2.792h-11.073v10.699H412.078z"/>
			<path fill="#595757" d="M432.58,116.488V92.907h3.117v23.581H432.58z"/>
			<path fill="#595757" d="M441.165,116.488V92.907h3.201l12.384,18.515V92.907h2.996v23.581h-3.206l-12.378-18.517v18.517H441.165z
				"/>
			<path fill="#595757" d="M462.405,116.488l9.047-23.581h3.371l9.65,23.581h-3.555l-2.753-7.134h-9.86l-2.59,7.134H462.405z
				 M469.204,106.812h7.997l-2.467-6.526c-0.745-1.989-1.306-3.616-1.668-4.896c-0.297,1.518-0.72,3.014-1.273,4.494
				L469.204,106.812z"/>
			<path fill="#595757" d="M486.936,116.488V92.907h3.195l12.392,18.515V92.907h2.987v23.581h-3.197l-12.385-18.517v18.517H486.936z
				"/>
			<path fill="#595757" d="M527.587,108.235l3.12,0.778c-0.659,2.567-1.828,4.514-3.528,5.873c-1.702,1.338-3.787,2.022-6.231,2.022
				c-2.546,0-4.61-0.522-6.204-1.567c-1.596-1.031-2.806-2.536-3.636-4.489c-0.836-1.973-1.251-4.079-1.251-6.312
				c0-2.464,0.467-4.613,1.413-6.446c0.936-1.813,2.271-3.205,4.003-4.153s3.637-1.437,5.723-1.437c2.354,0,4.344,0.613,5.945,1.806
				c1.614,1.207,2.735,2.897,3.368,5.062l-3.075,0.726c-0.553-1.703-1.342-2.962-2.378-3.74c-1.049-0.793-2.35-1.177-3.929-1.177
				c-1.815,0-3.327,0.438-4.543,1.311c-1.22,0.856-2.076,2.017-2.571,3.498c-0.487,1.466-0.741,2.96-0.741,4.528
				c0,2.005,0.298,3.746,0.883,5.244c0.589,1.497,1.495,2.608,2.724,3.35c1.237,0.738,2.576,1.12,4.009,1.12
				c1.744,0,3.225-0.499,4.441-1.518C526.345,111.715,527.158,110.217,527.587,108.235z"/>
			<path fill="#595757" d="M534.616,116.488V92.907h17.059v2.786h-13.938v7.23h13.041v2.769h-13.041v8.025h14.478v2.771H534.616z"/>
		</g>
		<polygon fill="#1F1E1D" points="548.026,79.738 522.177,79.738 522.177,72.618 549.697,72.618 		"/>
		<polygon fill="#1F1E1D" points="553.032,79.738 546.665,79.738 543.805,65.225 550.169,65.225 		"/>
	</g>
</g>
<g>
</g>
<g>
</g>
<g>
</g>
<g>
</g>
<g>
</g>
<g>
</g>
</svg>
