<?xml version="1.0" encoding="utf-8"?>
<!-- Generator: Adobe Illustrator 19.0.0, SVG Export Plug-In . SVG Version: 6.00 Build 0)  -->
<svg version="1.1" id="图层_1" xmlns="http://www.w3.org/2000/svg" xmlns:xlink="http://www.w3.org/1999/xlink" x="0px" y="0px"
	 viewBox="0 0 130.7 134.1" style="enable-background:new 0 0 130.7 134.1;" xml:space="preserve">
<style type="text/css">
	.st0{fill:#00366B;}
	.st1{fill:#D01F14;}
	.st2{fill:#1F1E1D;}
	.st3{fill:#595757;}
</style>
<g>
	<g>
		<path class="st0" d="M44.6,31.2c0-10.7,8.1-19.5,18.6-20.5V0h-39l-2.2,12.9h11l-5.9,34.7H13.6l-2.1,12.6h18.1L26.6,78h15.1
			l3.1-17.7h18.4v-8.6C52.7,50.6,44.6,41.9,44.6,31.2z"/>
		<path class="st0" d="M118.9,60.3l-2.1-12.6h-13.4l-5.9-34.7h11L106.3,0h-39v10.7c10.4,1,18.6,9.8,18.6,20.5
			c0,10.7-8.1,19.5-18.6,20.5v8.6h18.4L88.7,78h15.1l-3.1-17.7H118.9z"/>
		<path class="st1" d="M59,25.3v11.8c0,0.2,0.1,0.3,0.3,0.3h11.8c0.1,0,0.3-0.1,0.3-0.3V25.3c0-0.2-0.1-0.3-0.3-0.3H59.3
			C59.1,25,59,25.1,59,25.3z"/>
	</g>
	<g>
		<g>
			<path class="st2" d="M0,118.3v-3c1.4-0.1,2.6-0.5,3.5-1.3c0.6-0.5,1-1.1,1.3-1.8c0.3-0.7,0.4-1.7,0.4-3v-3.3H0v-3.1h5.3v-9h-5v-3
				h29.6v3h-5.1v9h5.4v3.1h-5.4v12.4h-3.1v-12.4H8.3v2.9c0,1.8-0.2,3.2-0.5,4.2c-0.5,1.3-1.3,2.5-2.6,3.5C3.7,117.7,2,118.3,0,118.3
				z M8.3,102.8h13.5v-9H8.3V102.8z"/>
			<path class="st2" d="M33.4,118.4v-2.9c1.5-0.3,2.2-1.1,2.2-2.6v-10.4c0-0.9-0.5-1.4-1.5-1.4h-0.7v-3H35c1.2,0,2.1,0.2,2.7,0.7
				c0.6,0.6,0.9,1.5,0.9,2.9v11.6c0,0.6,0.2,1.1,0.5,1.5c0.3,0.3,0.6,0.6,0.9,0.7c0.3,0.1,0.7,0.1,1.2,0.1h22.3v3h-22
				c-1.1,0-2-0.2-2.7-0.5c-0.5-0.2-1-0.6-1.6-1.1c-0.6,0.6-1.2,0.9-1.6,1.2C34.9,118.2,34.2,118.4,33.4,118.4z M33.4,93.9v-3.2h5.6
				v3.2H33.4z M40.9,113.5l0-12.7c0-1.3,0.4-2.2,1.1-2.9c0.4-0.4,1.2-0.7,2.2-0.9c-0.4-0.6-0.7-1.3-1-1.9h3.2
				c0.3,0.6,0.7,1.3,1.1,1.9h9.3c0.7-1,1.2-1.5,1.4-1.8c0.2-0.3,0.3-0.6,0.3-0.7c0-0.4-0.4-0.6-1.3-0.6l-15.8,0v-3h16.4
				c1.3,0,2.4,0.3,3.2,0.8c0.8,0.5,1.1,1.3,1.1,2.2c0,0.7-0.2,1.5-0.7,2.2c-0.1,0.1-0.3,0.5-0.7,1.1c1.5,0.7,2.2,1.8,2.2,3.4v8.7
				c0,1.2-0.2,2.1-0.7,2.7c-0.6,0.8-1.5,1.3-2.7,1.5c-0.5,0.1-1.3,0.1-2.4,0.1v-2.8c0.2,0,0.3,0,0.5,0c1.2,0,1.9-0.3,2.1-1h-6.3v3.8
				h-3l0-3.8h-6.4v3.8H40.9z M43.9,101.9h6.4V100l-5.1,0c-0.8,0-1.3,0.3-1.3,1L43.9,101.9z M43.9,106.8h6.4v-1.9h-6.4V106.8z
				 M53.4,101.9h6.4l0-0.9c0-0.7-0.4-1.1-1-1.1l-5.4,0V101.9z M53.4,106.8h6.4v-1.9h-6.4V106.8z"/>
			<path class="st2" d="M66.7,118.4v-3h5.7l-1.4-5.1h3l1.4,5.1h4.9v-7.7H67.8v-3h12.4v-3.6H67.8v-1.6l-1.1,0.1v-2.9
				c0.4,0,0.8-0.1,1-0.2c0.4-0.2,0.9-1.1,1.6-2.6c0.6-1.3,1.1-2.1,1.5-2.5c0.5-0.5,1.2-0.7,2.2-0.7h17.2c1,0,1.7,0.1,2.1,0.4
				c0.4,0.3,0.8,0.6,1,1c0.1,0.2,0.3,0.6,0.6,1.3c0.6,1.5,1.1,2.4,1.4,2.8c0.3,0.3,0.7,0.5,1.4,0.5v2.9l-1.1-0.1v1.6H83.3v3.6h12.4
				v3H83.3v7.7h4.9l1.4-5.1h3l-1.4,5.1h5.6v3H66.7z M70.5,98.1h22.6c-0.5-0.7-0.9-1.7-1.5-2.8c-0.2-0.6-0.5-1-0.7-1.2
				c-0.2-0.2-0.6-0.3-1.3-0.3H74.3c-0.9,0-1.4,0.1-1.7,0.4c-0.2,0.2-0.5,0.7-0.9,1.7C71.2,96.9,70.8,97.6,70.5,98.1z"/>
			<path class="st2" d="M100.2,93.7v-3h16.5v3H100.2z M100.2,118.4v-11.9c0-2.1,1-3.1,3.1-3.1h9.7c2.5,0,3.7,1,3.7,2.9v8.7
				c0,2.3-1.1,3.4-3.4,3.4c-0.3,0-0.7,0-1.3-0.1v-3c0.2,0,0.3,0,0.4,0c0.8,0,1.2-0.4,1.2-1.1l0-6.7c0-0.5-0.1-0.8-0.2-1
				c-0.2-0.2-0.5-0.3-1-0.3h-8c-0.5,0-0.8,0.1-1,0.3c-0.2,0.1-0.2,0.4-0.2,0.9v10.9H100.2z M116.3,96.9v2.9c0,0.9-0.2,1.5-0.6,1.9
				c-0.4,0.4-1,0.5-1.9,0.5h-11c-0.8,0-1.3-0.2-1.7-0.5c-0.3-0.3-0.5-0.9-0.5-1.7v-2.8c0-0.9,0.2-1.6,0.5-1.9
				c0.3-0.3,0.9-0.5,1.8-0.5h10.5c1,0,1.7,0.1,2.1,0.4C116.1,95.5,116.3,96.1,116.3,96.9z M112.5,97.4h-8.2c-0.3,0-0.5,0.1-0.7,0.2
				c-0.1,0.1-0.1,0.3-0.1,0.6v0.7c0,0.3,0.1,0.5,0.3,0.7c0.1,0.1,0.4,0.1,0.8,0.1h7.9c0.4,0,0.7-0.1,0.8-0.2
				c0.1-0.1,0.1-0.3,0.1-0.7v-0.4c0-0.3-0.1-0.5-0.2-0.7C113.2,97.5,112.9,97.4,112.5,97.4z M104.1,113.6l0-3h0.9l-0.3-2.9h3
				l0.3,2.9h0.8l0.3-2.9h2.9l-0.3,2.9h0.9v3H110v4.7h-3v-4.7H104.1z M117.6,118.4v-3h4.8v-4.9h-1.3c-0.8,0-1.3-0.1-1.6-0.2
				c-0.6-0.3-1.1-0.7-1.4-1.3c-0.2-0.4-0.3-0.8-0.3-1.2V96.3c0-0.8,0.2-1.5,0.6-2c0.6-0.7,1.4-1.1,2.5-1.1h1.5v-2.6l3,0v2.6h1.4
				c1.1,0,1.9,0.3,2.4,0.9c0.5,0.6,0.8,1.2,0.8,2l0,11c0,1-0.2,1.7-0.5,2.2c-0.5,0.7-1.2,1.1-2.1,1.1l-2,0v4.9l0.1,3H117.6z
				 M122.5,107.5V96.3h-0.6c-0.7,0-1,0.4-1,1.2v8.8c0,0.4,0.1,0.7,0.3,0.9c0.1,0.1,0.4,0.2,0.8,0.2L122.5,107.5z M125.5,107.5l0.6,0
				c0.4,0,0.7-0.1,0.8-0.3c0.1-0.1,0.1-0.4,0.1-0.8l0-8.9c0-0.8-0.4-1.2-1.3-1.2h-0.3V107.5z"/>
		</g>
		<g>
			<path class="st3" d="M0,134v-10h1.3v5l5-5h1.8L3.9,128l4.4,6H6.5L3,128.9l-1.6,1.6v3.5H0z"/>
			<path class="st3" d="M8.3,134l3.8-10h1.4l4.1,10h-1.5l-1.2-3h-4.2l-1.1,3H8.3z M11.2,129.9h3.4l-1-2.8c-0.3-0.8-0.6-1.5-0.7-2.1
				c-0.1,0.6-0.3,1.3-0.5,1.9L11.2,129.9z"/>
			<path class="st3" d="M18.9,134v-10h1.3v10H18.9z"/>
			<path class="st3" d="M29,134v-8.8h-3.3V124h7.9v1.2h-3.3v8.8H29z"/>
			<path class="st3" d="M34.6,129.1c0-1.7,0.4-3,1.3-3.9c0.9-0.9,2-1.4,3.5-1.4c0.9,0,1.8,0.2,2.5,0.7c0.7,0.4,1.3,1.1,1.7,1.8
				c0.4,0.8,0.6,1.7,0.6,2.7c0,1-0.2,1.9-0.6,2.7c-0.4,0.8-1,1.4-1.7,1.8c-0.8,0.4-1.6,0.6-2.4,0.6c-0.9,0-1.8-0.2-2.5-0.7
				c-0.7-0.5-1.3-1.1-1.7-1.9C34.8,130.8,34.6,130,34.6,129.1z M36,129.1c0,1.2,0.3,2.2,1,2.8c0.6,0.7,1.5,1,2.4,1
				c1,0,1.8-0.3,2.5-1.1c0.6-0.7,1-1.7,1-3c0-0.8-0.1-1.5-0.4-2.1c-0.3-0.6-0.7-1.1-1.2-1.4c-0.5-0.3-1.1-0.5-1.8-0.5
				c-0.9,0-1.7,0.3-2.4,1C36.3,126.5,36,127.6,36,129.1z"/>
			<path class="st3" d="M45.9,134v-10h1.4l5.3,7.9V124h1.3v10h-1.4l-5.3-7.9v7.9H45.9z"/>
			<path class="st3" d="M60.7,130v-1.2l4.2,0v3.7c-0.7,0.5-1.3,0.9-2,1.2c-0.7,0.3-1.4,0.4-2.1,0.4c-1,0-1.9-0.2-2.7-0.6
				c-0.8-0.4-1.4-1-1.8-1.8c-0.4-0.8-0.6-1.7-0.6-2.7c0-1,0.2-1.9,0.6-2.7c0.4-0.9,1-1.5,1.8-1.9c0.8-0.4,1.6-0.6,2.6-0.6
				c0.7,0,1.4,0.1,2,0.4c0.6,0.2,1,0.6,1.4,1c0.3,0.4,0.6,1,0.8,1.6l-1.2,0.3c-0.1-0.5-0.3-0.9-0.6-1.2c-0.2-0.3-0.5-0.5-1-0.7
				c-0.4-0.2-0.9-0.3-1.4-0.3c-0.6,0-1.1,0.1-1.6,0.3c-0.4,0.2-0.8,0.4-1.1,0.7c-0.3,0.3-0.5,0.6-0.6,1c-0.3,0.6-0.4,1.3-0.4,2
				c0,0.9,0.2,1.6,0.5,2.2c0.3,0.6,0.8,1,1.3,1.3c0.6,0.3,1.2,0.4,1.9,0.4c0.6,0,1.1-0.1,1.7-0.3c0.5-0.2,1-0.5,1.2-0.7V130H60.7z"
				/>
			<path class="st3" d="M70.9,134v-10h6.8v1.2h-5.4v3.1h4.7v1.2h-4.7v4.5H70.9z"/>
			<path class="st3" d="M79.6,134v-10h1.3v10H79.6z"/>
			<path class="st3" d="M83.2,134v-10h1.4l5.3,7.9V124h1.3v10h-1.4l-5.3-7.9v7.9H83.2z"/>
			<path class="st3" d="M92.2,134l3.8-10h1.4l4.1,10h-1.5l-1.2-3h-4.2l-1.1,3H92.2z M95.1,129.9h3.4l-1-2.8
				c-0.3-0.8-0.6-1.5-0.7-2.1c-0.1,0.6-0.3,1.3-0.5,1.9L95.1,129.9z"/>
			<path class="st3" d="M102.7,134v-10h1.4l5.3,7.9V124h1.3v10h-1.4l-5.3-7.9v7.9H102.7z"/>
			<path class="st3" d="M119.9,130.5l1.3,0.3c-0.3,1.1-0.8,1.9-1.5,2.5c-0.7,0.6-1.6,0.9-2.6,0.9c-1.1,0-2-0.2-2.6-0.7
				c-0.7-0.4-1.2-1.1-1.5-1.9c-0.4-0.8-0.5-1.7-0.5-2.7c0-1,0.2-2,0.6-2.7c0.4-0.8,1-1.4,1.7-1.8c0.7-0.4,1.5-0.6,2.4-0.6
				c1,0,1.8,0.3,2.5,0.8c0.7,0.5,1.2,1.2,1.4,2.2l-1.3,0.3c-0.2-0.7-0.6-1.3-1-1.6c-0.4-0.3-1-0.5-1.7-0.5c-0.8,0-1.4,0.2-1.9,0.6
				c-0.5,0.4-0.9,0.9-1.1,1.5c-0.2,0.6-0.3,1.3-0.3,1.9c0,0.9,0.1,1.6,0.4,2.2c0.3,0.6,0.6,1.1,1.2,1.4c0.5,0.3,1.1,0.5,1.7,0.5
				c0.7,0,1.4-0.2,1.9-0.6C119.4,131.9,119.7,131.3,119.9,130.5z"/>
			<path class="st3" d="M122.9,134v-10h7.2v1.2h-5.9v3.1h5.5v1.2h-5.5v3.4h6.1v1.2H122.9z"/>
		</g>
		<polygon class="st2" points="128.6,118.4 117.6,118.4 117.6,115.3 129.3,115.3 		"/>
		<polygon class="st2" points="130.7,118.4 128,118.4 126.8,112.2 129.5,112.2 		"/>
	</g>
</g>
<g id="XMLID_14_">
</g>
<g id="XMLID_15_">
</g>
<g id="XMLID_16_">
</g>
<g id="XMLID_17_">
</g>
<g id="XMLID_18_">
</g>
<g id="XMLID_19_">
</g>
</svg>
