<svg version="1.1" xmlns="http://www.w3.org/2000/svg" x="0" y="0" width="553.032" height="131.365" viewBox="0 0 553.032 131.365" xml:space="preserve"><path fill="#00366B" d="M55.727 52.507c0-18.021 13.723-32.827 31.287-34.555V0H21.245l-3.7 21.797H36.14l-9.919 58.398h-22.6L0 101.485h30.527l-5.14 29.88h25.52l5.142-29.88h30.965V87.032C69.449 85.31 55.727 70.528 55.727 52.507zM180.902 101.485l-3.619-21.29h-22.603l-9.918-58.398h18.599L159.658 0H93.892v17.952c17.563 1.726 31.289 16.534 31.289 34.555 0 18.021-13.725 32.805-31.289 34.525v14.453h30.964l5.142 29.88h25.519l-5.137-29.88H180.902z"/><path fill="#D01F14" d="M80.064,42.581v19.853c0,0.256,0.206,0.465,0.461,0.465h19.856c0.253,0,0.465-0.208,0.465-0.465V42.581 c0-0.256-0.212-0.464-0.465-0.464H80.525C80.27,42.117,80.064,42.325,80.064,42.581z"/><path fill="#9FA0A0" d="M210.71 0H213.055V131.366H210.71z"/><path d="M245.2 79.605v-7.178c3.353-.153 6.114-1.206 8.29-3.145 1.429-1.276 2.463-2.686 3.104-4.225.663-1.641 1.001-3.969 1.001-6.983v-7.671H245.2v-7.212h12.396V22.015h-11.705v-7.099h69.821v7.099h-12.106v21.178h12.606v7.212h-12.606v29.201h-7.212V50.404h-31.707v6.899c0 4.149-.421 7.423-1.264 9.83-1.103 3.121-3.144 5.881-6.137 8.286C253.885 78.133 249.854 79.525 245.2 79.605zM264.687 43.192h31.707V22.015h-31.707V43.192zM323.811 79.794v-6.905c3.473-.642 5.216-2.695 5.216-6.18V42.114c0-2.223-1.153-3.335-3.455-3.335h-1.761v-7.101h3.716c2.915 0 5.027.552 6.328 1.651 1.487 1.305 2.228 3.558 2.228 6.755v27.28c0 1.489.358 2.632 1.073 3.452.72.82 1.408 1.345 2.071 1.575.615.205 1.536.306 2.764.306h52.557v7.098h-51.751c-2.607 0-4.742-.357-6.412-1.073-1.172-.513-2.437-1.394-3.795-2.648-1.457 1.306-2.749 2.213-3.871 2.727C327.411 79.387 325.779 79.718 323.811 79.794zM323.924 22.127v-7.481h13.27v7.481H323.924zM341.492 68.361l-.075-29.926c0-2.998.826-5.28 2.494-6.867 1.02-.998 2.759-1.743 5.215-2.226-.868-1.461-1.65-2.956-2.337-4.489h7.475c.718 1.482 1.598 2.967 2.648 4.452h21.865c1.744-2.251 2.802-3.636 3.188-4.145.512-.719.769-1.306.769-1.763 0-1-.987-1.5-2.954-1.5l-37.213-.074v-7.059h38.515c3.148 0 5.641.661 7.482 1.995 1.791 1.279 2.686 3.005 2.686 5.178 0 1.736-.563 3.507-1.691 5.292-.202.332-.752 1.167-1.646 2.498 3.452 1.582 5.179 4.213 5.179 7.897v20.566c0 2.914-.524 5.022-1.578 6.328-1.479 1.846-3.572 2.996-6.287 3.462-1.104.199-2.954.317-5.564.341v-6.528c.359.025.744.04 1.152.04 2.862 0 4.5-.805 4.914-2.417H370.88v8.944h-7.139l-.036-8.944h-15.117v8.944H341.492zM348.588 41.005h15.117v-4.566l-12.009-.077c-1.996 0-3.019.792-3.067 2.38L348.588 41.005zM348.588 52.438h15.117v-4.375h-15.117V52.438zM370.88 41.005h15.151l-.036-2.15c-.054-1.66-.87-2.493-2.457-2.493l-12.658.077V41.005zM370.88 52.438h15.151v-4.375H370.88V52.438zM402.298 79.794v-7.098h13.392l-3.227-11.936h7.06l3.224 11.936h11.47V54.625h-29.272v-7.1h29.272v-8.401h-29.272v-3.761l-2.646.311V28.84c1.046 0 1.828-.138 2.338-.421.976-.538 2.213-2.581 3.72-6.138 1.333-3.068 2.495-5.048 3.493-5.945 1.15-1.074 2.915-1.611 5.297-1.611h40.508c2.407 0 4.065.296 4.985.879.999.669 1.779 1.436 2.341 2.305.283.407.768 1.447 1.46 3.109 1.435 3.5 2.57 5.715 3.413 6.635.613.667 1.727 1.064 3.337 1.187v6.833l-2.648-.311v3.761h-29.229v8.401h29.229v7.1h-29.229v18.072h11.505l3.224-11.936h7.096l-3.219 11.936h13.272v7.098H402.298zM411.118 32.066h53.25c-1.076-1.741-2.226-3.967-3.453-6.679-.59-1.301-1.173-2.236-1.765-2.803-.487-.458-1.511-.688-3.069-.688h-36.021c-2.021 0-3.329.319-3.917.958-.354.412-1.095 1.753-2.224 4.032C412.795 29.162 411.861 30.892 411.118 32.066zM481.17 21.708v-6.983h38.861v6.983H481.17zM481.17 79.718V51.593c0-4.938 2.457-7.405 7.364-7.405h22.905c5.833 0 8.744 2.287 8.744 6.862v20.537c0 5.392-2.647 8.095-7.94 8.095-.611 0-1.623-.052-3.027-.156v-6.983c.457.054.802.076 1.033.076 1.895 0 2.841-.869 2.841-2.604l-.041-15.698c0-1.174-.179-1.944-.537-2.304-.485-.483-1.277-.731-2.376-.731h-18.875c-1.125 0-1.945.248-2.454.731-.359.338-.539 1.026-.539 2.073v25.633H481.17zM519.111 29.224v6.869c0 2.073-.437 3.525-1.307 4.374-.839.845-2.353 1.263-4.525 1.263h-26.015c-1.812 0-3.113-.418-3.91-1.263-.763-.82-1.145-2.164-1.145-4.028v-6.481c0-2.228.404-3.723 1.222-4.49.797-.792 2.226-1.189 4.297-1.189h24.742c2.357 0 3.968.296 4.839.883C518.507 25.952 519.111 27.306 519.111 29.224zM510.101 30.374h-19.305c-.74 0-1.263.159-1.568.461-.206.18-.308.629-.308 1.346v1.57c0 .741.244 1.27.727 1.575.229.126.846.189 1.846.189h18.717c1.025 0 1.652-.126 1.88-.381.206-.206.307-.718.307-1.537v-1.034c0-.741-.138-1.288-.419-1.652C511.723 30.558 511.095 30.374 510.101 30.374zM490.417 68.558l.113-7.146h2.102l-.645-6.864h7.099l.644 6.864h1.858l.642-6.864h6.945l-.647 6.864h2.22v7.146h-6.597v11.048h-7.098V68.558H490.417zM522.252 79.718v-7.1h11.32V61.144h-2.953c-1.812-.025-3.104-.179-3.875-.457-1.484-.592-2.567-1.64-3.26-3.148-.436-.896-.651-1.871-.651-2.914v-26.93c0-1.922.459-3.454 1.385-4.608 1.352-1.661 3.297-2.493 5.826-2.493h3.528v-6.06l7.06-.076v6.136h3.303c2.58 0 4.497.679 5.754 2.037 1.2 1.303 1.797 2.9 1.797 4.794l-.035 25.936c0 2.298-.396 4-1.189 5.099-1.279 1.741-2.94 2.625-4.987 2.647l-4.642.039v11.475l.192 7.1H522.252zM533.572 54.047V27.729h-1.342c-1.535 0-2.303.95-2.303 2.84v20.792c0 1.023.217 1.741.654 2.149.331.307.947.473 1.841.501L533.572 54.047zM540.632 54.047l1.421-.037c.996-.028 1.663-.283 1.996-.771.229-.332.343-.937.343-1.8l.041-20.871c.022-1.89-1-2.84-3.069-2.84h-.731V54.047z" fill="#1F1E1D"/><path d="M245.206 116.488V92.907h3.118v11.706l11.71-11.706h4.231l-9.895 9.56 10.328 14.021h-4.115l-8.395-11.937-3.865 3.78v8.156H245.206zM264.719 116.488l9.051-23.581h3.366l9.65 23.581h-3.552l-2.748-7.134h-9.869l-2.59 7.134H264.719zM271.521 106.812h7.998l-2.47-6.526c-.738-1.989-1.301-3.616-1.669-4.896-.296 1.518-.717 3.014-1.271 4.494L271.521 106.812zM289.809 116.488V92.907h3.12v23.581H289.809zM313.589 116.488V95.693h-7.772v-2.786h18.698v2.786h-7.802v20.795H313.589zM326.763 105.013c0-3.917 1.057-6.982 3.161-9.196 2.095-2.213 4.814-3.331 8.134-3.331 2.181 0 4.146.522 5.889 1.577 1.748 1.036 3.078 2.479 3.997 4.342.925 1.865 1.379 3.975 1.379 6.34 0 2.386-.487 4.529-1.455 6.415-.959 1.885-2.333 3.323-4.095 4.272-1.777.978-3.686 1.478-5.732 1.478-2.218 0-4.199-.539-5.947-1.616-1.748-1.073-3.071-2.534-3.975-4.403C327.216 109.047 326.763 107.08 326.763 105.013zM329.987 105.064c0 2.846.759 5.078 2.282 6.709 1.531 1.645 3.451 2.458 5.757 2.458 2.346 0 4.283-.823 5.803-2.486 1.51-1.645 2.273-3.989 2.273-7.018 0-1.925-.325-3.597-.974-5.038-.654-1.426-1.6-2.544-2.846-3.321-1.245-.798-2.653-1.188-4.206-1.188-2.218 0-4.114.764-5.709 2.27C330.78 98.974 329.987 101.506 329.987 105.064zM353.311 116.488V92.907h3.202l12.391 18.515V92.907h2.987v23.581h-3.195l-12.391-18.517v18.517H353.311zM388.169 107.248v-2.771l9.986-.018v8.753c-1.532 1.229-3.111 2.14-4.739 2.754-1.629.632-3.305.942-5.021.942-2.314 0-4.42-.513-6.314-1.49-1.892-1.001-3.323-2.428-4.287-4.321-.962-1.869-1.444-3.961-1.444-6.276 0-2.295.479-4.438 1.438-6.423.957-2.005 2.337-3.485 4.136-4.437 1.808-.962 3.883-1.458 6.236-1.458 1.697 0 3.239.291 4.618.828 1.379.557 2.466 1.334 3.247 2.323.777.974 1.379 2.267 1.785 3.854l-2.821.776c-.353-1.207-.794-2.15-1.318-2.836s-1.278-1.241-2.244-1.651c-.984-.414-2.062-.618-3.258-.618-1.424 0-2.652.218-3.697.657-1.039.436-1.877.993-2.516 1.72-.64.698-1.141 1.481-1.493 2.327-.603 1.456-.896 3.039-.896 4.747 0 2.101.359 3.851 1.083 5.274.728 1.401 1.782 2.46 3.166 3.15 1.383.684 2.854 1.02 4.398 1.02 1.358 0 2.678-.244 3.965-.766 1.283-.521 2.265-1.078 2.927-1.68v-4.383H388.169zM412.078 116.488V92.907h15.905v2.786h-12.788v7.304h11.073v2.792h-11.073v10.699H412.078zM432.58 116.488V92.907h3.117v23.581H432.58zM441.165 116.488V92.907h3.201l12.384 18.515V92.907h2.996v23.581h-3.206l-12.378-18.517v18.517H441.165zM462.405 116.488l9.047-23.581h3.371l9.65 23.581h-3.555l-2.753-7.134h-9.86l-2.59 7.134H462.405zM469.204 106.812h7.997l-2.467-6.526c-.745-1.989-1.306-3.616-1.668-4.896-.297 1.518-.72 3.014-1.273 4.494L469.204 106.812zM486.936 116.488V92.907h3.195l12.392 18.515V92.907h2.987v23.581h-3.197l-12.385-18.517v18.517H486.936zM527.587 108.235l3.12.778c-.659 2.567-1.828 4.514-3.528 5.873-1.702 1.338-3.787 2.022-6.231 2.022-2.546 0-4.61-.522-6.204-1.567-1.596-1.031-2.806-2.536-3.636-4.489-.836-1.973-1.251-4.079-1.251-6.312 0-2.464.467-4.613 1.413-6.446.936-1.813 2.271-3.205 4.003-4.153s3.637-1.437 5.723-1.437c2.354 0 4.344.613 5.945 1.806 1.614 1.207 2.735 2.897 3.368 5.062l-3.075.726c-.553-1.703-1.342-2.962-2.378-3.74-1.049-.793-2.35-1.177-3.929-1.177-1.815 0-3.327.438-4.543 1.311-1.22.856-2.076 2.017-2.571 3.498-.487 1.466-.741 2.96-.741 4.528 0 2.005.298 3.746.883 5.244.589 1.497 1.495 2.608 2.724 3.35 1.237.738 2.576 1.12 4.009 1.12 1.744 0 3.225-.499 4.441-1.518C526.345 111.715 527.158 110.217 527.587 108.235zM534.616 116.488V92.907h17.059v2.786h-13.938v7.23h13.041v2.769h-13.041v8.025h14.478v2.771H534.616z" fill="#595757"/><path fill="#1F1E1D" d="M548.026 79.738L522.177 79.738 522.177 72.618 549.697 72.618"/><path fill="#1F1E1D" d="M553.032 79.738L546.665 79.738 543.805 65.225 550.169 65.225"/></svg>