<svg version="1.1" id="图层_1" xmlns="http://www.w3.org/2000/svg" x="0" y="0" viewBox="0 0 130.7 134.1" xml:space="preserve"><style type="text/css">.st0{fill:#00366B;} .st1{fill:#D01F14;} .st2{fill:#1F1E1D;} .st3{fill:#595757;}</style><path class="st0" d="M44.6 31.2c0-10.7 8.1-19.5 18.6-20.5V0h-39l-2.2 12.9h11l-5.9 34.7H13.6l-2.1 12.6h18.1L26.6 78h15.1l3.1-17.7h18.4v-8.6C52.7 50.6 44.6 41.9 44.6 31.2zM118.9 60.3l-2.1-12.6h-13.4l-5.9-34.7h11L106.3 0h-39v10.7c10.4 1 18.6 9.8 18.6 20.5 0 10.7-8.1 19.5-18.6 20.5v8.6h18.4L88.7 78h15.1l-3.1-17.7H118.9z"/><path class="st1" d="M59,25.3v11.8c0,0.2,0.1,0.3,0.3,0.3h11.8c0.1,0,0.3-0.1,0.3-0.3V25.3c0-0.2-0.1-0.3-0.3-0.3H59.3 C59.1,25,59,25.1,59,25.3z"/><path class="st2" d="M0 118.3v-3c1.4-.1 2.6-.5 3.5-1.3.6-.5 1-1.1 1.3-1.8.3-.7.4-1.7.4-3v-3.3H0v-3.1h5.3v-9h-5v-3h29.6v3h-5.1v9h5.4v3.1h-5.4v12.4h-3.1v-12.4H8.3v2.9c0 1.8-.2 3.2-.5 4.2-.5 1.3-1.3 2.5-2.6 3.5C3.7 117.7 2 118.3 0 118.3zM8.3 102.8h13.5v-9H8.3V102.8zM33.4 118.4v-2.9c1.5-.3 2.2-1.1 2.2-2.6v-10.4c0-.9-.5-1.4-1.5-1.4h-.7v-3H35c1.2 0 2.1.2 2.7.7.6.6.9 1.5.9 2.9v11.6c0 .6.2 1.1.5 1.5.3.3.6.6.9.7.3.1.7.1 1.2.1h22.3v3h-22c-1.1 0-2-.2-2.7-.5-.5-.2-1-.6-1.6-1.1-.6.6-1.2.9-1.6 1.2C34.9 118.2 34.2 118.4 33.4 118.4zM33.4 93.9v-3.2h5.6v3.2H33.4zM40.9 113.5l0-12.7c0-1.3.4-2.2 1.1-2.9.4-.4 1.2-.7 2.2-.9-.4-.6-.7-1.3-1-1.9h3.2c.3.6.7 1.3 1.1 1.9h9.3c.7-1 1.2-1.5 1.4-1.8.2-.3.3-.6.3-.7 0-.4-.4-.6-1.3-.6l-15.8 0v-3h16.4c1.3 0 2.4.3 3.2.8.8.5 1.1 1.3 1.1 2.2 0 .7-.2 1.5-.7 2.2-.1.1-.3.5-.7 1.1 1.5.7 2.2 1.8 2.2 3.4v8.7c0 1.2-.2 2.1-.7 2.7-.6.8-1.5 1.3-2.7 1.5-.5.1-1.3.1-2.4.1v-2.8c.2 0 .3 0 .5 0 1.2 0 1.9-.3 2.1-1h-6.3v3.8h-3l0-3.8h-6.4v3.8H40.9zM43.9 101.9h6.4V100l-5.1 0c-.8 0-1.3.3-1.3 1L43.9 101.9zM43.9 106.8h6.4v-1.9h-6.4V106.8zM53.4 101.9h6.4l0-.9c0-.7-.4-1.1-1-1.1l-5.4 0V101.9zM53.4 106.8h6.4v-1.9h-6.4V106.8zM66.7 118.4v-3h5.7l-1.4-5.1h3l1.4 5.1h4.9v-7.7H67.8v-3h12.4v-3.6H67.8v-1.6l-1.1.1v-2.9c.4 0 .8-.1 1-.2.4-.2.9-1.1 1.6-2.6.6-1.3 1.1-2.1 1.5-2.5.5-.5 1.2-.7 2.2-.7h17.2c1 0 1.7.1 2.1.4.4.3.8.6 1 1 .1.2.3.6.6 1.3.6 1.5 1.1 2.4 1.4 2.8.3.3.7.5 1.4.5v2.9l-1.1-.1v1.6H83.3v3.6h12.4v3H83.3v7.7h4.9l1.4-5.1h3l-1.4 5.1h5.6v3H66.7zM70.5 98.1h22.6c-.5-.7-.9-1.7-1.5-2.8-.2-.6-.5-1-.7-1.2-.2-.2-.6-.3-1.3-.3H74.3c-.9 0-1.4.1-1.7.4-.2.2-.5.7-.9 1.7C71.2 96.9 70.8 97.6 70.5 98.1zM100.2 93.7v-3h16.5v3H100.2zM100.2 118.4v-11.9c0-2.1 1-3.1 3.1-3.1h9.7c2.5 0 3.7 1 3.7 2.9v8.7c0 2.3-1.1 3.4-3.4 3.4-.3 0-.7 0-1.3-.1v-3c.2 0 .3 0 .4 0 .8 0 1.2-.4 1.2-1.1l0-6.7c0-.5-.1-.8-.2-1-.2-.2-.5-.3-1-.3h-8c-.5 0-.8.1-1 .3-.2.1-.2.4-.2.9v10.9H100.2zM116.3 96.9v2.9c0 .9-.2 1.5-.6 1.9-.4.4-1 .5-1.9.5h-11c-.8 0-1.3-.2-1.7-.5-.3-.3-.5-.9-.5-1.7v-2.8c0-.9.2-1.6.5-1.9.3-.3.9-.5 1.8-.5h10.5c1 0 1.7.1 2.1.4C116.1 95.5 116.3 96.1 116.3 96.9zM112.5 97.4h-8.2c-.3 0-.5.1-.7.2-.1.1-.1.3-.1.6v.7c0 .3.1.5.3.7.1.1.4.1.8.1h7.9c.4 0 .7-.1.8-.2.1-.1.1-.3.1-.7v-.4c0-.3-.1-.5-.2-.7C113.2 97.5 112.9 97.4 112.5 97.4zM104.1 113.6l0-3h.9l-.3-2.9h3l.3 2.9h.8l.3-2.9h2.9l-.3 2.9h.9v3H110v4.7h-3v-4.7H104.1zM117.6 118.4v-3h4.8v-4.9h-1.3c-.8 0-1.3-.1-1.6-.2-.6-.3-1.1-.7-1.4-1.3-.2-.4-.3-.8-.3-1.2V96.3c0-.8.2-1.5.6-2 .6-.7 1.4-1.1 2.5-1.1h1.5v-2.6l3 0v2.6h1.4c1.1 0 1.9.3 2.4.9.5.6.8 1.2.8 2l0 11c0 1-.2 1.7-.5 2.2-.5.7-1.2 1.1-2.1 1.1l-2 0v4.9l.1 3H117.6zM122.5 107.5V96.3h-.6c-.7 0-1 .4-1 1.2v8.8c0 .4.1.7.3.9.1.1.4.2.8.2L122.5 107.5zM125.5 107.5l.6 0c.4 0 .7-.1.8-.3.1-.1.1-.4.1-.8l0-8.9c0-.8-.4-1.2-1.3-1.2h-.3V107.5z"/><path class="st3" d="M0 134v-10h1.3v5l5-5h1.8L3.9 128l4.4 6H6.5L3 128.9l-1.6 1.6v3.5H0zM8.3 134l3.8-10h1.4l4.1 10h-1.5l-1.2-3h-4.2l-1.1 3H8.3zM11.2 129.9h3.4l-1-2.8c-.3-.8-.6-1.5-.7-2.1-.1.6-.3 1.3-.5 1.9L11.2 129.9zM18.9 134v-10h1.3v10H18.9zM29 134v-8.8h-3.3V124h7.9v1.2h-3.3v8.8H29zM34.6 129.1c0-1.7.4-3 1.3-3.9.9-.9 2-1.4 3.5-1.4.9 0 1.8.2 2.5.7.7.4 1.3 1.1 1.7 1.8.4.8.6 1.7.6 2.7 0 1-.2 1.9-.6 2.7-.4.8-1 1.4-1.7 1.8-.8.4-1.6.6-2.4.6-.9 0-1.8-.2-2.5-.7-.7-.5-1.3-1.1-1.7-1.9C34.8 130.8 34.6 130 34.6 129.1zM36 129.1c0 1.2.3 2.2 1 2.8.6.7 1.5 1 2.4 1 1 0 1.8-.3 2.5-1.1.6-.7 1-1.7 1-3 0-.8-.1-1.5-.4-2.1-.3-.6-.7-1.1-1.2-1.4-.5-.3-1.1-.5-1.8-.5-.9 0-1.7.3-2.4 1C36.3 126.5 36 127.6 36 129.1zM45.9 134v-10h1.4l5.3 7.9V124h1.3v10h-1.4l-5.3-7.9v7.9H45.9zM60.7 130v-1.2l4.2 0v3.7c-.7.5-1.3.9-2 1.2-.7.3-1.4.4-2.1.4-1 0-1.9-.2-2.7-.6-.8-.4-1.4-1-1.8-1.8-.4-.8-.6-1.7-.6-2.7 0-1 .2-1.9.6-2.7.4-.9 1-1.5 1.8-1.9.8-.4 1.6-.6 2.6-.6.7 0 1.4.1 2 .4.6.2 1 .6 1.4 1 .3.4.6 1 .8 1.6l-1.2.3c-.1-.5-.3-.9-.6-1.2-.2-.3-.5-.5-1-.7-.4-.2-.9-.3-1.4-.3-.6 0-1.1.1-1.6.3-.4.2-.8.4-1.1.7-.3.3-.5.6-.6 1-.3.6-.4 1.3-.4 2 0 .9.2 1.6.5 2.2.3.6.8 1 1.3 1.3.6.3 1.2.4 1.9.4.6 0 1.1-.1 1.7-.3.5-.2 1-.5 1.2-.7V130H60.7zM70.9 134v-10h6.8v1.2h-5.4v3.1h4.7v1.2h-4.7v4.5H70.9zM79.6 134v-10h1.3v10H79.6zM83.2 134v-10h1.4l5.3 7.9V124h1.3v10h-1.4l-5.3-7.9v7.9H83.2zM92.2 134l3.8-10h1.4l4.1 10h-1.5l-1.2-3h-4.2l-1.1 3H92.2zM95.1 129.9h3.4l-1-2.8c-.3-.8-.6-1.5-.7-2.1-.1.6-.3 1.3-.5 1.9L95.1 129.9zM102.7 134v-10h1.4l5.3 7.9V124h1.3v10h-1.4l-5.3-7.9v7.9H102.7zM119.9 130.5l1.3.3c-.3 1.1-.8 1.9-1.5 2.5-.7.6-1.6.9-2.6.9-1.1 0-2-.2-2.6-.7-.7-.4-1.2-1.1-1.5-1.9-.4-.8-.5-1.7-.5-2.7 0-1 .2-2 .6-2.7.4-.8 1-1.4 1.7-1.8.7-.4 1.5-.6 2.4-.6 1 0 1.8.3 2.5.8.7.5 1.2 1.2 1.4 2.2l-1.3.3c-.2-.7-.6-1.3-1-1.6-.4-.3-1-.5-1.7-.5-.8 0-1.4.2-1.9.6-.5.4-.9.9-1.1 1.5-.2.6-.3 1.3-.3 1.9 0 .9.1 1.6.4 2.2.3.6.6 1.1 1.2 1.4.5.3 1.1.5 1.7.5.7 0 1.4-.2 1.9-.6C119.4 131.9 119.7 131.3 119.9 130.5zM122.9 134v-10h7.2v1.2h-5.9v3.1h5.5v1.2h-5.5v3.4h6.1v1.2H122.9z"/><path class="st2" d="M128.6 118.4L117.6 118.4 117.6 115.3 129.3 115.3z"/><path class="st2" d="M130.7 118.4L128 118.4 126.8 112.2 129.5 112.2z"/></svg>