<svg xmlns="http://www.w3.org/2000/svg"><symbol id="symbol--adduser" viewBox="0 0 28.4 28.2"><style>.ast0{fill:none;stroke:#fff;stroke-linecap:round;stroke-linejoin:round;stroke-miterlimit:10}</style><path class="ast0" d="M23.8 24.8c0-2.6-7.1-4.7-7.1-4.7-2.7-1.4-.3-6.6-.3-6.6s1.9-4.3 1.9-6.3c0-3.7-2.8-6.7-6.2-6.7S6 3.5 6 7.2c0 1.5.5 3.3 1.2 4.9l.6 1.2s2.4 5.2-.3 6.6c0 0-7.1 2.1-7.1 4.7 0 0-.4 2.7 2 2.9l18.9.1c3 .1 2.5-2.8 2.5-2.8zM21.3 4.5h6.6M24.6 7.9V1.2"/></symbol><symbol viewBox="0 0 30 26" id="symbol--link"><circle cx="4.7" cy="21.3" r="4.2"/><circle cx="25.3" cy="21.3" r="4.2"/><circle cx="15" cy="4.7" r="4.2"/><path d="M12.8 8.2l-5.9 9.5c1.2.7 2 2 2 3.5h12.3c0-1.5.8-2.8 2-3.5l-5.9-9.5"/></symbol><symbol viewBox="0 0 28 29.6" id="symbol--ring"><path class="cst0" d="M27.5 25.2l-4.9-4.8h-.1l-.1-11.5c-.7-4.1-4.3-7.3-8.7-7.3S5.9 4.8 5.1 8.9L5 20.7.5 25.2h27z"/><path class="cst1" d="M11.3 27c.2 1.5 1.4 2.6 2.9 2.6s2.7-1.2 2.9-2.6h-5.8zM13.8 1.7c.5 0 1 0 1.5.1 0-.1.1-.3.1-.4C15.4.6 14.8 0 14 0s-1.4.6-1.4 1.4c0 .1 0 .3.1.4.4-.1.7-.1 1.1-.1z"/></symbol><symbol viewBox="0 0 29.6 24.1" id="symbol--team"><path class="dst0" d="M10.6 17.1c.6-.3.9-.8 1-1.4-1-.5-1.9-.8-1.9-.8-1.5-.8-.2-3.7-.2-3.7s.3-.6.5-1.4c-.4-1.2-.8-2.5-.8-3.6 0-.5.1-.9.2-1.4-.6-.6-1.4-1-2.3-1-1.9 0-3.5 1.7-3.5 3.8 0 .9.3 1.9.7 2.8.1.2.4.7.4.7s1.4 3-.2 3.7c0 0-4 1.2-4 2.7 0 0-.2 1.5 1.1 1.6h4.3c1.8-1.2 4.7-2 4.7-2zM29.1 17.6c0-1.5-4-2.7-4-2.7-1.5-.8-.2-3.7-.2-3.7S26 8.8 26 7.7c0-2.1-1.6-3.8-3.5-3.8-1.2 0-2.2.6-2.8 1.6 0 .2.1.5.1.8 0 .7-.3 1.7-.6 2.6.1.5.3 1.1.6 1.6.1.2.4.7.4.7s1.4 3-.2 3.7c0 0-1.4.4-2.5 1.1.1.5.4.9 1 1.2 0 0 2.8.8 4.6 2.1h4.8c1.5 0 1.2-1.7 1.2-1.7z"/><path class="dst0" d="M24.4 21.2c0-2.2-6-4-6-4-2.3-1.2-.2-5.6-.2-5.6s1.6-3.6 1.6-5.3c0-3.2-2.3-5.7-5.2-5.7S9.2 3.1 9.2 6.2c0 1.3.4 2.8 1.1 4.2l.5 1s2.1 4.4-.2 5.6c0 0-6 1.8-6 4 0 0-.4 2.3 1.7 2.4l16.1.1c2.4.1 2-2.3 2-2.3z"/></symbol></svg>