<svg version="1.1" xmlns="http://www.w3.org/2000/svg" xmlns:xlink="http://www.w3.org/1999/xlink" x="0" y="0" width="68.9" height="48.279" viewBox="0 0 68.9 48.279" xml:space="preserve"><path fill="#F7F9FA" d="M13.507 3.587H63.783V35.068000000000005H13.507z"/><defs><path id="a" d="M4 2.928H64.44V45.278999999999996H4z"/></defs><clipPath id="b"><use xlink:href="#a" overflow="visible"/></clipPath><path clip-path="url(#b)" fill="none" stroke="#EB6100" stroke-width="1.5" stroke-linecap="round" stroke-linejoin="round" stroke-miterlimit="10" d="M13.506 3.587H63.782000000000004V35.068000000000005H13.506z"/><path fill="none" stroke="#EB6100" stroke-width="1.5" stroke-linecap="round" stroke-linejoin="round" stroke-miterlimit="10" d="M9.122 9.146L9.122 39.844 58.614 39.844"/><defs><path id="c" d="M4 2.928H64.44V45.278999999999996H4z"/></defs><clipPath id="d"><use xlink:href="#c" overflow="visible"/></clipPath><path clip-path="url(#d)" fill="none" stroke="#EB6100" stroke-width="1.5" stroke-linecap="round" stroke-linejoin="round" stroke-miterlimit="10" d="M4.658 13.923L4.658 44.621 56.656 44.621"/><path clip-path="url(#d)" fill="#FFF" d="M44.126,19.327c0,3.027-2.454,5.481-5.481,5.481s-5.481-2.454-5.481-5.481 s2.454-5.482,5.481-5.482S44.126,16.299,44.126,19.327"/><circle clip-path="url(#d)" fill="none" stroke="#EB6100" stroke-width="1.5" stroke-linecap="round" stroke-linejoin="round" stroke-miterlimit="10" cx="38.645" cy="19.327" r="5.481"/><path clip-path="url(#d)" fill="#FFF" d="M17.109 30.525L24.157 30.525"/><path clip-path="url(#d)" fill="none" stroke="#EB6100" stroke-width="1.5" stroke-linecap="round" stroke-linejoin="round" stroke-miterlimit="10" d="M17.109 30.525L24.157 30.525"/><path clip-path="url(#d)" fill="#FFF" d="M17.109 8.128L24.157 8.128"/><path clip-path="url(#d)" fill="none" stroke="#EB6100" stroke-width="1.5" stroke-linecap="round" stroke-linejoin="round" stroke-miterlimit="10" d="M17.109 8.128L24.157 8.128"/><path clip-path="url(#d)" fill="#FFF" d="M53.445 30.525L60.492 30.525"/><path clip-path="url(#d)" fill="none" stroke="#EB6100" stroke-width="1.5" stroke-linecap="round" stroke-linejoin="round" stroke-miterlimit="10" d="M53.445 30.525L60.492 30.525"/><path clip-path="url(#d)" fill="#FFF" d="M53.445 8.128L60.492 8.128"/><path clip-path="url(#d)" fill="none" stroke="#EB6100" stroke-width="1.5" stroke-linecap="round" stroke-linejoin="round" stroke-miterlimit="10" d="M53.445 8.128L60.492 8.128"/></svg>