<svg version="1.1" xmlns="http://www.w3.org/2000/svg" xmlns:xlink="http://www.w3.org/1999/xlink" x="0" y="0" width="66.37" height="69.329" viewBox="0 0 66.37 69.329" xml:space="preserve"><defs><path id="a" d="M0 0H66.37V69.328H0z"/></defs><clipPath id="b"><use xlink:href="#a" overflow="visible"/></clipPath><path clip-path="url(#b)" fill="#F7F9FA" d="M20.898,8.36c0,0,0.152,6.159,0.38,7.527c0.228,1.369,2.509-0.456,2.509-0.456 v-4.942L20.898,8.36z"/><path clip-path="url(#b)" fill="none" stroke="#EB6100" stroke-width="1.5" stroke-miterlimit="10" d="M20.898,8.36 c0,0,0.152,6.159,0.38,7.527c0.228,1.369,2.509-0.456,2.509-0.456v-4.942L20.898,8.36z"/><path clip-path="url(#b)" fill="#F7F9FA" d="M55.322,10.216c0,5.228-4.238,9.466-9.466,9.466 c-5.229,0-9.466-4.238-9.466-9.466s4.237-9.466,9.466-9.466C51.084,0.75,55.322,4.988,55.322,10.216"/><circle clip-path="url(#b)" fill="none" stroke="#EB6100" stroke-width="1.5" stroke-miterlimit="10" cx="45.856" cy="10.216" r="9.466"/><path clip-path="url(#b)" fill="#F7F9FA" d="M65.615,19.927c-0.285-2.851-3.203-3.279-3.659-3.279s-0.874,0.095-0.531,0.532 c0.627,0.856,0.684,2.053-0.609,2.129c-0.667,0.039-2.875-0.631-4.854-1.288c-0.397-0.299-0.805-0.589-1.223-0.87 c-5.125-3.449-11.697-5.521-18.862-5.521c-0.481,0-0.96,0.012-1.437,0.031c-0.88-1.152-5.802-6.933-14.378-4.669 c0,0,2.357,4.106,2.738,6.767c0.016,0.116,0.029,0.222,0.042,0.329c-6.597,2.639-11.815,7.219-14.538,12.826 c-1.685,0.613-6.068,2.358-6.528,4.104c-0.57,2.167-2.509,11.405,1.141,14.257c3.649,2.851,12.141,8.962,12.141,8.962 s4.447,13.001,4.562,13.694c0.152,0.913,12.25,0.375,12.25,0.375s-1.011-7.026,5.375-7.482c6.388-0.457,6.235,7.755,6.235,7.755 h11.709v-1.369c0.152-5.322,4.95-13.183,7.603-18.096c2.566-4.752,2.737-12.158,2.737-13.305c0-3.919-1.151-7.615-3.18-10.889 C64.118,24.682,65.229,23.188,65.615,19.927"/><path clip-path="url(#b)" fill="none" stroke="#EB6100" stroke-width="1.5" stroke-miterlimit="10" d="M65.615,19.927 c-0.285-2.851-3.203-3.279-3.659-3.279s-0.874,0.095-0.531,0.532c0.627,0.856,0.684,2.053-0.609,2.129 c-0.667,0.039-2.875-0.631-4.854-1.288c-0.397-0.299-0.805-0.589-1.223-0.87c-5.125-3.449-11.697-5.521-18.862-5.521 c-0.481,0-0.96,0.012-1.437,0.031c-0.88-1.152-5.802-6.933-14.378-4.669c0,0,2.357,4.106,2.738,6.767 c0.016,0.116,0.029,0.222,0.042,0.329c-6.597,2.639-11.815,7.219-14.538,12.826c-1.685,0.613-6.068,2.358-6.528,4.104 c-0.57,2.167-2.509,11.405,1.141,14.257c3.649,2.851,12.141,8.962,12.141,8.962s4.447,13.001,4.562,13.694 c0.152,0.913,12.25,0.375,12.25,0.375s-1.011-7.026,5.375-7.482c6.388-0.457,6.235,7.755,6.235,7.755h11.709v-1.369 c0.152-5.322,4.95-13.183,7.603-18.096c2.566-4.752,2.737-12.158,2.737-13.305c0-3.919-1.151-7.615-3.18-10.889 C64.118,24.682,65.229,23.188,65.615,19.927z"/><path fill="#EB6100" d="M48.037,6.897l-1.565,2.644h1.369v0.47h-1.677v0.744h1.677v0.471h-1.677v1.557h-0.616v-1.557H43.88v-0.471 h1.668v-0.744H43.88v-0.47h1.36l-1.583-2.644h0.685l1.522,2.592l1.506-2.592H48.037z"/></svg>