<svg version="1.1" xmlns="http://www.w3.org/2000/svg" xmlns:xlink="http://www.w3.org/1999/xlink" x="0" y="0" width="70" height="70" viewBox="0 0 70 70" xml:space="preserve"><defs><path id="a" d="M0 0H70V70H0z"/></defs><clipPath id="b"><use xlink:href="#a" overflow="visible"/></clipPath><circle clip-path="url(#b)" fill="none" stroke="#EB6100" stroke-width="1.5" stroke-linecap="round" stroke-linejoin="round" stroke-miterlimit="10" cx="35" cy="35" r="33.5"/><path clip-path="url(#b)" fill="#EB6100" d="M37.667,35c0,1.473-1.194,2.667-2.667,2.667c-1.472,0-2.666-1.194-2.666-2.667 c0-1.473,1.194-2.667,2.666-2.667C36.473,32.333,37.667,33.527,37.667,35"/><path clip-path="url(#b)" fill="#EB6100" d="M38.572 37.436L17.375 30.075 39.19 35.331M48.625 55.182L21.375 55.182 20.375 53.182 49.625 53.182M41.431 60.932L28.569 60.932 27.569 58.932 42.431 58.932"/><path transform="matrix(-0.2607 -0.9654 0.9654 -0.2607 -27.0161 64.0481)" clip-path="url(#b)" fill="#EB6100" d="M9.821 39.332H12.211V45.405H9.821z"/><path transform="matrix(-0.0123 -0.9999 0.9999 -0.0123 -24.6592 44.6765)" clip-path="url(#b)" fill="#EB6100" d="M8.542 31.481H10.931V37.555H8.542z"/><path transform="matrix(0.3343 -0.9425 0.9425 0.3343 -17.6606 28.1571)" clip-path="url(#b)" fill="#EB6100" d="M9.907 23.543H12.296V29.616999999999997H9.907z"/><path transform="matrix(0.637 -0.7709 0.7709 0.637 -10.0235 18.3908)" clip-path="url(#b)" fill="#EB6100" d="M13.321 16.802H15.709999999999999V22.875H13.321z"/><path transform="matrix(0.8328 -0.5535 0.5535 0.8328 -4.5616 13.3927)" clip-path="url(#b)" fill="#EB6100" d="M18.697 11.212H21.087V17.285H18.697z"/><path transform="matrix(0.9475 -0.3198 0.3198 0.9475 -1.9732 9.1408)" clip-path="url(#b)" fill="#EB6100" d="M25.653 7.542H28.043V13.615H25.653z"/><path clip-path="url(#b)" fill="#EB6100" d="M33.632 6.433H36.022V12.549H33.632z"/><path transform="matrix(0.2607 -0.9654 0.9654 0.2607 2.7047 88.2691)" clip-path="url(#b)" fill="#EB6100" d="M57.788 39.332H60.178V45.405H57.788z"/><path transform="matrix(0.0119 -0.9999 0.9999 0.0119 25.0336 94.3673)" clip-path="url(#b)" fill="#EB6100" d="M59.069 31.481H61.458000000000006V37.554H59.069z"/><path transform="matrix(-0.3343 -0.9425 0.9425 -0.3343 53.5382 90.976)" clip-path="url(#b)" fill="#EB6100" d="M57.704 23.543H60.093V29.616999999999997H57.704z"/><path transform="matrix(-0.6369 -0.771 0.771 -0.6369 75.5267 75.2494)" clip-path="url(#b)" fill="#EB6100" d="M54.29 16.802H56.679V22.875H54.29z"/><path transform="matrix(-0.8328 -0.5535 0.5535 -0.8328 83.9527 53.851)" clip-path="url(#b)" fill="#EB6100" d="M48.913 11.212H51.303V17.286H48.913z"/><path transform="matrix(-0.9475 -0.3198 0.3198 -0.9475 80.6544 34.404)" clip-path="url(#b)" fill="#EB6100" d="M41.958 7.542H44.347V13.616H41.958z"/><path clip-path="url(#b)" fill="#EB6100" d="M35,27.5c-2.888,0-5.395,1.643-6.648,4.041l1.007,0.243 C30.48,29.825,32.586,28.5,35,28.5c3.584,0,6.5,2.916,6.5,6.5c0,3.583-2.916,6.5-6.5,6.5c-3.533,0-6.41-2.835-6.492-6.348 l-0.998-0.347C27.508,34.871,27.5,34.934,27.5,35c0,4.136,3.364,7.5,7.5,7.5c4.136,0,7.5-3.363,7.5-7.5S39.136,27.5,35,27.5"/></svg>