<svg version="1.1" xmlns="http://www.w3.org/2000/svg" xmlns:xlink="http://www.w3.org/1999/xlink" x="0" y="0" width="90" height="90" viewBox="0 0 90 90" xml:space="preserve"><defs><path id="a" d="M0 0H90V90H0z"/></defs><clipPath id="b"><use xlink:href="#a" overflow="visible"/></clipPath><path clip-path="url(#b)" fill="#EB6100" d="M84.981,84.979c-1.159,1.132-2.768,1.345-3.592,0.477L55.516,58.218 c-0.824-0.867-0.554-2.488,0.606-3.618c1.159-1.131,2.768-1.344,3.593-0.476L85.589,81.36 C86.412,82.228,86.141,83.848,84.981,84.979"/><path clip-path="url(#b)" fill="#EB6100" d="M78.448,41.756c0,20.846-16.681,37.745-37.256,37.745 c-20.576,0-37.257-16.898-37.257-37.745S20.616,4.011,41.192,4.011C61.768,4.011,78.448,20.91,78.448,41.756"/><path clip-path="url(#b)" fill="#FFF" d="M73.452,41.756c0,18.051-14.443,32.684-32.261,32.684 c-17.817,0-32.261-14.633-32.261-32.684c0-18.051,14.444-32.684,32.261-32.684C59.009,9.072,73.452,23.706,73.452,41.756"/><path clip-path="url(#b)" fill="#EB6100" d="M40.394 28.876c.103-.608.138-1.164.138-1.943V25.23h-2.519c-.771 0-1.2.034-1.782.14v-1.302c.582.104 1.011.138 1.782.138h2.519v-.832l-.669-1.025h-1.85c-.771 0-1.2.034-1.782.14v-1.302c.582.103 1.011.138 1.782.138h1.199l-2.656-4.133c-.497-.779-.77-1.18-1.028-1.509h1.833c.138.398.291.73.84 1.597l2.998 4.895 2.982-4.895c.497-.816.703-1.199.822-1.597h1.852c-.24.295-.6.799-1.062 1.509l-2.639 4.133h1.2c.771 0 1.216-.035 1.798-.138v1.302c-.582-.106-1.044-.14-1.798-.14h-1.834l-.685 1.041v.816h2.519c.754 0 1.199-.034 1.781-.138v1.302c-.582-.106-1.045-.14-1.781-.14h-2.519v1.703c0 .867.034 1.318.137 1.943H40.394zM53.572 43.905c0 2.147-1.718 3.887-3.836 3.887h-19.88c-2.119 0-3.836-1.739-3.836-3.887 0-2.147 1.717-3.887 3.836-3.887h19.88C51.854 40.018 53.572 41.758 53.572 43.905M56.362 52.814c0 2.146-1.718 3.887-3.836 3.887h-19.88c-2.119 0-3.836-1.74-3.836-3.887 0-2.147 1.717-3.888 3.836-3.888h19.88C54.645 48.927 56.362 50.667 56.362 52.814M56.362 34.997c0 2.147-1.718 3.887-3.836 3.887h-19.88c-2.119 0-3.836-1.74-3.836-3.887s1.717-3.887 3.836-3.887h19.88C54.645 31.109 56.362 32.85 56.362 34.997M53.572 61.723c0 2.147-1.718 3.888-3.836 3.888h-19.88c-2.119 0-3.836-1.74-3.836-3.888 0-2.146 1.717-3.887 3.836-3.887h19.88C51.854 57.836 53.572 59.576 53.572 61.723"/></svg>