<svg version="1.1" xmlns="http://www.w3.org/2000/svg" xmlns:xlink="http://www.w3.org/1999/xlink" x="0" y="0" width="90" height="90" viewBox="0 0 90 90" xml:space="preserve"><defs><path id="a" d="M0 0H90V90H0z"/></defs><clipPath id="b"><use xlink:href="#a" overflow="visible"/></clipPath><path clip-path="url(#b)" fill="#EB6100" d="M84.981,84.979c-1.159,1.132-2.768,1.345-3.592,0.477L55.516,58.218 c-0.824-0.867-0.553-2.488,0.606-3.618c1.159-1.131,2.768-1.344,3.593-0.476L85.589,81.36 C86.412,82.228,86.141,83.848,84.981,84.979"/><path clip-path="url(#b)" fill="#EB6100" d="M78.559,41.756c0,20.846-16.705,37.745-37.312,37.745 c-20.606,0-37.312-16.898-37.312-37.745S20.641,4.011,41.247,4.011C61.854,4.011,78.559,20.91,78.559,41.756"/><path clip-path="url(#b)" fill="#FFF" d="M73.556,41.756c0,18.051-14.465,32.684-32.309,32.684 c-17.844,0-32.309-14.633-32.309-32.684c0-18.051,14.465-32.684,32.309-32.684C59.091,9.072,73.556,23.706,73.556,41.756"/><path clip-path="url(#b)" fill="#EB6100" d="M35.482 8.265c-.016.186-.055.364-.055.554v7.763c0 3.572 2.863 6.468 6.394 6.468 3.532 0 6.395-2.896 6.395-6.468V8.819c0-.19-.039-.368-.056-.554H35.482zM41.913 25.453c-.344 0-.679.04-1.005.103v1.524c.323-.087.656-.148 1.005-.148 2.166 0 3.928 1.783 3.928 3.973s-1.762 3.974-3.928 3.974-3.928-1.784-3.928-3.974c0-.671.181-1.293.472-1.848h-1.593c-.208.58-.34 1.196-.34 1.848 0 3.006 2.417 5.452 5.389 5.452 2.972 0 5.389-2.446 5.389-5.452S44.885 25.453 41.913 25.453"/><path clip-path="url(#b)" fill="#EB6100" d="M36.864 29.057c0 0 .253-.439.778-.439.823 0 .815.439.815.439l-.632.462L36.864 29.057zM40.566 22.45H42.187000000000005V26.099999999999998H40.566z"/><path clip-path="url(#b)" fill="#EB6100" d="M40.565,26.1c0,0-0.144,0.854,0.343,0.98l0.365-0.449l-0.114-0.808L40.565,26.1 z"/><path clip-path="url(#b)" fill="none" stroke="#EB6100" stroke-linecap="round" stroke-miterlimit="10" d="M23.37 39.991L41.639 32.845 60.64 39.684"/><path clip-path="url(#b)" fill="#EB6100" d="M41.511 32.9L38.699 34.473 41.289 35.371 44.396 34.698 44.396 33.575"/><path clip-path="url(#b)" fill="none" stroke="#EB6100" stroke-linejoin="round" stroke-miterlimit="10" d="M20.811 39.683H23.491V43.256H20.811zM58.994 39.745H61.674V43.318H58.994z"/><path clip-path="url(#b)" fill="#EB6100" d="M20.089 42.856H24.221999999999998V64.26400000000001H20.089zM26.179 42.856H29.093999999999998V64.26400000000001H26.179zM31.528 42.856H34.443V64.26400000000001H31.528zM36.877 42.856H39.792V64.26400000000001H36.877zM42.226 42.856H45.141V64.26400000000001H42.226zM47.574 42.856H50.489V64.26400000000001H47.574zM52.923 42.856H55.838V64.26400000000001H52.923zM58.272 42.856H62.405V64.26400000000001H58.272z"/><path clip-path="url(#b)" fill="#EB6100" d="M20.142 61.923H62.405V64.264H20.142zM20.142 42.856H62.405V45.197H20.142z"/></svg>