<svg version="1.1" xmlns="http://www.w3.org/2000/svg" xmlns:xlink="http://www.w3.org/1999/xlink" x="0" y="0" width="68.945" height="65.309" viewBox="0 0 68.945 65.309" xml:space="preserve"><path fill="none" stroke="#EB6100" stroke-width="1.5" stroke-linecap="round" stroke-linejoin="round" stroke-miterlimit="10" d="M56.742 10.93L9.476 29.836 42.926 54.56"/><defs><path id="a" d="M0 0H68.945V65.309H0z"/></defs><clipPath id="b"><use xlink:href="#a" overflow="visible"/></clipPath><path clip-path="url(#b)" fill="#F7F9FA" d="M68.195,9.476c0,4.819-3.907,8.726-8.727,8.726 c-4.818,0-8.726-3.907-8.726-8.726S54.65,0.75,59.469,0.75C64.288,0.75,68.195,4.657,68.195,9.476"/><circle clip-path="url(#b)" fill="none" stroke="#EB6100" stroke-width="1.5" stroke-linecap="round" stroke-linejoin="round" stroke-miterlimit="10" cx="59.469" cy="9.476" r="8.726"/><path clip-path="url(#b)" fill="#F7F9FA" d="M18.202,29.837c0,4.819-3.907,8.726-8.726,8.726S0.75,34.656,0.75,29.837 c0-4.819,3.907-8.726,8.726-8.726S18.202,25.018,18.202,29.837"/><circle clip-path="url(#b)" fill="none" stroke="#EB6100" stroke-width="1.5" stroke-linecap="round" stroke-linejoin="round" stroke-miterlimit="10" cx="9.476" cy="29.837" r="8.726"/><path clip-path="url(#b)" fill="#F7F9FA" d="M54.016,55.833c0,4.818-3.907,8.726-8.727,8.726s-8.726-3.907-8.726-8.726 c0-4.819,3.906-8.727,8.726-8.727S54.016,51.014,54.016,55.833"/><circle clip-path="url(#b)" fill="none" stroke="#EB6100" stroke-width="1.5" stroke-linecap="round" stroke-linejoin="round" stroke-miterlimit="10" cx="45.29" cy="55.833" r="8.726"/></svg>