<svg version="1.1" id="图层_1" xmlns="http://www.w3.org/2000/svg" xmlns:xlink="http://www.w3.org/1999/xlink" x="0" y="0" viewBox="35 347 681 100" xml:space="preserve"><style type="text/css">.st0{enable-background:new ;} .st1{fill:#34495E;} .st2{clip-path:url(#SVGID_2_);fill:none;stroke:#34496F;stroke-linecap:round;stroke-linejoin:round;stroke-miterlimit:10;} .st3{clip-path:url(#SVGID_4_);fill:none;stroke:#34496F;stroke-miterlimit:10;} .st4{clip-path:url(#SVGID_6_);fill:none;stroke:#34496F;stroke-miterlimit:10;} .st5{clip-path:url(#SVGID_8_);fill:#34496F;} .st6{clip-path:url(#SVGID_10_);fill:none;stroke:#34496F;stroke-linecap:round;stroke-linejoin:round;stroke-miterlimit:10;} .st7{clip-path:url(#SVGID_12_);fill:none;stroke:#34496F;stroke-miterlimit:10;} .st8{clip-path:url(#SVGID_14_);fill:none;stroke:#34496F;stroke-miterlimit:10;} .st9{clip-path:url(#SVGID_16_);fill:#34496F;} .st10{clip-path:url(#SVGID_18_);fill:none;stroke:#34496F;stroke-linecap:round;stroke-linejoin:round;stroke-miterlimit:10;} .st11{clip-path:url(#SVGID_20_);fill:none;stroke:#34496F;stroke-linecap:round;stroke-linejoin:round;stroke-miterlimit:10;} .st12{clip-path:url(#SVGID_22_);fill:none;stroke:#34496F;stroke-linecap:round;stroke-linejoin:round;stroke-miterlimit:10;} .st13{clip-path:url(#SVGID_24_);fill:none;stroke:#34496F;stroke-linecap:round;stroke-linejoin:round;stroke-miterlimit:10;} .st14{clip-path:url(#SVGID_26_);fill:none;stroke:#34496F;stroke-linecap:round;stroke-linejoin:round;stroke-miterlimit:10;} .st15{clip-path:url(#SVGID_28_);fill:none;stroke:#34496F;stroke-linecap:round;stroke-linejoin:round;stroke-miterlimit:10;} .st16{clip-path:url(#SVGID_30_);fill:none;stroke:#34496F;stroke-linecap:round;stroke-linejoin:round;stroke-miterlimit:10;} .st17{clip-path:url(#SVGID_32_);fill:#34496F;} .st18{clip-path:url(#SVGID_34_);fill:none;stroke:#34496F;stroke-linecap:round;stroke-linejoin:round;stroke-miterlimit:10;} .st19{clip-path:url(#SVGID_36_);fill:none;stroke:#34496F;stroke-miterlimit:10;} .st20{clip-path:url(#SVGID_38_);fill:none;stroke:#34496F;stroke-miterlimit:10;} .st21{clip-path:url(#SVGID_40_);fill:#34496F;} .st22{clip-path:url(#SVGID_42_);fill:none;stroke:#34496F;stroke-linejoin:round;stroke-miterlimit:10;} .st23{clip-path:url(#SVGID_44_);fill:none;stroke:#34496F;stroke-linejoin:round;stroke-miterlimit:10;} .st24{clip-path:url(#SVGID_46_);fill:#34496F;} .st25{clip-path:url(#SVGID_48_);fill:#34496F;} .st26{clip-path:url(#SVGID_50_);fill:none;stroke:#34495E;stroke-width:2;stroke-linecap:round;stroke-miterlimit:10;} .st27{clip-path:url(#SVGID_52_);fill:none;stroke:#34495E;stroke-width:2;stroke-linecap:round;stroke-miterlimit:10;stroke-dasharray:10.413,10.413;} .st28{clip-path:url(#SVGID_54_);fill:none;stroke:#34495E;stroke-width:2;stroke-linecap:round;stroke-miterlimit:10;} .st29{clip-path:url(#SVGID_56_);fill:#34495E;} .st30{clip-path:url(#SVGID_58_);fill:none;stroke:#34495E;stroke-width:2;stroke-linecap:round;stroke-miterlimit:10;} .st31{clip-path:url(#SVGID_60_);fill:none;stroke:#34495E;stroke-width:2;stroke-linecap:round;stroke-miterlimit:10;stroke-dasharray:10.413,10.413;} .st32{clip-path:url(#SVGID_62_);fill:none;stroke:#34495E;stroke-width:2;stroke-linecap:round;stroke-miterlimit:10;} .st33{clip-path:url(#SVGID_64_);fill:#34495E;} .st34{clip-path:url(#SVGID_66_);fill:none;stroke:#34495E;stroke-width:2;stroke-linecap:round;stroke-miterlimit:10;} .st35{clip-path:url(#SVGID_68_);fill:none;stroke:#34495E;stroke-width:2;stroke-linecap:round;stroke-miterlimit:10;stroke-dasharray:10.413,10.413;} .st36{clip-path:url(#SVGID_70_);fill:none;stroke:#34495E;stroke-width:2;stroke-linecap:round;stroke-miterlimit:10;} .st37{clip-path:url(#SVGID_72_);fill:#34495E;}</style><path class="st0 st1" d="M42 436.7c0 .1-.1.3-.1.4 0 .2 0 .3.1.5-1.4.3-3.1.6-5.1 1.2 0-.4-.1-.7-.4-1C39.1 437.5 40.9 437.1 42 436.7zM39.8 431.9l-1.6.1c-.3 0-.7.1-1 .2-.1-.3-.2-.5-.4-.8.4-.3.9-.9 1.4-1.7.5-.8.9-1.7 1.2-2.5.3.2.6.3.9.4.1 0 .2.1.2.2 0 .1-.1.2-.2.2-.1 0-.2.2-.5.6-.3.4-.8 1.2-1.7 2.5l2.2 0c.5-.7.8-1.3 1-1.8.3.3.5.4.8.5.2.1.3.2.3.3s-.1.2-.2.2-.2.1-.3.2c-.1.1-.3.3-.5.5-.2.3-.6.7-1.1 1.4l-1.6 2.2c1.1-.1 2-.2 2.9-.4 0 .1 0 .2 0 .4s0 .3 0 .4l-3 .4c-.5.1-1 .2-1.3.3 0-.3-.1-.6-.3-.9.4-.2.8-.5 1.3-.9C38.6 433.7 39.1 432.9 39.8 431.9zM44.2 434.3l-2.4.5-.2-.9c.8-.1 1.7-.2 2.5-.4-.1-.7-.1-1.3-.1-1.9-.7.1-1.5.3-2.2.4l-.1-.9c.7-.1 1.4-.1 2.3-.3 0-1.2-.1-2.4-.2-3.6.4.1.7.2 1 .2.3 0 .4 0 .4.1 0 .1 0 .1-.1.2-.1.1-.2.2-.2.4 0 .2-.1.6-.1 1.1s0 1 0 1.5c1.4-.2 2.5-.4 3.5-.7l.1.8c-1.6.2-2.7.4-3.6.5 0 .9.1 1.5.1 1.9 1.9-.3 3.2-.6 3.9-.8l.2.8c-1.2.2-2.6.4-4 .7.1.9.3 1.7.5 2.4 1-.7 1.7-1.5 2.1-2.3.3.3.6.5.9.7.1 0 .1.1.1.2 0 .1-.1.1-.2.1-.1 0-.2.1-.4.2-.2.1-.5.4-1 .8s-.8.7-1.2 1c.3.5.6.9 1 1.4s.7.6.9.6c.2 0 .3-.1.4-.4.1-.2.2-.6.3-1.1.2.3.5.5.9.5-.1.6-.3 1.1-.6 1.4-.3.3-.6.5-.9.5-.3 0-.6-.1-.9-.3-.3-.2-.6-.5-1-.9-.4-.4-.7-.8-.9-1.3-.9.6-2 1.1-3.5 1.6-.1-.3-.3-.7-.6-.9 1.3-.2 2.6-.7 3.7-1.4C44.5 436.3 44.3 435.3 44.2 434.3zM48.1 429.2l-.6.6c-.4-.5-1-1-1.7-1.5l.4-.6C46.9 428.2 47.5 428.7 48.1 429.2zM57.1 431.8c3 0 4.7 0 4.9-.1v.9c-.3-.1-1.9-.1-4.9-.1v5.8c3.1 0 5.1 0 6-.1v.9c-1.2-.1-3.2-.1-5.9-.1-2.7 0-4.8 0-6.3.1v-.9c1.4.1 3.1.1 5.2.1v-9c0-.8 0-1.4-.1-1.7.4.1.8.1 1.2.1.1 0 .2 0 .2.1s-.1.1-.2.2-.2.3-.2.7V431.8zM66.5 431.4c-.3.6-.7 1.2-1.1 1.8-.1-.3-.5-.4-1.1-.5.5-.3 1.1-1.2 1.8-2.6.8-1.4 1.1-2.5 1.2-3.1.4.2.7.3 1 .4s.4.2.4.2-.1.2-.2.3c-.2.1-.3.3-.5.5-.2.2-.4.7-.7 1.3V440h-1c.1-1 .2-2 .2-2.9V431.4zM77.4 430.2c-.5 0-1.9-.1-4.3-.1s-4 0-5 .1v-.9c.4.1 1.8.1 4.5.1s4.2 0 4.8-.1V430.2zM70.2 438.9v1h-.9c.1-.4.1-.9.1-1.3v-2.2c0-.3 0-.6-.1-.8 1.1 0 2.3 0 3.7 0 1.3 0 2.4 0 3.2 0 0 .2 0 .4 0 .8v2.1c0 .5 0 .9.1 1.3h-1v-.8H70.2zM76 432.2c-.7 0-1.7-.1-3-.1s-2.5 0-3.5.1v-.8c.6 0 1.6.1 2.8.1s2.5 0 3.6-.1V432.2zM76 434.3c-.6 0-1.6-.1-3.1-.1-1.5 0-2.6 0-3.3.1v-.8c1.1 0 2.3.1 3.6.1s2.3 0 2.8-.1V434.3zM75.2 438.2v-1.9h-5v1.9H75.2zM73.6 428.7l-.6.6c-.6-.6-1.3-1.1-2-1.6l.4-.6C72.2 427.6 73 428.1 73.6 428.7zM80.9 436c-.5 1.2-1 2.2-1.6 3.1l-.8-.5c.8-.7 1.3-1.7 1.6-3L80.9 436zM83.1 428.6c.4-.7.6-1.2.7-1.7.3.1.6.2.8.2.2 0 .3.1.3.2 0 .1-.1.1-.2.2-.2.1-.5.5-.8 1h2.3c1.6 0 2.6 0 3.1-.1-.1.5-.1 1.1-.1 1.7v2.8c0 .7 0 1.3.1 1.8-.3-.1-1.7-.1-4.2-.1s-3.9 0-4.1.1c.1-.4.1-1 .1-1.8v-2.8c0-.7 0-1.3-.1-1.7C81.3 428.6 82 428.6 83.1 428.6zM88.3 430.5v-1.2h-6.5v1.2H88.3zM88.3 432.3v-1.2h-6.5v1.2H88.3zM88.3 434.1v-1.2h-6.5v1.2H88.3zM89.1 437.9c-.1.6-.3.9-.5 1.2s-.5.4-1 .5c-.4.1-1.2.1-2.2.1s-1.8 0-2.2 0-.8-.1-.9-.1c-.2-.1-.3-.2-.3-.3-.1-.2-.1-.4-.1-.7v-2.2c0-.3 0-.5-.1-.7.3.1.5.1.8.1l.3 0c.1 0 .1 0 .1.1 0 .1 0 .1-.1.2-.1.1-.2.2-.2.4v2.2c0 .2.1.4.3.4.2.1.7.1 1.4.1 1.7 0 2.7 0 3.1-.1.4-.1.6-.5.6-1.4C88.5 437.7 88.8 437.9 89.1 437.9zM86.7 436.8l-.6.6c-.6-.7-1.2-1.2-2-1.8l.5-.6C85.3 435.5 86 436.1 86.7 436.8zM91.4 438.2l-.7.6c-.7-1.1-1.4-2-2.3-2.7l.6-.5C89.8 436.2 90.6 437.1 91.4 438.2zM94.6 431.4c-.8 0-1.4.1-1.8.1v-.9c.4.1 1.1.1 1.8.1 0-1.7 0-2.9-.1-3.5.3.1.7.1 1.1.1.1 0 .2 0 .2.1s0 .1-.1.2c-.1 0-.1.1-.2.2 0 .1-.1.2-.1.3v2.5c.7 0 1.3-.1 1.7-.1v.9c-.4-.1-1-.1-1.7-.1v4.1c.6-.2 1.2-.5 1.7-.8 0 .3 0 .6.2.8-2.2.8-3.6 1.5-4.4 1.9 0-.4-.2-.8-.5-1 .6-.1 1.3-.3 2.1-.6V431.4zM99 437.3c.3.3.5.5.7.6.1 0 .1.1.1.2s0 .1-.1.1c-.2 0-.6.3-1.1.7-.5.5-1.1.8-1.7 1.2-.1-.3-.4-.6-.9-.8.5-.1 1.1-.4 1.7-.8C98.3 438.2 98.7 437.8 99 437.3zM101.1 428.6c2 0 3.4 0 4.1-.1v.9c-.7-.1-2.1-.1-4.3-.1l-.4 1c1.6 0 2.8 0 3.4-.1 0 .3-.1.8-.1 1.7v4.7c.6 0 1.1 0 1.6-.1v.9c-.5-.1-2-.1-4.5-.1s-4.1 0-4.6.1v-.9c.5.1 1 .1 1.7.1v-4.7c0-.4 0-1-.1-1.7.5 0 1 .1 1.7.1.1-.3.3-.6.4-1-1.4 0-2.5 0-3.3.1v-.9c.8.1 2 .1 3.5.1.1-.5.2-1 .2-1.5.3.1.6.1 1 .1.2 0 .3.1.3.2 0 .1-.1.1-.2.2C101.5 427.7 101.3 428 101.1 428.6zM103 431.8v-1h-4.2v1H103zM98.8 432.4v1h4.2v-1H98.8zM103 435v-1h-4.2v1H103zM98.8 435.6v1h4.2v-1H98.8zM105.1 439.5l-.7.7c-.8-.8-1.6-1.6-2.6-2.1l.5-.6C103.5 438.1 104.4 438.8 105.1 439.5zM115.2 437.2c-.8-.1-2.1-.1-3.8-.1s-3 0-3.9.1v-1c.9.1 2.2.1 3.9.1 1.7 0 3 0 3.8-.1V437.2zM118.3 430.8h-.9v-2.1h-8.9v2.1h-.9v-2.9c.9.1 2.7.1 5.5.1 2.7 0 4.5 0 5.2-.1V430.8zM110.8 431.7l-.1 2.1h3.7c1.6 0 2.8 0 3.6-.1 0 1.3-.1 2.5-.2 3.4-.1.9-.1 1.5-.2 1.8s-.2.5-.5.6-.5.3-1 .3c-.4.1-1 .1-1.8.2-.1-.5-.3-.8-.7-1.2.6.1 1.2.1 1.6.1.5 0 .8-.1 1-.2.2-.1.4-.3.4-.5s.1-.8.2-1.6c.1-.8.1-1.5.1-2.1h-3.9c-1.7 0-2.9 0-3.4.1.2-2.2.3-3.5.3-4 0-.5 0-.9 0-1.1.4.1.7.1 1 .1.1 0 .2 0 .2.1 0 .1 0 .1-.1.2-.1.1-.1.2-.2.4 0 .2-.1.4-.1.8h3.4c1.3 0 2.1 0 2.4-.1v.9c-.2-.1-1-.1-2.4-.1H110.8zM241.9 436.7c0 .1-.1.3-.1.4 0 .2 0 .3.1.5-1.4.3-3.1.6-5.1 1.2 0-.4-.1-.7-.4-1C239.1 437.5 240.8 437.1 241.9 436.7zM239.7 431.9l-1.6.1c-.3 0-.7.1-1 .2-.1-.3-.2-.5-.4-.8.4-.3.9-.9 1.4-1.7.5-.8.9-1.7 1.2-2.5.3.2.6.3.9.4.1 0 .2.1.2.2 0 .1-.1.2-.2.2-.1 0-.2.2-.5.6-.3.4-.8 1.2-1.7 2.5l2.2 0c.5-.7.8-1.3 1-1.8.3.3.5.4.8.5.2.1.3.2.3.3s-.1.2-.2.2-.2.1-.3.2c-.1.1-.3.3-.5.5-.2.3-.6.7-1.1 1.4l-1.6 2.2c1.1-.1 2-.2 2.9-.4 0 .1 0 .2 0 .4s0 .3 0 .4l-3 .4c-.5.1-1 .2-1.3.3 0-.3-.1-.6-.3-.9.4-.2.8-.5 1.3-.9C238.5 433.7 239.1 432.9 239.7 431.9zM244.1 434.3l-2.4.5-.2-.9c.8-.1 1.7-.2 2.5-.4-.1-.7-.1-1.3-.1-1.9-.7.1-1.5.3-2.2.4l-.1-.9c.7-.1 1.4-.1 2.3-.3 0-1.2-.1-2.4-.2-3.6.4.1.7.2 1 .2.3 0 .4 0 .4.1 0 .1 0 .1-.1.2-.1.1-.2.2-.2.4 0 .2-.1.6-.1 1.1s0 1 0 1.5c1.4-.2 2.5-.4 3.5-.7l.1.8c-1.6.2-2.7.4-3.6.5 0 .9.1 1.5.1 1.9 1.9-.3 3.2-.6 3.9-.8l.2.8c-1.2.2-2.6.4-4 .7.1.9.3 1.7.5 2.4 1-.7 1.7-1.5 2.1-2.3.3.3.6.5.9.7.1 0 .1.1.1.2 0 .1-.1.1-.2.1-.1 0-.2.1-.4.2-.2.1-.5.4-1 .8s-.8.7-1.2 1c.3.5.6.9 1 1.4s.7.6.9.6c.2 0 .3-.1.4-.4.1-.2.2-.6.3-1.1.2.3.5.5.9.5-.1.6-.3 1.1-.6 1.4-.3.3-.6.5-.9.5-.3 0-.6-.1-.9-.3-.3-.2-.6-.5-1-.9-.4-.4-.7-.8-.9-1.3-.9.6-2 1.1-3.5 1.6-.1-.3-.3-.7-.6-.9 1.3-.2 2.6-.7 3.7-1.4C244.4 436.3 244.2 435.3 244.1 434.3zM248 429.2l-.6.6c-.4-.5-1-1-1.7-1.5l.4-.6C246.8 428.2 247.5 428.7 248 429.2zM256.2 429.2c-2.4 0-4.1 0-5.1.1v-.9c.8.1 2.8.1 5.8.1s5 0 5.9-.1v.9c-.8-.1-2.7-.1-5.7-.1v8.3c0 .8 0 1.6.1 2.4H256c.1-.8.1-1.6.1-2.4V429.2zM262.2 435.1l-.7.6c-.9-1.2-2.1-2.4-3.5-3.6l.5-.5C260 432.9 261.3 434.1 262.2 435.1zM272 435.1c2.4 0 4.1-.1 5-.1v1c-1.2-.1-2.9-.1-5.3-.1-.5.9-1.2 1.7-2.1 2.4-.9.7-2.2 1.3-3.8 1.9-.2-.4-.5-.7-.8-.9 1.2-.2 2.3-.6 3.3-1.2 1-.6 1.8-1.3 2.4-2.2-2.7 0-4.6 0-5.7.1v-1c1.3.1 3.4.1 6.1.1.2-.5.4-1.1.6-1.9.1-.8.2-1.4.2-1.9s0-.9-.1-1.2c.4.1.8.1 1.1.1.1 0 .2 0 .2.1s0 .1-.1.2c-.1.1-.1.2-.2.3 0 .1 0 .3 0 .7C272.8 432.4 272.6 433.6 272 435.1zM271.7 428.8c2.5 0 4.1 0 5-.1-.1.2-.1.6-.1 1.2 0 .6 0 1 .1 1.4h-1v-1.8h-9.2v1.8h-.9c.1-.4.1-.9.1-1.4 0-.5 0-.9-.1-1.2.7.1 2.5.1 5.3.1-.2-.4-.6-.9-1.1-1.3l.8-.5C271 427.5 271.3 428.1 271.7 428.8zM269.6 433.9l-.4.7c-.9-.6-1.8-1.1-2.7-1.5l.4-.6C267.8 432.9 268.8 433.4 269.6 433.9zM271.1 432.2l-.4.7c-.7-.5-1.5-1.1-2.5-1.6l.4-.6C269.5 431.2 270.3 431.7 271.1 432.2zM276.8 439.3l-.6.6c-1.2-1.1-2.6-2.1-4.2-2.9l.4-.6C274.6 437.6 276 438.6 276.8 439.3zM282.7 429.5c-.6.8-1.4 1.5-2.5 2.3-.2-.3-.5-.5-.9-.6.9-.4 1.7-1.1 2.5-1.8.8-.8 1.4-1.6 1.8-2.4.3.2.6.4.8.5.1 0 .2.1.2.2s-.1.1-.2.2c-.1 0-.3.2-.5.4-.2.2-.5.4-.7.7h3.6c1.4 0 2.3 0 2.9-.1-.6 1-1.5 2-2.6 3-1.1 1-2.2 1.9-3.3 2.5h4.1c1.1 0 1.7 0 2-.1-.1.2-.1.5-.1 1.1v2.7c0 .6 0 1.1.1 1.7h-1v-.7h-6.2v1h-1c.1-.6.2-1.2.2-1.8v-2.8c-.9.4-1.8.8-2.5 1.1-.1-.2-.4-.5-.8-.9 1.9-.4 3.9-1.2 5.9-2.6-.7-.6-1.4-1.2-2.3-1.7l.6-.6c1 .7 1.8 1.3 2.5 1.8 1.3-1 2.2-1.9 2.9-2.9H282.7zM282.7 438.2h6.2V435h-6.2V438.2zM295.6 432.9v4.2c.6-.5 1.2-1.1 1.9-1.9.1.3.3.5.5.8l-1.9 1.8c-.4.4-.8.8-1.1 1.2-.2-.3-.4-.5-.7-.7.4-.4.6-1 .6-1.8V432c-1 0-1.7.1-2.1.2v-1c.4 0 1 .1 1.6.1.6 0 1.2 0 1.6-.1C295.7 431.6 295.6 432.2 295.6 432.9zM297.1 429.7l-.7.6c-.6-.9-1.3-1.6-2.1-2.2l.6-.6C295.7 428.2 296.4 428.9 297.1 429.7zM301 433c-.4 2.6-1.6 4.9-3.7 6.9-.2-.3-.4-.5-.8-.6 1.5-1 2.5-2.3 3.1-3.9s.9-3.4.9-5.4c0-.8-.1-1.6-.2-2.4.3.1.6.1 1.1.1.1 0 .2.1.2.2 0 .1 0 .2-.1.2-.1.1-.1.2-.2.3 0 .2 0 .5 0 1.1 0 .5-.1 1.2-.2 2.1.4 1.7 1 3.3 1.8 4.6.7 1.3 1.6 2.3 2.4 2.9-.3.1-.6.4-.9.7C303 438.2 301.8 435.9 301 433zM309.4 433.4v4.4c.8-.7 1.3-1.3 1.5-1.8.1.3.3.6.5.8l-1.7 1.8c-.6.7-1 1.1-1.1 1.2-.2-.4-.4-.6-.7-.8.4-.3.7-.7.7-1.3v-5.1c-1 0-1.7.1-2.1.3v-1c.4 0 .9.1 1.6.1.7 0 1.2 0 1.7-.1C309.4 432.1 309.4 432.7 309.4 433.4zM310.4 429.5l-.7.8c-.5-.8-1.2-1.6-2.1-2.2l.6-.6C308.8 427.9 309.5 428.5 310.4 429.5zM314.8 428.9c-1.7 0-2.9 0-3.7.1v-.9c.8.1 2 .1 3.8.1s3.1 0 3.9-.1v.9c-.6-.1-1.7-.1-3.2-.1v3.7c1.5 0 2.5 0 2.9-.1v.9c-.4-.1-1.4-.1-2.9-.1v5.2h1.4c.8 0 1.5 0 2.3-.1v1c-.9-.1-2.4-.1-4.5-.1-2.1 0-3.5 0-4.3.1v-1c.6.1 1.2.1 1.6.1v-5.2c0-.7 0-1.3-.1-1.6.4 0 .8.1 1.2.1.1 0 .2 0 .2.1 0 .1-.1.1-.2.1-.2.1-.3.3-.3.6v5.9h1.9V428.9zM449 433.3c0 1.6-.1 2.9-.3 3.8-.2.9-.4 1.8-.9 2.6-.3-.3-.6-.5-1-.5.5-.7.8-1.5 1-2.4s.3-2 .3-3.3c0-1.3 0-2.6-.1-3.9.6.1 2.6.1 5.8.1-.1-1.3-.2-2.1-.3-2.5.4.1.7.1 1 .2.2 0 .3.1.3.1 0 .1 0 .2-.1.2s-.1.3-.1.7 0 .8 0 1.3c2.3 0 3.7 0 4.2-.1v1c-.7-.1-2.1-.1-4.1-.1.1 1.7.4 3.2.8 4.5.7-1.1 1.2-2.4 1.5-3.8.4.2.6.4.9.4s.3.1.3.2-.1.2-.2.2-.6.8-1.2 2.2c-.2.5-.5 1-1 1.6.4.9.7 1.6 1.2 2.1s.7.7.8.7.3-.1.3-.4c.1-.3.2-.7.2-1.2.2.3.5.5.9.6-.2.7-.4 1.3-.6 1.6-.2.4-.4.5-.7.5-.3 0-.8-.3-1.4-1-.6-.6-1.1-1.4-1.4-2.1-.9 1.2-1.9 2.2-2.9 3-.2-.3-.5-.5-.9-.7 1.2-.7 2.3-1.8 3.4-3.3-.6-1.7-.9-3.5-1-5.5H449c0 .5 0 1.2 0 2.1h1.7c.8 0 1.5 0 2-.1l-.3 4.6c0 .5-.2.8-.5 1-.3.2-.7.3-1.3.3-.2 0-.5 0-.8 0 0-.4-.1-.7-.3-1 .6.1 1.1.2 1.3.2.3 0 .4 0 .6-.1s.2-.3.2-.5l.2-3.5H449zM458.1 429l-.7.6c-.4-.5-.9-1.1-1.7-1.7l.7-.6C457.1 427.9 457.7 428.4 458.1 429zM467.3 430.9c1 0 2.1 0 3.2 0 1.1 0 1.9-.1 2.2-.1-.1.3-.2.8-.2 1.4-.1 1.1-.2 2.2-.3 3.4-.1 1.2-.2 1.9-.3 2.3-.1.3-.2.6-.3.8-.1.2-.3.4-.5.5-.2.1-.5.2-.8.2-.3.1-.8.1-1.4.1 0-.4-.2-.8-.4-1.1.6.1 1 .2 1.4.2.4 0 .6-.1.8-.3s.3-.4.4-.8c.1-.3.2-1.2.3-2.5.2-1.3.3-2.4.3-3.3h-4.4c-.1 1.5-.6 2.9-1.5 4.4s-1.9 2.7-3.3 3.7c-.2-.3-.6-.5-1-.7 2.8-1.7 4.4-4.1 4.9-7.4h-2.3c-1 0-1.8 0-2.4.1v-1c.8.1 2.4.1 4.7.2 0-.4 0-.9 0-1.7 0-.7 0-1.4-.1-2.1.3.1.7.2 1.3.2.2 0 .2.1.2.1s-.1.2-.2.3C467.6 427.9 467.4 429 467.3 430.9zM465.3 429.7l-.8.4c-.6-1-1.2-1.8-1.7-2.2l.6-.5C464.1 427.9 464.7 428.7 465.3 429.7zM470.2 435.3l-.6.6c-.6-.8-1.3-1.5-2.1-2.1l.5-.6C468.8 433.8 469.6 434.5 470.2 435.3zM481.2 428.7c-1.3 1.7-3.2 3.2-5.6 4.6-.2-.4-.4-.7-.8-.8 1.4-.4 2.7-1.2 4-2.3s2.1-2.1 2.3-3.1c.3.3.6.4.9.5.1 0 .2.1.2.1 0 .1-.1.1-.2.1s-.2.1-.4.3c1 1.1 1.9 2 2.8 2.7.9.6 2 1.1 3.1 1.4-.3.2-.5.5-.6.9C484.9 432.2 482.9 430.8 481.2 428.7zM484.7 438.9c-2.7.1-4.6.2-5.6.2-1 .1-1.8.2-2.3.4-.1-.3-.2-.7-.4-1 .4-.1.8-.4 1.1-.6s.8-.7 1.4-1.4 1-1.2 1.2-1.6c-1.9 0-3.3.1-4.4.1v-1c1.3.1 3.1.1 5.5.1 2.4 0 4.2 0 5.5-.1v1c-1.1-.1-3.1-.1-6.1-.1.1.1.3.2.5.3s.3.2.3.3-.1.1-.2.1-.4.2-.9.7c-.5.4-1.1 1.1-2 2.1l5.9-.2c-.4-.5-1-1-1.7-1.5l.6-.6c1.1 1 2.2 2.1 3.1 3.2l-.8.6L484.7 438.9zM484.4 432.9c-.7-.1-1.8-.1-3.2-.1-1.4 0-2.5 0-3.2.1v-1c.8.1 1.8.1 3.2.1s2.4 0 3.2-.1V432.9zM494.6 434c.4.1.8.2 1 .2.2 0 .4.1.4.2 0 .1-.1.2-.2.3-.2.1-.3.4-.4.9-.2.9-.4 1.5-.8 2-.3.4-.9.9-1.6 1.4-.7.5-1.8.9-3.3 1.2 0-.2 0-.4-.1-.6-.1-.1-.3-.3-.5-.4 1.5-.1 2.8-.5 3.9-1.2s1.7-1.8 1.7-3.4C494.6 434.3 494.6 434.2 494.6 434zM500 433.6v2.4c0 .5 0 1 .1 1.3h-1v-4h-7.7v4.1h-1c0-.4.1-.8.1-1.3v-2.4c0-.5 0-.9 0-1.2.6.1 2.2.1 4.8.1 2.6 0 4.2 0 4.8-.1C500 432.7 500 433.1 500 433.6zM499.2 431.6c-1 0-2.3 0-4.1 0s-3.1 0-3.9.1c.1-.5.1-1.1.1-1.8 0-.7 0-1.4-.1-1.8.8 0 2.1.1 4 .1s3.2 0 4-.1c0 .7 0 1.3 0 2C499.2 430.6 499.2 431.1 499.2 431.6zM498.3 430.9v-2.1h-6.1v2.1H498.3zM501.3 439.2l-.6.8c-1.2-.9-2.8-1.8-4.8-2.8l.4-.7C497.7 437.3 499.4 438.1 501.3 439.2zM648.9 434.9c.3.1.7.1 1 .1.1 0 .2 0 .2.1s0 .1-.1.2c-.2.1-.3.4-.4.9-.2 1.1-.7 1.9-1.6 2.5-.9.5-2.1 1-3.6 1.3-.2-.3-.4-.6-.7-.9 2.1-.3 3.5-.8 4.2-1.4C648.6 437.2 649 436.2 648.9 434.9zM647 431.2c-1.2 1.2-2 2.1-2.4 2.6-.2-.3-.5-.5-.8-.6.9-.6 1.7-1.5 2.7-2.7C646.7 430.8 646.8 431 647 431.2zM647 429.1l-.5.7c-.7-.5-1.5-1-2.5-1.4l.4-.7C645.5 428.2 646.4 428.7 647 429.1zM653.7 437.7h-.9v-3h-6.5v3.2h-.9c0-.4.1-.8.1-1.4v-1.3c0-.5 0-.9 0-1.2.5.1 1.9.1 4.2.1s3.6 0 4.1-.1c0 .3 0 .7 0 1.2v1.2C653.7 436.9 653.7 437.3 653.7 437.7zM649.1 429.3c-.3.5-.7 1.1-1.1 1.6-.2-.3-.5-.4-.9-.4.9-.8 1.6-1.9 2.1-3.3.3.2.5.3.7.3.2 0 .3.1.3.1s0 .1-.1.2c-.2.1-.4.4-.7.8h3c.9 0 1.7 0 2.6-.1l-1.4 2.4-.8-.3.8-1.3h-2.5l-.1.7c.3.8.8 1.4 1.5 1.8.7.4 1.7.8 3 1-.3.3-.6.6-.7.9-1.1-.4-2-.8-2.6-1.2-.6-.4-1.1-1-1.4-1.7-.2.6-.6 1.1-1.1 1.5-.5.4-1.3.9-2.4 1.4-.2-.3-.5-.5-.8-.7 1.3-.4 2.3-.9 2.9-1.5.6-.6 1-1.4 1-2.3H649.1zM655.5 439.2L655 440c-1.5-.9-3.3-1.6-5.2-2.3l.4-.7C652 437.6 653.7 438.4 655.5 439.2zM662.3 432.6c-.5-.8-1-1.5-1.5-1.9l.7-.5c.6.6 1.1 1.5 1.6 2.5h1.8c.5-.7 1-1.5 1.6-2.6.3.2.6.4.9.5.1 0 .2.1.2.2 0 .1-.1.1-.3.2-.3.1-.8.7-1.5 1.7 2 0 3.3 0 3.9-.1v.9c-1.6-.1-3-.1-4.2-.1h-5.9c0 2.1-.1 3.6-.3 4.5s-.5 1.6-.9 2.2c-.2-.2-.6-.4-1-.5.5-.6.8-1.2 1-1.9.2-.7.3-1.6.3-2.8 0-.6 0-1.4-.1-2.3C659.1 432.6 660.3 432.6 662.3 432.6zM663.9 429.1c-.2-.4-.6-.8-1-1.2l.8-.6c.4.6.8 1.2 1 1.8 2.1 0 3.7 0 4.6-.1v.9c-1.1-.1-2.9-.1-5.2-.1s-4.2 0-5.6.1v-.9C659.7 429 661.4 429.1 663.9 429.1zM677.7 436.3c1-.8 1.8-2 2.5-3.5l.7.4c-.9 1.6-1.8 2.8-2.6 3.6 1.3.9 3.1 1.6 5.3 2.1-.3.3-.4.6-.6.9-2.4-.8-4.2-1.7-5.4-2.5-1.1.8-2.9 1.8-5.5 2.8-.2-.4-.4-.7-.7-.9 2.5-.7 4.3-1.5 5.6-2.4-.9-.8-1.8-1.8-2.6-3.2l.7-.4C676 434.4 676.8 435.5 677.7 436.3zM683.6 430.4c-1.3-.1-3.3-.1-5.9-.1-2.6 0-4.6 0-5.9.1v-.9c1.3.1 3.3.1 5.9.1 2.6 0 4.6 0 5.9-.1V430.4zM675.3 430.6c.3.3.5.4.7.5.2.1.2.1.2.2 0 .1-.1.1-.3.2s-.6.4-1.1.9c-.5.6-1.2 1.2-1.9 1.8-.2-.3-.5-.5-.8-.6C673.3 432.9 674.4 431.9 675.3 430.6zM678.6 428.8l-.7.6c-.4-.5-1.1-1.1-2.1-1.7l.5-.6C677.2 427.5 677.9 428.1 678.6 428.8zM683 433.4l-.7.6c-.9-1-2-1.9-3.2-2.8l.5-.6C680.7 431.5 681.9 432.4 683 433.4zM694.4 434.6c-.8 2-2.3 3.9-4.5 5.5-.2-.3-.6-.5-1-.6 1.1-.6 2.1-1.3 2.9-2.1s1.4-1.8 1.7-2.8h-1.9c-.8 1.5-2.3 3-4.3 4.4-.2-.3-.4-.5-.9-.6 2.2-1.1 3.6-2.3 4.3-3.8h-2.2c-.6.7-1.4 1.3-2.3 1.9-.2-.3-.5-.5-.9-.6.8-.4 1.6-.9 2.2-1.5.7-.6 1.2-1.2 1.5-1.8-.7 0-1.2 0-1.6.1.1-.2.1-.6.1-.9v-2.8c0-.4 0-.7-.1-1 .5 0 1.8.1 4 .1 2.1 0 3.5 0 4.1-.1-.1.2-.1.5-.1 1v2.8c0 .4 0 .7.1.9-.6 0-2.5-.1-5.5-.1-.3.4-.6.9-1 1.3h4.9c1.3 0 2.3 0 2.8-.1l-.4 4c-.1.6-.1 1-.3 1.2s-.4.4-.7.6c-.3.1-.8.2-1.6.3 0-.3-.2-.7-.5-1 .3 0 .6 0 .8 0 .6 0 .9-.1 1.1-.2.2-.1.3-.5.3-.9l.3-3.2H694.4zM688.5 430h6.1v-1.4h-6.1V430zM694.6 430.7h-6.1v1.3h6.1V430.7z"/><defs><path id="SVGID_1_" d="M46 347H706V447H46z"/></defs><clipPath id="SVGID_2_"><use xlink:href="#SVGID_1_" overflow="visible"/></clipPath><circle class="st2" cx="277.9" cy="380.3" r="32.5"/><defs><path id="SVGID_3_" d="M46 347H706V447H46z"/></defs><clipPath id="SVGID_4_"><use xlink:href="#SVGID_3_" overflow="visible"/></clipPath><path class="st3" d="M295.5 364.7L260.3 364.7 257.9 361.5 297.9 361.5z"/><defs><path id="SVGID_5_" d="M46 347H706V447H46z"/></defs><clipPath id="SVGID_6_"><use xlink:href="#SVGID_5_" overflow="visible"/></clipPath><path class="st4" d="M291.1 399.1L277.8 394.7 264.9 399.1 264.9 367.5 291.1 367.5z"/><defs><path id="SVGID_7_" d="M46 347H706V447H46z"/></defs><clipPath id="SVGID_8_"><use xlink:href="#SVGID_7_" overflow="visible"/></clipPath><path class="st5" d="M278 376.7L279.4 379.5 282.4 379.9 280.2 382.1 280.8 385.1 278 383.7 275.3 385.1 275.8 382.1 273.6 379.9 276.6 379.5z"/><defs><path id="SVGID_9_" d="M46 347H706V447H46z"/></defs><clipPath id="SVGID_10_"><use xlink:href="#SVGID_9_" overflow="visible"/></clipPath><circle class="st6" cx="474.2" cy="382" r="32.5"/><defs><path id="SVGID_11_" d="M46 347H706V447H46z"/></defs><clipPath id="SVGID_12_"><use xlink:href="#SVGID_11_" overflow="visible"/></clipPath><path class="st7" d="M454.2 395.1H494.2V399.6H454.2z"/><defs><path id="SVGID_13_" d="M46 347H706V447H46z"/></defs><clipPath id="SVGID_14_"><use xlink:href="#SVGID_13_" overflow="visible"/></clipPath><path class="st8" d="M484.3 381.7L474.2 364.4 464.2 381.7 454.2 364.5 454.3 393.2 470.8 393.2 470.8 393.1 477.7 393.1 477.6 393.2 494.1 393.2 494.2 364.5z"/><defs><path id="SVGID_15_" d="M46 347H706V447H46z"/></defs><clipPath id="SVGID_16_"><use xlink:href="#SVGID_15_" overflow="visible"/></clipPath><path class="st9" d="M474.2,387.2c-1.7,0-3.1-1.4-3.1-3.1s1.4-3.1,3.1-3.1c1.7,0,3.1,1.4,3.1,3.1S476,387.2,474.2,387.2"/><defs><path id="SVGID_17_" d="M46 347H706V447H46z"/></defs><clipPath id="SVGID_18_"><use xlink:href="#SVGID_17_" overflow="visible"/></clipPath><path class="st10" d="M81.9 366.3L63.3 384.7 62.3 388 68.1 387.5 68.3 393.9 75.2 392.9 76.2 400.2 96.7 380z"/><defs><path id="SVGID_19_" d="M46 347H706V447H46z"/></defs><clipPath id="SVGID_20_"><use xlink:href="#SVGID_19_" overflow="visible"/></clipPath><path class="st11" d="M62.3 388L61.6 400.5 76.2 400.2"/><defs><path id="SVGID_21_" d="M46 347H706V447H46z"/></defs><clipPath id="SVGID_22_"><use xlink:href="#SVGID_21_" overflow="visible"/></clipPath><path class="st12" d="M75.2 392.9L92.1 376.3"/><defs><path id="SVGID_23_" d="M46 347H706V447H46z"/></defs><clipPath id="SVGID_24_"><use xlink:href="#SVGID_23_" overflow="visible"/></clipPath><path class="st13" d="M68.5 387L85.4 370.4"/><defs><path id="SVGID_25_" d="M46 347H706V447H46z"/></defs><clipPath id="SVGID_26_"><use xlink:href="#SVGID_25_" overflow="visible"/></clipPath><path class="st14" d="M96.6 379.9L81.8 366.3 85.1 362.8 99.9 376.5z"/><defs><path id="SVGID_27_" d="M46 347H706V447H46z"/></defs><clipPath id="SVGID_28_"><use xlink:href="#SVGID_27_" overflow="visible"/></clipPath><path class="st15" d="M101.5,374.9c1.2-1.7,1.9-3.7,1.9-5.9c0-5.7-4.6-10.2-10.3-10.2c-2.5,0-4.7,0.9-6.5,2.3L101.5,374.9z"/><defs><path id="SVGID_29_" d="M46 347H706V447H46z"/></defs><clipPath id="SVGID_30_"><use xlink:href="#SVGID_29_" overflow="visible"/></clipPath><circle class="st16" cx="81.6" cy="380.5" r="32.5"/><defs><path id="SVGID_31_" d="M46 347H706V447H46z"/></defs><clipPath id="SVGID_32_"><use xlink:href="#SVGID_31_" overflow="visible"/></clipPath><path class="st17" d="M62.3 397.1L65.4 400.1 61.6 400.5z"/><defs><path id="SVGID_33_" d="M46 347H706V447H46z"/></defs><clipPath id="SVGID_34_"><use xlink:href="#SVGID_33_" overflow="visible"/></clipPath><circle class="st18" cx="670.6" cy="382" r="32.5"/><defs><path id="SVGID_35_" d="M46 347H706V447H46z"/></defs><clipPath id="SVGID_36_"><use xlink:href="#SVGID_35_" overflow="visible"/></clipPath><path class="st19" d="M692.2,377.8h-16.6c-0.5-2-2.3-3.5-4.5-3.5c-2.2,0-4,1.5-4.5,3.5H650c-0.6,0-1,0.5-1,1c0,0.6,0.5,1,1,1h16.6 c0.5,2,2.3,3.5,4.5,3.5c2.2,0,4-1.5,4.5-3.5h16.6c0.6,0,1-0.5,1-1C693.2,378.3,692.8,377.8,692.2,377.8z"/><defs><path id="SVGID_37_" d="M46 347H706V447H46z"/></defs><clipPath id="SVGID_38_"><use xlink:href="#SVGID_37_" overflow="visible"/></clipPath><circle class="st20" cx="671.1" cy="369.6" r="2.1"/><defs><path id="SVGID_39_" d="M46 347H706V447H46z"/></defs><clipPath id="SVGID_40_"><use xlink:href="#SVGID_39_" overflow="visible"/></clipPath><path class="st21" d="M673.3,378.9c0,1.2-1,2.1-2.1,2.1c-1.2,0-2.1-1-2.1-2.1s1-2.1,2.1-2.1C672.3,376.7,673.3,377.7,673.3,378.9"/><defs><path id="SVGID_41_" d="M46 347H706V447H46z"/></defs><clipPath id="SVGID_42_"><use xlink:href="#SVGID_41_" overflow="visible"/></clipPath><path class="st22" d="M682.8 391.9L689.4 380.4 696.1 391.9z"/><defs><path id="SVGID_43_" d="M46 347H706V447H46z"/></defs><clipPath id="SVGID_44_"><use xlink:href="#SVGID_43_" overflow="visible"/></clipPath><path class="st23" d="M646.2 391.9L652.8 380.4 659.5 391.9z"/><defs><path id="SVGID_45_" d="M46 347H706V447H46z"/></defs><clipPath id="SVGID_46_"><use xlink:href="#SVGID_45_" overflow="visible"/></clipPath><path class="st24" d="M652.7,396.5c3.2,0,6-1.8,7.3-4.6l-14.5,0C646.9,394.6,649.5,396.5,652.7,396.5"/><defs><path id="SVGID_47_" d="M46 347H706V447H46z"/></defs><clipPath id="SVGID_48_"><use xlink:href="#SVGID_47_" overflow="visible"/></clipPath><path class="st25" d="M689.4,396.5c3.2,0,6-1.8,7.3-4.6l-14.5,0C683.5,394.6,686.1,396.5,689.4,396.5"/><defs><path id="SVGID_49_" d="M46 347H706V447H46z"/></defs><clipPath id="SVGID_50_"><use xlink:href="#SVGID_49_" overflow="visible"/></clipPath><path class="st26" d="M126.8 380.9L131.8 380.9"/><defs><path id="SVGID_51_" d="M46 347H706V447H46z"/></defs><clipPath id="SVGID_52_"><use xlink:href="#SVGID_51_" overflow="visible"/></clipPath><path class="st27" d="M142.2 380.9L220.3 380.9"/><defs><path id="SVGID_53_" d="M46 347H706V447H46z"/></defs><clipPath id="SVGID_54_"><use xlink:href="#SVGID_53_" overflow="visible"/></clipPath><path class="st28" d="M225.5 380.9L230.5 380.9"/><defs><path id="SVGID_55_" d="M46 347H706V447H46z"/></defs><clipPath id="SVGID_56_"><use xlink:href="#SVGID_55_" overflow="visible"/></clipPath><path class="st29" d="M226.5 384.3L229.9 380.9 226.5 377.5 229.4 377.5 232.8 380.9 229.4 384.3z"/><defs><path id="SVGID_57_" d="M46 347H706V447H46z"/></defs><clipPath id="SVGID_58_"><use xlink:href="#SVGID_57_" overflow="visible"/></clipPath><path class="st30" d="M323.1 380.9L328.1 380.9"/><defs><path id="SVGID_59_" d="M46 347H706V447H46z"/></defs><clipPath id="SVGID_60_"><use xlink:href="#SVGID_59_" overflow="visible"/></clipPath><path class="st31" d="M338.5 380.9L416.6 380.9"/><defs><path id="SVGID_61_" d="M46 347H706V447H46z"/></defs><clipPath id="SVGID_62_"><use xlink:href="#SVGID_61_" overflow="visible"/></clipPath><path class="st32" d="M421.8 380.9L426.8 380.9"/><defs><path id="SVGID_63_" d="M46 347H706V447H46z"/></defs><clipPath id="SVGID_64_"><use xlink:href="#SVGID_63_" overflow="visible"/></clipPath><path class="st33" d="M422.8 384.3L426.2 380.9 422.8 377.5 425.7 377.5 429.1 380.9 425.7 384.3z"/><defs><path id="SVGID_65_" d="M46 347H706V447H46z"/></defs><clipPath id="SVGID_66_"><use xlink:href="#SVGID_65_" overflow="visible"/></clipPath><path class="st34" d="M519.4 380.9L524.4 380.9"/><defs><path id="SVGID_67_" d="M46 347H706V447H46z"/></defs><clipPath id="SVGID_68_"><use xlink:href="#SVGID_67_" overflow="visible"/></clipPath><path class="st35" d="M534.8 380.9L612.9 380.9"/><defs><path id="SVGID_69_" d="M46 347H706V447H46z"/></defs><clipPath id="SVGID_70_"><use xlink:href="#SVGID_69_" overflow="visible"/></clipPath><path class="st36" d="M618.1 380.9L623.1 380.9"/><defs><path id="SVGID_71_" d="M46 347H706V447H46z"/></defs><clipPath id="SVGID_72_"><use xlink:href="#SVGID_71_" overflow="visible"/></clipPath><path class="st37" d="M619.1 384.3L622.5 380.9 619.1 377.5 622 377.5 625.4 380.9 622 384.3z"/></svg>