<svg version="1.1" xmlns="http://www.w3.org/2000/svg" xmlns:xlink="http://www.w3.org/1999/xlink" x="0" y="0" width="61.836" height="69.13" viewBox="0 0 61.836 69.13" xml:space="preserve"><defs><path id="a" d="M0 0H61.836V69.131H0z"/></defs><clipPath id="b"><use xlink:href="#a" overflow="visible"/></clipPath><path clip-path="url(#b)" fill="#F7F9FA" d="M0.772,12.411L0.772,12.411C1.416,5.919,12.201,0.75,25.45,0.75 c13.25,0,24.035,5.169,24.678,11.661L48.23,51.137c0,6.777-9.116,12.271-22.781,12.271c-13.664,0-22.74-5.894-22.74-12.671 c0-0.135-0.008,0.135,0,0L0.75,13.421L0.772,12.411z"/><path clip-path="url(#b)" fill="none" stroke="#EB6100" stroke-width="1.5" stroke-miterlimit="10" d="M0.772,12.411 L0.772,12.411C1.416,5.919,12.201,0.75,25.45,0.75c13.25,0,24.035,5.169,24.678,11.661L48.23,51.137 c0,6.777-9.116,12.271-22.781,12.271c-13.664,0-22.74-5.894-22.74-12.671c0-0.135-0.008,0.135,0,0L0.75,13.421L0.772,12.411z"/><path clip-path="url(#b)" fill="#F7F9FA" d="M0.772,12.955c0,0,5.757,9.79,25.109,9.79c19.351,0,24.247-9.79,24.247-9.79"/><path clip-path="url(#b)" fill="none" stroke="#EB6100" stroke-width="1.5" stroke-miterlimit="10" d="M0.772,12.955 c0,0,5.757,9.79,25.109,9.79c19.351,0,24.247-9.79,24.247-9.79"/><path clip-path="url(#b)" fill="#F7F9FA" d="M1.384,28.75c0,0,5.572,7.441,24.299,7.441c18.727,0,23.465-7.441,23.465-7.441"/><path clip-path="url(#b)" fill="none" stroke="#EB6100" stroke-width="1.5" stroke-miterlimit="10" d="M1.384,28.75 c0,0,5.572,7.441,24.299,7.441c18.727,0,23.465-7.441,23.465-7.441"/><path clip-path="url(#b)" fill="#F7F9FA" d="M2.242,42.065c0,0,5.392,8.877,23.639,8.877s22.899-8.877,22.899-8.877"/><path clip-path="url(#b)" fill="none" stroke="#EB6100" stroke-width="1.5" stroke-miterlimit="10" d="M2.242,42.065 c0,0,5.392,8.877,23.639,8.877s22.899-8.877,22.899-8.877"/><path clip-path="url(#b)" fill="#F7F9FA" d="M27.539,35.86L27.539,35.86c0.438-4.14,7.768-7.436,16.772-7.436 c9.006,0,16.335,3.296,16.772,7.436l-1.289,24.695c0,4.322-6.197,7.825-15.483,7.825c-9.287,0-15.456-3.759-15.456-8.08 c0-0.086-0.006,0.085,0,0l-1.332-23.796L27.539,35.86z"/><path clip-path="url(#b)" fill="none" stroke="#EB6100" stroke-width="1.5" stroke-miterlimit="10" d="M27.539,35.86 L27.539,35.86c0.438-4.14,7.768-7.436,16.772-7.436c9.006,0,16.335,3.296,16.772,7.436l-1.289,24.695 c0,4.322-6.197,7.825-15.483,7.825c-9.287,0-15.456-3.759-15.456-8.08c0-0.086-0.006,0.085,0,0l-1.332-23.796L27.539,35.86z"/><path clip-path="url(#b)" fill="#F7F9FA" d="M27.539,36.208c0,0,3.913,6.242,17.064,6.242c13.153,0,16.48-6.242,16.48-6.242"/><path clip-path="url(#b)" fill="none" stroke="#EB6100" stroke-width="1.5" stroke-miterlimit="10" d="M27.539,36.208 c0,0,3.913,6.242,17.064,6.242c13.153,0,16.48-6.242,16.48-6.242"/><path clip-path="url(#b)" fill="#F7F9FA" d="M27.955,46.28c0,0,3.787,4.745,16.515,4.745 c12.729,0,15.948-4.745,15.948-4.745"/><path clip-path="url(#b)" fill="none" stroke="#EB6100" stroke-width="1.5" stroke-miterlimit="10" d="M27.955,46.28 c0,0,3.787,4.745,16.515,4.745c12.729,0,15.948-4.745,15.948-4.745"/><path clip-path="url(#b)" fill="#F7F9FA" d="M28.538,54.77c0,0,3.666,5.661,16.066,5.661 c12.402,0,15.565-5.661,15.565-5.661"/><path clip-path="url(#b)" fill="none" stroke="#EB6100" stroke-width="1.5" stroke-miterlimit="10" d="M28.538,54.77 c0,0,3.666,5.661,16.066,5.661c12.402,0,15.565-5.661,15.565-5.661"/></svg>