<svg version="1.1" xmlns="http://www.w3.org/2000/svg" xmlns:xlink="http://www.w3.org/1999/xlink" x="0" y="0" width="63.899" height="49.25" viewBox="0 0 63.899 49.25" xml:space="preserve"><defs><path id="a" d="M0 0H63.9V49.25H0z"/></defs><clipPath id="b"><use xlink:href="#a" overflow="visible"/></clipPath><circle clip-path="url(#b)" fill="none" stroke="#5D5D5D" stroke-miterlimit="10" cx="4" cy="45.25" r="3.5"/><circle clip-path="url(#b)" fill="none" stroke="#5D5D5D" stroke-miterlimit="10" cx="23" cy="23.75" r="3.5"/><circle clip-path="url(#b)" fill="none" stroke="#5D5D5D" stroke-miterlimit="10" cx="37.3" cy="33" r="3.5"/><circle clip-path="url(#b)" fill="none" stroke="#5D5D5D" stroke-miterlimit="10" cx="59.899" cy="4" r="3.5"/><path clip-path="url(#b)" fill="#5D5D5D" d="M20.331 25.989L5.915 42.325c.281.184.525.415.742.67l14.411-16.33C20.788 26.479 20.546 26.246 20.331 25.989M34.509 30.908l-8.372-5.632c-.148.303-.336.58-.561.827l8.452 5.686C34.146 31.47 34.308 31.175 34.509 30.908M57.815 6.797L39.406 30.222c.27.205.51.443.709.717L58.71 7.278C58.386 7.161 58.087 7 57.815 6.797"/></svg>