<svg version="1.1" id="图层_1" xmlns="http://www.w3.org/2000/svg" x="0" y="0" viewBox="0 0 770 280" xml:space="preserve"><style type="text/css">.st0{fill:none;stroke:#67BEBF;stroke-miterlimit:10;} .st1{fill:none;stroke:#00336D;stroke-width:5;stroke-linecap:round;stroke-linejoin:round;stroke-miterlimit:10;} .st2{fill:#F0F0F0;} .st3{fill:none;stroke:#00336D;stroke-miterlimit:10;} .st4{fill:#00336D;} .st5{fill:#EC8064;} .st6{fill:#67BEBF;} .st7{fill:none;stroke:#67BEBF;stroke-linecap:round;stroke-linejoin:round;stroke-miterlimit:10;} .st8{fill:none;stroke:#EC8064;stroke-miterlimit:10;} .st9{fill:none;stroke:#EC8064;stroke-linecap:round;stroke-linejoin:round;stroke-miterlimit:10;} .st10{fill:none;stroke:#F0F0F0;stroke-width:8;stroke-miterlimit:10;}</style><path id="XMLID_102_" class="st0" d="M631.4,105.3c0,4.9-3.4,8.9-7.5,8.9h-52.8c-4.1,0-7.5-4-7.5-8.9v-6.5c0-4.9,3.4-8.9,7.5-8.9	h52.8c4.1,0,7.5,4,7.5,8.9V105.3z"/><path id="XMLID_101_" class="st0" d="M649.6,173.4c0,4.9-2.4,8.9-7.7,8.9h-72.3c-5.4,0-7.7-4-7.7-8.9v-6.5c0-4.9,2.4-8.9,7.7-8.9	h72.3c5.4,0,7.7,4,7.7,8.9V173.4z"/><path id="XMLID_100_" class="st0" d="M618,71.3c0,4.9-2.7,8.9-6.1,8.9H559c-3.4,0-6.1-4-6.1-8.9v-6.5c0-4.9,2.7-8.9,6.1-8.9h52.9	c3.4,0,6.1,4,6.1,8.9V71.3z"/><path id="XMLID_99_" class="st0" d="M575.3,241.9c0,4.9-4,8.9-8.9,8.9h-27.1c-4.9,0-8.9-4-8.9-8.9V235c0-4.9,4-8.9,8.9-8.9h27.1	c4.9,0,8.9,4,8.9,8.9V241.9z"/><circle id="XMLID_98_" class="st1" cx="383.9" cy="148.7" r="93.4"/><path id="XMLID_97_" transform="matrix(0.7071 -0.7071 0.7071 0.7071 70.3559 340.999)" class="st2" d="M423 76.6H470.5V94.5H423z"/><path id="XMLID_96_" class="st3" d="M293.1,160.6v1.2c0.3,45.8,46.8,80.3,90.8,80.3c44.4,0,85.3-31.8,91.1-81.5H293.1z"/><path id="XMLID_95_" transform="matrix(0.7071 -0.7071 0.7071 0.7071 -52.2808 290.5496)" class="st2" d="M300.8 199.4H348.3V217.3H300.8z"/><g id="XMLID_94_"><path id="XMLID_509_" class="st4" d="M328.1,132.1v-3.5h6.1v-6.5h-4.7v-3.5h23.6v3.5h-4.2v6.5h5.4v3.5h-5.4v10.7h-3.8v-10.7H338 c-0.2,2.3-0.6,4.1-1,5.5c-0.8,2.2-2.7,4.2-5.6,5.8c-0.5-0.5-1.4-1.3-2.7-2.2c-0.3-0.2-0.5-0.4-0.7-0.6c2.7-1.3,4.4-2.7,5.1-4.5 c0.4-0.9,0.7-2.2,0.9-4H328.1z M338,122.2v6.5h7.1v-6.5H338z"/><path id="XMLID_512_" class="st4" d="M368,139.6c3.8,0.1,8.8,0.1,14.9,0c-0.5,1.2-1,2.3-1.3,3.2c-5.2-0.1-7.2-0.1-6.1-0.1 c-1,0-2.2,0-3.3,0c-1,0-2.5,0-4.2,0c-3.1,0-5.5-0.8-7-2.5c-0.7,0.6-1.6,1.6-2.8,3.1l-1.6-3.9c0.4-0.4,1.1-1,2.2-1.8 c-0.8,0.5-0.7,0.4,0.3-0.3V130h-2.5v-3.5h5.7v10.8C363.4,138.8,365.3,139.6,368,139.6z M357.1,119.1l2.9-1.9 c0.2,0.2,0.5,0.6,0.9,1.1c0.9,1.1,1.8,2.4,2.8,3.8l-3.1,2C359.3,122.1,358.2,120.5,357.1,119.1z M364.2,118.2h17.1v3l-5.5,3.1h5.6 v11.4c0,2-1,3-2.9,3.1c-1,0-2,0-3,0c-0.1-0.3-0.2-0.8-0.3-1.4c-0.1-0.5-0.3-0.9-0.3-1.2c0.3,0,0.7,0,1.3,0.1c0.4,0,0.6,0,0.8,0 c0.7,0,1.1-0.4,1.1-1.2v-0.4h-3.6v4h-3.2v-4h-3.5v4h-3.3v-14.3h5c-0.3-0.1-0.7-0.4-1.2-0.8c-0.7-0.5-1.3-0.9-1.7-1l1.4-1.6h-3.8 V118.2z M367.8,126.6v1.7h3.5v-1.7H367.8z M367.8,130.5v1.7h3.5v-1.7H367.8z M372.7,123.1l4-2.1h-7.8c0.4,0.2,1.1,0.6,2,1.1 C371.6,122.5,372.2,122.8,372.7,123.1z M378,128.3v-1.7h-3.6v1.7H378z M374.4,130.5v1.7h3.6v-1.7H374.4z"/><path id="XMLID_521_" class="st4" d="M385.7,142.4v-3h5.7c-0.2-0.3-0.6-0.7-1-1.3c-0.7-0.8-1.2-1.5-1.6-2l3-1.8 c0.9,1,1.9,2.2,2.9,3.5l-2.6,1.7h4v-5.2h-8.4v-3.2h8.4v-2.2h-5v-2.1c-0.4,0.2-0.9,0.5-1.6,0.9c-1.1,0.7-2,1.3-2.6,1.6 c-0.3-0.4-0.7-1.1-1.3-2c-0.4-0.7-0.7-1.2-0.9-1.4c5.4-2.3,9.3-5.1,11.7-8.3h5.5l-1.2,1.2c2.8,2.9,6.4,5.1,10.8,6.5 c-0.5,0.8-1.2,1.9-2,3.3c-0.1,0.1-0.1,0.1-0.1,0.2c-0.6-0.3-1.5-0.7-2.6-1.3c-0.7-0.4-1.2-0.6-1.6-0.8v2.2h-5.1v2.2h8.4v3.2h-4 l3.2,1.7c-1,1.3-1.9,2.5-2.8,3.6h5.7v3H385.7z M398.3,120.7c-1.6,1.6-3.5,3.2-5.6,4.7h11C401.2,123.7,399.4,122.1,398.3,120.7z M404.4,134.1h-4.2v5.2h4.1l-2.6-1.4c0.3-0.4,0.7-1.1,1.3-1.9C403.7,135.1,404.1,134.5,404.4,134.1z"/><path id="XMLID_525_" class="st4" d="M414.1,121.1v-2.9h13.3v2.9H414.1z M417.9,138.3v-2.6h1.1c-0.2-0.3-0.4-0.7-0.7-1.3 c-0.2-0.6-0.4-1-0.6-1.3h2.2c0.1,0.1,0.1,0.4,0.2,0.8c0.1,0.2,0.3,0.9,0.6,1.9h0.1c0.2-0.8,0.4-1.7,0.7-2.7h2.5 c-0.4,0.7-0.9,1.6-1.3,2.7h1.1v2.6h-1.6v1.7c0.2,0,0.7,0,1.3,0c0.5,0,0.8-0.3,0.9-0.9v-6.8h-7.1v10.6h-2.8v-13.3h12.5v10 c0,1.6-0.6,2.6-1.7,2.9c-0.7,0.1-1.6,0.1-2.6,0.1c-0.1-0.3-0.2-0.7-0.2-1.3c-0.2-0.6-0.3-1-0.3-1.2v2.5h-2.7v-4.2H417.9z M415.6,128.5v-6.5h10.6v6.5H415.6z M423.2,126v-1.3h-4.7v1.3H423.2z M428.2,135.4v-13.6h3.8v-4.5h3.2v4.5h3.8v12h-3.8v4.7 c0.2-0.1,0.7-0.1,1.3-0.1c-0.2-0.9-0.4-1.8-0.7-2.7l2.5-0.7c0.7,3,1.3,5.4,1.8,7.4l-2.5,0.7c0-0.2,0-0.4-0.1-0.7 c-0.1-0.6-0.3-1-0.3-1.3c-1,0.1-2.7,0.4-5,0.7c-1.9,0.2-3.3,0.4-4.2,0.6l-0.4-3.2c1.6-0.1,3-0.3,4.5-0.3v-4.9h-1.3v1.6H428.2z M430.6,124.9v6.1h1.3v-6.1H430.6z M435.2,131h1.3v-6.1h-1.3V131z"/></g><g id="XMLID_89_"><g id="XMLID_93_"><path id="XMLID_490_" class="st4" d="M390.6,204.7c-0.8,0-1.5,0-1.9,0.1v-1c0.4,0.1,1.1,0.1,1.9,0.1c0-2.1,0-3.5-0.1-4.2 c0.3,0.1,0.7,0.1,1.1,0.1c0.2,0,0.2,0,0.2,0.1c0,0.1-0.1,0.1-0.2,0.2c-0.1,0.1-0.2,0.2-0.2,0.4v3.3c0.6,0,1.1-0.1,1.5-0.1v1 c-0.4-0.1-0.9-0.1-1.5-0.1v4.6c0.6-0.2,1.1-0.4,1.7-0.7c0,0.1,0,0.2,0,0.4s0,0.3,0.1,0.6c-1.4,0.4-2.8,0.8-4.3,1.4 c0-0.4-0.2-0.7-0.5-1c0.8-0.1,1.5-0.2,2.2-0.4V204.7z M397.9,202c0.6-0.9,1.1-1.6,1.4-2.3c0.2,0.2,0.5,0.4,0.9,0.5 c0.1,0,0.2,0.1,0.2,0.2s-0.1,0.1-0.2,0.2c-0.1,0-0.3,0.1-0.5,0.3c-0.2,0.2-0.5,0.5-0.9,1.1c0.9,0,1.8,0,2.5-0.1 c-0.1,0.5-0.1,1.3-0.1,2.4s0,1.8,0.1,2.3c-0.7-0.1-1.9-0.1-3.7-0.1c-1.8,0-3.2,0-4.3,0.1c0.1-0.7,0.1-1.4,0.1-2.3 c0-0.9,0-1.6-0.1-2.3c0.9,0.1,1.8,0.1,2.7,0.1H397.9z M394.9,211.9v0.8H394c0.1-0.4,0.1-0.9,0.1-1.4v-2.3c0-0.7,0-1.2-0.1-1.6 c0.7,0.1,1.8,0.1,3.4,0.1s2.7,0,3.2-0.1c-0.1,0.4-0.1,0.9-0.1,1.6v2.1c0,0.4,0,0.9,0.1,1.5h-0.9v-0.7H394.9z M396.8,205.8v-3.2 h-2.7v3.2H396.8z M396.5,201.3l-0.6,0.6c-0.5-0.6-1-1.1-1.7-1.5l0.5-0.6C395.3,200.1,395.9,200.7,396.5,201.3z M396.4,204.9 l-0.7,0.4c-0.4-0.7-0.8-1.3-1.3-1.8l0.6-0.5C395.6,203.6,396,204.2,396.4,204.9z M394.9,209.3h4.7v-1.2h-4.7V209.3z M399.6,210 h-4.7v1.3h4.7V210z M397.6,202.6v3.2h2.7v-3.2H397.6z M399.1,202.9c0.2,0.2,0.4,0.3,0.7,0.4c0.2,0,0.3,0.1,0.3,0.2 c0,0.1-0.1,0.1-0.2,0.2c-0.2,0.1-0.6,0.7-1.3,1.8l-0.6-0.3C398.4,204.4,398.8,203.7,399.1,202.9z"/><path id="XMLID_501_" class="st4" d="M404.7,204c-0.3,0.6-0.7,1.2-1.1,1.9c-0.2-0.3-0.5-0.4-1.1-0.5c0.5-0.3,1.1-1.2,1.9-2.7 c0.8-1.4,1.2-2.5,1.2-3.2c0.4,0.2,0.8,0.3,1,0.4c0.3,0.1,0.4,0.2,0.4,0.2s-0.1,0.2-0.2,0.3c-0.2,0.1-0.3,0.3-0.5,0.5 c-0.2,0.2-0.4,0.7-0.7,1.4v10.4h-1c0.1-1,0.2-2,0.2-3V204z M415.9,202.7c-0.5,0-2-0.1-4.3-0.1c-2.4,0-4.1,0-5.1,0.1v-0.9 c0.4,0.1,1.9,0.1,4.5,0.1s4.3,0,4.9-0.1V202.7z M408.5,211.6v1h-0.9c0.1-0.5,0.1-0.9,0.1-1.3V209c0-0.4,0-0.6-0.1-0.8 c1.1,0,2.4,0,3.7,0s2.4,0,3.2,0c0,0.2,0,0.4,0,0.8v2.1c0,0.5,0,0.9,0.1,1.3h-1v-0.9H408.5z M414.4,204.7c-0.7,0-1.7-0.1-3-0.1 s-2.5,0-3.5,0.1v-0.8c0.6,0,1.6,0.1,2.9,0.1s2.5,0,3.7-0.1V204.7z M414.4,206.8c-0.6,0-1.7-0.1-3.2-0.1s-2.6,0-3.4,0.1V206 c1.1,0,2.3,0.1,3.7,0.1s2.3,0,2.9-0.1V206.8z M413.6,210.9v-2h-5.1v2H413.6z M412,201.2l-0.6,0.6c-0.6-0.6-1.3-1.2-2.1-1.6 l0.5-0.6C410.6,200,411.3,200.6,412,201.2z"/></g><g id="XMLID_92_"><path id="XMLID_481_" class="st4" d="M365.2,184.6c-0.2,0.8-0.4,1.3-0.6,1.7c-0.2,0.4-0.5,0.5-0.8,0.5s-0.7-0.2-1-0.7 c-0.3-0.5-0.6-1.2-0.7-2c-0.2-0.8-0.3-2-0.3-3.5c0-1.5,0.1-3.1,0.2-4.8h-7.3c0.1,1.1,0.1,2.2,0.1,3.6c0,1.3-0.1,2.3-0.2,3.1 c-0.1,0.7-0.3,1.4-0.6,2.2c-0.3,0.7-0.7,1.4-1.2,2.1c-0.3-0.3-0.6-0.5-1-0.6c0.9-1,1.5-1.9,1.8-2.8c0.2-0.9,0.4-2.4,0.4-4.3 c0-1.3-0.1-2.6-0.3-3.9c1,0.1,2.5,0.1,4.5,0.1s3.7,0,4.9-0.1c-0.2,0.7-0.3,1.7-0.3,2.9c-0.1,1.2-0.1,2.2-0.1,2.9 c0,1.7,0.1,2.9,0.4,3.7s0.5,1.2,0.7,1.2c0.2,0,0.4-0.5,0.4-1.5C364.5,184.5,364.8,184.6,365.2,184.6z M358.5,179.9 c0.7-1.1,1.2-2.3,1.6-3.4c0.3,0.2,0.7,0.4,1,0.5c0.1,0,0.2,0.1,0.2,0.1s-0.1,0.1-0.2,0.2c-0.1,0-0.3,0.2-0.4,0.4 c-0.1,0.2-0.3,0.6-0.6,1.1c-0.3,0.5-0.6,1.1-1,1.8c1,1.2,1.9,2.4,2.8,3.6l-0.8,0.6c-0.8-1.1-1.6-2.3-2.4-3.4 c-0.8,1.3-1.8,2.6-2.9,3.8c-0.3-0.2-0.6-0.4-0.9-0.5c1.3-1.3,2.4-2.7,3.3-4c-0.9-1.1-1.7-2.1-2.6-3l0.6-0.6 C356.9,178,357.7,178.9,358.5,179.9z"/><path id="XMLID_484_" class="st4" d="M368.3,177.9c-0.9,0-1.6,0-2.1,0.1V177c0.5,0.1,1.2,0.1,2.1,0.1c0-1.5-0.1-2.5-0.2-3.1 c0.2,0.1,0.6,0.1,1.1,0.1c0.2,0,0.3,0,0.3,0.1c0,0.1-0.1,0.2-0.2,0.3s-0.2,0.3-0.2,0.5v2.1c0.7,0,1.2,0,1.6-0.1v0.9 c-0.5-0.1-1-0.1-1.6-0.1v2.5c0.6-0.3,1.1-0.6,1.5-0.8c0,0.3,0.1,0.6,0.2,0.8c-0.5,0.3-1.1,0.5-1.7,0.9v4.3c0,0.4-0.1,0.7-0.2,0.9 c-0.1,0.2-0.3,0.3-0.6,0.4s-0.8,0.1-1.4,0.2c0-0.3,0-0.5-0.1-0.6c-0.1-0.1-0.1-0.3-0.2-0.4c0.5,0.1,0.8,0.1,1,0.1 c0.2,0,0.4-0.1,0.5-0.2c0.1-0.1,0.1-0.3,0.1-0.6v-3.6c-0.6,0.4-1.2,0.7-1.7,1c-0.1-0.4-0.2-0.7-0.5-1c0.7-0.3,1.5-0.6,2.3-0.9 V177.9z M375.2,185.6c1.8,0,3.1,0,4-0.1v0.9c-1-0.1-2.4-0.1-4.3-0.1s-3.4,0-4.7,0.1v-0.9c1.1,0.1,2.5,0.1,4.1,0.1v-3.2 c-1.2,0-2.1,0-2.9,0.1v-0.9c0.9,0.1,2,0.1,3.4,0.1s2.5,0,3.4-0.1v0.9c-0.8-0.1-1.8-0.1-3-0.1V185.6z M373.6,177.8 c0.3,0.2,0.5,0.4,0.8,0.5c0.1,0,0.1,0.1,0.1,0.1c0,0.1,0,0.1-0.1,0.1c-0.1,0-0.2,0.1-0.3,0.1c-0.1,0.1-0.2,0.2-0.3,0.3 c-0.5,0.7-1.2,1.4-2,2.2c-0.3-0.3-0.6-0.5-0.9-0.6C372,180,372.9,179,373.6,177.8z M374.6,176c-0.2-0.5-0.4-1-0.8-1.5l0.9-0.4 c0.2,0.5,0.5,1.2,0.7,1.9c1.4,0,2.6,0,3.4-0.1v2.7h-0.8v-1.9h-6v1.9h-0.8v-2.7C372,176,373.1,176,374.6,176z M378.6,180.5 l-0.7,0.5c-0.6-0.8-1.4-1.7-2.5-2.6l0.5-0.5C376.8,178.7,377.7,179.5,378.6,180.5z"/></g><g id="XMLID_91_"><path id="XMLID_466_" class="st4" d="M390.3,178c-0.7,0-1.3,0.1-1.8,0.1v-1c0.5,0.1,1.1,0.1,1.8,0.1c0-1.4-0.1-2.5-0.2-3 c0.3,0.1,0.6,0.1,1.1,0.1c0.2,0,0.3,0,0.3,0.1s-0.1,0.2-0.2,0.3s-0.2,0.3-0.2,0.5v2c0.6,0,1.1-0.1,1.5-0.1v1 c-0.4-0.1-0.9-0.1-1.5-0.1v2.6c0.4-0.2,0.7-0.4,1-0.6c0,0.3,0.1,0.6,0.2,0.8c-0.4,0.2-0.8,0.3-1.2,0.5v4.2c0,0.5-0.1,0.8-0.2,1 s-0.4,0.3-0.7,0.4c-0.3,0.1-0.8,0.1-1.3,0.1c0-0.1,0-0.2,0-0.3c0-0.3-0.1-0.5-0.4-0.8c0.5,0.1,0.8,0.1,1.1,0.1 c0.3,0,0.4-0.1,0.5-0.2s0.2-0.3,0.2-0.7v-3.5c-0.5,0.2-1,0.5-1.5,0.9c-0.1-0.4-0.3-0.7-0.5-1c0.6-0.1,1.2-0.3,2-0.7V178z M397.4,181.4c-0.1,0-0.3,0-0.5,0v-0.8c0.5,0.1,1.2,0.1,2.1,0.1c0.9,0,1.6,0,2.1-0.1c-0.3,1.7-0.8,3.1-1.4,4.1 c0.7,0.7,1.3,1.2,2,1.5c-0.3,0.2-0.6,0.4-0.7,0.7c-0.6-0.4-1.2-0.9-1.8-1.6c-0.5,0.7-1.1,1.2-1.9,1.7c-0.2-0.3-0.4-0.5-0.7-0.7 c0,0.3,0,0.5,0.1,0.8h-1c0.1-0.6,0.1-1.2,0.1-2c-1.6,0.4-2.8,0.7-3.4,0.9c-0.1-0.4-0.2-0.7-0.4-1c0.4,0,0.8-0.1,1.2-0.1v-5.1 c-0.3,0-0.6,0-0.8,0.1v-0.9c0.6,0.1,2.2,0.1,4.5,0.1s3.9,0,4.6-0.1v0.9c-0.4-0.1-2.1-0.1-4.9-0.1v4.4c0.3-0.1,0.6-0.2,0.8-0.2 c0,0.2-0.1,0.3-0.1,0.4s0,0.2,0,0.3l-0.8,0.2c0,0.5,0,1,0,1.4c0.8-0.3,1.5-0.9,2.1-1.6C398.2,183.9,397.8,182.8,397.4,181.4z M400.1,178.6c-0.7-0.1-1.8-0.1-3.3-0.1c-1.5,0-2.6,0-3.3,0.1c0-0.4,0-1,0-1.8s0-1.4,0-2c0.6,0.1,1.7,0.1,3.3,0.1s2.7,0,3.3-0.1 c0,0.5-0.1,1.2-0.1,1.9C400.1,177.6,400.1,178.2,400.1,178.6z M394,181h1.8v-1.2H394V181z M395.8,181.6H394v1.2h1.8V181.6z M394,183.4v1.5c0.7-0.1,1.3-0.3,1.8-0.4v-1.1H394z M399.2,176.5v-0.9h-4.8v0.9H399.2z M394.4,177.1v0.8h4.8v-0.8H394.4z M398.1,181.4c0.2,1,0.5,1.9,1,2.6c0.5-0.9,0.8-1.8,1-2.7C399.1,181.3,398.4,181.4,398.1,181.4z"/><path id="XMLID_476_" class="st4" d="M409.2,175.7c-0.7,1.1-1.5,2.1-2.3,2.9c-0.9,0.8-2.1,1.6-3.5,2.4c-0.2-0.4-0.4-0.6-0.7-0.8 c1.6-0.6,3-1.5,4.1-2.6c1.2-1.1,1.9-2.3,2.2-3.6c0.4,0.2,0.7,0.4,0.9,0.4c0.2,0,0.3,0.1,0.3,0.1s-0.1,0.1-0.2,0.2 c-0.1,0-0.2,0.1-0.3,0.4c0.7,1.1,1.7,2.1,2.8,2.9c1.1,0.8,2.3,1.3,3.5,1.6c-0.3,0.2-0.5,0.6-0.6,1c-1.1-0.4-2.1-1-3-1.6 C411.4,178.3,410.4,177.2,409.2,175.7z M406.1,186.1v0.9h-0.9c0.1-0.5,0.1-0.9,0.1-1.3v-3.2c0-0.3,0-0.6-0.1-0.8c0.6,0,1.9,0,4,0 c2,0,3.4,0,4.2,0c0,0.2-0.1,0.5-0.1,0.8v3c0,0.5,0,0.9,0.1,1.3h-0.9v-0.8H406.1z M412.8,179.4v0.9c-0.7-0.1-1.7-0.1-3.3-0.1 s-2.7,0-3.5,0.1v-0.9c0.8,0.1,2,0.1,3.5,0.1S412.1,179.5,412.8,179.4z M412.4,185.4v-2.8h-6.3v2.8H412.4z"/></g><g id="XMLID_90_"><path id="XMLID_456_" class="st4" d="M358.4,201.3c-0.7,1.1-1.5,2.1-2.3,2.9s-2.1,1.6-3.5,2.4c-0.2-0.4-0.4-0.6-0.7-0.8 c1.6-0.6,3-1.5,4.1-2.6c1.2-1.1,1.9-2.3,2.2-3.6c0.4,0.2,0.7,0.4,0.9,0.4s0.3,0.1,0.3,0.2s-0.1,0.1-0.2,0.2 c-0.1,0-0.2,0.1-0.3,0.4c0.7,1.1,1.7,2.1,2.8,2.9c1.1,0.8,2.3,1.3,3.5,1.6c-0.3,0.2-0.5,0.6-0.6,1c-1.1-0.4-2.1-1-3-1.6 C360.5,203.8,359.5,202.8,358.4,201.3z M355.3,211.7v0.9h-0.9c0.1-0.5,0.1-0.9,0.1-1.3v-3.2c0-0.3,0-0.6-0.1-0.8c0.6,0,1.9,0,4,0 s3.4,0,4.2,0c0,0.2-0.1,0.5-0.1,0.8v3c0,0.5,0,0.9,0.1,1.3h-0.9v-0.8H355.3z M361.9,205v0.9c-0.7-0.1-1.7-0.1-3.3-0.1 c-1.5,0-2.7,0-3.5,0.1V205c0.8,0.1,2,0.1,3.5,0.1C360.2,205.1,361.3,205,361.9,205z M361.5,211v-2.8h-6.3v2.8H361.5z"/><path id="XMLID_461_" class="st4" d="M369.5,203.1c0,0.7,0,1.5,0,2.4c1.1,0,1.9-0.1,2.5-0.1v0.9c-0.4,0-1.3-0.1-2.5-0.1 c0,0.4,0,0.7-0.1,1.1c1.1,0.9,2,1.7,2.7,2.4l-0.8,0.7c-0.6-0.7-1.2-1.5-2-2.3c-0.1,0.8-0.3,1.5-0.6,2.1c-0.3,0.6-0.8,1.3-1.5,2.1 c-0.2-0.3-0.5-0.5-0.9-0.5c0.9-0.8,1.4-1.6,1.8-2.4c0.3-0.8,0.5-1.9,0.6-3.2c-1.1,0-2,0.1-2.4,0.1v-0.9c0.4,0.1,1.3,0.1,2.5,0.1 c0-0.8,0-1.6,0-2.4c-0.8,0-1.5,0-2,0.1v-0.9c0.4,0.1,1.1,0.1,2,0.1c0-1.4-0.1-2.3-0.2-2.6c0.4,0.1,0.8,0.2,1.2,0.2 c0.1,0,0.2,0,0.2,0.1c0,0.1-0.1,0.1-0.2,0.2c-0.1,0.1-0.2,0.3-0.2,0.6c0,0.3,0,0.8,0,1.5c0.9,0,1.6,0,2-0.1v0.9 C371,203.1,370.3,203.1,369.5,203.1z M374.6,202.9c0.3,0.1,0.7,0.1,1.2,0.1c0.1,0,0.1,0,0.1,0.1c0,0.1,0,0.1-0.1,0.1 c-0.2,0.1-0.3,1.1-0.4,2.9c-0.1,1.1-0.2,2-0.5,2.7s-0.7,1.4-1.3,2s-1.5,1.2-2.6,1.8c-0.2-0.4-0.4-0.7-0.8-0.9 c1.8-0.7,3-1.5,3.6-2.6c0.6-1,0.9-2.6,0.9-4.8C374.7,203.7,374.6,203.2,374.6,202.9z M378.1,201.8v3.7c0,0.9,0,1.7,0.1,2.3h-1 v-6.3h-4v6.4h-1c0.1-0.7,0.1-1.5,0.1-2.3v-3.8c0-0.5,0-0.9-0.1-1.2c0.4,0.1,1.4,0.1,2.9,0.1c1.5,0,2.5,0,2.9-0.1 C378.1,201,378.1,201.4,378.1,201.8z M379.6,210.4c-0.2,0.8-0.5,1.4-0.8,1.6c-0.3,0.2-0.7,0.4-1.4,0.4s-1.1,0-1.4-0.1 c-0.2-0.1-0.4-0.2-0.5-0.4s-0.1-0.6-0.1-1v-2.5c0-0.3,0-0.7-0.1-1.3c0.4,0.1,0.7,0.2,1,0.2c0.1,0,0.2,0,0.2,0.1s0,0.1-0.1,0.1 c-0.1,0.1-0.1,0.2-0.1,0.3v3.1c0,0.2,0,0.3,0.1,0.4c0,0.1,0.1,0.1,0.3,0.2s0.4,0,0.8,0c0.4,0,0.7-0.1,0.9-0.3 c0.2-0.2,0.3-0.7,0.3-1.3C379,210.2,379.4,210.4,379.6,210.4z"/></g></g><path id="XMLID_85_" class="st5" d="M459.8,67.5L459.8,67.5c-21.4-22.3-51.5-36.2-84.7-36.2c-64.8,0-117.5,52.7-117.5,117.5	c0,19.4,4.7,37.7,13.1,53.8l5.3-5.3c-7.2-14.6-11.2-31.1-11.2-48.5c0-60.8,49.5-110.3,110.3-110.3c31.3,0,59.6,13.1,79.7,34.1	l-19.9,19.9c-1.4,1.4-1.4,3.7,0,5c0.7,0.7,1.6,1,2.5,1c0.9,0,1.8-0.3,2.5-1l23.7-23.7C465,72.4,459.8,67.5,459.8,67.5z"/><path id="XMLID_82_" class="st6" d="M308.3,230.2L308.3,230.2c21.4,22.3,51.5,36.2,84.7,36.2c64.8,0,117.5-52.7,117.5-117.5	c0-19.4-4.7-37.7-13.1-53.8l-5.3,5.3c7.2,14.6,11.2,31.1,11.2,48.5c0,60.8-49.5,110.3-110.3,110.3c-31.3,0-59.6-13.1-79.7-34.1	l19.9-19.9c1.4-1.4,1.4-3.7,0-5c-0.7-0.7-1.6-1-2.5-1s-1.8,0.3-2.5,1l-23.7,23.7C303.1,225.3,308.3,230.2,308.3,230.2z"/><circle id="XMLID_81_" class="st4" cx="456.2" cy="89.5" r="2.3"/><circle id="XMLID_80_" class="st4" cx="324.8" cy="221.1" r="2.3"/><circle id="XMLID_79_" class="st4" cx="311.9" cy="208.3" r="2.3"/><circle id="XMLID_78_" class="st4" cx="443" cy="76.4" r="2.3"/><circle id="XMLID_77_" class="st5" cx="273.8" cy="200.4" r="3.9"/><circle id="XMLID_74_" class="st6" cx="494.4" cy="97.5" r="3.9"/><circle id="XMLID_73_" class="st2" cx="494.3" cy="97.4" r="2"/><circle id="XMLID_72_" class="st2" cx="505.5" cy="131.6" r="2"/><circle id="XMLID_71_" class="st2" cx="506.7" cy="148.7" r="2"/><circle id="XMLID_70_" class="st2" cx="505.6" cy="165.8" r="2"/><circle id="XMLID_69_" class="st2" cx="501.7" cy="182.9" r="2"/><circle id="XMLID_68_" class="st2" cx="494.7" cy="200" r="2"/><path id="XMLID_67_" class="st7" d="M503.4 112.9L533 69.9 552 69.9"/><path id="XMLID_66_" class="st7" d="M507.6 130L546 102.7 562.8 102.7"/><path id="XMLID_65_" class="st7" d="M509.8 148.7L556.9 137 569.4 137"/><path id="XMLID_64_" class="st7" d="M509.3 165.8L551.1 170.1 561.8 170.1"/><path id="XMLID_63_" class="st0" d="M637.4,139.4c0,4.9-3.8,8.9-7.3,8.9h-53c-3.5,0-7.3-4-7.3-8.9v-6.5c0-4.9,3.8-8.9,7.3-8.9h53	c3.5,0,7.3,4,7.3,8.9V139.4z"/><path id="XMLID_62_" class="st8" d="M217.7,71.3c0,4.9-3.1,8.9-7,8.9h-49.3c-3.9,0-7-4-7-8.9v-6.5c0-4.9,3.1-8.9,7-8.9h49.3	c3.9,0,7,4,7,8.9V71.3z"/><path id="XMLID_61_" class="st8" d="M206.7,105.5c0,4.9-2.9,8.9-6.4,8.9h-45c-3.5,0-6.4-4-6.4-8.9v-6.5c0-4.9,2.9-8.9,6.4-8.9h45	c3.5,0,6.4,4,6.4,8.9V105.5z"/><path id="XMLID_60_" class="st8" d="M196.1,139.4c0,4.9-3.1,8.9-8.1,8.9h-66.1c-5,0-8.1-4-8.1-8.9v-6.5c0-4.9,3.1-8.9,8.1-8.9H188	c5,0,8.1,4,8.1,8.9V139.4z"/><path id="XMLID_59_" class="st8" d="M206.6,172.7c0,4.9-3.3,8.9-7.4,8.9h-52c-4.1,0-7.4-4-7.4-8.9v-6.5c0-4.9,3.3-8.9,7.4-8.9h52	c4.1,0,7.4,4,7.4,8.9V172.7z"/><path id="XMLID_57_" class="st8" d="M216.7,208.2c0,4.9-3.4,8.9-9.7,8.9h-39.3c-6.3,0-8.8-4-8.8-8.9v-6.8c0-4.9,2.5-8.9,8.8-8.9H207	c6.3,0,9.7,4,9.7,8.9V208.2z"/><g id="XMLID_56_"><path id="XMLID_437_" class="st6" d="M566.4,68.7c-0.5,1.2-1.1,2.3-1.7,3.1c-0.1-0.3-0.3-0.6-0.6-0.9c0.9-0.9,1.6-1.9,2-3.1 c-0.8,0-1.4,0-1.8,0.1V67c0.5,0.1,1.2,0.1,2.1,0.1v-1.8c-0.5,0.1-1,0.2-1.5,0.3c-0.1-0.3-0.3-0.6-0.5-0.9c1.6-0.1,2.9-0.3,4-0.7 c0.1,0.3,0.3,0.6,0.6,0.9c0.1,0.1,0.1,0.1,0.1,0.2s-0.1,0-0.2,0c-0.1,0-0.3,0-0.6,0c-0.3,0-0.7,0-1.1,0.1v1.9c0.8,0,1.5,0,1.8-0.1 v0.9c-0.5,0-1.1-0.1-1.8-0.1v3.9c0,0.5,0,1.1,0.1,1.8h-1c0.1-0.6,0.1-1.3,0.1-1.8V68.7z M568.9,69.9l-0.7,0.5c-0.3-0.5-0.7-1-1-1.5 l0.6-0.4C568.2,69,568.6,69.4,568.9,69.9z M572.5,71.8c-1.2,0.2-2.1,0.4-2.7,0.5c-0.6,0.1-0.9,0.2-1.1,0.3c-0.1-0.3-0.3-0.7-0.5-1 c0.3-0.1,0.5-0.3,0.7-0.5c0.1-0.2,0.3-0.7,0.6-1.3c0.2-0.6,0.5-1.4,0.7-2.4c0.2-1,0.5-2.1,0.7-3.5c0.5,0.2,0.8,0.4,1.1,0.4 c0.1,0,0.2,0.1,0.2,0.1s-0.1,0.1-0.2,0.2c0,0-0.1,0.1-0.2,0.3c-0.1,0.2-0.1,0.4-0.2,0.5c-0.1,0.6-0.4,1.5-0.8,2.7 c-0.4,1.2-0.8,2.2-1.2,3.2l2.8-0.4c-0.3-1.1-0.6-2-0.9-2.7l0.8-0.2c0.3,0.8,0.8,2.2,1.5,4.2l-1,0.3 C572.6,72.4,572.5,72.1,572.5,71.8z"/><path id="XMLID_441_" class="st6" d="M581.4,64.8c1.3,0,2.2,0,2.8-0.1v0.8c-0.7-0.1-1.6-0.1-2.8-0.1v0.5c0.5,0,1.1,0,1.6-0.1 c0,0.4,0,0.9,0,1.4s0,1,0,1.5c-0.7,0-1.3,0-1.8,0h-1.9c-0.1,0.2-0.2,0.4-0.3,0.5h2.1c1.2,0,2.3,0,3.1-0.1v0.8 c-0.7-0.1-1.5-0.1-2.5-0.1c0.7,0.6,1.5,0.9,2.7,1.1c-0.3,0.3-0.4,0.6-0.5,0.9c-0.7-0.2-1.2-0.4-1.5-0.6l-0.1,1.3 c0,0.2-0.1,0.4-0.1,0.5c-0.1,0.1-0.2,0.2-0.5,0.3s-0.6,0.2-1.2,0.3c-0.1-0.3-0.2-0.6-0.4-0.8c0.9,0,1.4-0.1,1.4-0.4l0.1-0.9h-1.9 c-0.2,0.6-0.6,1.1-1.1,1.4s-1.2,0.6-2.1,0.8c-0.1-0.3-0.3-0.5-0.6-0.8c1.6-0.1,2.6-0.5,3-1.4c-0.8,0-1.4,0-1.7,0.1v-0.6 c-0.4,0.3-0.9,0.6-1.5,0.9c-0.2-0.3-0.4-0.6-0.6-0.8c0.9-0.1,1.7-0.6,2.5-1.3c-1.1,0-1.9,0-2.4,0.1V69c0.5,0.1,1.5,0.1,3,0.1 c0.1-0.2,0.3-0.4,0.3-0.5c-0.8,0-1.4,0-2,0c0-0.6,0.1-1.1,0.1-1.6s0-0.9-0.1-1.3c0.4,0,0.9,0.1,1.5,0.1v-0.5c-1.2,0-2.1,0-2.7,0.1 v-0.8c0.6,0.1,1.5,0.1,2.7,0.1c0-0.3,0-0.6-0.1-0.8c0.4,0,0.7,0.1,1,0.1c0.1,0,0.1,0,0.1,0.1c0,0,0,0.1-0.1,0.1s-0.1,0.1-0.1,0.2 v0.4h1.7c0-0.3,0-0.6-0.1-0.9c0.4,0,0.7,0.1,1,0.1c0.1,0,0.1,0,0.1,0.1s0,0.1-0.1,0.1s-0.1,0.1-0.1,0.2V64.8z M582.1,66.9v-0.4 h-4.9v0.4H582.1z M577.3,67.5V68h4.9v-0.5H577.3z M578.5,69.7c-0.3,0.3-0.6,0.7-1.1,1c0.4,0,0.9,0.1,1.6,0.1c0-0.2,0-0.3,0-0.4 c0-0.1,0-0.2,0-0.3c0.3,0.1,0.6,0.1,1,0.1c0.1,0,0.1,0,0.1,0c0,0,0,0.1-0.1,0.1c0,0.1-0.1,0.2-0.2,0.5c1,0,1.7,0,2.1-0.1 c-0.4-0.3-0.6-0.6-0.9-1H578.5z M580.5,65.4h-1.7v0.5h1.7V65.4z"/><path id="XMLID_447_" class="st6" d="M589.4,69.3c-0.6,0.9-1.6,1.7-3.1,2.6c-0.1-0.4-0.4-0.6-0.7-0.7c1-0.3,2-0.9,3-1.9 c-1.2,0-2.1,0-2.7,0.1v-0.8c0.7,0,1.4,0.1,2.1,0.1v-3.2c-0.7,0-1.3,0-1.7,0.1v-0.9c0.6,0,1.1,0.1,1.7,0.1c0-0.4,0-0.7-0.1-0.9 c0.3,0.1,0.6,0.1,1,0.1c0.1,0,0.1,0,0.1,0.1s0,0.1-0.1,0.1c-0.1,0.1-0.1,0.2-0.1,0.4v0.2h3.2c0-0.4,0-0.8-0.1-1 c0.3,0.1,0.7,0.1,1,0.1c0.1,0,0.2,0,0.2,0.1c0,0,0,0.1-0.1,0.1c-0.1,0.1-0.2,0.3-0.2,0.4v0.3c0.7,0,1.3,0,1.9-0.1v0.9 c-0.5,0-1.1-0.1-1.9-0.1v3.2c0.5,0,1.3,0,2.2-0.1v0.8c-0.5-0.1-1.3-0.1-2.4-0.1c0.5,0.7,1.3,1.2,2.4,1.4c-0.3,0.3-0.5,0.6-0.5,1 c-1.5-0.8-2.3-1.6-2.6-2.4H589.4z M590.8,70.9c0.8,0,1.3,0,1.7-0.1v0.8c-0.5,0-1.1-0.1-1.7-0.1v0.9c1.4,0,2.6,0,3.4-0.1v0.8 c-0.9-0.1-2.2-0.1-3.8-0.1c-1.6,0-2.9,0-3.8,0.1v-0.8c0.9,0.1,2,0.1,3.4,0.1v-0.9c-0.7,0-1.3,0-1.8,0.1v-0.8c0.4,0,1,0.1,1.8,0.1 c0-0.4,0-0.8-0.1-1.1c0.3,0,0.6,0.1,0.9,0.1c0.1,0,0.1,0,0.1,0s0,0.1-0.1,0.1c-0.1,0-0.1,0.1-0.1,0.2c0,0.1,0,0.1,0,0.2V70.9z M588.8,66.2h3.2v-0.7h-3.2V66.2z M592,66.7h-3.2v0.7h3.2V66.7z M588.8,68v0.7h3.2V68H588.8z"/><path id="XMLID_453_" class="st6" d="M601.4,64.3c0.7,0.8,1.4,1.4,2.1,1.8c0.7,0.4,1.5,0.7,2.5,1c-0.1,0.1-0.2,0.3-0.3,0.5 s-0.1,0.4-0.2,0.6c-1.9-0.6-3.4-1.7-4.6-3.4c-0.6,0.8-1.4,1.7-2.5,2.5c0.6,0,1.5,0.1,2.6,0.1s2,0,2.6-0.1v0.9 c-0.5,0-1.2-0.1-2.2-0.1v1.3c1.5,0,2.6,0,3.1-0.1v0.9c-0.6,0-1.6-0.1-3.1-0.1v2.2l1,0c0.3-0.7,0.5-1.4,0.6-1.9 c0.4,0.2,0.7,0.3,0.9,0.3c0.1,0,0.1,0.1,0.1,0.1s0,0.1-0.1,0.1c-0.1,0.1-0.4,0.5-0.9,1.3c0.8,0,1.5,0,2.1-0.1v1 c-1.2-0.1-2.7-0.1-4.4-0.1s-3,0-4,0.1v-1c0.9,0.1,2.2,0.1,3.7,0.1v-2.2c-1.4,0-2.4,0-3.1,0.1v-0.9c0.7,0.1,1.8,0.1,3.1,0.1V68 c-1,0-1.7,0-2.2,0.1v-0.8c-0.6,0.5-1.1,0.8-1.5,1c-0.1-0.3-0.3-0.5-0.7-0.7c0.5-0.2,1-0.5,1.5-0.9c0.5-0.4,0.9-0.8,1.3-1.2 c0.4-0.4,0.7-0.7,0.9-1s0.3-0.6,0.5-0.9c0.5,0.2,0.8,0.3,1,0.3c0.2,0,0.2,0.1,0.2,0.1C601.6,64.1,601.5,64.2,601.4,64.3z M599.5,71.6l-0.9,0.4c-0.2-0.6-0.5-1-0.7-1.3l0.9-0.4C599,70.9,599.3,71.3,599.5,71.6z"/></g><g id="XMLID_54_"><path id="XMLID_419_" class="st6" d="M584.9,134.2c0.2,0,0.5,0.1,0.9,0.1c0.1,0,0.1,0,0.1,0.1s0,0.1-0.1,0.2 c-0.1,0.1-0.1,0.3-0.1,0.7c0,1.5-0.1,2.6-0.1,3.1c-0.1,0.5-0.3,1.1-0.7,1.7c-0.4,0.6-0.8,1.1-1.4,1.4c-0.2-0.2-0.5-0.4-0.8-0.6 c0.6-0.4,1.1-0.8,1.5-1.3s0.6-1,0.7-1.6s0.1-1.2,0.1-2S585,134.8,584.9,134.2z M587.5,138.6h-0.9v-5.3h-2.4v5.5h-0.8 c0-0.5,0.1-1,0.1-1.6v-3.1c0-0.7,0-1.3-0.1-1.7c0.2,0.1,0.9,0.1,2,0.1c1.1,0,1.8,0,2.1-0.1c-0.1,0.4-0.1,1-0.1,1.7v2.8 C587.4,137.5,587.4,138.1,587.5,138.6z M587.6,140.5l-0.7,0.7c-0.5-0.7-1-1.2-1.5-1.6l0.6-0.5C586.6,139.4,587.1,139.9,587.6,140.5 z M590.3,134.2c0-1-0.1-1.7-0.1-2.3c0.3,0.1,0.7,0.1,1,0.1c0.1,0,0.2,0,0.2,0.1s0,0.1-0.1,0.2c-0.1,0.1-0.1,0.3-0.1,0.5v1.4 c0.5,0,0.9,0,1.2-0.1v0.9c-0.3-0.1-0.7-0.1-1.2-0.1v5.6c0,0.3,0,0.6-0.1,0.7c-0.1,0.1-0.2,0.2-0.4,0.3c-0.2,0.1-0.6,0.1-1.1,0.2 c0-0.3-0.2-0.7-0.4-1c0.3,0,0.5,0.1,0.7,0.1s0.3,0,0.4-0.1s0.1-0.2,0.1-0.3v-4.9c-0.5,1.7-1.3,3.1-2.4,4.4 c-0.2-0.2-0.4-0.4-0.7-0.5c1.1-1,2-2.5,2.6-4.4c-1.1,0-1.7,0-2,0.1v-0.9C588.1,134.2,588.9,134.2,590.3,134.2z"/><path id="XMLID_424_" class="st6" d="M597.2,133h2.1c1,0,1.8,0,2.6-0.1c-0.5,1.1-1.3,2-2.4,2.7c0.8,0.4,2.1,0.7,3.9,0.8 c-0.2,0.3-0.3,0.7-0.4,1c-1.8-0.3-3.2-0.8-4.2-1.4c-1.5,0.9-3.1,1.4-4.7,1.7c0-0.3-0.2-0.6-0.4-0.9c1.7-0.2,3.2-0.6,4.4-1.3 c-0.5-0.4-1-1-1.4-1.7c-0.4,0.6-0.8,1.1-1.3,1.7c-0.2-0.3-0.5-0.4-0.9-0.5c0.5-0.3,0.9-0.8,1.3-1.4c0.4-0.6,0.7-1.3,0.9-2 c0.4,0.2,0.8,0.4,1.2,0.4c0.1,0,0.2,0,0.2,0.1c0,0.1,0,0.1-0.1,0.1C597.7,132.4,597.5,132.6,597.2,133z M598.5,138.9 c-0.2,0.7-0.5,1.3-1,1.7s-1.4,0.8-2.6,1.2c-0.2-0.4-0.4-0.7-0.7-0.9c1.1-0.1,1.8-0.4,2.4-0.7c0.5-0.3,0.9-0.7,1.1-1.3 c-1.1,0-1.9,0-2.4,0.1v-1c0.4,0.1,1.3,0.1,2.6,0.1c0-0.3,0.1-0.6,0.1-0.8c0-0.2,0-0.4,0-0.6c0.5,0.1,0.8,0.2,1.2,0.2 c0.1,0,0.1,0,0.1,0s0,0.1-0.1,0.1s-0.1,0.2-0.2,0.3s-0.1,0.4-0.2,0.7c1.7,0,2.8,0,3.3-0.1l-0.1,1.9c-0.1,0.7-0.2,1.2-0.6,1.4 c-0.3,0.2-0.9,0.3-1.6,0.4c-0.1-0.4-0.3-0.8-0.6-1.1c0.3,0,0.6,0.1,0.9,0.1c0.3,0,0.5-0.1,0.6-0.2c0.2-0.1,0.2-0.3,0.3-0.6l0.1-1 H598.5z M598.7,135.2c0.6-0.4,1.1-0.9,1.6-1.5h-3.1C597.8,134.3,598.2,134.8,598.7,135.2z"/><path id="XMLID_428_" class="st6" d="M607.2,132.3c0.4,0.2,0.7,0.3,1,0.4c0.1,0,0.1,0,0.1,0.1s0,0.1-0.1,0.1 c-0.1,0-0.2,0.2-0.3,0.4c-0.1,0.2-0.2,0.4-0.4,0.6c-0.2,0.4-0.5,1-1,1.7c-0.5,0.7-1,1.4-1.5,1.8c-0.2-0.2-0.6-0.4-1-0.6 c0.7-0.5,1.3-1.1,1.9-2C606.6,134,607,133.2,607.2,132.3z M611,139.7c-0.3-0.5-0.6-1-0.9-1.5l0.8-0.4c0.8,1,1.5,2,2.1,3l-1,0.6 c-0.1-0.2-0.2-0.6-0.5-1c-2.9,0.2-4.8,0.4-5.7,0.7c-0.1-0.3-0.2-0.7-0.4-1c0.3,0,0.8-0.6,1.5-1.6c0.7-1.1,1.2-2,1.4-2.8 c0.5,0.2,0.8,0.4,1.1,0.5c0.1,0,0.2,0.1,0.2,0.1s-0.1,0.1-0.2,0.1c-0.1,0.1-0.3,0.2-0.5,0.6c-0.7,1.1-1.4,2.1-2.1,3.1L611,139.7z M614.1,136.5c-0.4,0.2-0.7,0.6-0.9,1c-1.7-1.5-2.8-3.1-3.4-5c0.4,0,0.7-0.1,1-0.2C611.3,134.2,612.4,135.6,614.1,136.5z"/><path id="XMLID_432_" class="st6" d="M621.7,135.5c-0.7-0.1-1.6-0.1-2.9-0.1c-1.3,0-2.4,0-3.3,0.1v-0.9c1,0.1,2.1,0.1,3.4,0.1 s2.2,0,2.8-0.1V135.5z M620.3,139.5h-3.2v1.1h-1c0.1-0.6,0.1-1.2,0.1-1.7v-1.4c0-0.4,0-0.8-0.1-1.1c0.5,0.1,1.3,0.1,2.6,0.1 c1.2,0,2.1,0,2.5-0.1c-0.1,0.3-0.1,0.7-0.1,1.1v1.4c0,0.4,0,0.9,0.1,1.2h-0.9V139.5z M623.6,132.5c0,0.2,0,0.7,0,1.3v6.6 c0,0.5-0.2,0.9-0.5,1.1c-0.3,0.2-0.8,0.2-1.6,0.2c0-0.4-0.2-0.7-0.4-1.1c0.3,0,0.6,0,0.8,0s0.4,0,0.5-0.1s0.2-0.2,0.2-0.4v-6.7 h-3.1c-1.8,0-2.9,0-3.4,0.1v-1c0.7,0.1,1.8,0.1,3.5,0.1S622.6,132.6,623.6,132.5z M617.1,138.8h3.2v-1.5h-3.2V138.8z"/></g><g id="XMLID_53_"><path id="XMLID_412_" class="st6" d="M571.1,201c-0.6,0.8-1.2,1.5-1.8,2.1c-0.6,0.6-1.4,1.1-2.4,1.7c-0.2-0.3-0.5-0.6-0.8-0.8 c1-0.3,1.9-0.8,2.8-1.7c0.9-0.8,1.4-1.6,1.6-2.3c0.4,0.1,0.8,0.2,1.2,0.2c0.1,0,0.1,0,0.1,0.1c0,0.1-0.1,0.1-0.2,0.2 c0.5,0.8,1.1,1.4,1.9,1.9s1.6,0.7,2.5,0.8c-0.3,0.3-0.5,0.6-0.7,1.1c-1.1-0.4-1.9-0.8-2.5-1.3C572.1,202.5,571.6,201.8,571.1,201z M571.8,205.3c1.4,0,2.4,0,2.8-0.1v1c-0.4-0.1-1.3-0.1-2.8-0.1v2.3c1.5,0,2.7,0,3.8-0.1v1.1c-1-0.1-2.5-0.1-4.6-0.1 c-2,0-3.6,0-4.6,0.1v-1.1c0.7,0.1,1.3,0.1,1.9,0.1v-2.2c0-0.9,0-1.5-0.1-1.7c0.3,0,0.6,0.1,1.1,0.1c0.1,0,0.1,0,0.1,0.1 s0,0.1-0.1,0.1c-0.1,0-0.1,0.2-0.1,0.4v3.4h1.7v-3.5c0-0.8,0-1.4-0.1-1.7c0.2,0,0.5,0.1,0.7,0.1c0.2,0,0.4,0,0.5,0s0.2,0,0.2,0.1 s0,0.1-0.1,0.1c-0.1,0-0.1,0.1-0.2,0.2c-0.1,0.1-0.1,0.2-0.1,0.3V205.3z"/><path id="XMLID_415_" class="st6" d="M580.2,208.3v-6.5c0-0.5,0-1-0.1-1.5c0.3,0.1,0.6,0.1,1.1,0.1c0.1,0,0.1,0,0.1,0.1 c0,0,0,0.1-0.1,0.2c-0.1,0.1-0.1,0.2-0.1,0.3v7.4h1.2v-6.5c0-0.5,0-1-0.1-1.5c0.2,0,0.6,0.1,1.1,0.1c0.1,0,0.1,0,0.1,0.1 s0,0.1-0.1,0.2s-0.1,0.2-0.1,0.3v7.4c1.5,0,2.6,0,3.2-0.1v1c-0.4-0.1-1.9-0.1-4.5-0.1s-4.2,0-4.7,0.1v-1 C577.8,208.3,578.9,208.3,580.2,208.3z M579.8,206.3l-1.1,0.4c-0.3-1.5-0.7-2.8-1.3-3.8l1-0.4C578.8,203.7,579.3,205,579.8,206.3z M584.9,202.2c0.4,0.2,0.8,0.3,1.2,0.3c0.1,0,0.1,0,0.1,0.1c0,0,0,0.1-0.1,0.1c-0.1,0-0.2,0.2-0.3,0.4s-0.2,0.5-0.3,0.7 c-0.3,1-0.6,1.9-0.9,2.7c-0.3-0.2-0.6-0.2-0.9-0.2C584.2,205.3,584.6,203.9,584.9,202.2z"/></g><g id="XMLID_52_"><path id="XMLID_401_" class="st6" d="M544.1,235.5c0-0.4,0-0.9-0.1-1.2c0.3,0,0.6,0.1,1.1,0.1c0.1,0,0.1,0,0.1,0c0,0,0,0.1-0.1,0.1 c-0.1,0.1-0.1,0.2-0.1,0.3v0.7h3.1c0-0.6,0-1-0.1-1.4c0.3,0.1,0.7,0.1,1,0.1c0.1,0,0.2,0,0.2,0.1c0,0,0,0.1-0.1,0.1 c-0.1,0.1-0.1,0.2-0.1,0.3v0.7c0.7,0,1.3,0,1.8-0.1v0.9c-0.5,0-1.1-0.1-1.8-0.1v4.4c0.8,0,1.6,0,2.3-0.1v0.9 c-0.7-0.1-2.3-0.1-4.7-0.1c-2.4,0-4,0-4.7,0.1v-0.9c0.7,0.1,1.5,0.1,2.3,0.1v-4.4c-0.6,0-1.3,0-1.9,0.1v-0.9 C542.9,235.5,543.5,235.5,544.1,235.5z M545.1,241.7c0.3,0.3,0.5,0.5,0.8,0.7c0,0,0.1,0.1,0.1,0.1s0,0-0.1,0 c-0.2,0-0.4,0.1-0.7,0.2c-0.3,0.1-1.1,0.6-2.3,1.2c-0.1-0.2-0.3-0.5-0.6-0.8C543.3,243,544.2,242.4,545.1,241.7z M545,237.2h3.1 v-0.9H545V237.2z M548.1,237.9H545v1h3.1V237.9z M545,239.5v1.1h3.1v-1.1H545z M550.7,243l-0.6,0.8c-0.8-0.6-1.6-1-2.7-1.4l0.5-0.7 C548.8,242.1,549.8,242.5,550.7,243z"/><path id="XMLID_408_" class="st6" d="M552.8,235.5c0.7,0,2.1,0.1,4.4,0.1c2.2,0,3.7,0,4.4-0.1v2.2h-0.9v-1.3h-6.9v1.6h-0.9V235.5z M555.5,240.5v1.7c0,0.2,0,0.3,0.1,0.4c0.1,0.1,0.3,0.2,0.5,0.2c0.3,0,0.7,0.1,1.2,0.1c1.4,0,2.2-0.1,2.5-0.2 c0.3-0.1,0.5-0.5,0.6-1.2c0.3,0.3,0.6,0.5,1,0.7c-0.1,0.5-0.3,0.8-0.4,1c-0.1,0.2-0.3,0.3-0.6,0.4c-0.3,0.1-0.7,0.2-1.4,0.2 c-0.7,0-1.3,0.1-2,0.1s-1.1,0-1.5-0.1c-0.3-0.1-0.6-0.2-0.8-0.3c-0.2-0.2-0.3-0.4-0.3-0.9v-4c0-0.4,0-0.8-0.1-1.1 c0.2,0,0.4,0,0.7,0l0.4,0c0.1,0,0.2,0,0.2,0.1c0,0,0,0.1-0.1,0.1c-0.1,0-0.2,0.1-0.2,0.3v1.7c2.6-0.6,4.1-1.2,4.6-1.5 c0.2,0.4,0.4,0.8,0.6,1c0,0,0.1,0.1,0.1,0.1s0,0-0.1,0l-0.2,0C560.3,239.3,558.6,239.7,555.5,240.5z M556.4,234.3l1-0.3 c0.2,0.5,0.3,0.9,0.5,1.3l-1,0.2C556.7,235.1,556.6,234.7,556.4,234.3z"/></g><path id="XMLID_51_" class="st7" d="M504.4 184.3L541.8 204.2 552 204.2"/><path id="XMLID_50_" class="st7" d="M497.2 202.2L518.7 238.4 529.5 238.4"/><path id="XMLID_49_" class="st9" d="M265.3 111.7L234.6 67.7 218 67.7"/><path id="XMLID_48_" class="st9" d="M260 128.3L224 102.3 207.3 102.3"/><path id="XMLID_47_" class="st9" d="M257.5 147.6L209.5 137.1 196.7 137.1"/><path id="XMLID_46_" class="st9" d="M259.3 166.4L221.3 171.2 207 171.2"/><path id="XMLID_44_" class="st9" d="M264.2 183.3L235.1 205.7 216.7 205.7"/><circle id="XMLID_43_" class="st2" cx="267.3" cy="113.1" r="2"/><circle id="XMLID_42_" class="st2" cx="262.5" cy="130.6" r="2"/><circle id="XMLID_41_" class="st2" cx="261.5" cy="148.1" r="2"/><circle id="XMLID_40_" class="st2" cx="262.5" cy="165.6" r="2"/><circle id="XMLID_38_" class="st2" cx="273.7" cy="200.6" r="2"/><g id="XMLID_37_"><path id="XMLID_384_" class="st5" d="M166.4,71.2v-3.1c0-0.4,0-0.8-0.1-1.2c0.2,0,0.6,0.1,1,0.1c0.1,0,0.2,0,0.2,0.1 c0,0,0,0.1-0.1,0.2c-0.1,0.1-0.2,0.3-0.2,0.6v3.2l1-0.2v-5.7c-0.8,0-1.5,0-2,0.1v-1c0.5,0.1,1.2,0.1,2.2,0.1c1,0,1.7,0,2.2-0.1v0.9 c-0.3,0-0.8-0.1-1.6-0.1v2.4c0.5,0,1,0,1.2-0.1v0.8c-0.3,0-0.7,0-1.2,0v2.4c0.5-0.1,1-0.2,1.3-0.3c0,0.2,0,0.3,0,0.5s0,0.3,0,0.4 c-0.6,0.1-1.3,0.3-2.3,0.5c-1,0.3-1.7,0.5-2.1,0.6c-0.1-0.4-0.2-0.7-0.4-1.1C165.9,71.3,166.2,71.2,166.4,71.2z M172.5,71.5 c-0.6,0.6-1.5,1.2-2.6,1.7c-0.1-0.3-0.4-0.6-0.8-0.8c1.2-0.3,2.2-0.8,2.8-1.6c-0.4-0.8-0.7-1.9-0.8-3.2c0,0.1-0.1,0.2-0.2,0.3 c-0.2-0.2-0.5-0.4-0.7-0.5c0.9-1.2,1.4-2.5,1.6-4c0.4,0.1,0.8,0.2,1.1,0.3c0.1,0,0.1,0,0.1,0.1s0,0.1-0.1,0.1 c-0.1,0-0.3,0.5-0.7,1.4h1.3c0.8,0,1.4,0,1.7-0.1v0.9c-0.3,0-0.7,0-1,0c-0.1,2-0.5,3.6-1.2,4.8c0.5,0.5,1.2,0.9,2.3,1.2 c-0.3,0.3-0.6,0.7-0.7,1.1C173.7,72.6,173,72.1,172.5,71.5z M172.5,70.1c0.5-0.9,0.7-2.2,0.8-4h-1.4c-0.3,0.6-0.5,1.1-0.7,1.4 l0.7-0.1C171.9,68.3,172.1,69.2,172.5,70.1z"/><path id="XMLID_388_" class="st5" d="M182.1,64.7c1.9,0,3,0,3.5-0.1v0.9c-0.5-0.1-1.4-0.1-2.7-0.1h-4.7c0,2.3-0.1,4-0.2,5 s-0.4,1.9-0.7,2.6c-0.3-0.2-0.6-0.5-0.9-0.7c0.6-0.7,1-2.4,1-5.2c0-0.8,0-1.7-0.1-2.7c0.6,0.1,1.9,0.1,3.8,0.1 c-0.2-0.3-0.3-0.7-0.5-1l1.1-0.3C181.7,63.9,181.9,64.3,182.1,64.7z M179.5,68.5c-0.2,0.3-0.4,0.6-0.7,1c-0.1-0.3-0.3-0.6-0.5-0.8 c0.4-0.4,0.8-0.9,1.1-1.5s0.5-1.1,0.6-1.6c0.3,0.1,0.5,0.2,0.7,0.3c0.2,0,0.3,0.1,0.3,0.1c0,0,0,0.1-0.1,0.1 c-0.1,0-0.1,0.1-0.2,0.2s-0.2,0.3-0.4,0.7v6h-0.9c0.1-0.8,0.1-1.5,0.1-2.3V68.5z M184.5,68v4.1c0,0.3,0,0.5-0.1,0.7 c-0.1,0.1-0.2,0.2-0.5,0.3s-0.7,0.1-1.3,0.2c0-0.3-0.2-0.7-0.4-1.1c0.3,0,0.6,0,0.8,0s0.4,0,0.4-0.1c0.1-0.1,0.1-0.2,0.1-0.4V68 c-1.4,0-2.3,0-2.8,0.1v-0.9c0.5,0.1,1.4,0.1,2.8,0.1c0-0.7-0.1-1.3-0.1-1.6c0.3,0,0.6,0.1,1,0.1c0.1,0,0.2,0,0.2,0s0,0.1-0.1,0.2 c-0.1,0.1-0.1,0.2-0.1,0.5v0.8c0.6,0,1.1,0,1.4-0.1v0.9C185.5,68.1,185,68.1,184.5,68z M182.8,70.3l-0.9,0.4 c-0.2-0.5-0.4-1-0.7-1.5l0.9-0.4C182.3,69.3,182.6,69.8,182.8,70.3z"/><path id="XMLID_393_" class="st5" d="M192.4,68.9c1.7,0,3.1,0,4.1-0.1v1c-1-0.1-2.4-0.1-4.1-0.1v1.9c0,0.5,0,1,0.1,1.7h-1.1 c0.1-0.6,0.1-1.2,0.1-1.7v-1.9c-1.8,0-3.1,0-4.2,0.1v-1c1,0.1,2.4,0.1,4.2,0.1v-4c-1.4,0-2.5,0-3.3,0.1v-1c0.9,0.1,2.2,0.1,3.8,0.1 s2.9,0,3.7-0.1v1c-0.8-0.1-1.9-0.1-3.3-0.1V68.9z M190.5,68l-0.9,0.4c-0.2-0.8-0.5-1.5-0.9-2.1l0.9-0.4 C189.9,66.5,190.2,67.2,190.5,68z M194.4,65.8c0.4,0.2,0.8,0.3,1,0.4c0.1,0,0.1,0.1,0.1,0.1s0,0.1-0.1,0.1c0,0-0.1,0.1-0.2,0.1 c-0.1,0.1-0.1,0.2-0.2,0.3c-0.4,0.7-0.7,1.2-0.9,1.6c-0.3-0.1-0.6-0.2-0.9-0.3C193.8,67.5,194.2,66.7,194.4,65.8z"/><path id="XMLID_397_" class="st5" d="M205.5,67.3c-2.1,0.1-3.8,0.2-4.9,0.3c-1.1,0.1-1.9,0.2-2.3,0.3c0-0.3-0.1-0.6-0.3-0.9 c0.5-0.1,1-0.3,1.3-0.6s0.8-0.7,1.4-1.4c0.6-0.6,1.1-1.2,1.4-1.7c0.4,0.3,0.8,0.4,1.1,0.5c0.1,0.1,0.2,0.1,0.2,0.2 s-0.1,0.1-0.2,0.1c-0.2,0-0.4,0.2-0.7,0.5c-0.9,0.9-1.8,1.7-2.5,2.2l4.9-0.2c-0.4-0.4-0.9-0.9-1.4-1.3l0.7-0.5 c0.9,0.7,1.8,1.6,2.7,2.6l-0.9,0.6C205.9,67.7,205.7,67.5,205.5,67.3z M200.1,72.3v0.7h-1c0.1-0.6,0.1-1.1,0.1-1.6v-1.7 c0-0.4,0-0.7-0.1-1c0.4,0,1.5,0.1,3.3,0.1c1.8,0,3,0,3.5-0.1c0,0.2-0.1,0.5-0.1,1v1.6c0,0.6,0,1.2,0.1,1.6h-1v-0.6H200.1z M204.9,71.6v-2h-4.8v2H204.9z"/></g><g id="XMLID_36_"><path id="XMLID_364_" class="st5" d="M159.2,98.9v7.4h-0.9c0.1-0.6,0.1-1.4,0.1-2.3v-3.5c-0.3,0.5-0.6,1-0.9,1.4 c-0.1-0.2-0.4-0.5-0.6-0.7c0.5-0.4,1-1.1,1.4-2.1c0.4-1,0.6-1.8,0.7-2.4c0.3,0.1,0.7,0.2,1,0.3c0.1,0,0.2,0.1,0.2,0.1 s-0.1,0.1-0.2,0.2C159.8,97.5,159.5,98,159.2,98.9z M163.4,101.6c1.1,0,2.1,0,2.9-0.1v0.8c-0.7-0.1-1.4-0.1-2.3-0.1 c0.4,0.7,0.8,1.2,1.2,1.5c0.4,0.3,1,0.6,1.8,0.8c-0.3,0.2-0.5,0.6-0.7,1c-1.3-0.6-2.2-1.7-2.6-3.3h-0.1v2.3c0,0.5,0,1,0.1,1.7h-1 c0.1-0.6,0.1-1.1,0.1-1.7v-2.3h-0.1c-0.2,0.7-0.5,1.4-0.9,1.9c-0.3,0.5-0.8,1.1-1.5,1.7c-0.2-0.2-0.5-0.4-0.9-0.6 c1.2-0.9,2.1-1.9,2.5-3c-0.8,0-1.5,0-2.2,0.1v-0.8c0.8,0.1,1.7,0.1,2.9,0.1v-1.3c-0.9,0-1.5,0-1.9,0c0-0.3,0-0.8,0-1.6s0-1.2,0-1.6 c0.4,0,1.2,0.1,2.3,0.1s2,0,2.5-0.1c0,0.4,0,0.9,0,1.6c0,0.7,0,1.2,0,1.6c-0.3,0-1,0-2.1,0V101.6z M161.6,97.9v1.7h3.1v-1.7H161.6z"/><path id="XMLID_368_" class="st5" d="M169.1,98.3c-0.4,0-0.9,0-1.2,0.1v-0.9c0.4,0,0.9,0.1,1.7,0.1s1.3,0,1.7-0.1v0.9 c-0.3,0-0.8-0.1-1.3-0.1v2.3c0.5,0,0.9,0,1.2-0.1v0.9c-0.4,0-0.8-0.1-1.2-0.1v2.5c0.4-0.1,0.8-0.3,1.2-0.5c0,0.2,0,0.4,0,0.5 s0,0.3,0,0.4c-1.3,0.4-2.4,0.9-3.2,1.4c0-0.2,0-0.4-0.1-0.7c-0.1-0.3-0.1-0.5-0.2-0.6c0.5,0,1-0.1,1.5-0.3v-2.8c-0.5,0-1,0-1.2,0.1 v-0.9c0.3,0,0.8,0.1,1.2,0.1V98.3z M174.5,103.9v1.2c1.1,0,2,0,2.8-0.1v0.9c-0.8-0.1-1.9-0.1-3.3-0.1c-1.4,0-2.6,0-3.3,0.1V105 c0.8,0,1.8,0.1,3,0.1v-1.2c-0.8,0-1.5,0-2.1,0.1v-0.9c0.5,0.1,1.2,0.1,2.1,0.1v-1.1c-1.3,0-2,0-2.2,0.1c0-0.8,0.1-1.7,0.1-2.6 s0-1.7-0.1-2.4c0.2,0.1,1.1,0.1,2.7,0.1c1.6,0,2.4,0,2.6-0.1c0,0.6-0.1,1.3-0.1,2.2c0,0.9,0,1.8,0.1,2.8c-0.1,0-0.9-0.1-2.3-0.1 v1.1c0.9,0,1.6,0,2.2-0.1v0.9C176.2,104,175.4,103.9,174.5,103.9z M173.7,99.4V98h-1.3v1.3H173.7z M173.7,101.5v-1.4h-1.3v1.4 H173.7z M174.5,98v1.3h1.4V98H174.5z M174.5,100.1v1.4h1.4v-1.4H174.5z"/><path id="XMLID_375_" class="st5" d="M181.3,97c0.4,0.2,0.7,0.3,1,0.4c0.1,0,0.1,0,0.1,0.1s0,0.1-0.1,0.1c-0.1,0-0.2,0.2-0.3,0.4 c-0.1,0.2-0.2,0.4-0.4,0.6c-0.2,0.4-0.5,1-1,1.7s-1,1.4-1.5,1.8c-0.2-0.2-0.6-0.4-1-0.6c0.7-0.5,1.3-1.1,1.9-2 C180.7,98.7,181.1,97.9,181.3,97z M185.1,104.4c-0.3-0.5-0.6-1-0.9-1.5l0.8-0.4c0.8,1,1.5,2,2.1,3l-1,0.6c-0.1-0.2-0.2-0.6-0.5-1 c-2.9,0.2-4.8,0.4-5.7,0.7c-0.1-0.3-0.2-0.7-0.4-1c0.3,0,0.8-0.6,1.5-1.6s1.2-2,1.4-2.8c0.5,0.2,0.8,0.4,1.1,0.5 c0.1,0,0.2,0.1,0.2,0.1s-0.1,0.1-0.2,0.1c-0.1,0.1-0.3,0.2-0.5,0.6c-0.7,1.1-1.4,2.1-2.1,3.1L185.1,104.4z M188.2,101.2 c-0.4,0.2-0.7,0.6-0.9,1c-1.7-1.5-2.8-3.1-3.4-5c0.4,0,0.7-0.1,1-0.2C185.4,98.9,186.5,100.3,188.2,101.2z"/><path id="XMLID_379_" class="st5" d="M195.8,100.2c-0.7-0.1-1.6-0.1-2.9-0.1c-1.3,0-2.4,0-3.3,0.1v-0.9c1,0.1,2.1,0.1,3.4,0.1 s2.2,0,2.8-0.1V100.2z M194.5,104.2h-3.2v1.1h-1c0.1-0.6,0.1-1.2,0.1-1.7v-1.4c0-0.4,0-0.8-0.1-1.1c0.5,0.1,1.3,0.1,2.6,0.1 s2.1,0,2.5-0.1c-0.1,0.3-0.1,0.7-0.1,1.1v1.4c0,0.4,0,0.9,0.1,1.2h-0.9V104.2z M197.7,97.2c0,0.2,0,0.7,0,1.3v6.6 c0,0.5-0.2,0.9-0.5,1.1c-0.3,0.2-0.8,0.2-1.6,0.2c0-0.4-0.2-0.7-0.4-1.1c0.3,0,0.6,0,0.8,0s0.4,0,0.5-0.1s0.2-0.2,0.2-0.4v-6.7 h-3.1c-1.8,0-2.9,0-3.4,0.1v-1c0.7,0.1,1.8,0.1,3.5,0.1S196.7,97.3,197.7,97.2z M191.2,103.5h3.2v-1.5h-3.2V103.5z"/></g><g id="XMLID_35_"><path id="XMLID_325_" class="st5" d="M123.8,137.1c0-0.4,0-0.7-0.1-0.9c0.6,0.1,1.3,0.1,2.2,0.1s1.6,0,2.2-0.1 c0,0.2-0.1,0.5-0.1,0.9v2.8c0,0.3-0.1,0.5-0.3,0.7c-0.2,0.2-0.5,0.3-1,0.3c0-0.3-0.1-0.6-0.2-0.8c0.2,0,0.3,0,0.4,0 c0.1,0,0.2,0,0.3-0.1s0.1-0.2,0.1-0.3v-2.7h-2.8v4h-0.8c0.1-0.4,0.1-0.8,0.1-1.2V137.1z M128.2,132.9c-0.5,0-1.3-0.1-2.2-0.1 c-0.9,0-1.7,0-2.2,0.1V132c0.5,0.1,1.2,0.1,2.1,0.1c0.9,0,1.7,0,2.2-0.1V132.9z M124.2,133.4c0.5,0.1,1.1,0.1,1.8,0.1 c0.7,0,1.3,0,1.8-0.1c0,0.3-0.1,0.7-0.1,1.1s0,0.8,0.1,1.2c-0.4-0.1-1-0.1-1.8-0.1s-1.4,0-1.8,0.1c0-0.3,0.1-0.7,0.1-1.1 C124.3,134.1,124.3,133.7,124.2,133.4z M125.9,138.5c0.1-0.4,0.2-0.8,0.3-1.3c0.3,0.1,0.5,0.2,0.7,0.2c0,0,0.1,0,0.1,0 s0,0.1-0.1,0.1c-0.1,0-0.2,0.4-0.5,0.9c0.2,0,0.4,0,0.5-0.1v0.7c-0.3,0-0.5-0.1-0.9-0.1v0.8c0,0.2,0,0.4,0,0.5h-0.6 c0-0.1,0-0.3,0-0.5V139c-0.3,0-0.5,0-0.7,0.1v-0.7C125.1,138.4,125.5,138.5,125.9,138.5z M125.5,137.3c0.1,0.4,0.2,0.6,0.3,0.7 l-0.6,0.2c-0.1-0.3-0.1-0.5-0.2-0.8L125.5,137.3z M125,134.1v0.9h2v-0.9H125z M130.9,133.5c0.9,0,1.4,0,1.7-0.1 c0,0.3-0.1,0.6-0.1,1v1.7c0,0.4,0,0.9,0.1,1.3c-0.3-0.1-0.9-0.1-1.7-0.1v2.3l1-0.2c-0.1-0.5-0.2-0.9-0.3-1.1l0.7-0.2 c0.3,0.6,0.5,1.5,0.8,2.4l-0.8,0.3c0-0.3-0.1-0.5-0.2-0.8l-2.1,0.5c-0.6,0.1-1,0.3-1.4,0.5c-0.1-0.3-0.1-0.7-0.3-1.1 c0.4,0,1,0,1.9-0.1v-2.5h-0.8v0.7h-0.8c0-0.4,0.1-0.7,0.1-1.1v-2.4c0-0.4,0-0.8-0.1-1c0.4,0,0.9,0.1,1.6,0.1c0-1.2,0-1.9-0.1-2 c0.4,0.1,0.7,0.1,0.9,0.1c0.1,0,0.2,0,0.2,0.1c0,0,0,0.1-0.1,0.1s-0.1,0.1-0.2,0.2s-0.1,0.3-0.1,0.4V133.5z M130.2,136.6v-2.3h-0.8 v2.3H130.2z M130.9,134.2v2.3h0.9v-2.3H130.9z"/><path id="XMLID_335_" class="st5" d="M137.1,134.8c-1,0.6-1.8,1.1-2.4,1.5c-0.2-0.3-0.3-0.6-0.5-0.9c1-0.4,1.9-0.8,2.7-1.4 C136.9,134.3,137,134.6,137.1,134.8z M138.3,137.3c0.4,0.1,0.6,0.1,0.9,0.2c0.2,0,0.3,0,0.3,0.1c0,0,0,0.1-0.1,0.1 c-0.1,0.1-0.3,0.3-0.4,0.7c-0.2,0.9-0.7,1.6-1.3,2c-0.6,0.4-1.5,0.7-2.5,0.9c-0.1-0.3-0.3-0.5-0.6-0.7c0.8-0.1,1.4-0.2,2-0.4 c0.6-0.2,1-0.5,1.2-0.9C138.1,138.7,138.3,138.1,138.3,137.3z M136.8,132.9l-0.6,0.8c-0.5-0.4-1-0.7-1.6-1l0.5-0.7 C135.8,132.3,136.3,132.6,136.8,132.9z M142,139.2h-0.9v-2.3h-4.4v2.4h-0.9c0-0.3,0.1-0.6,0.1-1v-1.2c0-0.5,0-0.8-0.1-0.9 c0.2,0,1.2,0.1,3,0.1c1.8,0,2.9,0,3.2-0.1c0,0.1,0,0.4,0,0.9v1.2C142,138.6,142,138.9,142,139.2z M138.7,133.2 c-0.3,0.3-0.5,0.6-0.9,1c-0.2-0.2-0.5-0.3-0.8-0.4c0.9-0.7,1.5-1.6,1.7-2.4c0.3,0.2,0.6,0.2,0.9,0.3c0.1,0,0.2,0,0.2,0.1 s-0.1,0.1-0.2,0.2c-0.1,0.1-0.3,0.3-0.5,0.6h2.1c0.7,0,1.4,0,2-0.1l-0.6,1.7l-1-0.1l0.3-0.7h-1.7c0.2,0.7,0.6,1.2,1.1,1.5 c0.5,0.4,1.2,0.6,2.1,0.6c-0.3,0.3-0.4,0.6-0.6,1c-1.5-0.4-2.5-1.2-2.9-2.3c-0.5,1-1.3,1.8-2.4,2.2c-0.2-0.2-0.4-0.4-0.6-0.5 c1.4-0.5,2.3-1.4,2.6-2.4H138.7z M142.9,140.3l-0.6,0.8c-1-0.6-2.1-1.2-3.2-1.6l0.4-0.7C140.9,139.4,142,139.9,142.9,140.3z"/><path id="XMLID_342_" class="st5" d="M146.5,135.2c-0.5,0-1,0-1.5,0.1v-0.9c0.4,0,0.9,0.1,1.5,0.1v-1.2l-1.3,0.3 c0-0.3-0.1-0.5-0.3-0.8c1-0.1,2-0.4,3.2-0.9c0.2,0.4,0.3,0.7,0.4,0.9c0.1,0.1,0.1,0.1,0.1,0.2s0,0-0.1,0l-0.1,0 c-0.2,0-0.6,0.1-1.3,0.2v1.4c0.6,0,1,0,1.4-0.1v0.9c-0.3,0-0.8-0.1-1.4-0.1v4.1c0,0.6,0,1.2,0.1,1.9h-1c0.1-0.7,0.1-1.3,0.1-1.9 v-2.4c-0.4,0.9-0.8,1.7-1.3,2.5c-0.2-0.4-0.4-0.7-0.6-0.9C145.5,137.5,146.1,136.4,146.5,135.2L146.5,135.2z M148.9,137.4l-0.7,0.4 c-0.2-0.3-0.4-0.7-0.8-1.3l0.6-0.4C148.2,136.5,148.5,136.9,148.9,137.4z M153.4,139.8c0.3,0,0.7,0,0.9-0.1v0.9c0,0-1,0-2.9,0 s-3,0-3.3,0.1v-0.9c0.2,0,0.6,0,1.1,0.1V133c0-0.6,0-1,0-1.1c0.6,0,1.3,0.1,2.1,0.1c0.8,0,1.5,0,2.1-0.1c0,0.1,0,0.5,0,1.1V139.8z M150.1,134.5h2.4v-1.8h-2.4V134.5z M152.5,135.3h-2.4v1.7h2.4V135.3z M150.1,139.8h2.4v-2h-2.4V139.8z"/><path id="XMLID_349_" class="st5" d="M156.8,134c-0.3,0.3-0.6,0.7-0.9,1c-0.2-0.2-0.4-0.4-0.6-0.6c0.4-0.4,0.8-0.8,1.2-1.3 c0.4-0.5,0.8-1.1,1-1.7c0.3,0.2,0.5,0.3,0.8,0.3c0.2,0,0.3,0.1,0.3,0.1c0,0.1-0.1,0.1-0.2,0.1c-0.1,0-0.3,0.3-0.8,0.9v3.5h-0.9 c0-0.4,0.1-0.8,0.1-1.2V134z M159.8,137.9c0.4,0.1,0.7,0.2,0.9,0.2s0.3,0,0.3,0.1s0,0.1-0.1,0.2c-0.1,0.1-0.2,0.3-0.3,0.6 c-0.2,0.5-0.5,0.9-0.8,1.1c-0.3,0.2-0.7,0.4-1.1,0.6c-0.4,0.1-1.2,0.3-2.3,0.4c-0.1-0.3-0.3-0.6-0.5-0.8c1.5,0,2.5-0.2,3.1-0.6 C159.5,139.3,159.8,138.7,159.8,137.9z M163.5,139.1h-1v-1.5h-4.5v1.7h-0.9c0-0.2,0-0.4,0-0.6v-1.1c0-0.4,0-0.6-0.1-0.9 c0.6,0.1,1.7,0.1,3.2,0.1c1.5,0,2.6,0,3.1-0.1c0,0.2-0.1,0.5-0.1,0.9v0.8C163.4,138.6,163.5,138.8,163.5,139.1z M160.7,132.8 c-0.9,0.1-1.5,0.1-1.9,0.1c0-0.3-0.1-0.5-0.2-0.7c0.6,0,1.4,0,2.5-0.1c1.1-0.1,1.9-0.2,2.4-0.4c0.2,0.2,0.4,0.5,0.6,0.7 c0.1,0.1,0.1,0.1,0.1,0.2c0,0,0,0-0.1,0c0,0-0.1,0-0.2,0c-0.1,0-0.2,0-0.3,0c-0.1,0-0.4,0-0.7,0.1l-1.3,0.1v0.9 c1.4,0,2.5,0,3.3-0.1v0.9c-0.8-0.1-1.9-0.1-3.3-0.1v0.9c1.1,0,2,0,2.7-0.1v0.9c-0.7-0.1-1.6-0.1-2.9-0.1c-1.2,0-2.2,0-2.9,0.1v-0.9 c0.6,0,1.3,0.1,2.2,0.1v-0.9c-1,0-1.9,0-2.5,0.1v-0.9c0.7,0,1.6,0.1,2.5,0.1V132.8z M164.7,140.2l-0.5,0.8 c-1.1-0.7-2.3-1.2-3.5-1.5l0.4-0.6C162.4,139.3,163.6,139.7,164.7,140.2z"/><path id="XMLID_355_" class="st5" d="M169.1,131.8c0.4,0.2,0.7,0.3,1,0.4c0.1,0,0.1,0,0.1,0.1s0,0.1-0.1,0.1 c-0.1,0-0.2,0.2-0.3,0.4c-0.1,0.2-0.2,0.4-0.4,0.6c-0.2,0.4-0.5,1-1,1.7s-1,1.4-1.5,1.8c-0.2-0.2-0.6-0.4-1-0.6 c0.7-0.5,1.3-1.1,1.9-2C168.4,133.4,168.8,132.6,169.1,131.8z M172.9,139.1c-0.3-0.5-0.6-1-0.9-1.5l0.8-0.4c0.8,1,1.5,2,2.1,3 l-1,0.6c-0.1-0.2-0.2-0.6-0.5-1c-2.9,0.2-4.8,0.4-5.7,0.7c-0.1-0.3-0.2-0.7-0.4-1c0.3,0,0.8-0.6,1.5-1.6s1.2-2,1.4-2.8 c0.5,0.2,0.8,0.4,1.1,0.5c0.1,0,0.2,0.1,0.2,0.1s-0.1,0.1-0.2,0.1c-0.1,0.1-0.3,0.2-0.5,0.6c-0.7,1.1-1.4,2.1-2.1,3.1L172.9,139.1z M175.9,135.9c-0.4,0.2-0.7,0.6-0.9,1c-1.7-1.5-2.8-3.1-3.4-5c0.4,0,0.7-0.1,1-0.2C173.2,133.6,174.3,135,175.9,135.9z"/><path id="XMLID_359_" class="st5" d="M183.6,134.9c-0.7-0.1-1.6-0.1-2.9-0.1c-1.3,0-2.4,0-3.3,0.1v-0.9c1,0.1,2.1,0.1,3.4,0.1 s2.2,0,2.8-0.1V134.9z M182.2,139H179v1.1h-1c0.1-0.6,0.1-1.2,0.1-1.7V137c0-0.4,0-0.8-0.1-1.1c0.5,0.1,1.3,0.1,2.6,0.1 s2.1,0,2.5-0.1c-0.1,0.3-0.1,0.7-0.1,1.1v1.4c0,0.4,0,0.9,0.1,1.2h-0.9V139z M185.5,132c0,0.2,0,0.7,0,1.3v6.6 c0,0.5-0.2,0.9-0.5,1.1c-0.3,0.2-0.8,0.2-1.6,0.2c0-0.4-0.2-0.7-0.4-1.1c0.3,0,0.6,0,0.8,0s0.4,0,0.5-0.1s0.2-0.2,0.2-0.4v-6.7 h-3.1c-1.8,0-2.9,0-3.4,0.1v-1c0.7,0.1,1.8,0.1,3.5,0.1S184.4,132,185.5,132z M179,138.2h3.2v-1.5H179V138.2z"/></g><g id="XMLID_34_"><path id="XMLID_305_" class="st5" d="M154.8,167.4c0.4,0.1,0.7,0.2,0.9,0.2c0.2,0,0.3,0.1,0.3,0.1s-0.1,0.1-0.2,0.2 c-0.1,0.1-0.2,0.3-0.4,0.7c-0.4,1.2-0.9,2.3-1.5,3.1c-0.3-0.1-0.6-0.2-1-0.3C154,170.2,154.6,168.8,154.8,167.4z M157.3,164.8 c0.1,0,0.3,0,0.6,0l0.6,0c0.1,0,0.2,0,0.2,0.1c0,0.1,0,0.1-0.1,0.2s-0.1,0.1-0.2,0.2c0,0.1,0,0.3,0,0.5v7.1c0,0.3,0,0.6-0.1,0.7 c-0.1,0.1-0.2,0.3-0.5,0.3c-0.2,0.1-0.7,0.2-1.3,0.2c-0.1-0.4-0.2-0.7-0.4-1.1c0.2,0,0.3,0,0.5,0c0.4,0,0.6,0,0.7-0.1 c0.1-0.1,0.2-0.2,0.2-0.4v-6.1C157.4,165.7,157.3,165.1,157.3,164.8z M162.6,171.2l-1,0.4c-0.5-1.4-1.1-2.6-1.9-3.8l0.9-0.4 C161.3,168.6,162,169.9,162.6,171.2z"/><path id="XMLID_309_" class="st5" d="M165.2,167.2c-0.3,0.4-0.6,0.7-0.9,0.9c-0.2-0.3-0.4-0.5-0.7-0.7c1-0.6,1.8-1.5,2.3-2.8 c0.3,0.2,0.6,0.3,1,0.4c0.1,0,0.2,0.1,0.2,0.1c0,0-0.1,0.1-0.2,0.1c-0.1,0.1-0.4,0.4-0.9,1v3.1h-0.9c0-0.3,0.1-0.6,0.1-0.9V167.2z M168,170.9c0.3,0.1,0.6,0.1,1,0.1c0.1,0,0.1,0,0.1,0s0,0.1-0.1,0.1c-0.1,0.1-0.2,0.3-0.3,0.7c-0.1,0.5-0.5,1-1,1.5 c-0.6,0.5-1.6,0.8-3.2,1c-0.1-0.3-0.3-0.6-0.5-0.9c0.9-0.1,1.6-0.1,2.1-0.3s0.9-0.3,1.2-0.5c0.2-0.2,0.4-0.4,0.5-0.7 C167.9,171.8,167.9,171.4,168,170.9z M165.4,169.5c0.5,0,1.5,0.1,3.1,0.1s2.6,0,3.1-0.1c0,0.2,0,0.5,0,0.8v1c0,0.3,0,0.6,0,0.8 h-0.9v-1.9h-4.5v2.1h-0.9c0-0.3,0-0.5,0-0.8v-1.2C165.4,170,165.4,169.7,165.4,169.5z M169.9,167.3c0.3,0.5,0.7,0.9,1.2,1.1 s0.8,0.4,0.9,0.4c0.1,0,0.2-0.1,0.2-0.2s0.1-0.4,0.1-0.8c0.2,0.2,0.5,0.4,0.9,0.5c-0.1,0.4-0.2,0.7-0.3,0.9s-0.3,0.3-0.6,0.3 c-0.5,0-1-0.2-1.7-0.6c-0.7-0.4-1.2-0.9-1.6-1.6c-1.2,0.2-2,0.4-2.3,0.5l-0.1-0.9c0.4,0,1.1-0.1,2.1-0.3c-0.2-0.7-0.4-1.3-0.5-2 c0.3,0,0.5,0,0.7,0l0.4,0c0.1,0,0.1,0,0.1,0.1s0,0.1-0.1,0.2c-0.1,0.1-0.1,0.2-0.1,0.4c0,0.3,0.1,0.7,0.3,1.1l1-0.2 c1.2-0.2,2-0.4,2.2-0.5l0.2,0.8c-0.2,0-0.5,0.1-1.1,0.2s-0.9,0.1-1.1,0.2L169.9,167.3z M172.6,173.5l-0.6,0.9 c-0.9-0.6-1.9-1.1-3.1-1.5l0.5-0.7C170.4,172.5,171.5,172.9,172.6,173.5z M170.2,165l0.9-0.4c0.2,0.3,0.3,0.6,0.5,1l-0.9,0.4 C170.5,165.6,170.3,165.3,170.2,165z"/><path id="XMLID_316_" class="st5" d="M177.3,165c0.4,0.2,0.7,0.3,1,0.4c0.1,0,0.1,0,0.1,0.1s0,0.1-0.1,0.1c-0.1,0-0.2,0.2-0.3,0.4 s-0.2,0.4-0.4,0.6c-0.2,0.4-0.5,1-1,1.7s-1,1.4-1.5,1.8c-0.2-0.2-0.6-0.4-1-0.6c0.7-0.5,1.3-1.1,1.9-2 C176.6,166.7,177,165.8,177.3,165z M181.1,172.4c-0.3-0.5-0.6-1-0.9-1.5l0.8-0.4c0.8,1,1.5,2,2.1,3l-1,0.6c-0.1-0.2-0.2-0.6-0.5-1 c-2.9,0.2-4.8,0.4-5.7,0.7c-0.1-0.3-0.2-0.7-0.4-1c0.3,0,0.8-0.6,1.5-1.6s1.2-2,1.4-2.8c0.5,0.2,0.8,0.4,1.1,0.5 c0.1,0,0.2,0.1,0.2,0.1s-0.1,0.1-0.2,0.1c-0.1,0.1-0.3,0.2-0.5,0.6c-0.7,1.1-1.4,2.1-2.1,3.1L181.1,172.4z M184.1,169.1 c-0.4,0.2-0.7,0.6-0.9,1c-1.7-1.5-2.8-3.1-3.4-5c0.4,0,0.7-0.1,1-0.2C181.4,166.9,182.5,168.3,184.1,169.1z"/><path id="XMLID_320_" class="st5" d="M191.8,168.1c-0.7-0.1-1.6-0.1-2.9-0.1c-1.3,0-2.4,0-3.3,0.1v-0.9c1,0.1,2.1,0.1,3.4,0.1 s2.2,0,2.8-0.1V168.1z M190.4,172.2h-3.2v1.1h-1c0.1-0.6,0.1-1.2,0.1-1.7v-1.4c0-0.4,0-0.8-0.1-1.1c0.5,0.1,1.3,0.1,2.6,0.1 s2.1,0,2.5-0.1c-0.1,0.3-0.1,0.7-0.1,1.1v1.4c0,0.5,0,0.9,0.1,1.2h-0.9V172.2z M193.7,165.2c0,0.2,0,0.7,0,1.3v6.6 c0,0.5-0.2,0.9-0.5,1.1c-0.3,0.2-0.8,0.2-1.6,0.2c0-0.4-0.2-0.7-0.4-1.1c0.3,0,0.6,0,0.8,0s0.4,0,0.5-0.1c0.1-0.1,0.2-0.2,0.2-0.4 v-6.7h-3.1c-1.8,0-2.9,0-3.4,0.1v-1c0.7,0.1,1.8,0.1,3.5,0.1S192.6,165.3,193.7,165.2z M187.2,171.4h3.2v-1.5h-3.2V171.4z"/></g><g id="XMLID_32_"><path id="XMLID_283_" class="st5" d="M172.6,200.3c0.7,0.8,1.4,1.4,2.1,1.8c0.7,0.4,1.5,0.7,2.5,1c-0.1,0.1-0.2,0.3-0.3,0.5 c-0.1,0.2-0.1,0.4-0.2,0.6c-1.9-0.6-3.4-1.7-4.6-3.4c-0.6,0.8-1.4,1.7-2.5,2.5c0.6,0,1.5,0.1,2.6,0.1s2,0,2.6-0.1v0.9 c-0.5,0-1.2-0.1-2.2-0.1v1.3c1.5,0,2.6,0,3.1-0.1v0.9c-0.5,0-1.6-0.1-3.1-0.1v2.2l1,0c0.3-0.7,0.5-1.4,0.6-1.9 c0.4,0.2,0.7,0.3,0.9,0.3c0.1,0,0.1,0.1,0.1,0.1c0,0.1,0,0.1-0.1,0.1c-0.1,0.1-0.4,0.5-0.9,1.3c0.8,0,1.5,0,2.1-0.1v1 c-1.2-0.1-2.7-0.1-4.4-0.1c-1.7,0-3,0-4,0.1v-1c0.9,0.1,2.2,0.1,3.7,0.1v-2.2c-1.4,0-2.4,0-3.1,0.1v-0.9c0.7,0,1.8,0.1,3.1,0.1 v-1.3c-1,0-1.7,0-2.2,0.1v-0.8c-0.6,0.5-1.1,0.8-1.5,1c-0.1-0.3-0.3-0.5-0.7-0.7c0.5-0.2,1-0.5,1.5-0.9s0.9-0.8,1.3-1.2 s0.7-0.7,0.9-1c0.2-0.3,0.3-0.6,0.5-0.9c0.5,0.2,0.8,0.3,1,0.3s0.2,0.1,0.2,0.1C172.8,200.2,172.7,200.3,172.6,200.3z M170.7,207.7 l-0.9,0.4c-0.2-0.6-0.5-1-0.7-1.3l0.9-0.4C170.2,207,170.5,207.4,170.7,207.7z"/><path id="XMLID_286_" class="st5" d="M178.7,205.6c0-0.4,0-0.7-0.1-0.9c0.6,0.1,1.3,0.1,2.2,0.1s1.6,0,2.2-0.1 c0,0.2-0.1,0.5-0.1,0.9v2.8c0,0.3-0.1,0.5-0.3,0.7c-0.2,0.2-0.5,0.3-1,0.3c0-0.3-0.1-0.6-0.2-0.8c0.2,0,0.3,0,0.4,0 c0.1,0,0.2,0,0.3-0.1s0.1-0.2,0.1-0.3v-2.7h-2.8v4h-0.8c0.1-0.4,0.1-0.8,0.1-1.2V205.6z M183.1,201.3c-0.5,0-1.3-0.1-2.2-0.1 c-0.9,0-1.7,0-2.2,0.1v-0.9c0.5,0.1,1.2,0.1,2.1,0.1c0.9,0,1.7,0,2.2-0.1V201.3z M179.1,201.9c0.5,0.1,1.1,0.1,1.8,0.1 c0.7,0,1.3,0,1.8-0.1c0,0.3-0.1,0.7-0.1,1.1s0,0.8,0.1,1.2c-0.4-0.1-1-0.1-1.8-0.1s-1.4,0-1.8,0.1c0-0.3,0.1-0.7,0.1-1.1 S179.1,202.2,179.1,201.9z M180.8,207c0.1-0.4,0.2-0.8,0.3-1.3c0.3,0.1,0.5,0.2,0.7,0.2c0,0,0.1,0,0.1,0s0,0.1-0.1,0.1 c-0.1,0-0.2,0.4-0.5,0.9c0.2,0,0.4,0,0.5-0.1v0.7c-0.3,0-0.5-0.1-0.9-0.1v0.8c0,0.2,0,0.4,0,0.5h-0.6c0-0.1,0-0.3,0-0.5v-0.8 c-0.3,0-0.5,0-0.7,0.1v-0.7C180,206.9,180.4,207,180.8,207z M180.3,205.8c0.1,0.4,0.2,0.6,0.3,0.7l-0.6,0.2 c-0.1-0.3-0.1-0.5-0.2-0.8L180.3,205.8z M179.9,202.6v0.9h2v-0.9H179.9z M185.8,202c0.9,0,1.4,0,1.7-0.1c0,0.3-0.1,0.6-0.1,1v1.7 c0,0.4,0,0.9,0.1,1.3c-0.3-0.1-0.9-0.1-1.7-0.1v2.3l1-0.2c-0.1-0.5-0.2-0.9-0.3-1.1l0.7-0.2c0.3,0.6,0.5,1.5,0.8,2.4l-0.8,0.3 c0-0.3-0.1-0.5-0.2-0.8l-2.1,0.5c-0.6,0.1-1,0.3-1.4,0.5c-0.1-0.3-0.1-0.7-0.3-1.1c0.4,0,1,0,1.9-0.1v-2.5h-0.8v0.7h-0.8 c0-0.4,0.1-0.7,0.1-1.1v-2.4c0-0.4,0-0.8-0.1-1c0.4,0,0.9,0.1,1.6,0.1c0-1.2,0-1.9-0.1-2c0.4,0.1,0.7,0.1,0.9,0.1 c0.1,0,0.2,0,0.2,0.1c0,0,0,0.1-0.1,0.1c-0.1,0-0.1,0.1-0.2,0.2c0,0.1-0.1,0.3-0.1,0.4V202z M185.1,205v-2.3h-0.8v2.3H185.1z M185.8,202.7v2.3h0.9v-2.3H185.8z"/><path id="XMLID_296_" class="st5" d="M190.4,204.7c-0.3,0.9-0.7,1.7-1.1,2.5c-0.1-0.3-0.3-0.6-0.5-1c0.4-0.4,0.7-0.9,0.9-1.4 s0.5-1.2,0.7-2v-0.1c-0.6,0-1.1,0-1.5,0.1v-0.8c0.3,0,0.8,0.1,1.5,0.1c0-1,0-1.8-0.1-2.2c0.2,0,0.4,0,0.6,0l0.4,0 c0.1,0,0.1,0,0.1,0.1s0,0.1-0.1,0.2s-0.1,0.2-0.1,0.3v1.6c0.7,0,1.2,0,1.5-0.1v0.8c-0.4-0.1-0.9-0.1-1.5-0.1v4.7c0,0.6,0,1.3,0.1,2 h-1.1c0.1-0.7,0.1-1.4,0.1-2V204.7z M193,205.6l-0.7,0.4c-0.2-0.5-0.5-1-0.8-1.6l0.7-0.3C192.4,204.5,192.7,205,193,205.6z M198.7,207.7c-0.1,0.5-0.3,0.9-0.4,1.1c-0.1,0.2-0.2,0.3-0.4,0.4c-0.2,0.1-0.4,0.1-0.8,0.1s-0.6,0-0.8-0.1c-0.1,0-0.3-0.2-0.3-0.4 s-0.1-0.5-0.1-0.9l0.1-6.5h-1.7c0,0.4,0,1,0,1.8s0,1.5-0.1,2.3c-0.1,0.8-0.2,1.5-0.4,2.2c-0.2,0.7-0.7,1.3-1.2,2 c-0.3-0.3-0.6-0.5-1-0.6c0.8-0.6,1.3-1.3,1.6-2.1c0.2-0.8,0.4-1.9,0.4-3.2c0-0.7,0-1.8-0.1-3.3c0.5,0.1,1.1,0.1,1.9,0.1 s1.4,0,1.8-0.1c-0.1,0.3-0.1,0.8-0.1,1.4l-0.1,6c0,0.2,0,0.3,0.1,0.4c0.1,0.1,0.2,0.1,0.4,0.1c0.2,0,0.3-0.1,0.3-0.3 s0.1-0.5,0.1-1.1C198,207.4,198.3,207.6,198.7,207.7z"/><path id="XMLID_300_" class="st5" d="M201.2,204.8c-0.4,1.1-0.8,1.9-1.2,2.5c-0.2-0.4-0.4-0.7-0.6-1c0.7-0.6,1.3-1.8,1.8-3.4 c-0.5,0-1,0-1.4,0.1v-0.9c0.3,0.1,0.8,0.1,1.4,0.1c0-1.1,0-1.9-0.1-2.3c0.3,0,0.5,0.1,0.8,0.1l0.3,0c0.1,0,0.1,0,0.1,0.1 c0,0,0,0.1-0.1,0.2c-0.1,0.1-0.1,0.2-0.1,0.3v1.7c0.4,0,0.8,0,1.1-0.1v0.9c-0.3,0-0.7-0.1-1.1-0.1v4.5c0,0.7,0,1.4,0.1,2.2H201 c0.1-0.8,0.1-1.5,0.1-2.2V204.8z M203.5,205.6l-0.8,0.4c-0.2-0.5-0.4-1-0.6-1.4l0.6-0.3C203,204.8,203.3,205.2,203.5,205.6z M205.1,201.7h1.9c0.8,0,1.5,0,2-0.1l-0.3,6.4c0,0.6-0.2,1-0.5,1.2s-0.9,0.4-1.6,0.5c-0.1-0.4-0.3-0.8-0.5-1.1 c0.2,0,0.5,0.1,0.7,0.1c0.7,0,1.1-0.3,1.1-0.8l0.3-5.4h-3.4c-0.3,0.7-0.6,1.2-0.8,1.7c-0.3-0.2-0.6-0.3-1-0.4 c0.3-0.3,0.7-0.9,1.1-1.7c0.4-0.8,0.6-1.6,0.7-2.3c0.4,0.2,0.8,0.3,1.1,0.4c0.1,0,0.1,0,0.1,0.1c0,0,0,0.1-0.1,0.2 C205.7,200.5,205.5,200.9,205.1,201.7z M206.3,206.4c-0.1-0.4-0.2-0.8-0.4-1.3l0.7-0.2c0.3,0.7,0.6,1.5,0.9,2.5l-0.9,0.3 c0-0.2-0.1-0.5-0.1-0.7l-1.8,0.3c-0.3,0-0.6,0.1-1,0.3c-0.1-0.3-0.1-0.6-0.3-0.8c0.2-0.1,0.5-0.6,0.8-1.4c0.3-0.8,0.5-1.5,0.6-2.1 c0.4,0.1,0.7,0.2,0.9,0.3c0.1,0,0.2,0.1,0.2,0.1c0,0,0,0.1-0.1,0.2s-0.2,0.4-0.5,0.9s-0.5,1.2-1,2L206.3,206.4z"/></g><circle id="XMLID_29_" class="st5" cx="317.6" cy="49.3" r="22.2"/><g id="XMLID_28_"><path id="XMLID_273_" class="st2" d="M300.9,49l-0.7-1.6c0.2-0.1,0.4-0.2,0.7-0.4c0.9-0.5,1.5-0.9,1.9-1.1c0.1,0.1,0.1,0.3,0.2,0.6 c0.1,0.2,0.3,0.5,0.4,0.9C302.5,48,301.6,48.5,300.9,49z M305.3,50.7h1.7c-0.1,0.5-0.2,0.9-0.3,1.3c0.8,0.2,2.3,0.6,4.5,1.3 c-1.8-0.6-1.7-0.5,0.3,0.1l-0.8,1.4c-1.7-0.6-3.3-1.1-4.8-1.6c-0.8,0.8-2.4,1.4-4.8,1.6c-0.2-0.5-0.5-0.9-0.8-1.5 c1.9-0.1,3.2-0.4,4-0.8C304.8,52.2,305.2,51.6,305.3,50.7z M300.4,44.6l1-1.2c0.8,0.5,1.4,1,1.9,1.3c-0.1,0.1-0.4,0.5-1,1.3 C301.7,45.5,301.1,45,300.4,44.6z M306,44.2h5.4v1.1l-0.8,1.4l-1.2-0.4l0.4-0.8h-1.7c0,0.1-0.1,0.2-0.1,0.4c0.7,1,2,1.6,3.8,1.8 c-0.3,0.6-0.5,1-0.7,1.4c-1.8-0.3-3-0.9-3.7-1.9c-0.6,1-1.7,1.6-3.2,1.9h6.2v3.3h-1.6v-1.9h-5.6v2h-1.6V49h2.1 c0-0.1-0.1-0.3-0.3-0.5c-0.2-0.3-0.3-0.5-0.4-0.7c2.1-0.3,3.3-1.1,3.6-2.3h-1.3c-0.3,0.5-0.6,0.9-0.9,1.3c-0.1-0.1-0.3-0.2-0.5-0.3 c-0.3-0.2-0.6-0.4-0.7-0.5c0.7-0.7,1.2-1.6,1.6-2.5l1.6,0.1c0,0.1-0.1,0.2-0.1,0.3C306.1,44,306.1,44.1,306,44.2z"/><path id="XMLID_278_" class="st2" d="M313.9,49.7v-1.6h2.2c0,0-0.1-0.1-0.1-0.1c-0.2-0.3-0.6-0.7-1-1.2l1.2-0.7h-3.1v-1.5h4.6 c0-0.1-0.1-0.2-0.1-0.4c-0.1-0.3-0.2-0.4-0.2-0.5l1.9-0.3c0.1,0.5,0.2,0.9,0.3,1.3h4.5v1.5h-3.2l1.5,0.7c-0.5,0.6-0.9,1-1.2,1.4 h2.7v1.5h-8.4v0.3c0,1.7-0.5,3.3-1.5,4.9c-0.3-0.3-0.7-0.7-1.2-1.2C313.4,52.4,313.8,51.1,313.9,49.7z M317.9,47.8l-0.6,0.3h1.9 c0.5-0.6,1-1.3,1.5-2.1h-4.2c0.1,0.1,0.3,0.4,0.6,0.7C317.4,47.2,317.7,47.6,317.9,47.8z"/><path id="XMLID_281_" class="st2" d="M335,52.4c0,1.4-0.7,2.1-2,2.1c-0.1,0-0.4,0-0.8,0c-0.7,0-1.3,0-1.7,0 c-0.1-0.2-0.1-0.5-0.2-0.9c-0.1-0.4-0.1-0.6-0.2-0.8c1.1,0,1.8,0,2.1,0c0.6,0,0.9-0.3,1-0.8c0.1-1.3,0.1-2.1,0.1-2.5h-3.7 c-0.3,2.2-1.4,3.9-3.3,5.3c-0.2-0.3-0.6-0.8-1.2-1.5c1.8-1.2,2.7-2.7,2.8-4.7c0-0.2,0-0.6,0-1.1c0-0.5,0-0.8,0-1.1h-2.6v-1.5h4.8 c-0.2-0.5-0.3-0.9-0.5-1.2l1.9-0.4c0.3,0.6,0.5,1.2,0.6,1.6h4.2v1.5h-6.6c0,0.2,0,0.4,0,0.7c0,0.3,0,0.6,0,0.7h5.4 C335.2,49.5,335.1,51,335,52.4z"/></g><circle id="XMLID_25_" class="st6" cx="454.3" cy="246.1" r="22.2"/><g id="XMLID_24_"><path id="XMLID_262_" class="st2" d="M437.6,245.4l-0.7-1.6c0.2-0.1,0.4-0.2,0.7-0.4c0.9-0.5,1.5-0.9,1.9-1.1 c0.1,0.1,0.1,0.3,0.2,0.6c0.1,0.2,0.3,0.5,0.4,0.9C439.1,244.4,438.3,244.9,437.6,245.4z M442,247.1h1.7c-0.1,0.5-0.2,0.9-0.3,1.3 c0.8,0.2,2.3,0.6,4.5,1.3c-1.8-0.6-1.7-0.5,0.3,0.1l-0.8,1.4c-1.7-0.6-3.3-1.1-4.8-1.6c-0.8,0.8-2.4,1.4-4.8,1.6 c-0.2-0.5-0.5-0.9-0.8-1.5c1.9-0.1,3.2-0.4,4-0.8C441.5,248.6,441.9,248,442,247.1z M437.1,241l1-1.2c0.8,0.5,1.4,1,1.9,1.3 c-0.1,0.1-0.4,0.5-1,1.3C438.4,241.9,437.8,241.4,437.1,241z M442.7,240.6h5.4v1.1l-0.8,1.4l-1.2-0.4l0.4-0.8h-1.7 c0,0.1-0.1,0.2-0.1,0.4c0.7,1,2,1.6,3.8,1.8c-0.3,0.6-0.5,1-0.7,1.4c-1.8-0.3-3-0.9-3.7-1.9c-0.6,1-1.7,1.6-3.2,1.9h6.2v3.3h-1.6 v-1.9h-5.6v2h-1.6v-3.4h2.1c0-0.1-0.1-0.3-0.3-0.5c-0.2-0.3-0.3-0.5-0.4-0.7c2.1-0.3,3.3-1.1,3.6-2.3H442c-0.3,0.5-0.6,0.9-0.9,1.3 c-0.1-0.1-0.3-0.2-0.5-0.3c-0.3-0.2-0.6-0.4-0.7-0.5c0.7-0.7,1.2-1.6,1.6-2.5l1.6,0.1c0,0.1-0.1,0.2-0.1,0.3 C442.8,240.4,442.7,240.5,442.7,240.6z"/><path id="XMLID_267_" class="st2" d="M449.7,250.8v-1.3h2.5c-0.1-0.1-0.2-0.3-0.4-0.6c-0.3-0.4-0.5-0.7-0.7-0.9l1.3-0.8 c0.4,0.5,0.8,1,1.3,1.5l-1.1,0.7h1.8v-2.3h-3.7v-1.4h3.7v-1h-2.2v-0.9c-0.2,0.1-0.4,0.2-0.7,0.4c-0.5,0.3-0.9,0.6-1.1,0.7 c-0.1-0.2-0.3-0.5-0.6-0.9c-0.2-0.3-0.3-0.5-0.4-0.6c2.3-1,4-2.2,5.1-3.6h2.4l-0.5,0.5c1.2,1.3,2.8,2.2,4.7,2.8 c-0.2,0.4-0.5,0.8-0.9,1.5c0,0,0,0.1,0,0.1c-0.3-0.1-0.6-0.3-1.1-0.6c-0.3-0.2-0.5-0.3-0.7-0.3v1H456v1h3.7v1.4h-1.8l1.4,0.7 c-0.4,0.6-0.8,1.1-1.2,1.6h2.5v1.3H449.7z M455.2,241.4c-0.7,0.7-1.5,1.4-2.4,2h4.8C456.5,242.7,455.7,242,455.2,241.4z M457.9,247.2H456v2.3h1.8l-1.1-0.6c0.1-0.2,0.3-0.5,0.6-0.8C457.6,247.7,457.7,247.4,457.9,247.2z"/><path id="XMLID_271_" class="st2" d="M471.7,248.8c0,1.4-0.7,2.1-2,2.1c-0.1,0-0.4,0-0.8,0c-0.7,0-1.3,0-1.7,0 c-0.1-0.2-0.1-0.5-0.2-0.9c-0.1-0.4-0.1-0.6-0.2-0.8c1.1,0,1.8,0,2.1,0c0.6,0,0.9-0.3,1-0.8c0.1-1.3,0.1-2.1,0.1-2.5h-3.7 c-0.3,2.2-1.4,3.9-3.3,5.3c-0.2-0.3-0.6-0.8-1.2-1.5c1.8-1.2,2.7-2.7,2.8-4.7c0-0.2,0-0.6,0-1.1c0-0.5,0-0.8,0-1.1h-2.6v-1.5h4.8 c-0.2-0.5-0.3-0.9-0.5-1.2l1.9-0.4c0.3,0.6,0.5,1.2,0.6,1.6h4.2v1.5h-6.6c0,0.2,0,0.4,0,0.7c0,0.3,0,0.6,0,0.7h5.4 C471.8,245.9,471.8,247.4,471.7,248.8z"/></g><path id="XMLID_23_" class="st10" d="M374.5 27.1L364.8 35.8 375 42.8"/><path id="XMLID_22_" class="st10" d="M411.7 252.8L402.8 262.6 413.3 269.2"/><path id="XMLID_21_" class="st8" d="M235.7,242.1c0,4.9-4.3,8.9-7.2,8.9h-32.5c-2.9,0-7.2-4-7.2-8.9v-6.5c0-4.9,4.3-8.9,7.2-8.9	h32.5c2.9,0,7.2,4,7.2,8.9V242.1z"/><g id="XMLID_20_"><path id="XMLID_251_" class="st5" d="M205.1,235.9c0-0.4,0-0.9-0.1-1.2c0.3,0,0.6,0.1,1.1,0.1c0.1,0,0.1,0,0.1,0c0,0,0,0.1-0.1,0.1 c-0.1,0.1-0.1,0.2-0.1,0.3v0.7h3.1c0-0.6,0-1-0.1-1.4c0.3,0.1,0.7,0.1,1,0.1c0.1,0,0.2,0,0.2,0.1c0,0,0,0.1-0.1,0.1 c-0.1,0.1-0.1,0.2-0.1,0.3v0.7c0.7,0,1.3,0,1.8-0.1v0.9c-0.5,0-1.1-0.1-1.8-0.1v4.4c0.8,0,1.6,0,2.3-0.1v0.9 c-0.7-0.1-2.3-0.1-4.7-0.1s-4,0-4.7,0.1v-0.9c0.7,0.1,1.5,0.1,2.3,0.1v-4.4c-0.6,0-1.3,0-1.9,0.1v-0.9 C203.8,235.9,204.4,235.9,205.1,235.9z M206,242.1c0.3,0.3,0.5,0.5,0.8,0.7c0,0,0.1,0.1,0.1,0.1s0,0-0.1,0c-0.2,0-0.4,0.1-0.7,0.2 c-0.3,0.1-1.1,0.6-2.3,1.2c-0.1-0.2-0.3-0.5-0.6-0.8C204.2,243.4,205.1,242.8,206,242.1z M205.9,237.6h3.1v-0.9h-3.1V237.6z M209,238.3h-3.1v1h3.1V238.3z M205.9,239.9v1.1h3.1v-1.1H205.9z M211.6,243.4l-0.6,0.8c-0.8-0.6-1.6-1-2.7-1.4l0.5-0.7 C209.8,242.5,210.7,242.9,211.6,243.4z"/><path id="XMLID_258_" class="st5" d="M213.7,235.9c0.7,0,2.1,0.1,4.4,0.1s3.7,0,4.4-0.1v2.2h-0.9v-1.3h-6.9v1.6h-0.9V235.9z M216.4,240.9v1.7c0,0.2,0,0.3,0.1,0.4s0.3,0.2,0.5,0.2s0.7,0.1,1.2,0.1c1.4,0,2.2-0.1,2.5-0.2c0.3-0.1,0.5-0.5,0.6-1.2 c0.3,0.3,0.6,0.5,1,0.7c-0.1,0.5-0.3,0.8-0.4,1c-0.1,0.2-0.3,0.3-0.6,0.4c-0.3,0.1-0.7,0.2-1.4,0.2c-0.7,0-1.3,0.1-2,0.1 c-0.6,0-1.1,0-1.5-0.1c-0.3-0.1-0.6-0.2-0.8-0.3c-0.2-0.2-0.3-0.4-0.3-0.9v-4c0-0.4,0-0.8-0.1-1.1c0.2,0,0.4,0,0.7,0l0.4,0 c0.1,0,0.2,0,0.2,0.1c0,0,0,0.1-0.1,0.1c-0.1,0-0.2,0.1-0.2,0.3v1.7c2.6-0.6,4.1-1.2,4.6-1.5c0.2,0.4,0.4,0.8,0.6,1 c0,0,0.1,0.1,0.1,0.1s0,0-0.1,0l-0.2,0C221.2,239.7,219.5,240.1,216.4,240.9z M217.3,234.7l1-0.3c0.2,0.5,0.3,0.9,0.5,1.3l-1,0.2 C217.7,235.5,217.5,235.1,217.3,234.7z"/></g><path id="XMLID_17_" class="st0" d="M612.7,37.2c0,4.9-3.5,8.9-7.8,8.9h-67.3c-4.3,0-7.8-4-7.8-8.9v-6.5c0-4.9,3.5-8.9,7.8-8.9h67.3	c4.3,0,7.8,4,7.8,8.9V37.2z"/><path id="XMLID_16_" class="st7" d="M495.9 93.9L516.6 34.5 529.8 34.5"/><g id="XMLID_15_"><path id="XMLID_209_" class="st6" d="M551.8,36.8c0.8,0,1.5,0,2.2-0.1v1c-1-0.1-2.5-0.1-4.4-0.1c-2,0-3.5,0-4.4,0.1v-1 c0.8,0.1,2.8,0.1,5.8,0.1l0.2-1.7l-2.3,0.1c-0.9,0-1.6,0.1-2,0.1c0.1-0.3,0.2-0.8,0.3-1.5l0.6-3.4c-1,0-1.7,0.1-2.3,0.1v-1 c0.8,0.1,2.2,0.1,4,0.1s3.2,0,4.2-0.1v1c-1-0.1-2.6-0.1-5-0.1l-0.3,1.5h2.1c0.8,0,1.5,0,1.9-0.1c-0.1,0.2-0.1,0.7-0.2,1.5 L551.8,36.8z M548.3,32.6l-0.4,1.9l3.2-0.1l0.2-1.8H548.3z"/><path id="XMLID_215_" class="st6" d="M556.1,30c-0.2,0-0.4,0-0.6,0.1v-0.9c0.4,0,1.1,0.1,2.2,0.1c1.1,0,1.8,0,2.2-0.1V30 c-0.3,0-0.5,0-0.6-0.1v5.6c0.3-0.1,0.6-0.2,0.9-0.3c-0.1,0.2-0.1,0.3-0.1,0.5s0,0.3,0,0.4c-0.3,0-0.5,0.1-0.8,0.1 c0,0.9,0,1.6,0.1,2h-1c0.1-0.5,0.1-1.1,0.1-1.8c-1,0.2-1.9,0.5-2.7,0.8c-0.1-0.4-0.2-0.7-0.3-1l0.7-0.1V30z M558.3,30h-1.5v1.5h1.5 V30z M558.3,33.6v-1.5h-1.5v1.5H558.3z M558.3,35.8v-1.4h-1.5v1.7C557.4,36,557.8,35.9,558.3,35.8z M562.2,35.1 c-0.1,0.6-0.4,1.2-0.7,1.7c-0.3,0.5-0.8,1-1.4,1.6c-0.2-0.2-0.4-0.4-0.7-0.6c0.7-0.5,1.2-1,1.5-1.5c0.3-0.6,0.5-1.2,0.6-2 c-0.7,0-1.3,0-1.9,0.1v-0.9c0.5,0.1,1.2,0.1,1.9,0.1c0-0.6,0-1.3,0-1.9c-0.7,0-1.3,0-1.8,0.1v-0.9c0.7,0.1,1.5,0.1,2.5,0.1 c0.4-0.9,0.7-1.7,0.9-2.3c0.3,0.2,0.6,0.3,0.9,0.3c0.1,0,0.1,0,0.1,0.1s0,0.1-0.2,0.2c-0.1,0.1-0.5,0.7-1,1.6 c0.7,0,1.2-0.1,1.6-0.1v0.9c-0.6-0.1-1.3-0.1-2.2-0.1c0,0.8,0,1.5-0.1,1.9c1,0,1.9,0,2.5-0.1v0.9c-0.6-0.1-1.5-0.1-2.5-0.1 c0.3,0.9,0.6,1.6,1.1,2.1c0.4,0.5,1,0.8,1.7,1c-0.3,0.2-0.5,0.5-0.6,1c-0.7-0.5-1.3-1-1.6-1.5C562.5,36.3,562.3,35.7,562.2,35.1z M561.7,30.2l-0.9,0.3c-0.2-0.5-0.3-1-0.5-1.4l0.8-0.3C561.4,29.3,561.6,29.7,561.7,30.2z"/><path id="XMLID_222_" class="st6" d="M575,29.3c-0.1,0.4-0.1,1-0.1,2V37c0,0.4,0,0.7-0.1,0.9c-0.1,0.2-0.2,0.3-0.4,0.3 s-0.6,0.1-1.2,0.2c0-0.3-0.2-0.7-0.4-1c0.3,0,0.5,0,0.7,0c0.2,0,0.3,0,0.4-0.1c0.1-0.1,0.1-0.3,0.1-0.6v-6.6h-6.3v8h-1 c0.1-0.7,0.2-1.3,0.2-2v-5c0-0.9,0-1.6-0.1-1.9c0.6,0.1,1.9,0.1,4.1,0.1S574.5,29.4,575,29.3z M569.6,33c0.2-0.6,0.4-1.3,0.5-2.1 c0.3,0.1,0.6,0.2,0.9,0.3c0.1,0,0.1,0,0.1,0.1c0,0,0,0.1-0.1,0.1c-0.1,0.1-0.3,0.4-0.4,0.9c-0.1,0.5-0.3,1-0.6,1.7 c0.3,0.7,0.6,1.2,0.8,1.6l-0.6,0.4c-0.1-0.3-0.2-0.7-0.5-1.2c-0.4,0.9-0.8,1.6-1.2,2.2c-0.2-0.2-0.4-0.3-0.6-0.4 c0.6-0.8,1.1-1.6,1.5-2.5c-0.5-1-0.9-1.7-1.2-2.2l0.6-0.3C568.9,31.7,569.2,32.2,569.6,33z M572.2,33.2c0.3-0.8,0.5-1.5,0.5-2.3 c0.3,0.2,0.6,0.2,0.9,0.3c0.1,0,0.1,0,0.1,0.1c0,0,0,0.1-0.1,0.1c-0.1,0.1-0.3,0.3-0.4,0.8c-0.2,0.6-0.4,1.2-0.7,1.8 c0.5,1,0.8,1.6,0.9,2l-0.7,0.3c-0.1-0.4-0.3-0.9-0.6-1.6c-0.5,0.9-0.9,1.6-1.2,2c-0.2-0.1-0.5-0.2-0.7-0.3c0.6-0.6,1.1-1.5,1.6-2.5 c-0.4-0.9-0.8-1.6-1.1-2l0.5-0.3C571.6,32.1,571.9,32.6,572.2,33.2z"/><path id="XMLID_226_" class="st6" d="M582.2,34.2c1.7,0,3.1,0,4.1-0.1v1c-1-0.1-2.4-0.1-4.1-0.1v1.9c0,0.5,0,1,0.1,1.7h-1.1 c0.1-0.6,0.1-1.2,0.1-1.7V35c-1.8,0-3.1,0-4.2,0.1v-1c1,0.1,2.4,0.1,4.2,0.1v-4c-1.4,0-2.5,0-3.3,0.1v-1c0.9,0.1,2.2,0.1,3.8,0.1 s2.9,0,3.7-0.1v1c-0.8-0.1-1.9-0.1-3.3-0.1V34.2z M580.2,33.2l-0.9,0.4c-0.2-0.8-0.5-1.5-0.9-2.1l0.9-0.4 C579.6,31.8,579.9,32.5,580.2,33.2z M584.1,31c0.4,0.2,0.8,0.3,1,0.4c0.1,0,0.1,0.1,0.1,0.1s0,0.1-0.1,0.1c0,0-0.1,0.1-0.2,0.1 c-0.1,0.1-0.1,0.2-0.2,0.3c-0.4,0.7-0.7,1.2-0.9,1.6c-0.3-0.1-0.6-0.2-0.9-0.3C583.5,32.8,583.9,32,584.1,31z"/><path id="XMLID_247_" class="st6" d="M595.2,32.6c-2.1,0.1-3.8,0.2-4.9,0.3c-1.1,0.1-1.9,0.2-2.3,0.3c-0.1-0.3-0.1-0.6-0.3-0.9 c0.6-0.1,1-0.3,1.3-0.6c0.3-0.3,0.8-0.7,1.4-1.4c0.6-0.6,1.1-1.2,1.4-1.7c0.4,0.3,0.8,0.4,1.1,0.5c0.1,0.1,0.2,0.1,0.2,0.2 s-0.1,0.1-0.2,0.1c-0.2,0-0.4,0.2-0.7,0.5c-0.9,0.9-1.8,1.7-2.5,2.2l4.9-0.2c-0.4-0.4-0.9-0.9-1.4-1.3l0.7-0.5 c0.9,0.7,1.8,1.6,2.7,2.6l-0.9,0.6C595.6,33,595.4,32.7,595.2,32.6z M589.8,37.6v0.7h-1c0.1-0.6,0.1-1.1,0.1-1.6V35 c0-0.4,0-0.7-0.1-1c0.4,0,1.5,0.1,3.3,0.1s3,0,3.5-0.1c0,0.2-0.1,0.5-0.1,1v1.6c0,0.6,0,1.2,0.1,1.6h-1v-0.6H589.8z M594.7,36.8v-2 h-4.8v2H594.7z"/></g><g id="XMLID_13_"><path id="XMLID_194_" class="st5" d="M186.7,36.8c2,0,3.5,0,4.6-0.1v1.1c-1.1-0.1-2.6-0.1-4.7-0.1s-3.6,0-4.7,0.1v-1.1 c0.9,0.1,2.2,0.1,3.8,0.1v-5.2c0-1.5,0-2.4-0.1-2.7c0.4,0.1,0.8,0.1,1.2,0.1c0.1,0,0.2,0,0.2,0.1c0,0,0,0.1-0.1,0.1 c-0.1,0.1-0.1,0.2-0.2,0.3s-0.1,0.4-0.1,0.6v1.4h1.4c0.9,0,1.7,0,2.3-0.1v1.1c-0.5-0.1-1.2-0.1-2.3-0.1h-1.4V36.8z"/><path id="XMLID_196_" class="st5" d="M196.8,31.1c-1.8,0-3.1,0-4.1,0.1v-1c1,0.1,2.6,0.1,4.6,0.1s3.6,0,4.6-0.1v1 c-1-0.1-2.4-0.1-4.2-0.1v1.4c1.3,0,2.3,0,3.1-0.1v3.9c0,0.3,0,0.5-0.1,0.7c-0.1,0.2-0.2,0.3-0.5,0.4c-0.2,0.1-0.6,0.2-1.2,0.3 c0-0.5-0.2-0.8-0.5-1.1c0.4,0.1,0.7,0.1,0.9,0.1c0.2,0,0.3,0,0.4-0.1c0.1-0.1,0.1-0.2,0.1-0.5v-2.8h-2.1v3.4c0,0.5,0,1.1,0.1,1.8 h-1.1c0.1-0.7,0.1-1.3,0.1-1.8v-3.4h-2v4.3h-1c0.1-0.5,0.1-1,0.1-1.5v-3.6c0.9,0,1.9,0.1,2.9,0.1V31.1z M197.9,29.9l-1,0.3 c-0.1-0.5-0.3-0.9-0.6-1.3l1-0.3C197.5,29,197.7,29.5,197.9,29.9z"/><path id="XMLID_199_" class="st5" d="M206.1,29.2c0.4,0.2,0.7,0.3,1,0.4c0.1,0,0.1,0,0.1,0.1s0,0.1-0.1,0.1c-0.1,0-0.2,0.2-0.3,0.4 c-0.1,0.2-0.2,0.4-0.4,0.6c-0.2,0.4-0.5,1-1,1.7s-1,1.4-1.5,1.8c-0.2-0.2-0.6-0.4-1-0.6c0.7-0.5,1.3-1.1,1.9-2 C205.5,30.8,205.9,30,206.1,29.2z M209.9,36.5c-0.3-0.5-0.6-1-0.9-1.5l0.8-0.4c0.8,1,1.5,2,2.1,3l-1,0.6c-0.1-0.2-0.2-0.6-0.5-1 c-2.9,0.2-4.8,0.4-5.7,0.7c-0.1-0.3-0.2-0.7-0.4-1c0.3,0,0.8-0.6,1.5-1.6s1.2-2,1.4-2.8c0.5,0.2,0.8,0.4,1.1,0.5 c0.1,0,0.2,0.1,0.2,0.1s-0.1,0.1-0.2,0.1c-0.1,0.1-0.3,0.2-0.5,0.6c-0.7,1.1-1.4,2.1-2.1,3.1L209.9,36.5z M213,33.3 c-0.4,0.2-0.7,0.6-0.9,1c-1.7-1.5-2.8-3.1-3.4-5c0.4,0,0.7-0.1,1-0.2C210.2,31,211.3,32.4,213,33.3z"/><path id="XMLID_203_" class="st5" d="M220.6,32.3c-0.7-0.1-1.6-0.1-2.9-0.1c-1.3,0-2.4,0-3.3,0.1v-0.9c1,0.1,2.1,0.1,3.4,0.1 s2.2,0,2.8-0.1V32.3z M219.3,36.3H216v1.1h-1c0.1-0.6,0.1-1.2,0.1-1.7v-1.4c0-0.4,0-0.8-0.1-1.1c0.5,0.1,1.3,0.1,2.6,0.1 s2.1,0,2.5-0.1c-0.1,0.3-0.1,0.7-0.1,1.1v1.4c0,0.4,0,0.9,0.1,1.2h-0.9V36.3z M222.5,29.3c0,0.2,0,0.7,0,1.3v6.6 c0,0.5-0.2,0.9-0.5,1.1c-0.3,0.2-0.8,0.2-1.6,0.2c0-0.4-0.2-0.7-0.4-1.1c0.3,0,0.6,0,0.8,0s0.4,0,0.5-0.1s0.2-0.2,0.2-0.4v-6.7 h-3.1c-1.8,0-2.9,0-3.4,0.1v-1c0.7,0.1,1.8,0.1,3.5,0.1S221.5,29.4,222.5,29.3z M216,35.6h3.2v-1.5H216V35.6z"/></g><path id="XMLID_12_" class="st9" d="M273.6 97.6L249.5 35.2 236.5 35.2"/><path id="XMLID_11_" class="st9" d="M272 202.5L250 241 236 241"/><path id="XMLID_10_" class="st8" d="M235.5,37.4c0,5-3.2,9-7.2,9H178c-3.9,0-7.2-4-7.2-9v-6.6c0-5,3.2-9,7.2-9h50.3	c3.9,0,7.2,4,7.2,9V37.4z"/><circle id="XMLID_9_" class="st2" cx="266.1" cy="183.1" r="2"/><circle id="XMLID_7_" class="st2" cx="273.6" cy="95.6" r="2"/><circle id="XMLID_6_" class="st2" cx="501.9" cy="114.5" r="2"/><g id="XMLID_5_"><path id="XMLID_169_" class="st6" d="M572.7,99.8c-0.4,0.5-0.8,0.9-1.2,1.4c-0.1-0.2-0.4-0.4-0.9-0.4c0.4-0.3,0.9-0.7,1.3-1.1 c0.4-0.5,0.7-1,1-1.6c0.3,0.1,0.6,0.2,1,0.3c0.1,0,0.1,0,0.1,0.1c0,0,0,0.1-0.1,0.1c-0.2,0.1-0.4,0.3-0.7,0.7h0.7 c0.7,0,1.3,0,1.7-0.1v0.8c-0.2,0-0.7-0.1-1.5-0.1c0.1,0.3,0.3,0.6,0.4,0.9l-0.9,0.2c0-0.3-0.1-0.7-0.3-1.1H572.7z M575.4,102.7 v-0.9c-1.1,0-2.3,0-3.5,0.1V101c1.2,0.1,2.5,0.1,3.8,0.1c1.3,0,2.5,0,3.6-0.1c0,0.3-0.1,0.7-0.1,1.2s0,0.9,0.1,1.2 c-0.7,0-1.7-0.1-3.1-0.1v0.9c1.6,0,2.9,0,3.7-0.1c0,0.2-0.1,0.5-0.1,0.8l-0.1,0.8c0,0.3-0.1,0.5-0.2,0.6c-0.1,0.1-0.3,0.2-0.6,0.3 s-0.7,0.2-1.4,0.3c-0.1-0.3-0.2-0.6-0.4-1c0.3,0,0.6,0.1,0.8,0.1c0.5,0,0.8-0.1,0.8-0.4l0.1-0.8h-2.8v0.9c0,0.5,0,1.1,0.1,1.9h-1 c0.1-0.7,0.1-1.3,0.1-1.9v-0.8c-1,1.1-2.2,1.9-3.8,2.4c-0.1-0.3-0.4-0.6-0.8-0.8c1.5-0.2,2.7-0.8,3.8-1.7c-0.9,0-1.8,0-2.8,0.1 c0.1-0.8,0.2-1.4,0.2-1.6c0-0.3,0-0.5,0-0.8C573,102.6,574.1,102.7,575.4,102.7z M575.4,104.2v-0.9h-2.6l-0.1,0.9H575.4z M577.2,99.7l-0.9,1.2c-0.2-0.2-0.5-0.3-0.8-0.3c0.7-0.6,1.3-1.4,1.8-2.5c0.3,0.1,0.6,0.2,1,0.3c0.1,0,0.1,0,0.1,0.1 c0,0,0,0.1-0.1,0.1c-0.2,0.1-0.4,0.3-0.7,0.6h1.2c0.7,0,1.2,0,1.5-0.1v0.8c-0.1,0-0.7-0.1-1.8-0.1c0.1,0.3,0.3,0.5,0.4,0.8 l-0.9,0.2c0-0.3-0.1-0.6-0.3-1H577.2z M576.2,101.8v0.9h2.2v-0.9H576.2z"/><path id="XMLID_175_" class="st6" d="M590.8,106.7c-1-0.1-2.5-0.1-4.5-0.1s-3.5,0-4.5,0.1v-1.1c1,0.1,2.5,0.1,4.5,0.1 s3.5,0,4.5-0.1V106.7z M590,100c-0.8-0.1-2.1-0.1-3.7-0.1c-1.6,0-2.9,0-3.7,0.1V99c0.8,0.1,2.1,0.1,3.7,0.1s2.9,0,3.7-0.1V100z M589.3,103.2c-0.7-0.1-1.7-0.1-3.1-0.1c-1.3,0-2.4,0-3.1,0.1v-1.1c0.7,0.1,1.7,0.1,3.1,0.1s2.4,0,3-0.1V103.2z"/><path id="XMLID_179_" class="st6" d="M596.4,102h2.8c0.4,0,0.8,0,1.1-0.1l-0.3,3.9c0,0.4-0.1,0.7-0.2,0.9s-0.3,0.3-0.6,0.5 c-0.3,0.1-0.7,0.2-1.3,0.3c-0.1-0.5-0.3-0.9-0.7-1.3c0.3,0.1,0.6,0.1,0.9,0.1c0.5,0,0.9-0.2,0.9-0.7l0.3-2.8h-2.9 c-0.1,1-0.4,1.8-0.7,2.5c-0.4,0.6-1,1.4-1.9,2.2c-0.2-0.4-0.6-0.6-1-0.7c0.5-0.2,1-0.6,1.3-1c0.4-0.4,0.7-0.8,0.9-1.3 c0.2-0.5,0.4-1,0.5-1.6c0.1-0.6,0.1-1.3,0.2-2.2c-1.3,0-2.3,0-3.1,0.1v-1c1,0,2.6,0.1,4.6,0.1c2.1,0,3.6,0,4.6-0.1v1 c-1,0-2.7-0.1-5.1-0.1C596.5,101.1,596.5,101.6,596.4,102z M597.8,99.3l-1.1,0.4c-0.1-0.5-0.3-1-0.6-1.5l1.2-0.4 C597.3,98.3,597.5,98.8,597.8,99.3z"/><path id="XMLID_182_" class="st6" d="M604.3,99.5c-0.4,0-0.9,0-1.2,0.1v-0.9c0.4,0,0.9,0.1,1.7,0.1s1.3,0,1.7-0.1v0.9 c-0.3,0-0.8-0.1-1.3-0.1v2.3c0.5,0,0.9,0,1.2-0.1v0.9c-0.4,0-0.8-0.1-1.2-0.1v2.5c0.4-0.1,0.8-0.3,1.2-0.5c0,0.2,0,0.4,0,0.5 s0,0.3,0,0.4c-1.3,0.4-2.4,0.9-3.2,1.4c0-0.2,0-0.4-0.1-0.7c-0.1-0.3-0.1-0.5-0.2-0.6c0.5,0,1-0.1,1.5-0.3v-2.8c-0.5,0-1,0-1.2,0.1 v-0.9c0.3,0,0.8,0.1,1.2,0.1V99.5z M609.7,105.2v1.2c1.1,0,2,0,2.8-0.1v0.9c-0.8-0.1-1.9-0.1-3.3-0.1s-2.6,0-3.3,0.1v-0.9 c0.8,0,1.8,0.1,3,0.1v-1.2c-0.8,0-1.5,0-2.1,0.1v-0.9c0.5,0.1,1.2,0.1,2.1,0.1v-1.1c-1.3,0-2,0-2.2,0.1c0-0.8,0.1-1.7,0.1-2.6 s0-1.7-0.1-2.4c0.2,0.1,1.1,0.1,2.7,0.1c1.6,0,2.4,0,2.6-0.1c0,0.6-0.1,1.3-0.1,2.2c0,0.9,0,1.8,0.1,2.8c-0.1,0-0.9-0.1-2.3-0.1 v1.1c0.9,0,1.6,0,2.2-0.1v0.9C611.4,105.2,610.7,105.2,609.7,105.2z M608.9,100.6v-1.3h-1.3v1.3H608.9z M608.9,102.7v-1.4h-1.3v1.4 H608.9z M609.7,99.3v1.3h1.4v-1.3H609.7z M609.7,101.3v1.4h1.4v-1.4H609.7z"/><path id="XMLID_189_" class="st6" d="M615.7,100.2c0.2,0,0.5,0.1,0.9,0.1c0.1,0,0.1,0,0.1,0.1s0,0.1-0.1,0.2 c-0.1,0.1-0.1,0.3-0.1,0.7c0,1.5-0.1,2.6-0.1,3.1c-0.1,0.5-0.3,1.1-0.7,1.7c-0.4,0.6-0.8,1.1-1.4,1.4c-0.2-0.2-0.5-0.4-0.8-0.6 c0.6-0.4,1.1-0.8,1.5-1.3s0.6-1,0.7-1.6s0.1-1.2,0.1-2S615.8,100.7,615.7,100.2z M618.2,104.6h-0.9v-5.3H615v5.5h-0.8 c0-0.5,0.1-1,0.1-1.6v-3.1c0-0.7,0-1.3-0.1-1.7c0.2,0.1,0.9,0.1,2,0.1c1.1,0,1.8,0,2.1-0.1c-0.1,0.4-0.1,1-0.1,1.7v2.8 C618.1,103.5,618.2,104,618.2,104.6z M618.4,106.4l-0.7,0.7c-0.5-0.7-1-1.2-1.5-1.6l0.6-0.5C617.3,105.3,617.8,105.8,618.4,106.4z M621.1,100.1c0-1-0.1-1.7-0.1-2.3c0.3,0.1,0.7,0.1,1,0.1c0.1,0,0.2,0,0.2,0.1s0,0.1-0.1,0.2c-0.1,0.1-0.1,0.3-0.1,0.5v1.4 c0.5,0,0.9,0,1.2-0.1v0.9c-0.3-0.1-0.7-0.1-1.2-0.1v5.6c0,0.3,0,0.6-0.1,0.7c-0.1,0.1-0.2,0.2-0.4,0.3c-0.2,0.1-0.6,0.1-1.1,0.2 c0-0.3-0.2-0.7-0.4-1c0.3,0,0.5,0.1,0.7,0.1s0.3,0,0.4-0.1s0.1-0.2,0.1-0.3v-4.9c-0.5,1.7-1.3,3.1-2.4,4.4 c-0.2-0.2-0.4-0.4-0.7-0.5c1.1-1,2-2.5,2.6-4.4c-1.1,0-1.7,0-2,0.1V100C618.8,100.1,619.7,100.1,621.1,100.1z"/></g><g id="XMLID_3_"><path id="XMLID_131_" class="st6" d="M570.5,167.6c-0.4,0.7-0.8,1.2-1.2,1.6c-0.1-0.3-0.3-0.5-0.5-0.8c0.7-0.7,1.4-1.8,1.9-3.3 c0.3,0.2,0.6,0.4,0.9,0.4c0.1,0,0.2,0.1,0.2,0.1c0,0-0.1,0.1-0.2,0.2s-0.3,0.4-0.7,1c1,0,1.7,0,2-0.1v0.9 C572.7,167.6,571.8,167.6,570.5,167.6z M571.6,171.3v2.1c0.5-0.3,1-0.7,1.3-0.9c0,0.4,0.1,0.7,0.2,0.9l-1.3,1 c-0.4,0.3-0.7,0.6-0.8,0.7c-0.1-0.3-0.2-0.5-0.5-0.9c0.1-0.1,0.2-0.2,0.3-0.3s0.1-0.3,0.1-0.5v-2c-0.6,0-1,0-1.4,0.1v-0.9 c0.4,0,0.9,0.1,1.4,0.1v-1.3c-0.4,0-0.6,0-0.8,0.1v-0.9c0.4,0.1,0.8,0.1,1.4,0.1c0.6,0,1,0,1.4-0.1v0.9c-0.3,0-0.7-0.1-1.2-0.1v1.3 c0.6,0,1.1,0,1.5-0.1v0.9C572.7,171.3,572.2,171.3,571.6,171.3z M576.4,171.4c0.4-0.3,0.8-0.8,1.2-1.3c0.2,0.2,0.5,0.4,0.7,0.6 c0,0,0,0,0,0.1s0,0-0.1,0.1c-0.2,0.1-0.7,0.4-1.5,1.2c0.5,0.8,1.3,1.3,2.2,1.6c-0.3,0.2-0.5,0.5-0.7,0.9c-0.3-0.2-0.7-0.4-1.1-0.8 c-0.4-0.4-0.8-0.9-1.2-1.4c-0.3-0.6-0.6-1.3-0.7-2.3h-0.8v3.6c0.5-0.3,0.9-0.5,1.2-0.8c0,0.2,0.1,0.5,0.2,0.8l-1.1,0.8 c-0.4,0.3-0.6,0.5-0.7,0.7c-0.1-0.3-0.3-0.6-0.6-0.8c0.1-0.1,0.2-0.2,0.2-0.2s0.1-0.2,0.1-0.4v-6.6c0-0.4,0-0.9-0.1-1.3 c0.5,0.1,1.2,0.1,2.2,0.1c1,0,1.7,0,2.2-0.1c0,0.5-0.1,0.9-0.1,1.3v1.7c0,0.3,0,0.8,0.1,1.4c-0.2,0-0.9-0.1-2.1-0.1 C576,170.5,576.1,171,576.4,171.4z M577.1,166.3h-2.7v1.1h2.7V166.3z M577.1,168.1h-2.7v1.1h2.7V168.1z"/><path id="XMLID_137_" class="st6" d="M582.1,169.6v5.2h-1c0.1-0.6,0.1-1.2,0.1-1.7v-2.4c-0.2,0.2-0.5,0.6-0.9,1 c-0.1-0.3-0.3-0.5-0.6-0.8c1-0.8,1.9-1.9,2.6-3.2c0.2,0.2,0.5,0.4,0.9,0.6c0.1,0,0.1,0.1,0.1,0.1s0,0.1-0.1,0.1 c-0.1,0-0.2,0.1-0.4,0.3C582.5,169,582.3,169.3,582.1,169.6z M582,165.2c0.4,0.3,0.7,0.5,0.9,0.6c0.1,0,0.1,0.1,0.1,0.1 s-0.1,0.1-0.2,0.1c-0.2,0-0.5,0.3-0.8,0.7c-0.4,0.4-0.9,1-1.6,1.6c-0.1-0.2-0.4-0.4-0.7-0.6c0.4-0.3,0.9-0.7,1.3-1.3 C581.6,166,581.8,165.5,582,165.2z M587.4,169.6v4.1c0,0.3-0.1,0.5-0.2,0.7c-0.1,0.2-0.3,0.3-0.6,0.3c-0.3,0.1-0.7,0.1-1.4,0.2 c0-0.3-0.2-0.7-0.5-1.1c0.3,0,0.6,0.1,0.8,0.1c0.6,0,0.9-0.2,0.9-0.5v-3.8c-1.3,0-2.2,0-2.9,0.1v-1c0.6,0.1,1.6,0.1,2.9,0.1 s2.3,0,2.9-0.1v1C588.8,169.6,588.2,169.6,587.4,169.6z M588.6,166.9c-0.5-0.1-1.3-0.1-2.2-0.1s-1.7,0-2.2,0.1v-1 c0.5,0.1,1.2,0.1,2.2,0.1s1.8,0,2.2-0.1V166.9z"/><path id="XMLID_142_" class="st6" d="M592.4,166.9c-0.4,0.5-0.7,0.9-1.1,1.3c-0.2-0.2-0.4-0.4-0.8-0.4c0.3-0.2,0.7-0.6,1.2-1.1 c0.4-0.6,0.7-1.1,0.9-1.6c0.3,0.1,0.6,0.3,1,0.4c0.1,0,0.1,0,0.1,0.1s0,0.1-0.1,0.1c-0.1,0.1-0.3,0.3-0.6,0.6h0.6 c0.9,0,1.4,0,1.6-0.1v0.9c-0.3-0.1-0.7-0.1-1.2-0.1c0.1,0.5,0.2,0.9,0.3,1.1l-1,0.1c0-0.3,0-0.7-0.1-1.2H592.4z M594.8,169.4 c-1.1,0-2,0-2.9,0.1v-0.9c0.8,0.1,1.7,0.1,2.9,0.1c0-0.3,0-0.6-0.1-0.8c0.2,0,0.5,0.1,1,0.1c0.1,0,0.1,0,0.1,0s0,0.1-0.1,0.1 s-0.1,0.2-0.1,0.5c1.2,0,2.1,0,2.9-0.1v0.9c-0.8-0.1-1.8-0.1-2.9-0.1v0.8c1.7,0,3.1,0,4.1-0.1v0.9c-0.8,0-1.5-0.1-2.1-0.1v0.8 c0.9,0,1.4-0.1,1.6-0.1v0.9c-0.2,0-0.7-0.1-1.6-0.1v1.3c0,0.3,0,0.5-0.1,0.7c-0.1,0.1-0.2,0.2-0.5,0.3c-0.2,0.1-0.7,0.1-1.3,0.2 c0-0.4-0.2-0.7-0.4-1c0.3,0,0.6,0.1,0.8,0.1s0.4,0,0.5-0.1s0.2-0.2,0.2-0.5v-0.9H593c-0.7,0-1.3,0-1.8,0.1v-0.9 c0.4,0.1,1,0.1,1.8,0.1h3.8v-0.8c-3.2,0-5.2,0-6,0.1v-0.9c1,0.1,2.3,0.1,4,0.1V169.4z M594.5,173.7l-0.9,0.5 c-0.2-0.4-0.5-0.8-0.8-1.1l0.8-0.5C593.9,172.9,594.2,173.3,594.5,173.7z M596.3,166.9c-0.2,0.4-0.4,0.6-0.5,0.8 c-0.3-0.2-0.6-0.3-0.8-0.4c0.2-0.2,0.5-0.5,0.8-1c0.3-0.5,0.5-1,0.5-1.4c0.3,0.2,0.7,0.2,1,0.3c0.1,0,0.1,0,0.1,0.1 c0,0,0,0.1-0.1,0.1c-0.1,0.1-0.4,0.3-0.7,0.8h1c1,0,1.6-0.1,2-0.2v1c-0.4,0-0.9-0.1-1.5-0.1c0.1,0.5,0.2,0.9,0.3,1.1l-1,0.2 c0-0.3-0.1-0.7-0.2-1.3H596.3z"/><path id="XMLID_147_" class="st6" d="M606.2,165.6c0.7,0.8,1.4,1.4,2.1,1.8c0.7,0.4,1.5,0.7,2.5,1c-0.1,0.1-0.2,0.3-0.3,0.5 c-0.1,0.2-0.1,0.4-0.2,0.6c-1.9-0.6-3.4-1.7-4.6-3.4c-0.6,0.8-1.4,1.7-2.5,2.5c0.6,0,1.5,0.1,2.6,0.1s2,0,2.6-0.1v0.9 c-0.5,0-1.2-0.1-2.2-0.1v1.3c1.5,0,2.6,0,3.1-0.1v0.9c-0.6,0-1.6-0.1-3.1-0.1v2.2l1,0c0.3-0.7,0.5-1.4,0.6-1.9 c0.4,0.2,0.7,0.3,0.9,0.3c0.1,0,0.1,0.1,0.1,0.1c0,0.1,0,0.1-0.1,0.1c-0.1,0.1-0.4,0.5-0.9,1.3c0.8,0,1.5,0,2.1-0.1v1 c-1.2-0.1-2.7-0.1-4.4-0.1s-3,0-4,0.1v-1c0.9,0.1,2.2,0.1,3.7,0.1v-2.2c-1.4,0-2.4,0-3.1,0.1v-0.9c0.7,0.1,1.8,0.1,3.1,0.1v-1.3 c-1,0-1.7,0-2.2,0.1v-0.8c-0.6,0.5-1.1,0.8-1.5,1c-0.1-0.3-0.3-0.5-0.7-0.7c0.5-0.2,1-0.5,1.5-0.9c0.5-0.4,0.9-0.8,1.3-1.2 c0.4-0.4,0.7-0.8,0.9-1s0.3-0.6,0.5-0.9c0.5,0.2,0.8,0.3,1,0.3c0.2,0,0.2,0.1,0.2,0.1S606.4,165.6,606.2,165.6z M604.3,173 l-0.9,0.4c-0.2-0.6-0.5-1-0.7-1.3l0.9-0.4C603.9,172.2,604.1,172.7,604.3,173z"/><path id="XMLID_150_" class="st6" d="M612.4,170.9c0-0.4,0-0.7-0.1-0.9c0.6,0.1,1.3,0.1,2.2,0.1s1.6,0,2.2-0.1 c0,0.2-0.1,0.5-0.1,0.9v2.8c0,0.3-0.1,0.5-0.3,0.7s-0.5,0.3-1,0.3c0-0.3-0.1-0.6-0.2-0.8c0.2,0,0.3,0,0.4,0s0.2,0,0.3-0.1 s0.1-0.2,0.1-0.3v-2.7h-2.8v4h-0.8c0.1-0.4,0.1-0.8,0.1-1.2V170.9z M616.7,166.6c-0.5,0-1.3-0.1-2.2-0.1s-1.7,0-2.2,0.1v-0.9 c0.5,0.1,1.2,0.1,2.1,0.1c0.9,0,1.7,0,2.2-0.1V166.6z M612.7,167.2c0.5,0.1,1.1,0.1,1.8,0.1c0.7,0,1.3,0,1.8-0.1 c0,0.3-0.1,0.7-0.1,1.1s0,0.8,0.1,1.2c-0.4-0.1-1-0.1-1.8-0.1s-1.4,0-1.8,0.1c0.1-0.3,0.1-0.7,0.1-1.1 C612.8,167.9,612.8,167.5,612.7,167.2z M614.5,172.2c0.1-0.4,0.2-0.8,0.3-1.3c0.3,0.1,0.5,0.2,0.7,0.2c0,0,0.1,0,0.1,0 s0,0.1-0.1,0.1c-0.1,0-0.2,0.4-0.5,0.9c0.2,0,0.4,0,0.5-0.1v0.7c-0.3,0-0.5-0.1-0.9-0.1v0.8c0,0.2,0,0.4,0,0.5H614 c0-0.1,0-0.3,0-0.5v-0.8c-0.3,0-0.5,0-0.7,0.1v-0.7C613.7,172.2,614,172.2,614.5,172.2z M614,171.1c0.1,0.4,0.2,0.6,0.3,0.7 l-0.6,0.2c-0.1-0.3-0.1-0.5-0.2-0.8L614,171.1z M613.5,167.9v0.9h2v-0.9H613.5z M619.4,167.3c0.9,0,1.4,0,1.7-0.1 c-0.1,0.3-0.1,0.6-0.1,1v1.7c0,0.4,0,0.9,0.1,1.3c-0.3-0.1-0.9-0.1-1.7-0.1v2.3l1-0.2c-0.1-0.5-0.2-0.9-0.3-1.1l0.7-0.2 c0.3,0.6,0.6,1.5,0.8,2.4l-0.8,0.3c0-0.3-0.1-0.5-0.2-0.8l-2.1,0.5c-0.6,0.1-1,0.3-1.4,0.5c-0.1-0.3-0.2-0.7-0.3-1.1 c0.4,0,1,0,1.9-0.1V171h-0.8v0.7h-0.8c0.1-0.4,0.1-0.7,0.1-1.1v-2.4c0-0.4,0-0.8-0.1-1c0.4,0,0.9,0.1,1.6,0.1c0-1.2,0-1.9-0.1-2 c0.4,0.1,0.7,0.1,0.9,0.1c0.1,0,0.2,0,0.2,0.1c0,0,0,0.1-0.1,0.1c-0.1,0-0.1,0.1-0.2,0.2c-0.1,0.1-0.1,0.3-0.1,0.4V167.3z M618.7,170.3V168h-0.8v2.3H618.7z M619.4,168v2.3h0.9V168H619.4z"/><path id="XMLID_160_" class="st6" d="M624.1,170c-0.3,0.9-0.7,1.7-1.1,2.5c-0.1-0.3-0.3-0.6-0.5-1c0.4-0.4,0.7-0.9,0.9-1.4 c0.2-0.5,0.5-1.2,0.7-2v-0.1c-0.6,0-1.1,0-1.5,0.1v-0.8c0.3,0,0.8,0.1,1.5,0.1c0-1,0-1.8-0.1-2.2c0.2,0,0.4,0,0.6,0l0.4,0 c0.1,0,0.1,0,0.1,0.1s0,0.1-0.1,0.2c-0.1,0.1-0.1,0.2-0.1,0.3v1.6c0.7,0,1.2,0,1.5-0.1v0.8c-0.4,0-0.9-0.1-1.5-0.1v4.7 c0,0.6,0,1.3,0.1,2H624c0.1-0.7,0.1-1.4,0.1-2V170z M626.7,170.8l-0.8,0.4c-0.2-0.5-0.5-1-0.8-1.6l0.7-0.3 C626,169.8,626.3,170.3,626.7,170.8z M632.4,172.9c-0.1,0.5-0.3,0.9-0.4,1.1c-0.1,0.2-0.2,0.3-0.4,0.4c-0.2,0.1-0.4,0.1-0.8,0.1 s-0.6,0-0.8-0.1s-0.3-0.2-0.3-0.4c-0.1-0.2-0.1-0.5-0.1-0.9l0.1-6.5H628c0,0.4,0,1,0,1.8s0,1.5-0.1,2.3c-0.1,0.8-0.2,1.5-0.4,2.2 c-0.2,0.7-0.7,1.3-1.2,2c-0.3-0.3-0.6-0.5-1-0.6c0.8-0.6,1.3-1.3,1.6-2.1c0.2-0.8,0.4-1.9,0.4-3.2c0-0.7,0-1.8-0.1-3.3 c0.5,0.1,1.1,0.1,1.9,0.1s1.4,0,1.8-0.1c-0.1,0.3-0.1,0.8-0.1,1.4l-0.1,6c0,0.2,0,0.3,0.1,0.4c0.1,0.1,0.2,0.1,0.4,0.1 c0.2,0,0.3-0.1,0.3-0.3s0.1-0.5,0.1-1.1C631.6,172.6,632,172.9,632.4,172.9z"/><path id="XMLID_164_" class="st6" d="M634.8,170.1c-0.4,1.1-0.8,1.9-1.2,2.5c-0.2-0.4-0.4-0.7-0.6-1c0.7-0.6,1.3-1.8,1.8-3.4 c-0.5,0-1,0-1.4,0.1v-0.9c0.3,0,0.8,0.1,1.4,0.1c0-1.1,0-1.9-0.1-2.3c0.3,0,0.5,0.1,0.8,0.1l0.3,0c0.1,0,0.1,0,0.1,0.1 s0,0.1-0.1,0.2c-0.1,0.1-0.1,0.2-0.1,0.3v1.7c0.4,0,0.8,0,1.1-0.1v0.9c-0.3,0-0.7-0.1-1.1-0.1v4.5c0,0.7,0,1.4,0.1,2.2h-1.1 c0.1-0.8,0.1-1.5,0.1-2.2V170.1z M637.1,170.8l-0.8,0.4c-0.2-0.5-0.4-1-0.6-1.4l0.6-0.3C636.7,170,636.9,170.5,637.1,170.8z M638.8,167h1.9c0.8,0,1.5,0,2-0.1l-0.3,6.4c0,0.6-0.2,1-0.5,1.2c-0.3,0.2-0.9,0.4-1.6,0.5c-0.1-0.5-0.3-0.8-0.5-1.1 c0.2,0,0.5,0.1,0.7,0.1c0.7,0,1.1-0.3,1.1-0.8l0.3-5.4h-3.4c-0.3,0.7-0.6,1.2-0.8,1.7c-0.3-0.2-0.6-0.3-1-0.4 c0.3-0.3,0.7-0.9,1.1-1.7s0.6-1.6,0.7-2.3c0.4,0.2,0.8,0.3,1.1,0.4c0.1,0,0.1,0,0.1,0.1s0,0.1-0.1,0.2 C639.4,165.8,639.1,166.2,638.8,167z M640,171.7c-0.1-0.4-0.2-0.8-0.4-1.3l0.7-0.2c0.3,0.7,0.6,1.5,0.9,2.5l-0.9,0.3 c0-0.2-0.1-0.5-0.1-0.7l-1.8,0.3c-0.3,0-0.6,0.1-1,0.3c-0.1-0.3-0.1-0.6-0.3-0.8c0.2-0.1,0.5-0.6,0.8-1.4c0.3-0.8,0.6-1.5,0.6-2.1 c0.4,0.1,0.7,0.2,0.9,0.3c0.1,0,0.2,0.1,0.2,0.1s0,0.1-0.1,0.2s-0.2,0.4-0.5,0.9s-0.5,1.2-1,2L640,171.7z"/></g><path id="XMLID_2_" class="st0" d="M600.3,207.5c0,4.9-3.8,8.9-6.2,8.9h-35c-2.5,0-6.2-4-6.2-8.9V201c0-4.9,3.8-8.9,6.2-8.9h34.1	c2.5,0,7.1,4,7.1,8.9V207.5z"/></svg>