<svg version="1.1" id="图层_1" xmlns="http://www.w3.org/2000/svg" x="0" y="0" viewBox="0 0 770 280" xml:space="preserve"><style type="text/css">.st0{fill:none;stroke:#DCDDDD;stroke-miterlimit:10;} .st1{fill:none;stroke:#123464;stroke-width:5;stroke-linecap:round;stroke-linejoin:round;stroke-miterlimit:10;} .st2{fill:#F0F0F0;} .st3{fill:none;stroke:#123464;stroke-miterlimit:10;} .st4{fill:#123464;} .st5{fill:#E27D62;} .st6{fill:#DCDDDD;} .st7{fill:none;stroke:#DCDDDD;stroke-linecap:round;stroke-linejoin:round;stroke-miterlimit:10;} .st8{fill:none;stroke:#E27D62;stroke-miterlimit:10;} .st9{fill:none;stroke:#E27D62;stroke-linecap:round;stroke-linejoin:round;stroke-miterlimit:10;} .st10{fill:none;stroke:#F0F0F0;stroke-width:8;stroke-miterlimit:10;}</style><path id="XMLID_102_" class="st0" d="M634.4,98.3c0,4.9-3.4,8.9-7.5,8.9h-52.8c-4.1,0-7.5-4-7.5-8.9v-6.5c0-4.9,3.4-8.9,7.5-8.9 h52.8c4.1,0,7.5,4,7.5,8.9V98.3z"/><path id="XMLID_101_" class="st0" d="M652.6,166.4c0,4.9-2.4,8.9-7.7,8.9h-72.3c-5.4,0-7.7-4-7.7-8.9v-6.5c0-4.9,2.4-8.9,7.7-8.9 h72.3c5.4,0,7.7,4,7.7,8.9V166.4z"/><path id="XMLID_100_" class="st0" d="M621,64.3c0,4.9-2.7,8.9-6.1,8.9H562c-3.4,0-6.1-4-6.1-8.9v-6.5c0-4.9,2.7-8.9,6.1-8.9h52.9 c3.4,0,6.1,4,6.1,8.9V64.3z"/><path id="XMLID_99_" class="st0" d="M578.3,234.9c0,4.9-4,8.9-8.9,8.9h-27.1c-4.9,0-8.9-4-8.9-8.9V228c0-4.9,4-8.9,8.9-8.9h27.1 c4.9,0,8.9,4,8.9,8.9V234.9z"/><circle id="XMLID_98_" class="st1" cx="386.9" cy="141.7" r="93.4"/><path id="XMLID_97_" transform="matrix(0.7071 -0.7071 0.7071 0.7071 76.1843 341.0701)" class="st2" d="M426 69.6H473.5V87.5H426z"/><path id="XMLID_96_" class="st3" d="M296.1,153.6v1.2c0.3,45.8,46.8,80.3,90.8,80.3c44.4,0,85.3-31.8,91.1-81.5H296.1z"/><path id="XMLID_95_" transform="matrix(0.7071 -0.7071 0.7071 0.7071 -46.4524 290.6207)" class="st2" d="M303.8 192.4H351.3V210.3H303.8z"/><g id="XMLID_94_"><path id="XMLID_449_" class="st4" d="M331.1,125.1v-3.5h6.1v-6.5h-4.7v-3.5h23.6v3.5h-4.2v6.5h5.4v3.5h-5.4v10.7h-3.8v-10.7H341 c-0.2,2.3-0.6,4.1-1,5.5c-0.8,2.2-2.7,4.2-5.6,5.8c-0.5-0.5-1.4-1.3-2.7-2.2c-0.3-0.2-0.5-0.4-0.7-0.6c2.7-1.3,4.4-2.7,5.1-4.5 c0.4-0.9,0.7-2.2,0.9-4H331.1z M341,115.2v6.5h7.1v-6.5H341z"/><path id="XMLID_452_" class="st4" d="M371,132.6c3.8,0.1,8.8,0.1,14.9,0c-0.5,1.2-1,2.3-1.3,3.2c-5.2-0.1-7.2-0.1-6.1-0.1 c-1,0-2.2,0-3.3,0c-1,0-2.5,0-4.2,0c-3.1,0-5.5-0.8-7-2.5c-0.7,0.6-1.6,1.6-2.8,3.1l-1.6-3.9c0.4-0.4,1.1-1,2.2-1.8 c-0.8,0.5-0.7,0.4,0.3-0.3V123h-2.5v-3.5h5.7v10.8C366.4,131.8,368.3,132.6,371,132.6z M360.1,112.1l2.9-1.9 c0.2,0.2,0.5,0.6,0.9,1.1c0.9,1.1,1.8,2.4,2.8,3.8l-3.1,2C362.3,115.1,361.2,113.5,360.1,112.1z M367.2,111.2h17.1v3l-5.5,3.1h5.6 v11.4c0,2-1,3-2.9,3.1c-1,0-2,0-3,0c-0.1-0.3-0.2-0.8-0.3-1.4c-0.1-0.5-0.3-0.9-0.3-1.2c0.3,0,0.7,0,1.3,0.1c0.4,0,0.6,0,0.8,0 c0.7,0,1.1-0.4,1.1-1.2v-0.4h-3.6v4h-3.2v-4h-3.5v4h-3.3v-14.3h5c-0.3-0.1-0.7-0.4-1.2-0.8c-0.7-0.5-1.3-0.9-1.7-1l1.4-1.6h-3.8 V111.2z M370.8,119.6v1.7h3.5v-1.7H370.8z M370.8,123.5v1.7h3.5v-1.7H370.8z M375.7,116.1l4-2.1h-7.8c0.4,0.2,1.1,0.6,2,1.1 C374.6,115.5,375.2,115.8,375.7,116.1z M381,121.3v-1.7h-3.6v1.7H381z M377.4,123.5v1.7h3.6v-1.7H377.4z"/><path id="XMLID_461_" class="st4" d="M388.7,135.4v-3h5.7c-0.2-0.3-0.6-0.7-1-1.3c-0.7-0.8-1.2-1.5-1.6-2l3-1.8 c0.9,1,1.9,2.2,2.9,3.5l-2.6,1.7h4v-5.2h-8.4v-3.2h8.4v-2.2h-5v-2.1c-0.4,0.2-0.9,0.5-1.6,0.9c-1.1,0.7-2,1.3-2.6,1.6 c-0.3-0.4-0.7-1.1-1.3-2c-0.4-0.7-0.7-1.2-0.9-1.4c5.4-2.3,9.3-5.1,11.7-8.3h5.5l-1.2,1.2c2.8,2.9,6.4,5.1,10.8,6.5 c-0.5,0.8-1.2,1.9-2,3.3c-0.1,0.1-0.1,0.1-0.1,0.2c-0.6-0.3-1.5-0.7-2.6-1.3c-0.7-0.4-1.2-0.6-1.6-0.8v2.2h-5.1v2.2h8.4v3.2h-4 l3.2,1.7c-1,1.3-1.9,2.5-2.8,3.6h5.7v3H388.7z M401.3,113.7c-1.6,1.6-3.5,3.2-5.6,4.7h11C404.2,116.7,402.4,115.1,401.3,113.7z M407.4,127.1h-4.2v5.2h4.1l-2.6-1.4c0.3-0.4,0.7-1.1,1.3-1.9C406.7,128.1,407.1,127.5,407.4,127.1z"/><path id="XMLID_465_" class="st4" d="M417.1,114.1v-2.9h13.3v2.9H417.1z M420.9,131.3v-2.6h1.1c-0.2-0.3-0.4-0.7-0.7-1.3 c-0.2-0.6-0.4-1-0.6-1.3h2.2c0.1,0.1,0.1,0.4,0.2,0.8c0.1,0.2,0.3,0.9,0.6,1.9h0.1c0.2-0.8,0.4-1.7,0.7-2.7h2.5 c-0.4,0.7-0.9,1.6-1.3,2.7h1.1v2.6h-1.6v1.7c0.2,0,0.7,0,1.3,0c0.5,0,0.8-0.3,0.9-0.9v-6.8h-7.1v10.6h-2.8v-13.3h12.5v10 c0,1.6-0.6,2.6-1.7,2.9c-0.7,0.1-1.6,0.1-2.6,0.1c-0.1-0.3-0.2-0.7-0.2-1.3c-0.2-0.6-0.3-1-0.3-1.2v2.5h-2.7v-4.2H420.9z M418.6,121.5v-6.5h10.6v6.5H418.6z M426.2,119v-1.3h-4.7v1.3H426.2z M431.2,128.4v-13.6h3.8v-4.5h3.2v4.5h3.8v12h-3.8v4.7 c0.2-0.1,0.7-0.1,1.3-0.1c-0.2-0.9-0.4-1.8-0.7-2.7l2.5-0.7c0.7,3,1.3,5.4,1.8,7.4l-2.5,0.7c0-0.1,0-0.4-0.1-0.7 c-0.1-0.6-0.3-1-0.3-1.3c-1,0.1-2.7,0.4-5,0.7c-1.9,0.2-3.3,0.4-4.2,0.6l-0.4-3.2c1.6-0.1,3-0.3,4.5-0.3v-4.9h-1.3v1.6H431.2z M433.6,117.9v6.1h1.3v-6.1H433.6z M438.2,124h1.3v-6.1h-1.3V124z"/></g><g id="XMLID_89_"><g id="XMLID_93_"><path id="XMLID_430_" class="st4" d="M393.6,197.7c-0.8,0-1.5,0-1.9,0.1v-1c0.4,0.1,1.1,0.1,1.9,0.1c0-2.1,0-3.5-0.1-4.2 c0.3,0.1,0.7,0.1,1.1,0.1c0.2,0,0.2,0,0.2,0.1c0,0.1-0.1,0.1-0.2,0.2c-0.1,0.1-0.2,0.2-0.2,0.4v3.3c0.6,0,1.1-0.1,1.5-0.1v1 c-0.4-0.1-0.9-0.1-1.5-0.1v4.6c0.6-0.2,1.1-0.4,1.7-0.7c0,0.1,0,0.2,0,0.4s0,0.3,0.1,0.6c-1.4,0.4-2.8,0.8-4.3,1.4 c0-0.4-0.2-0.7-0.5-1c0.8-0.1,1.5-0.2,2.2-0.4V197.7z M400.9,195c0.6-0.9,1.1-1.6,1.4-2.3c0.2,0.2,0.5,0.4,0.9,0.5 c0.1,0,0.2,0.1,0.2,0.2s-0.1,0.1-0.2,0.2c-0.1,0-0.3,0.1-0.5,0.3c-0.2,0.2-0.5,0.5-0.9,1.1c0.9,0,1.8,0,2.5-0.1 c-0.1,0.5-0.1,1.3-0.1,2.4s0,1.8,0.1,2.3c-0.7-0.1-1.9-0.1-3.7-0.1c-1.8,0-3.2,0-4.3,0.1c0.1-0.7,0.1-1.4,0.1-2.3 c0-0.9,0-1.6-0.1-2.3c0.9,0.1,1.8,0.1,2.7,0.1H400.9z M397.9,204.9v0.8H397c0.1-0.4,0.1-0.9,0.1-1.4v-2.3c0-0.7,0-1.2-0.1-1.6 c0.7,0.1,1.8,0.1,3.4,0.1s2.7,0,3.2-0.1c-0.1,0.4-0.1,0.9-0.1,1.6v2.1c0,0.4,0,0.9,0.1,1.5h-0.9v-0.7H397.9z M399.8,198.8v-3.2 h-2.7v3.2H399.8z M399.5,194.3l-0.6,0.6c-0.5-0.6-1-1.1-1.7-1.5l0.5-0.6C398.3,193.1,398.9,193.7,399.5,194.3z M399.4,197.9 l-0.7,0.4c-0.4-0.7-0.8-1.3-1.3-1.8l0.6-0.5C398.6,196.6,399,197.2,399.4,197.9z M397.9,202.3h4.7v-1.2h-4.7V202.3z M402.6,203 h-4.7v1.3h4.7V203z M400.6,195.6v3.2h2.7v-3.2H400.6z M402.1,195.9c0.2,0.2,0.4,0.3,0.7,0.4c0.2,0,0.3,0.1,0.3,0.2 c0,0.1-0.1,0.1-0.2,0.2c-0.2,0.1-0.6,0.7-1.3,1.8l-0.6-0.3C401.4,197.4,401.8,196.7,402.1,195.9z"/><path id="XMLID_441_" class="st4" d="M407.7,197c-0.3,0.6-0.7,1.2-1.1,1.9c-0.2-0.3-0.5-0.4-1.1-0.5c0.5-0.3,1.1-1.2,1.9-2.7 c0.8-1.4,1.2-2.5,1.2-3.2c0.4,0.2,0.8,0.3,1,0.4c0.3,0.1,0.4,0.2,0.4,0.2s-0.1,0.2-0.2,0.3c-0.2,0.1-0.3,0.3-0.5,0.5 c-0.2,0.2-0.4,0.7-0.7,1.4v10.4h-1c0.1-1,0.2-2,0.2-3V197z M418.9,195.7c-0.5,0-2-0.1-4.3-0.1c-2.4,0-4.1,0-5.1,0.1v-0.9 c0.4,0.1,1.9,0.1,4.5,0.1s4.3,0,4.9-0.1V195.7z M411.5,204.6v1h-0.9c0.1-0.5,0.1-0.9,0.1-1.3V202c0-0.4,0-0.6-0.1-0.8 c1.1,0,2.4,0,3.7,0s2.4,0,3.2,0c0,0.2,0,0.4,0,0.8v2.1c0,0.5,0,0.9,0.1,1.3h-1v-0.9H411.5z M417.4,197.7c-0.7,0-1.7-0.1-3-0.1 s-2.5,0-3.5,0.1v-0.8c0.6,0,1.6,0.1,2.9,0.1s2.5,0,3.7-0.1V197.7z M417.4,199.8c-0.6,0-1.7-0.1-3.2-0.1s-2.6,0-3.4,0.1V199 c1.1,0,2.3,0.1,3.7,0.1s2.3,0,2.9-0.1V199.8z M416.6,203.9v-2h-5.1v2H416.6z M415,194.2l-0.6,0.6c-0.6-0.6-1.3-1.2-2.1-1.6 l0.5-0.6C413.6,193,414.3,193.6,415,194.2z"/></g><g id="XMLID_92_"><path id="XMLID_421_" class="st4" d="M368.2,177.6c-0.2,0.8-0.4,1.3-0.6,1.7c-0.2,0.4-0.5,0.5-0.8,0.5s-0.7-0.2-1-0.7 c-0.3-0.5-0.6-1.2-0.7-2c-0.2-0.8-0.3-2-0.3-3.5c0-1.5,0.1-3.1,0.2-4.8h-7.3c0.1,1.1,0.1,2.2,0.1,3.6c0,1.3-0.1,2.3-0.2,3.1 c-0.1,0.7-0.3,1.4-0.6,2.2c-0.3,0.7-0.7,1.4-1.2,2.1c-0.3-0.3-0.6-0.5-1-0.6c0.9-1,1.5-1.9,1.8-2.8c0.2-0.9,0.4-2.4,0.4-4.3 c0-1.3-0.1-2.6-0.3-3.9c1,0.1,2.5,0.1,4.5,0.1s3.7,0,4.9-0.1c-0.2,0.7-0.3,1.7-0.3,2.9c-0.1,1.2-0.1,2.2-0.1,2.9 c0,1.7,0.1,2.9,0.4,3.7s0.5,1.2,0.7,1.2c0.2,0,0.4-0.5,0.4-1.5C367.5,177.5,367.8,177.6,368.2,177.6z M361.5,172.9 c0.7-1.1,1.2-2.3,1.6-3.4c0.3,0.2,0.7,0.4,1,0.5c0.1,0,0.2,0.1,0.2,0.1s-0.1,0.1-0.2,0.2c-0.1,0-0.3,0.2-0.4,0.4 c-0.1,0.2-0.3,0.6-0.6,1.1c-0.3,0.5-0.6,1.1-1,1.8c1,1.2,1.9,2.4,2.8,3.6l-0.8,0.6c-0.8-1.1-1.6-2.3-2.4-3.4 c-0.8,1.3-1.8,2.6-2.9,3.8c-0.3-0.2-0.6-0.4-0.9-0.5c1.3-1.3,2.4-2.7,3.3-4c-0.9-1.1-1.7-2.1-2.6-3l0.6-0.6 C359.9,171,360.7,171.9,361.5,172.9z"/><path id="XMLID_424_" class="st4" d="M371.3,170.9c-0.9,0-1.6,0-2.1,0.1V170c0.5,0.1,1.2,0.1,2.1,0.1c0-1.5-0.1-2.5-0.2-3.1 c0.2,0.1,0.6,0.1,1.1,0.1c0.2,0,0.3,0,0.3,0.1c0,0.1-0.1,0.2-0.2,0.3s-0.2,0.3-0.2,0.5v2.1c0.7,0,1.2,0,1.6-0.1v0.9 c-0.5-0.1-1-0.1-1.6-0.1v2.5c0.6-0.3,1.1-0.6,1.5-0.8c0,0.3,0.1,0.6,0.2,0.8c-0.5,0.3-1.1,0.5-1.7,0.9v4.3c0,0.4-0.1,0.7-0.2,0.9 c-0.1,0.2-0.3,0.3-0.6,0.4s-0.8,0.1-1.4,0.2c0-0.3,0-0.5-0.1-0.6c-0.1-0.1-0.1-0.3-0.2-0.4c0.5,0.1,0.8,0.1,1,0.1 c0.2,0,0.4-0.1,0.5-0.2c0.1-0.1,0.1-0.3,0.1-0.6v-3.6c-0.6,0.4-1.2,0.7-1.7,1c-0.1-0.4-0.2-0.7-0.5-1c0.7-0.3,1.5-0.6,2.3-0.9 V170.9z M378.2,178.6c1.8,0,3.1,0,4-0.1v0.9c-1-0.1-2.4-0.1-4.3-0.1s-3.4,0-4.7,0.1v-0.9c1.1,0.1,2.5,0.1,4.1,0.1v-3.2 c-1.2,0-2.1,0-2.9,0.1v-0.9c0.9,0.1,2,0.1,3.4,0.1s2.5,0,3.4-0.1v0.9c-0.8-0.1-1.8-0.1-3-0.1V178.6z M376.6,170.8 c0.3,0.2,0.5,0.4,0.8,0.5c0.1,0,0.1,0.1,0.1,0.1c0,0.1,0,0.1-0.1,0.1c-0.1,0-0.2,0.1-0.3,0.1c-0.1,0.1-0.2,0.2-0.3,0.3 c-0.5,0.7-1.2,1.4-2,2.2c-0.3-0.3-0.6-0.5-0.9-0.6C375,173,375.9,172,376.6,170.8z M377.6,169c-0.2-0.5-0.4-1-0.8-1.5l0.9-0.4 c0.2,0.5,0.5,1.2,0.7,1.9c1.4,0,2.6,0,3.4-0.1v2.7h-0.8v-1.9h-6v1.9h-0.8v-2.7C375,169,376.1,169,377.6,169z M381.6,173.5 l-0.7,0.5c-0.6-0.8-1.4-1.7-2.5-2.6l0.5-0.5C379.8,171.7,380.7,172.5,381.6,173.5z"/></g><g id="XMLID_91_"><path id="XMLID_406_" class="st4" d="M393.3,171c-0.7,0-1.3,0.1-1.8,0.1v-1c0.5,0.1,1.1,0.1,1.8,0.1c0-1.4-0.1-2.5-0.2-3 c0.3,0.1,0.6,0.1,1.1,0.1c0.2,0,0.3,0,0.3,0.1s-0.1,0.2-0.2,0.3s-0.2,0.3-0.2,0.5v2c0.6,0,1.1-0.1,1.5-0.1v1 c-0.4-0.1-0.9-0.1-1.5-0.1v2.6c0.4-0.2,0.7-0.4,1-0.6c0,0.3,0.1,0.6,0.2,0.8c-0.4,0.2-0.8,0.3-1.2,0.5v4.2c0,0.5-0.1,0.8-0.2,1 s-0.4,0.3-0.7,0.4c-0.3,0.1-0.8,0.1-1.3,0.1c0-0.1,0-0.2,0-0.3c0-0.3-0.1-0.5-0.4-0.8c0.5,0.1,0.8,0.1,1.1,0.1 c0.3,0,0.4-0.1,0.5-0.2s0.2-0.3,0.2-0.7v-3.5c-0.5,0.2-1,0.5-1.5,0.9c-0.1-0.4-0.3-0.7-0.5-1c0.6-0.1,1.2-0.3,2-0.7V171z M400.4,174.4c-0.1,0-0.3,0-0.5,0v-0.8c0.5,0.1,1.2,0.1,2.1,0.1c0.9,0,1.6,0,2.1-0.1c-0.3,1.7-0.8,3.1-1.4,4.1 c0.7,0.7,1.3,1.2,2,1.5c-0.3,0.2-0.6,0.4-0.7,0.7c-0.6-0.4-1.2-0.9-1.8-1.6c-0.5,0.7-1.1,1.2-1.9,1.7c-0.2-0.3-0.4-0.5-0.7-0.7 c0,0.3,0,0.5,0.1,0.8h-1c0.1-0.6,0.1-1.2,0.1-2c-1.6,0.4-2.8,0.7-3.4,0.9c-0.1-0.4-0.2-0.7-0.4-1c0.4,0,0.8-0.1,1.2-0.1v-5.1 c-0.3,0-0.6,0-0.8,0.1v-0.9c0.6,0.1,2.2,0.1,4.5,0.1s3.9,0,4.6-0.1v0.9c-0.4-0.1-2.1-0.1-4.9-0.1v4.4c0.3-0.1,0.6-0.2,0.8-0.2 c0,0.2-0.1,0.3-0.1,0.4s0,0.2,0,0.3l-0.8,0.2c0,0.5,0,1,0,1.4c0.8-0.3,1.5-0.9,2.1-1.6C401.2,176.9,400.8,175.8,400.4,174.4z M403.1,171.6c-0.7-0.1-1.8-0.1-3.3-0.1c-1.5,0-2.6,0-3.3,0.1c0-0.4,0-1,0-1.8s0-1.4,0-2c0.6,0.1,1.7,0.1,3.3,0.1s2.7,0,3.3-0.1 c0,0.5-0.1,1.2-0.1,1.9C403.1,170.6,403.1,171.2,403.1,171.6z M397,174h1.8v-1.2H397V174z M398.8,174.6H397v1.2h1.8V174.6z M397,176.4v1.5c0.7-0.1,1.3-0.3,1.8-0.4v-1.1H397z M402.2,169.5v-0.9h-4.8v0.9H402.2z M397.4,170.1v0.8h4.8v-0.8H397.4z M401.1,174.4c0.2,1,0.5,1.9,1,2.6c0.5-0.9,0.8-1.8,1-2.7C402.1,174.3,401.4,174.4,401.1,174.4z"/><path id="XMLID_416_" class="st4" d="M412.2,168.7c-0.7,1.1-1.5,2.1-2.3,2.9c-0.9,0.8-2.1,1.6-3.5,2.4c-0.2-0.4-0.4-0.6-0.7-0.8 c1.6-0.6,3-1.5,4.1-2.6c1.2-1.1,1.9-2.3,2.2-3.6c0.4,0.2,0.7,0.4,0.9,0.4c0.2,0,0.3,0.1,0.3,0.1s-0.1,0.1-0.2,0.2 c-0.1,0-0.2,0.1-0.3,0.4c0.7,1.1,1.7,2.1,2.8,2.9c1.1,0.8,2.3,1.3,3.5,1.6c-0.3,0.2-0.5,0.6-0.6,1c-1.1-0.4-2.1-1-3-1.6 C414.4,171.3,413.4,170.2,412.2,168.7z M409.1,179.1v0.9h-0.9c0.1-0.5,0.1-0.9,0.1-1.3v-3.2c0-0.3,0-0.6-0.1-0.8c0.6,0,1.9,0,4,0 c2,0,3.4,0,4.2,0c0,0.2-0.1,0.5-0.1,0.8v3c0,0.5,0,0.9,0.1,1.3h-0.9v-0.8H409.1z M415.8,172.4v0.9c-0.7-0.1-1.7-0.1-3.3-0.1 s-2.7,0-3.5,0.1v-0.9c0.8,0.1,2,0.1,3.5,0.1S415.1,172.5,415.8,172.4z M415.4,178.4v-2.8h-6.3v2.8H415.4z"/></g><g id="XMLID_90_"><path id="XMLID_396_" class="st4" d="M361.4,194.3c-0.7,1.1-1.5,2.1-2.3,2.9s-2.1,1.6-3.5,2.4c-0.2-0.4-0.4-0.6-0.7-0.8 c1.6-0.6,3-1.5,4.1-2.6c1.2-1.1,1.9-2.3,2.2-3.6c0.4,0.2,0.7,0.4,0.9,0.4s0.3,0.1,0.3,0.2s-0.1,0.1-0.2,0.2 c-0.1,0-0.2,0.1-0.3,0.4c0.7,1.1,1.7,2.1,2.8,2.9c1.1,0.8,2.3,1.3,3.5,1.6c-0.3,0.2-0.5,0.6-0.6,1c-1.1-0.4-2.1-1-3-1.6 C363.5,196.8,362.5,195.8,361.4,194.3z M358.3,204.7v0.9h-0.9c0.1-0.5,0.1-0.9,0.1-1.3v-3.2c0-0.3,0-0.6-0.1-0.8c0.6,0,1.9,0,4,0 s3.4,0,4.2,0c0,0.2-0.1,0.5-0.1,0.8v3c0,0.5,0,0.9,0.1,1.3h-0.9v-0.8H358.3z M364.9,198v0.9c-0.7-0.1-1.7-0.1-3.3-0.1 c-1.5,0-2.7,0-3.5,0.1V198c0.8,0.1,2,0.1,3.5,0.1C363.2,198.1,364.3,198,364.9,198z M364.5,204v-2.8h-6.3v2.8H364.5z"/><path id="XMLID_401_" class="st4" d="M372.5,196.1c0,0.7,0,1.5,0,2.4c1.1,0,1.9-0.1,2.5-0.1v0.9c-0.4,0-1.3-0.1-2.5-0.1 c0,0.4,0,0.7-0.1,1.1c1.1,0.9,2,1.7,2.7,2.4l-0.8,0.7c-0.6-0.7-1.2-1.5-2-2.3c-0.1,0.8-0.3,1.5-0.6,2.1c-0.3,0.6-0.8,1.3-1.5,2.1 c-0.2-0.3-0.5-0.5-0.9-0.5c0.9-0.8,1.4-1.6,1.8-2.4c0.3-0.8,0.5-1.9,0.6-3.2c-1.1,0-2,0.1-2.4,0.1v-0.9c0.4,0.1,1.3,0.1,2.5,0.1 c0-0.8,0-1.6,0-2.4c-0.8,0-1.5,0-2,0.1v-0.9c0.4,0.1,1.1,0.1,2,0.1c0-1.4-0.1-2.3-0.2-2.6c0.4,0.1,0.8,0.2,1.2,0.2 c0.1,0,0.2,0,0.2,0.1c0,0.1-0.1,0.1-0.2,0.2c-0.1,0.1-0.2,0.3-0.2,0.6c0,0.3,0,0.8,0,1.5c0.9,0,1.6,0,2-0.1v0.9 C374,196.1,373.3,196.1,372.5,196.1z M377.6,195.9c0.3,0.1,0.7,0.1,1.2,0.1c0.1,0,0.1,0,0.1,0.1c0,0.1,0,0.1-0.1,0.1 c-0.2,0.1-0.3,1.1-0.4,2.9c-0.1,1.1-0.2,2-0.5,2.7s-0.7,1.4-1.3,2s-1.5,1.2-2.6,1.8c-0.2-0.4-0.4-0.7-0.8-0.9 c1.8-0.7,3-1.5,3.6-2.6c0.6-1,0.9-2.6,0.9-4.8C377.7,196.7,377.6,196.2,377.6,195.9z M381.1,194.8v3.7c0,0.9,0,1.7,0.1,2.3h-1 v-6.3h-4v6.4h-1c0.1-0.7,0.1-1.5,0.1-2.3v-3.8c0-0.5,0-0.9-0.1-1.2c0.4,0.1,1.4,0.1,2.9,0.1c1.5,0,2.5,0,2.9-0.1 C381.1,194,381.1,194.4,381.1,194.8z M382.6,203.4c-0.2,0.8-0.5,1.4-0.8,1.6c-0.3,0.2-0.7,0.4-1.4,0.4s-1.1,0-1.4-0.1 c-0.2-0.1-0.4-0.2-0.5-0.4s-0.1-0.6-0.1-1v-2.5c0-0.3,0-0.7-0.1-1.3c0.4,0.1,0.7,0.2,1,0.2c0.1,0,0.2,0,0.2,0.1s0,0.1-0.1,0.1 c-0.1,0.1-0.1,0.2-0.1,0.3v3.1c0,0.2,0,0.3,0.1,0.4c0,0.1,0.1,0.1,0.3,0.2s0.4,0,0.8,0c0.4,0,0.7-0.1,0.9-0.3 c0.2-0.2,0.3-0.7,0.3-1.3C382,203.2,382.4,203.4,382.6,203.4z"/></g></g><path id="XMLID_85_" class="st5" d="M462.8,60.5L462.8,60.5c-21.4-22.3-51.5-36.2-84.7-36.2c-64.8,0-117.5,52.7-117.5,117.5 c0,19.4,4.7,37.7,13.1,53.8l5.3-5.3c-7.2-14.6-11.2-31.1-11.2-48.5c0-60.8,49.5-110.3,110.3-110.3c31.3,0,59.6,13.1,79.7,34.1 l-19.9,19.9c-1.4,1.4-1.4,3.7,0,5c0.7,0.7,1.6,1,2.5,1c0.9,0,1.8-0.3,2.5-1l23.7-23.7C468,65.4,462.8,60.5,462.8,60.5z"/><path id="XMLID_82_" class="st6" d="M311.3,223.2L311.3,223.2c21.4,22.3,51.5,36.2,84.7,36.2c64.8,0,117.5-52.7,117.5-117.5 c0-19.4-4.7-37.7-13.1-53.8l-5.3,5.3c7.2,14.6,11.2,31.1,11.2,48.5c0,60.8-49.5,110.3-110.3,110.3c-31.3,0-59.6-13.1-79.7-34.1 l19.9-19.9c1.4-1.4,1.4-3.7,0-5c-0.7-0.7-1.6-1-2.5-1s-1.8,0.3-2.5,1l-23.7,23.7C306.1,218.3,311.3,223.2,311.3,223.2z"/><circle id="XMLID_81_" class="st4" cx="459.2" cy="82.5" r="2.3"/><circle id="XMLID_80_" class="st4" cx="327.8" cy="214.1" r="2.3"/><circle id="XMLID_79_" class="st4" cx="314.9" cy="201.3" r="2.3"/><circle id="XMLID_78_" class="st4" cx="446" cy="69.4" r="2.3"/><circle id="XMLID_77_" class="st5" cx="276.8" cy="193.4" r="3.9"/><circle id="XMLID_74_" class="st6" cx="497.4" cy="90.5" r="3.9"/><circle id="XMLID_73_" class="st2" cx="497.3" cy="90.4" r="2"/><circle id="XMLID_72_" class="st2" cx="508.5" cy="124.6" r="2"/><circle id="XMLID_71_" class="st2" cx="509.7" cy="141.7" r="2"/><circle id="XMLID_70_" class="st2" cx="508.6" cy="158.8" r="2"/><circle id="XMLID_69_" class="st2" cx="504.7" cy="175.9" r="2"/><circle id="XMLID_68_" class="st2" cx="497.7" cy="193" r="2"/><path id="XMLID_67_" class="st7" d="M506.4 105.9L536 62.9 555 62.9"/><path id="XMLID_66_" class="st7" d="M510.6 123L549 95.7 565.8 95.7"/><path id="XMLID_65_" class="st7" d="M512.8 141.7L559.9 130 572.4 130"/><path id="XMLID_64_" class="st7" d="M512.3 158.8L554.1 163.1 564.8 163.1"/><path id="XMLID_63_" class="st0" d="M640.4,132.4c0,4.9-3.8,8.9-7.3,8.9h-53c-3.5,0-7.3-4-7.3-8.9v-6.5c0-4.9,3.8-8.9,7.3-8.9h53 c3.5,0,7.3,4,7.3,8.9V132.4z"/><path id="XMLID_62_" class="st8" d="M220.7,64.3c0,4.9-3.1,8.9-7,8.9h-49.3c-3.9,0-7-4-7-8.9v-6.5c0-4.9,3.1-8.9,7-8.9h49.3 c3.9,0,7,4,7,8.9V64.3z"/><path id="XMLID_61_" class="st8" d="M209.7,98.5c0,4.9-2.9,8.9-6.4,8.9h-45c-3.5,0-6.4-4-6.4-8.9v-6.5c0-4.9,2.9-8.9,6.4-8.9h45 c3.5,0,6.4,4,6.4,8.9V98.5z"/><path id="XMLID_60_" class="st8" d="M199.1,132.4c0,4.9-3.1,8.9-8.1,8.9h-66.1c-5,0-8.1-4-8.1-8.9v-6.5c0-4.9,3.1-8.9,8.1-8.9H191 c5,0,8.1,4,8.1,8.9V132.4z"/><path id="XMLID_59_" class="st8" d="M209.6,165.7c0,4.9-3.3,8.9-7.4,8.9h-52c-4.1,0-7.4-4-7.4-8.9v-6.5c0-4.9,3.3-8.9,7.4-8.9h52 c4.1,0,7.4,4,7.4,8.9V165.7z"/><path id="XMLID_57_" class="st8" d="M219.7,201.2c0,4.9-3.4,8.9-9.7,8.9h-39.3c-6.3,0-8.8-4-8.8-8.9v-6.8c0-4.9,2.5-8.9,8.8-8.9H210 c6.3,0,9.7,4,9.7,8.9V201.2z"/><g id="XMLID_56_"><path id="XMLID_377_" class="st6" d="M569.4,61.7c-0.5,1.2-1.1,2.3-1.7,3.1c-0.1-0.3-0.3-0.6-0.6-0.9c0.9-0.9,1.6-1.9,2-3.1 c-0.8,0-1.4,0-1.8,0.1V60c0.5,0.1,1.2,0.1,2.1,0.1v-1.8c-0.5,0.1-1,0.2-1.5,0.3c-0.1-0.3-0.3-0.6-0.5-0.9c1.6-0.1,2.9-0.3,4-0.7 c0.1,0.3,0.3,0.6,0.6,0.9c0.1,0.1,0.1,0.1,0.1,0.2s-0.1,0-0.2,0c-0.1,0-0.3,0-0.6,0c-0.3,0-0.7,0-1.1,0.1v1.9c0.8,0,1.5,0,1.8-0.1 v0.9c-0.5,0-1.1-0.1-1.8-0.1v3.9c0,0.5,0,1.1,0.1,1.8h-1c0.1-0.6,0.1-1.3,0.1-1.8V61.7z M571.9,62.9l-0.7,0.5c-0.3-0.5-0.7-1-1-1.5 l0.6-0.4C571.2,62,571.6,62.4,571.9,62.9z M575.5,64.8c-1.2,0.2-2.1,0.4-2.7,0.5c-0.6,0.1-0.9,0.2-1.1,0.3c-0.1-0.3-0.3-0.7-0.5-1 c0.3-0.1,0.5-0.3,0.7-0.5c0.1-0.2,0.3-0.7,0.6-1.3c0.2-0.6,0.5-1.4,0.7-2.4c0.2-1,0.5-2.1,0.7-3.5c0.5,0.2,0.8,0.4,1.1,0.4 c0.1,0,0.2,0.1,0.2,0.1s-0.1,0.1-0.2,0.2c0,0-0.1,0.1-0.2,0.3c-0.1,0.2-0.1,0.4-0.2,0.5c-0.1,0.6-0.4,1.5-0.8,2.7 c-0.4,1.2-0.8,2.2-1.2,3.2l2.8-0.4c-0.3-1.1-0.6-2-0.9-2.7l0.8-0.2c0.3,0.8,0.8,2.2,1.5,4.2l-1,0.3 C575.6,65.4,575.5,65.1,575.5,64.8z"/><path id="XMLID_381_" class="st6" d="M584.4,57.8c1.3,0,2.2,0,2.8-0.1v0.8c-0.7-0.1-1.6-0.1-2.8-0.1v0.5c0.5,0,1.1,0,1.6-0.1 c0,0.4,0,0.9,0,1.4s0,1,0,1.5c-0.7,0-1.3,0-1.8,0h-1.9c-0.1,0.2-0.2,0.4-0.3,0.5h2.1c1.2,0,2.3,0,3.1-0.1v0.8 c-0.7-0.1-1.5-0.1-2.5-0.1c0.7,0.6,1.5,0.9,2.7,1.1c-0.3,0.3-0.4,0.6-0.5,0.9c-0.7-0.2-1.2-0.4-1.5-0.6l-0.1,1.3 c0,0.2-0.1,0.4-0.1,0.5c-0.1,0.1-0.2,0.2-0.5,0.3s-0.6,0.2-1.2,0.3c-0.1-0.3-0.2-0.6-0.4-0.8c0.9,0,1.4-0.1,1.4-0.4l0.1-0.9h-1.9 c-0.2,0.6-0.6,1.1-1.1,1.4s-1.2,0.6-2.1,0.8c-0.1-0.3-0.3-0.5-0.6-0.8c1.6-0.1,2.6-0.5,3-1.4c-0.8,0-1.4,0-1.7,0.1v-0.6 c-0.4,0.3-0.9,0.6-1.5,0.9c-0.2-0.3-0.4-0.6-0.6-0.8c0.9-0.1,1.7-0.6,2.5-1.3c-1.1,0-1.9,0-2.4,0.1V62c0.5,0.1,1.5,0.1,3,0.1 c0.1-0.2,0.3-0.4,0.3-0.5c-0.8,0-1.4,0-2,0c0-0.6,0.1-1.1,0.1-1.6s0-0.9-0.1-1.3c0.4,0,0.9,0.1,1.5,0.1v-0.5c-1.2,0-2.1,0-2.7,0.1 v-0.8c0.6,0.1,1.5,0.1,2.7,0.1c0-0.3,0-0.6-0.1-0.8c0.4,0,0.7,0.1,1,0.1c0.1,0,0.1,0,0.1,0.1c0,0,0,0.1-0.1,0.1s-0.1,0.1-0.1,0.2 v0.4h1.7c0-0.3,0-0.6-0.1-0.9c0.4,0,0.7,0.1,1,0.1c0.1,0,0.1,0,0.1,0.1s0,0.1-0.1,0.1s-0.1,0.1-0.1,0.2V57.8z M585.1,59.9v-0.4 h-4.9v0.4H585.1z M580.3,60.5V61h4.9v-0.5H580.3z M581.5,62.7c-0.3,0.3-0.6,0.7-1.1,1c0.4,0,0.9,0.1,1.6,0.1c0-0.2,0-0.3,0-0.4 c0-0.1,0-0.2,0-0.3c0.3,0.1,0.6,0.1,1,0.1c0.1,0,0.1,0,0.1,0c0,0,0,0.1-0.1,0.1c0,0.1-0.1,0.2-0.2,0.5c1,0,1.7,0,2.1-0.1 c-0.4-0.3-0.6-0.6-0.9-1H581.5z M583.5,58.4h-1.7v0.5h1.7V58.4z"/><path id="XMLID_387_" class="st6" d="M592.4,62.3c-0.6,0.9-1.6,1.7-3.1,2.6c-0.1-0.4-0.4-0.6-0.7-0.7c1-0.3,2-0.9,3-1.9 c-1.2,0-2.1,0-2.7,0.1v-0.8c0.7,0,1.4,0.1,2.1,0.1v-3.2c-0.7,0-1.3,0-1.7,0.1v-0.9c0.6,0,1.1,0.1,1.7,0.1c0-0.4,0-0.7-0.1-0.9 c0.3,0.1,0.6,0.1,1,0.1c0.1,0,0.1,0,0.1,0.1s0,0.1-0.1,0.1c-0.1,0.1-0.1,0.2-0.1,0.4v0.2h3.2c0-0.4,0-0.8-0.1-1 c0.3,0.1,0.7,0.1,1,0.1c0.1,0,0.2,0,0.2,0.1c0,0,0,0.1-0.1,0.1c-0.1,0.1-0.2,0.3-0.2,0.4v0.3c0.7,0,1.3,0,1.9-0.1v0.9 c-0.5,0-1.1-0.1-1.9-0.1v3.2c0.5,0,1.3,0,2.2-0.1v0.8c-0.5-0.1-1.3-0.1-2.4-0.1c0.5,0.7,1.3,1.2,2.4,1.4c-0.3,0.3-0.5,0.6-0.5,1 c-1.5-0.8-2.3-1.6-2.6-2.4H592.4z M593.8,63.9c0.8,0,1.3,0,1.7-0.1v0.8c-0.5,0-1.1-0.1-1.7-0.1v0.9c1.4,0,2.6,0,3.4-0.1v0.8 c-0.9-0.1-2.2-0.1-3.8-0.1c-1.6,0-2.9,0-3.8,0.1v-0.8c0.9,0.1,2,0.1,3.4,0.1v-0.9c-0.7,0-1.3,0-1.8,0.1v-0.8c0.4,0,1,0.1,1.8,0.1 c0-0.4,0-0.8-0.1-1.1c0.3,0,0.6,0.1,0.9,0.1c0.1,0,0.1,0,0.1,0s0,0.1-0.1,0.1c-0.1,0-0.1,0.1-0.1,0.2c0,0.1,0,0.1,0,0.2V63.9z M591.8,59.2h3.2v-0.7h-3.2V59.2z M595,59.7h-3.2v0.7h3.2V59.7z M591.8,61v0.7h3.2V61H591.8z"/><path id="XMLID_393_" class="st6" d="M604.4,57.3c0.7,0.8,1.4,1.4,2.1,1.8c0.7,0.4,1.5,0.7,2.5,1c-0.1,0.1-0.2,0.3-0.3,0.5 s-0.1,0.4-0.2,0.6c-1.9-0.6-3.4-1.7-4.6-3.4c-0.6,0.8-1.4,1.7-2.5,2.5c0.6,0,1.5,0.1,2.6,0.1s2,0,2.6-0.1v0.9 c-0.5,0-1.2-0.1-2.2-0.1v1.3c1.5,0,2.6,0,3.1-0.1v0.9c-0.6,0-1.6-0.1-3.1-0.1v2.2l1,0c0.3-0.7,0.5-1.4,0.6-1.9 c0.4,0.2,0.7,0.3,0.9,0.3c0.1,0,0.1,0.1,0.1,0.1s0,0.1-0.1,0.1c-0.1,0.1-0.4,0.5-0.9,1.3c0.8,0,1.5,0,2.1-0.1v1 c-1.2-0.1-2.7-0.1-4.4-0.1s-3,0-4,0.1v-1c0.9,0.1,2.2,0.1,3.7,0.1v-2.2c-1.4,0-2.4,0-3.1,0.1v-0.9c0.7,0.1,1.8,0.1,3.1,0.1V61 c-1,0-1.7,0-2.2,0.1v-0.8c-0.6,0.5-1.1,0.8-1.5,1c-0.1-0.3-0.3-0.5-0.7-0.7c0.5-0.2,1-0.5,1.5-0.9c0.5-0.4,0.9-0.8,1.3-1.2 c0.4-0.4,0.7-0.7,0.9-1s0.3-0.6,0.5-0.9c0.5,0.2,0.8,0.3,1,0.3c0.2,0,0.2,0.1,0.2,0.1C604.6,57.1,604.5,57.2,604.4,57.3z M602.5,64.6l-0.9,0.4c-0.2-0.6-0.5-1-0.7-1.3l0.9-0.4C602,63.9,602.3,64.3,602.5,64.6z"/></g><g id="XMLID_54_"><path id="XMLID_359_" class="st6" d="M587.9,127.2c0.2,0,0.5,0.1,0.9,0.1c0.1,0,0.1,0,0.1,0.1s0,0.1-0.1,0.2 c-0.1,0.1-0.1,0.3-0.1,0.7c0,1.5-0.1,2.6-0.1,3.1c-0.1,0.5-0.3,1.1-0.7,1.7c-0.4,0.6-0.8,1.1-1.4,1.4c-0.2-0.2-0.5-0.4-0.8-0.6 c0.6-0.4,1.1-0.8,1.5-1.3s0.6-1,0.7-1.6s0.1-1.2,0.1-2S588,127.8,587.9,127.2z M590.5,131.6h-0.9v-5.3h-2.4v5.5h-0.8 c0-0.5,0.1-1,0.1-1.6v-3.1c0-0.7,0-1.3-0.1-1.7c0.2,0.1,0.9,0.1,2,0.1c1.1,0,1.8,0,2.1-0.1c-0.1,0.4-0.1,1-0.1,1.7v2.8 C590.4,130.5,590.4,131.1,590.5,131.6z M590.6,133.5l-0.7,0.7c-0.5-0.7-1-1.2-1.5-1.6l0.6-0.5C589.6,132.4,590.1,132.9,590.6,133.5 z M593.3,127.2c0-1-0.1-1.7-0.1-2.3c0.3,0.1,0.7,0.1,1,0.1c0.1,0,0.2,0,0.2,0.1s0,0.1-0.1,0.2c-0.1,0.1-0.1,0.3-0.1,0.5v1.4 c0.5,0,0.9,0,1.2-0.1v0.9c-0.3-0.1-0.7-0.1-1.2-0.1v5.6c0,0.3,0,0.6-0.1,0.7c-0.1,0.1-0.2,0.2-0.4,0.3c-0.2,0.1-0.6,0.1-1.1,0.2 c0-0.3-0.2-0.7-0.4-1c0.3,0,0.5,0.1,0.7,0.1s0.3,0,0.4-0.1s0.1-0.2,0.1-0.3v-4.9c-0.5,1.7-1.3,3.1-2.4,4.4 c-0.2-0.2-0.4-0.4-0.7-0.5c1.1-1,2-2.5,2.6-4.4c-1.1,0-1.7,0-2,0.1v-0.9C591.1,127.2,591.9,127.2,593.3,127.2z"/><path id="XMLID_364_" class="st6" d="M600.2,126h2.1c1,0,1.8,0,2.6-0.1c-0.5,1.1-1.3,2-2.4,2.7c0.8,0.4,2.1,0.7,3.9,0.8 c-0.2,0.3-0.3,0.7-0.4,1c-1.8-0.3-3.2-0.8-4.2-1.4c-1.5,0.9-3.1,1.4-4.7,1.7c0-0.3-0.2-0.6-0.4-0.9c1.7-0.2,3.2-0.6,4.4-1.3 c-0.5-0.4-1-1-1.4-1.7c-0.4,0.6-0.8,1.1-1.3,1.7c-0.2-0.3-0.5-0.4-0.9-0.5c0.5-0.3,0.9-0.8,1.3-1.4c0.4-0.6,0.7-1.3,0.9-2 c0.4,0.2,0.8,0.4,1.2,0.4c0.1,0,0.2,0,0.2,0.1c0,0.1,0,0.1-0.1,0.1C600.7,125.4,600.5,125.6,600.2,126z M601.5,131.9 c-0.2,0.7-0.5,1.3-1,1.7s-1.4,0.8-2.6,1.2c-0.2-0.4-0.4-0.7-0.7-0.9c1.1-0.1,1.8-0.4,2.4-0.7c0.5-0.3,0.9-0.7,1.1-1.3 c-1.1,0-1.9,0-2.4,0.1v-1c0.4,0.1,1.3,0.1,2.6,0.1c0-0.3,0.1-0.6,0.1-0.8c0-0.2,0-0.4,0-0.6c0.5,0.1,0.8,0.2,1.2,0.2 c0.1,0,0.1,0,0.1,0s0,0.1-0.1,0.1s-0.1,0.2-0.2,0.3s-0.1,0.4-0.2,0.7c1.7,0,2.8,0,3.3-0.1l-0.1,1.9c-0.1,0.7-0.2,1.2-0.6,1.4 c-0.3,0.2-0.9,0.3-1.6,0.4c-0.1-0.4-0.3-0.8-0.6-1.1c0.3,0,0.6,0.1,0.9,0.1c0.3,0,0.5-0.1,0.6-0.2c0.2-0.1,0.2-0.3,0.3-0.6l0.1-1 H601.5z M601.7,128.2c0.6-0.4,1.1-0.9,1.6-1.5h-3.1C600.8,127.3,601.2,127.8,601.7,128.2z"/><path id="XMLID_368_" class="st6" d="M610.2,125.3c0.4,0.2,0.7,0.3,1,0.4c0.1,0,0.1,0,0.1,0.1s0,0.1-0.1,0.1 c-0.1,0-0.2,0.2-0.3,0.4c-0.1,0.2-0.2,0.4-0.4,0.6c-0.2,0.4-0.5,1-1,1.7c-0.5,0.7-1,1.4-1.5,1.8c-0.2-0.2-0.6-0.4-1-0.6 c0.7-0.5,1.3-1.1,1.9-2C609.6,127,610,126.2,610.2,125.3z M614,132.7c-0.3-0.5-0.6-1-0.9-1.5l0.8-0.4c0.8,1,1.5,2,2.1,3l-1,0.6 c-0.1-0.2-0.2-0.6-0.5-1c-2.9,0.2-4.8,0.4-5.7,0.7c-0.1-0.3-0.2-0.7-0.4-1c0.3,0,0.8-0.6,1.5-1.6c0.7-1.1,1.2-2,1.4-2.8 c0.5,0.2,0.8,0.4,1.1,0.5c0.1,0,0.2,0.1,0.2,0.1s-0.1,0.1-0.2,0.1c-0.1,0.1-0.3,0.2-0.5,0.6c-0.7,1.1-1.4,2.1-2.1,3.1L614,132.7z M617.1,129.5c-0.4,0.2-0.7,0.6-0.9,1c-1.7-1.5-2.8-3.1-3.4-5c0.4,0,0.7-0.1,1-0.2C614.3,127.2,615.4,128.6,617.1,129.5z"/><path id="XMLID_372_" class="st6" d="M624.7,128.5c-0.7-0.1-1.6-0.1-2.9-0.1c-1.3,0-2.4,0-3.3,0.1v-0.9c1,0.1,2.1,0.1,3.4,0.1 s2.2,0,2.8-0.1V128.5z M623.3,132.5h-3.2v1.1h-1c0.1-0.6,0.1-1.2,0.1-1.7v-1.4c0-0.4,0-0.8-0.1-1.1c0.5,0.1,1.3,0.1,2.6,0.1 c1.2,0,2.1,0,2.5-0.1c-0.1,0.3-0.1,0.7-0.1,1.1v1.4c0,0.4,0,0.9,0.1,1.2h-0.9V132.5z M626.6,125.5c0,0.2,0,0.7,0,1.3v6.6 c0,0.5-0.2,0.9-0.5,1.1c-0.3,0.2-0.8,0.2-1.6,0.2c0-0.4-0.2-0.7-0.4-1.1c0.3,0,0.6,0,0.8,0s0.4,0,0.5-0.1s0.2-0.2,0.2-0.4v-6.7 h-3.1c-1.8,0-2.9,0-3.4,0.1v-1c0.7,0.1,1.8,0.1,3.5,0.1S625.6,125.6,626.6,125.5z M620.1,131.8h3.2v-1.5h-3.2V131.8z"/></g><g id="XMLID_53_"><path id="XMLID_352_" class="st6" d="M574.1,194c-0.6,0.8-1.2,1.5-1.8,2.1c-0.6,0.6-1.4,1.1-2.4,1.7c-0.2-0.3-0.5-0.6-0.8-0.8 c1-0.3,1.9-0.8,2.8-1.7c0.9-0.8,1.4-1.6,1.6-2.3c0.4,0.1,0.8,0.2,1.2,0.2c0.1,0,0.1,0,0.1,0.1c0,0.1-0.1,0.1-0.2,0.2 c0.5,0.8,1.1,1.4,1.9,1.9s1.6,0.7,2.5,0.8c-0.3,0.3-0.5,0.6-0.7,1.1c-1.1-0.4-1.9-0.8-2.5-1.3C575.1,195.5,574.6,194.8,574.1,194z M574.8,198.3c1.4,0,2.4,0,2.8-0.1v1c-0.4-0.1-1.3-0.1-2.8-0.1v2.3c1.5,0,2.7,0,3.8-0.1v1.1c-1-0.1-2.5-0.1-4.6-0.1 c-2,0-3.6,0-4.6,0.1v-1.1c0.7,0.1,1.3,0.1,1.9,0.1v-2.2c0-0.9,0-1.5-0.1-1.7c0.3,0,0.6,0.1,1.1,0.1c0.1,0,0.1,0,0.1,0.1 s0,0.1-0.1,0.1c-0.1,0-0.1,0.2-0.1,0.4v3.4h1.7v-3.5c0-0.8,0-1.4-0.1-1.7c0.2,0,0.5,0.1,0.7,0.1c0.2,0,0.4,0,0.5,0s0.2,0,0.2,0.1 s0,0.1-0.1,0.1c-0.1,0-0.1,0.1-0.2,0.2c-0.1,0.1-0.1,0.2-0.1,0.3V198.3z"/><path id="XMLID_355_" class="st6" d="M583.2,201.3v-6.5c0-0.5,0-1-0.1-1.5c0.3,0.1,0.6,0.1,1.1,0.1c0.1,0,0.1,0,0.1,0.1 c0,0,0,0.1-0.1,0.2c-0.1,0.1-0.1,0.2-0.1,0.3v7.4h1.2v-6.5c0-0.5,0-1-0.1-1.5c0.2,0,0.6,0.1,1.1,0.1c0.1,0,0.1,0,0.1,0.1 s0,0.1-0.1,0.2s-0.1,0.2-0.1,0.3v7.4c1.5,0,2.6,0,3.2-0.1v1c-0.4-0.1-1.9-0.1-4.5-0.1s-4.2,0-4.7,0.1v-1 C580.8,201.3,581.9,201.3,583.2,201.3z M582.8,199.3l-1.1,0.4c-0.3-1.5-0.7-2.8-1.3-3.8l1-0.4C581.8,196.7,582.3,198,582.8,199.3z M587.9,195.2c0.4,0.2,0.8,0.3,1.2,0.3c0.1,0,0.1,0,0.1,0.1c0,0,0,0.1-0.1,0.1c-0.1,0-0.2,0.2-0.3,0.4s-0.2,0.5-0.3,0.7 c-0.3,1-0.6,1.9-0.9,2.7c-0.3-0.2-0.6-0.2-0.9-0.2C587.2,198.3,587.6,196.9,587.9,195.2z"/></g><g id="XMLID_52_"><path id="XMLID_341_" class="st6" d="M547.1,228.5c0-0.4,0-0.9-0.1-1.2c0.3,0,0.6,0.1,1.1,0.1c0.1,0,0.1,0,0.1,0c0,0,0,0.1-0.1,0.1 c-0.1,0.1-0.1,0.2-0.1,0.3v0.7h3.1c0-0.6,0-1-0.1-1.4c0.3,0.1,0.7,0.1,1,0.1c0.1,0,0.2,0,0.2,0.1c0,0,0,0.1-0.1,0.1 c-0.1,0.1-0.1,0.2-0.1,0.3v0.7c0.7,0,1.3,0,1.8-0.1v0.9c-0.5,0-1.1-0.1-1.8-0.1v4.4c0.8,0,1.6,0,2.3-0.1v0.9 c-0.7-0.1-2.3-0.1-4.7-0.1c-2.4,0-4,0-4.7,0.1v-0.9c0.7,0.1,1.5,0.1,2.3,0.1v-4.4c-0.6,0-1.3,0-1.9,0.1v-0.9 C545.9,228.5,546.5,228.5,547.1,228.5z M548.1,234.7c0.3,0.3,0.5,0.5,0.8,0.7c0,0,0.1,0.1,0.1,0.1s0,0-0.1,0 c-0.2,0-0.4,0.1-0.7,0.2c-0.3,0.1-1.1,0.6-2.3,1.2c-0.1-0.2-0.3-0.5-0.6-0.8C546.3,236,547.2,235.4,548.1,234.7z M548,230.2h3.1 v-0.9H548V230.2z M551.1,230.9H548v1h3.1V230.9z M548,232.5v1.1h3.1v-1.1H548z M553.7,236l-0.6,0.8c-0.8-0.6-1.6-1-2.7-1.4l0.5-0.7 C551.8,235.1,552.8,235.5,553.7,236z"/><path id="XMLID_348_" class="st6" d="M555.8,228.5c0.7,0,2.1,0.1,4.4,0.1c2.2,0,3.7,0,4.4-0.1v2.2h-0.9v-1.3h-6.9v1.6h-0.9V228.5z M558.5,233.5v1.7c0,0.2,0,0.3,0.1,0.4c0.1,0.1,0.3,0.2,0.5,0.2c0.3,0,0.7,0.1,1.2,0.1c1.4,0,2.2-0.1,2.5-0.2 c0.3-0.1,0.5-0.5,0.6-1.2c0.3,0.3,0.6,0.5,1,0.7c-0.1,0.5-0.3,0.8-0.4,1c-0.1,0.2-0.3,0.3-0.6,0.4c-0.3,0.1-0.7,0.2-1.4,0.2 c-0.7,0-1.3,0.1-2,0.1s-1.1,0-1.5-0.1c-0.3-0.1-0.6-0.2-0.8-0.3c-0.2-0.2-0.3-0.4-0.3-0.9v-4c0-0.4,0-0.8-0.1-1.1 c0.2,0,0.4,0,0.7,0l0.4,0c0.1,0,0.2,0,0.2,0.1c0,0,0,0.1-0.1,0.1c-0.1,0-0.2,0.1-0.2,0.3v1.7c2.6-0.6,4.1-1.2,4.6-1.5 c0.2,0.4,0.4,0.8,0.6,1c0,0,0.1,0.1,0.1,0.1s0,0-0.1,0l-0.2,0C563.3,232.3,561.6,232.7,558.5,233.5z M559.4,227.3l1-0.3 c0.2,0.5,0.3,0.9,0.5,1.3l-1,0.2C559.7,228.1,559.6,227.7,559.4,227.3z"/></g><path id="XMLID_51_" class="st7" d="M507.4 177.3L544.8 197.2 555 197.2"/><path id="XMLID_50_" class="st7" d="M500.2 195.2L521.7 231.4 532.5 231.4"/><path id="XMLID_49_" class="st9" d="M268.3 104.7L237.6 60.7 221 60.7"/><path id="XMLID_48_" class="st9" d="M263 121.3L227 95.3 210.3 95.3"/><path id="XMLID_47_" class="st9" d="M260.5 140.6L212.5 130.1 199.7 130.1"/><path id="XMLID_46_" class="st9" d="M262.3 159.4L224.3 164.2 210 164.2"/><path id="XMLID_44_" class="st9" d="M267.2 176.3L238.1 198.7 219.7 198.7"/><circle id="XMLID_43_" class="st2" cx="270.3" cy="106.1" r="2"/><circle id="XMLID_42_" class="st2" cx="265.5" cy="123.6" r="2"/><circle id="XMLID_41_" class="st2" cx="264.5" cy="141.1" r="2"/><circle id="XMLID_40_" class="st2" cx="265.5" cy="158.6" r="2"/><circle id="XMLID_38_" class="st2" cx="276.7" cy="193.6" r="2"/><g id="XMLID_37_"><path id="XMLID_324_" class="st5" d="M169.4,64.2v-3.1c0-0.4,0-0.8-0.1-1.2c0.2,0,0.6,0.1,1,0.1c0.1,0,0.2,0,0.2,0.1 c0,0,0,0.1-0.1,0.2c-0.1,0.1-0.2,0.3-0.2,0.6v3.2l1-0.2v-5.7c-0.8,0-1.5,0-2,0.1v-1c0.5,0.1,1.2,0.1,2.2,0.1c1,0,1.7,0,2.2-0.1v0.9 c-0.3,0-0.8-0.1-1.6-0.1v2.4c0.5,0,1,0,1.2-0.1v0.8c-0.3,0-0.7,0-1.2,0v2.4c0.5-0.1,1-0.2,1.3-0.3c0,0.2,0,0.3,0,0.5s0,0.3,0,0.4 c-0.6,0.1-1.3,0.3-2.3,0.5c-1,0.3-1.7,0.5-2.1,0.6c-0.1-0.4-0.2-0.7-0.4-1.1C168.9,64.3,169.2,64.2,169.4,64.2z M175.5,64.5 c-0.6,0.6-1.5,1.2-2.6,1.7c-0.1-0.3-0.4-0.6-0.8-0.8c1.2-0.3,2.2-0.8,2.8-1.6c-0.4-0.8-0.7-1.9-0.8-3.2c0,0.1-0.1,0.2-0.2,0.3 c-0.2-0.2-0.5-0.4-0.7-0.5c0.9-1.2,1.4-2.5,1.6-4c0.4,0.1,0.8,0.2,1.1,0.3c0.1,0,0.1,0,0.1,0.1s0,0.1-0.1,0.1 c-0.1,0-0.3,0.5-0.7,1.4h1.3c0.8,0,1.4,0,1.7-0.1v0.9c-0.3,0-0.7,0-1,0c-0.1,2-0.5,3.6-1.2,4.8c0.5,0.5,1.2,0.9,2.3,1.2 c-0.3,0.3-0.6,0.7-0.7,1.1C176.7,65.6,176,65.1,175.5,64.5z M175.5,63.1c0.5-0.9,0.7-2.2,0.8-4h-1.4c-0.3,0.6-0.5,1.1-0.7,1.4 l0.7-0.1C174.9,61.3,175.1,62.2,175.5,63.1z"/><path id="XMLID_328_" class="st5" d="M185.1,57.7c1.9,0,3,0,3.5-0.1v0.9c-0.5-0.1-1.4-0.1-2.7-0.1h-4.7c0,2.3-0.1,4-0.2,5 s-0.4,1.9-0.7,2.6c-0.3-0.2-0.6-0.5-0.9-0.7c0.6-0.7,1-2.4,1-5.2c0-0.8,0-1.7-0.1-2.7c0.6,0.1,1.9,0.1,3.8,0.1 c-0.2-0.3-0.3-0.7-0.5-1l1.1-0.3C184.7,56.9,184.9,57.3,185.1,57.7z M182.5,61.5c-0.2,0.3-0.4,0.6-0.7,1c-0.1-0.3-0.3-0.6-0.5-0.8 c0.4-0.4,0.8-0.9,1.1-1.5s0.5-1.1,0.6-1.6c0.3,0.1,0.5,0.2,0.7,0.3c0.2,0,0.3,0.1,0.3,0.1c0,0,0,0.1-0.1,0.1 c-0.1,0-0.1,0.1-0.2,0.2s-0.2,0.3-0.4,0.7v6h-0.9c0.1-0.8,0.1-1.5,0.1-2.3V61.5z M187.5,61v4.1c0,0.3,0,0.5-0.1,0.7 c-0.1,0.1-0.2,0.2-0.5,0.3s-0.7,0.1-1.3,0.2c0-0.3-0.2-0.7-0.4-1.1c0.3,0,0.6,0,0.8,0s0.4,0,0.4-0.1c0.1-0.1,0.1-0.2,0.1-0.4V61 c-1.4,0-2.3,0-2.8,0.1v-0.9c0.5,0.1,1.4,0.1,2.8,0.1c0-0.7-0.1-1.3-0.1-1.6c0.3,0,0.6,0.1,1,0.1c0.1,0,0.2,0,0.2,0s0,0.1-0.1,0.2 c-0.1,0.1-0.1,0.2-0.1,0.5v0.8c0.6,0,1.1,0,1.4-0.1v0.9C188.5,61.1,188,61.1,187.5,61z M185.8,63.3l-0.9,0.4 c-0.2-0.5-0.4-1-0.7-1.5l0.9-0.4C185.3,62.3,185.6,62.8,185.8,63.3z"/><path id="XMLID_333_" class="st5" d="M195.4,61.9c1.7,0,3.1,0,4.1-0.1v1c-1-0.1-2.4-0.1-4.1-0.1v1.9c0,0.5,0,1,0.1,1.7h-1.1 c0.1-0.6,0.1-1.2,0.1-1.7v-1.9c-1.8,0-3.1,0-4.2,0.1v-1c1,0.1,2.4,0.1,4.2,0.1v-4c-1.4,0-2.5,0-3.3,0.1v-1c0.9,0.1,2.2,0.1,3.8,0.1 s2.9,0,3.7-0.1v1c-0.8-0.1-1.9-0.1-3.3-0.1V61.9z M193.5,61l-0.9,0.4c-0.2-0.8-0.5-1.5-0.9-2.1l0.9-0.4 C192.9,59.5,193.2,60.2,193.5,61z M197.4,58.8c0.4,0.2,0.8,0.3,1,0.4c0.1,0,0.1,0.1,0.1,0.1s0,0.1-0.1,0.1c0,0-0.1,0.1-0.2,0.1 c-0.1,0.1-0.1,0.2-0.2,0.3c-0.4,0.7-0.7,1.2-0.9,1.6c-0.3-0.1-0.6-0.2-0.9-0.3C196.8,60.5,197.2,59.7,197.4,58.8z"/><path id="XMLID_337_" class="st5" d="M208.5,60.3c-2.1,0.1-3.8,0.2-4.9,0.3c-1.1,0.1-1.9,0.2-2.3,0.3c0-0.3-0.1-0.6-0.3-0.9 c0.5-0.1,1-0.3,1.3-0.6s0.8-0.7,1.4-1.4c0.6-0.6,1.1-1.2,1.4-1.7c0.4,0.3,0.8,0.4,1.1,0.5c0.1,0.1,0.2,0.1,0.2,0.2 s-0.1,0.1-0.2,0.1c-0.2,0-0.4,0.2-0.7,0.5c-0.9,0.9-1.8,1.7-2.5,2.2l4.9-0.2c-0.4-0.4-0.9-0.9-1.4-1.3l0.7-0.5 c0.9,0.7,1.8,1.6,2.7,2.6l-0.9,0.6C208.9,60.7,208.7,60.5,208.5,60.3z M203.1,65.3v0.7h-1c0.1-0.6,0.1-1.1,0.1-1.6v-1.7 c0-0.4,0-0.7-0.1-1c0.4,0,1.5,0.1,3.3,0.1c1.8,0,3,0,3.5-0.1c0,0.2-0.1,0.5-0.1,1v1.6c0,0.6,0,1.2,0.1,1.6h-1v-0.6H203.1z M207.9,64.6v-2h-4.8v2H207.9z"/></g><g id="XMLID_36_"><path id="XMLID_304_" class="st5" d="M162.2,91.9v7.4h-0.9c0.1-0.6,0.1-1.4,0.1-2.3v-3.5c-0.3,0.5-0.6,1-0.9,1.4 c-0.1-0.2-0.4-0.5-0.6-0.7c0.5-0.4,1-1.1,1.4-2.1c0.4-1,0.6-1.8,0.7-2.4c0.3,0.1,0.7,0.2,1,0.3c0.1,0,0.2,0.1,0.2,0.1 s-0.1,0.1-0.2,0.2C162.8,90.5,162.5,91,162.2,91.9z M166.4,94.6c1.1,0,2.1,0,2.9-0.1v0.8c-0.7-0.1-1.4-0.1-2.3-0.1 c0.4,0.7,0.8,1.2,1.2,1.5c0.4,0.3,1,0.6,1.8,0.8c-0.3,0.2-0.5,0.6-0.7,1c-1.3-0.6-2.2-1.7-2.6-3.3h-0.1v2.3c0,0.5,0,1,0.1,1.7h-1 c0.1-0.6,0.1-1.1,0.1-1.7v-2.3h-0.1c-0.2,0.7-0.5,1.4-0.9,1.9c-0.3,0.5-0.8,1.1-1.5,1.7c-0.2-0.2-0.5-0.4-0.9-0.6 c1.2-0.9,2.1-1.9,2.5-3c-0.8,0-1.5,0-2.2,0.1v-0.8c0.8,0.1,1.7,0.1,2.9,0.1v-1.3c-0.9,0-1.5,0-1.9,0c0-0.3,0-0.8,0-1.6s0-1.2,0-1.6 c0.4,0,1.2,0.1,2.3,0.1s2,0,2.5-0.1c0,0.4,0,0.9,0,1.6c0,0.7,0,1.2,0,1.6c-0.3,0-1,0-2.1,0V94.6z M164.6,90.9v1.7h3.1v-1.7H164.6z"/><path id="XMLID_308_" class="st5" d="M172.1,91.3c-0.4,0-0.9,0-1.2,0.1v-0.9c0.4,0,0.9,0.1,1.7,0.1s1.3,0,1.7-0.1v0.9 c-0.3,0-0.8-0.1-1.3-0.1v2.3c0.5,0,0.9,0,1.2-0.1v0.9c-0.4,0-0.8-0.1-1.2-0.1v2.5c0.4-0.1,0.8-0.3,1.2-0.5c0,0.2,0,0.4,0,0.5 s0,0.3,0,0.4c-1.3,0.4-2.4,0.9-3.2,1.4c0-0.2,0-0.4-0.1-0.7c-0.1-0.3-0.1-0.5-0.2-0.6c0.5,0,1-0.1,1.5-0.3v-2.8c-0.5,0-1,0-1.2,0.1 v-0.9c0.3,0,0.8,0.1,1.2,0.1V91.3z M177.5,96.9v1.2c1.1,0,2,0,2.8-0.1v0.9c-0.8-0.1-1.9-0.1-3.3-0.1c-1.4,0-2.6,0-3.3,0.1V98 c0.8,0,1.8,0.1,3,0.1v-1.2c-0.8,0-1.5,0-2.1,0.1v-0.9c0.5,0.1,1.2,0.1,2.1,0.1v-1.1c-1.3,0-2,0-2.2,0.1c0-0.8,0.1-1.7,0.1-2.6 s0-1.7-0.1-2.4c0.2,0.1,1.1,0.1,2.7,0.1c1.6,0,2.4,0,2.6-0.1c0,0.6-0.1,1.3-0.1,2.2c0,0.9,0,1.8,0.1,2.8c-0.1,0-0.9-0.1-2.3-0.1 v1.1c0.9,0,1.6,0,2.2-0.1V97C179.2,97,178.4,96.9,177.5,96.9z M176.7,92.4V91h-1.3v1.3H176.7z M176.7,94.5v-1.4h-1.3v1.4H176.7z M177.5,91v1.3h1.4V91H177.5z M177.5,93.1v1.4h1.4v-1.4H177.5z"/><path id="XMLID_315_" class="st5" d="M184.3,90c0.4,0.2,0.7,0.3,1,0.4c0.1,0,0.1,0,0.1,0.1s0,0.1-0.1,0.1c-0.1,0-0.2,0.2-0.3,0.4 c-0.1,0.2-0.2,0.4-0.4,0.6c-0.2,0.4-0.5,1-1,1.7s-1,1.4-1.5,1.8c-0.2-0.2-0.6-0.4-1-0.6c0.7-0.5,1.3-1.1,1.9-2 C183.7,91.7,184.1,90.9,184.3,90z M188.1,97.4c-0.3-0.5-0.6-1-0.9-1.5l0.8-0.4c0.8,1,1.5,2,2.1,3l-1,0.6c-0.1-0.2-0.2-0.6-0.5-1 c-2.9,0.2-4.8,0.4-5.7,0.7c-0.1-0.3-0.2-0.7-0.4-1c0.3,0,0.8-0.6,1.5-1.6s1.2-2,1.4-2.8c0.5,0.2,0.8,0.4,1.1,0.5 c0.1,0,0.2,0.1,0.2,0.1s-0.1,0.1-0.2,0.1c-0.1,0.1-0.3,0.2-0.5,0.6c-0.7,1.1-1.4,2.1-2.1,3.1L188.1,97.4z M191.2,94.2 c-0.4,0.2-0.7,0.6-0.9,1c-1.7-1.5-2.8-3.1-3.4-5c0.4,0,0.7-0.1,1-0.2C188.4,91.9,189.5,93.3,191.2,94.2z"/><path id="XMLID_319_" class="st5" d="M198.8,93.2c-0.7-0.1-1.6-0.1-2.9-0.1c-1.3,0-2.4,0-3.3,0.1v-0.9c1,0.1,2.1,0.1,3.4,0.1 s2.2,0,2.8-0.1V93.2z M197.5,97.2h-3.2v1.1h-1c0.1-0.6,0.1-1.2,0.1-1.7v-1.4c0-0.4,0-0.8-0.1-1.1c0.5,0.1,1.3,0.1,2.6,0.1 s2.1,0,2.5-0.1c-0.1,0.3-0.1,0.7-0.1,1.1v1.4c0,0.4,0,0.9,0.1,1.2h-0.9V97.2z M200.7,90.2c0,0.2,0,0.7,0,1.3v6.6 c0,0.5-0.2,0.9-0.5,1.1c-0.3,0.2-0.8,0.2-1.6,0.2c0-0.4-0.2-0.7-0.4-1.1c0.3,0,0.6,0,0.8,0s0.4,0,0.5-0.1s0.2-0.2,0.2-0.4v-6.7 h-3.1c-1.8,0-2.9,0-3.4,0.1v-1c0.7,0.1,1.8,0.1,3.5,0.1S199.7,90.3,200.7,90.2z M194.2,96.5h3.2v-1.5h-3.2V96.5z"/></g><g id="XMLID_35_"><path id="XMLID_265_" class="st5" d="M126.8,130.1c0-0.4,0-0.7-0.1-0.9c0.6,0.1,1.3,0.1,2.2,0.1s1.6,0,2.2-0.1 c0,0.2-0.1,0.5-0.1,0.9v2.8c0,0.3-0.1,0.5-0.3,0.7c-0.2,0.2-0.5,0.3-1,0.3c0-0.3-0.1-0.6-0.2-0.8c0.2,0,0.3,0,0.4,0 c0.1,0,0.2,0,0.3-0.1s0.1-0.2,0.1-0.3v-2.7h-2.8v4h-0.8c0.1-0.4,0.1-0.8,0.1-1.2V130.1z M131.2,125.9c-0.5,0-1.3-0.1-2.2-0.1 c-0.9,0-1.7,0-2.2,0.1V125c0.5,0.1,1.2,0.1,2.1,0.1c0.9,0,1.7,0,2.2-0.1V125.9z M127.2,126.4c0.5,0.1,1.1,0.1,1.8,0.1 c0.7,0,1.3,0,1.8-0.1c0,0.3-0.1,0.7-0.1,1.1s0,0.8,0.1,1.2c-0.4-0.1-1-0.1-1.8-0.1s-1.4,0-1.8,0.1c0-0.3,0.1-0.7,0.1-1.1 C127.3,127.1,127.3,126.7,127.2,126.4z M128.9,131.5c0.1-0.4,0.2-0.8,0.3-1.3c0.3,0.1,0.5,0.2,0.7,0.2c0,0,0.1,0,0.1,0 s0,0.1-0.1,0.1c-0.1,0-0.2,0.4-0.5,0.9c0.2,0,0.4,0,0.5-0.1v0.7c-0.3,0-0.5-0.1-0.9-0.1v0.8c0,0.2,0,0.4,0,0.5h-0.6 c0-0.1,0-0.3,0-0.5V132c-0.3,0-0.5,0-0.7,0.1v-0.7C128.1,131.4,128.5,131.5,128.9,131.5z M128.5,130.3c0.1,0.4,0.2,0.6,0.3,0.7 l-0.6,0.2c-0.1-0.3-0.1-0.5-0.2-0.8L128.5,130.3z M128,127.1v0.9h2v-0.9H128z M133.9,126.5c0.9,0,1.4,0,1.7-0.1 c0,0.3-0.1,0.6-0.1,1v1.7c0,0.4,0,0.9,0.1,1.3c-0.3-0.1-0.9-0.1-1.7-0.1v2.3l1-0.2c-0.1-0.5-0.2-0.9-0.3-1.1l0.7-0.2 c0.3,0.6,0.5,1.5,0.8,2.4l-0.8,0.3c0-0.3-0.1-0.5-0.2-0.8l-2.1,0.5c-0.6,0.1-1,0.3-1.4,0.5c-0.1-0.3-0.1-0.7-0.3-1.1 c0.4,0,1,0,1.9-0.1v-2.5h-0.8v0.7h-0.8c0-0.4,0.1-0.7,0.1-1.1v-2.4c0-0.4,0-0.8-0.1-1c0.4,0,0.9,0.1,1.6,0.1c0-1.2,0-1.9-0.1-2 c0.4,0.1,0.7,0.1,0.9,0.1c0.1,0,0.2,0,0.2,0.1c0,0,0,0.1-0.1,0.1s-0.1,0.1-0.2,0.2s-0.1,0.3-0.1,0.4V126.5z M133.2,129.6v-2.3h-0.8 v2.3H133.2z M133.9,127.2v2.3h0.9v-2.3H133.9z"/><path id="XMLID_275_" class="st5" d="M140.1,127.8c-1,0.6-1.8,1.1-2.4,1.5c-0.2-0.3-0.3-0.6-0.5-0.9c1-0.4,1.9-0.8,2.7-1.4 C139.9,127.3,140,127.6,140.1,127.8z M141.3,130.3c0.4,0.1,0.6,0.1,0.9,0.2c0.2,0,0.3,0,0.3,0.1c0,0,0,0.1-0.1,0.1 c-0.1,0.1-0.3,0.3-0.4,0.7c-0.2,0.9-0.7,1.6-1.3,2c-0.6,0.4-1.5,0.7-2.5,0.9c-0.1-0.3-0.3-0.5-0.6-0.7c0.8-0.1,1.4-0.2,2-0.4 c0.6-0.2,1-0.5,1.2-0.9C141.1,131.7,141.3,131.1,141.3,130.3z M139.8,125.9l-0.6,0.8c-0.5-0.4-1-0.7-1.6-1l0.5-0.7 C138.8,125.3,139.3,125.6,139.8,125.9z M145,132.2h-0.9v-2.3h-4.4v2.4h-0.9c0-0.3,0.1-0.6,0.1-1v-1.2c0-0.5,0-0.8-0.1-0.9 c0.2,0,1.2,0.1,3,0.1c1.8,0,2.9,0,3.2-0.1c0,0.1,0,0.4,0,0.9v1.2C145,131.6,145,131.9,145,132.2z M141.7,126.2 c-0.3,0.3-0.5,0.6-0.9,1c-0.2-0.2-0.5-0.3-0.8-0.4c0.9-0.7,1.5-1.6,1.7-2.4c0.3,0.2,0.6,0.2,0.9,0.3c0.1,0,0.2,0,0.2,0.1 s-0.1,0.1-0.2,0.2c-0.1,0.1-0.3,0.3-0.5,0.6h2.1c0.7,0,1.4,0,2-0.1l-0.6,1.7l-1-0.1l0.3-0.7h-1.7c0.2,0.7,0.6,1.2,1.1,1.5 c0.5,0.4,1.2,0.6,2.1,0.6c-0.3,0.3-0.4,0.6-0.6,1c-1.5-0.4-2.5-1.2-2.9-2.3c-0.5,1-1.3,1.8-2.4,2.2c-0.2-0.2-0.4-0.4-0.6-0.5 c1.4-0.5,2.3-1.4,2.6-2.4H141.7z M145.9,133.3l-0.6,0.8c-1-0.6-2.1-1.2-3.2-1.6l0.4-0.7C143.9,132.4,145,132.9,145.9,133.3z"/><path id="XMLID_282_" class="st5" d="M149.5,128.2c-0.5,0-1,0-1.5,0.1v-0.9c0.4,0,0.9,0.1,1.5,0.1v-1.2l-1.3,0.3 c0-0.3-0.1-0.5-0.3-0.8c1-0.1,2-0.4,3.2-0.9c0.2,0.4,0.3,0.7,0.4,0.9c0.1,0.1,0.1,0.1,0.1,0.2s0,0-0.1,0l-0.1,0 c-0.2,0-0.6,0.1-1.3,0.2v1.4c0.6,0,1,0,1.4-0.1v0.9c-0.3,0-0.8-0.1-1.4-0.1v4.1c0,0.6,0,1.2,0.1,1.9h-1c0.1-0.7,0.1-1.3,0.1-1.9 v-2.4c-0.4,0.9-0.8,1.7-1.3,2.5c-0.2-0.4-0.4-0.7-0.6-0.9C148.5,130.5,149.1,129.4,149.5,128.2L149.5,128.2z M151.9,130.4l-0.7,0.4 c-0.2-0.3-0.4-0.7-0.8-1.3l0.6-0.4C151.2,129.5,151.5,129.9,151.9,130.4z M156.4,132.8c0.3,0,0.7,0,0.9-0.1v0.9c0,0-1,0-2.9,0 s-3,0-3.3,0.1v-0.9c0.2,0,0.6,0,1.1,0.1V126c0-0.6,0-1,0-1.1c0.6,0,1.3,0.1,2.1,0.1c0.8,0,1.5,0,2.1-0.1c0,0.1,0,0.5,0,1.1V132.8z M153.1,127.5h2.4v-1.8h-2.4V127.5z M155.5,128.3h-2.4v1.7h2.4V128.3z M153.1,132.8h2.4v-2h-2.4V132.8z"/><path id="XMLID_289_" class="st5" d="M159.8,127c-0.3,0.3-0.6,0.7-0.9,1c-0.2-0.2-0.4-0.4-0.6-0.6c0.4-0.4,0.8-0.8,1.2-1.3 c0.4-0.5,0.8-1.1,1-1.7c0.3,0.2,0.5,0.3,0.8,0.3c0.2,0,0.3,0.1,0.3,0.1c0,0.1-0.1,0.1-0.2,0.1c-0.1,0-0.3,0.3-0.8,0.9v3.5h-0.9 c0-0.4,0.1-0.8,0.1-1.2V127z M162.8,130.9c0.4,0.1,0.7,0.2,0.9,0.2s0.3,0,0.3,0.1s0,0.1-0.1,0.2c-0.1,0.1-0.2,0.3-0.3,0.6 c-0.2,0.5-0.5,0.9-0.8,1.1c-0.3,0.2-0.7,0.4-1.1,0.6c-0.4,0.1-1.2,0.3-2.3,0.4c-0.1-0.3-0.3-0.6-0.5-0.8c1.5,0,2.5-0.2,3.1-0.6 C162.5,132.3,162.8,131.7,162.8,130.9z M166.5,132.1h-1v-1.5h-4.5v1.7h-0.9c0-0.2,0-0.4,0-0.6v-1.1c0-0.4,0-0.6-0.1-0.9 c0.6,0.1,1.7,0.1,3.2,0.1c1.5,0,2.6,0,3.1-0.1c0,0.2-0.1,0.5-0.1,0.9v0.8C166.4,131.6,166.5,131.8,166.5,132.1z M163.7,125.8 c-0.9,0.1-1.5,0.1-1.9,0.1c0-0.3-0.1-0.5-0.2-0.7c0.6,0,1.4,0,2.5-0.1c1.1-0.1,1.9-0.2,2.4-0.4c0.2,0.2,0.4,0.5,0.6,0.7 c0.1,0.1,0.1,0.1,0.1,0.2c0,0,0,0-0.1,0c0,0-0.1,0-0.2,0c-0.1,0-0.2,0-0.3,0c-0.1,0-0.4,0-0.7,0.1l-1.3,0.1v0.9 c1.4,0,2.5,0,3.3-0.1v0.9c-0.8-0.1-1.9-0.1-3.3-0.1v0.9c1.1,0,2,0,2.7-0.1v0.9c-0.7-0.1-1.6-0.1-2.9-0.1c-1.2,0-2.2,0-2.9,0.1v-0.9 c0.6,0,1.3,0.1,2.2,0.1v-0.9c-1,0-1.9,0-2.5,0.1v-0.9c0.7,0,1.6,0.1,2.5,0.1V125.8z M167.7,133.2l-0.5,0.8 c-1.1-0.7-2.3-1.2-3.5-1.5l0.4-0.6C165.4,132.3,166.6,132.7,167.7,133.2z"/><path id="XMLID_295_" class="st5" d="M172.1,124.8c0.4,0.2,0.7,0.3,1,0.4c0.1,0,0.1,0,0.1,0.1s0,0.1-0.1,0.1 c-0.1,0-0.2,0.2-0.3,0.4c-0.1,0.2-0.2,0.4-0.4,0.6c-0.2,0.4-0.5,1-1,1.7s-1,1.4-1.5,1.8c-0.2-0.2-0.6-0.4-1-0.6 c0.7-0.5,1.3-1.1,1.9-2C171.4,126.4,171.8,125.6,172.1,124.8z M175.9,132.1c-0.3-0.5-0.6-1-0.9-1.5l0.8-0.4c0.8,1,1.5,2,2.1,3 l-1,0.6c-0.1-0.2-0.2-0.6-0.5-1c-2.9,0.2-4.8,0.4-5.7,0.7c-0.1-0.3-0.2-0.7-0.4-1c0.3,0,0.8-0.6,1.5-1.6s1.2-2,1.4-2.8 c0.5,0.2,0.8,0.4,1.1,0.5c0.1,0,0.2,0.1,0.2,0.1s-0.1,0.1-0.2,0.1c-0.1,0.1-0.3,0.2-0.5,0.6c-0.7,1.1-1.4,2.1-2.1,3.1L175.9,132.1z M178.9,128.9c-0.4,0.2-0.7,0.6-0.9,1c-1.7-1.5-2.8-3.1-3.4-5c0.4,0,0.7-0.1,1-0.2C176.2,126.6,177.3,128,178.9,128.9z"/><path id="XMLID_299_" class="st5" d="M186.6,127.9c-0.7-0.1-1.6-0.1-2.9-0.1c-1.3,0-2.4,0-3.3,0.1v-0.9c1,0.1,2.1,0.1,3.4,0.1 s2.2,0,2.8-0.1V127.9z M185.2,132H182v1.1h-1c0.1-0.6,0.1-1.2,0.1-1.7V130c0-0.4,0-0.8-0.1-1.1c0.5,0.1,1.3,0.1,2.6,0.1 s2.1,0,2.5-0.1c-0.1,0.3-0.1,0.7-0.1,1.1v1.4c0,0.4,0,0.9,0.1,1.2h-0.9V132z M188.5,125c0,0.2,0,0.7,0,1.3v6.6 c0,0.5-0.2,0.9-0.5,1.1c-0.3,0.2-0.8,0.2-1.6,0.2c0-0.4-0.2-0.7-0.4-1.1c0.3,0,0.6,0,0.8,0s0.4,0,0.5-0.1s0.2-0.2,0.2-0.4v-6.7 h-3.1c-1.8,0-2.9,0-3.4,0.1v-1c0.7,0.1,1.8,0.1,3.5,0.1S187.4,125,188.5,125z M182,131.2h3.2v-1.5H182V131.2z"/></g><g id="XMLID_34_"><path id="XMLID_245_" class="st5" d="M157.8,160.4c0.4,0.1,0.7,0.2,0.9,0.2c0.2,0,0.3,0.1,0.3,0.1s-0.1,0.1-0.2,0.2 c-0.1,0.1-0.2,0.3-0.4,0.7c-0.4,1.2-0.9,2.3-1.5,3.1c-0.3-0.1-0.6-0.2-1-0.3C157,163.2,157.6,161.8,157.8,160.4z M160.3,157.8 c0.1,0,0.3,0,0.6,0l0.6,0c0.1,0,0.2,0,0.2,0.1c0,0.1,0,0.1-0.1,0.2s-0.1,0.1-0.2,0.2c0,0.1,0,0.3,0,0.5v7.1c0,0.3,0,0.6-0.1,0.7 c-0.1,0.1-0.2,0.3-0.5,0.3c-0.2,0.1-0.7,0.2-1.3,0.2c-0.1-0.4-0.2-0.7-0.4-1.1c0.2,0,0.3,0,0.5,0c0.4,0,0.6,0,0.7-0.1 c0.1-0.1,0.2-0.2,0.2-0.4v-6.1C160.4,158.7,160.3,158.1,160.3,157.8z M165.6,164.2l-1,0.4c-0.5-1.4-1.1-2.6-1.9-3.8l0.9-0.4 C164.3,161.6,165,162.9,165.6,164.2z"/><path id="XMLID_249_" class="st5" d="M168.2,160.2c-0.3,0.4-0.6,0.7-0.9,0.9c-0.2-0.3-0.4-0.5-0.7-0.7c1-0.6,1.8-1.5,2.3-2.8 c0.3,0.2,0.6,0.3,1,0.4c0.1,0,0.2,0.1,0.2,0.1c0,0-0.1,0.1-0.2,0.1c-0.1,0.1-0.4,0.4-0.9,1v3.1h-0.9c0-0.3,0.1-0.6,0.1-0.9V160.2z M171,163.9c0.3,0.1,0.6,0.1,1,0.1c0.1,0,0.1,0,0.1,0s0,0.1-0.1,0.1c-0.1,0.1-0.2,0.3-0.3,0.7c-0.1,0.5-0.5,1-1,1.5 c-0.6,0.5-1.6,0.8-3.2,1c-0.1-0.3-0.3-0.6-0.5-0.9c0.9-0.1,1.6-0.1,2.1-0.3s0.9-0.3,1.2-0.5c0.2-0.2,0.4-0.4,0.5-0.7 C170.9,164.8,170.9,164.4,171,163.9z M168.4,162.5c0.5,0,1.5,0.1,3.1,0.1s2.6,0,3.1-0.1c0,0.2,0,0.5,0,0.8v1c0,0.3,0,0.6,0,0.8 h-0.9v-1.9h-4.5v2.1h-0.9c0-0.3,0-0.5,0-0.8v-1.2C168.4,163,168.4,162.7,168.4,162.5z M172.9,160.3c0.3,0.5,0.7,0.9,1.2,1.1 s0.8,0.4,0.9,0.4c0.1,0,0.2-0.1,0.2-0.2s0.1-0.4,0.1-0.8c0.2,0.2,0.5,0.4,0.9,0.5c-0.1,0.4-0.2,0.7-0.3,0.9s-0.3,0.3-0.6,0.3 c-0.5,0-1-0.2-1.7-0.6c-0.7-0.4-1.2-0.9-1.6-1.6c-1.2,0.2-2,0.4-2.3,0.5l-0.1-0.9c0.4,0,1.1-0.1,2.1-0.3c-0.2-0.7-0.4-1.3-0.5-2 c0.3,0,0.5,0,0.7,0l0.4,0c0.1,0,0.1,0,0.1,0.1s0,0.1-0.1,0.2c-0.1,0.1-0.1,0.2-0.1,0.4c0,0.3,0.1,0.7,0.3,1.1l1-0.2 c1.2-0.2,2-0.4,2.2-0.5l0.2,0.8c-0.2,0-0.5,0.1-1.1,0.2s-0.9,0.1-1.1,0.2L172.9,160.3z M175.6,166.5l-0.6,0.9 c-0.9-0.6-1.9-1.1-3.1-1.5l0.5-0.7C173.4,165.5,174.5,165.9,175.6,166.5z M173.2,158l0.9-0.4c0.2,0.3,0.3,0.6,0.5,1l-0.9,0.4 C173.5,158.6,173.3,158.3,173.2,158z"/><path id="XMLID_256_" class="st5" d="M180.3,158c0.4,0.2,0.7,0.3,1,0.4c0.1,0,0.1,0,0.1,0.1s0,0.1-0.1,0.1c-0.1,0-0.2,0.2-0.3,0.4 s-0.2,0.4-0.4,0.6c-0.2,0.4-0.5,1-1,1.7s-1,1.4-1.5,1.8c-0.2-0.2-0.6-0.4-1-0.6c0.7-0.5,1.3-1.1,1.9-2 C179.6,159.7,180,158.8,180.3,158z M184.1,165.4c-0.3-0.5-0.6-1-0.9-1.5l0.8-0.4c0.8,1,1.5,2,2.1,3l-1,0.6c-0.1-0.2-0.2-0.6-0.5-1 c-2.9,0.2-4.8,0.4-5.7,0.7c-0.1-0.3-0.2-0.7-0.4-1c0.3,0,0.8-0.6,1.5-1.6s1.2-2,1.4-2.8c0.5,0.2,0.8,0.4,1.1,0.5 c0.1,0,0.2,0.1,0.2,0.1s-0.1,0.1-0.2,0.1c-0.1,0.1-0.3,0.2-0.5,0.6c-0.7,1.1-1.4,2.1-2.1,3.1L184.1,165.4z M187.1,162.1 c-0.4,0.2-0.7,0.6-0.9,1c-1.7-1.5-2.8-3.1-3.4-5c0.4,0,0.7-0.1,1-0.2C184.4,159.9,185.5,161.3,187.1,162.1z"/><path id="XMLID_260_" class="st5" d="M194.8,161.1c-0.7-0.1-1.6-0.1-2.9-0.1c-1.3,0-2.4,0-3.3,0.1v-0.9c1,0.1,2.1,0.1,3.4,0.1 s2.2,0,2.8-0.1V161.1z M193.4,165.2h-3.2v1.1h-1c0.1-0.6,0.1-1.2,0.1-1.7v-1.4c0-0.4,0-0.8-0.1-1.1c0.5,0.1,1.3,0.1,2.6,0.1 s2.1,0,2.5-0.1c-0.1,0.3-0.1,0.7-0.1,1.1v1.4c0,0.5,0,0.9,0.1,1.2h-0.9V165.2z M196.7,158.2c0,0.2,0,0.7,0,1.3v6.6 c0,0.5-0.2,0.9-0.5,1.1c-0.3,0.2-0.8,0.2-1.6,0.2c0-0.4-0.2-0.7-0.4-1.1c0.3,0,0.6,0,0.8,0s0.4,0,0.5-0.1c0.1-0.1,0.2-0.2,0.2-0.4 v-6.7h-3.1c-1.8,0-2.9,0-3.4,0.1v-1c0.7,0.1,1.8,0.1,3.5,0.1S195.6,158.3,196.7,158.2z M190.2,164.4h3.2v-1.5h-3.2V164.4z"/></g><g id="XMLID_32_"><path id="XMLID_223_" class="st5" d="M175.6,193.3c0.7,0.8,1.4,1.4,2.1,1.8c0.7,0.4,1.5,0.7,2.5,1c-0.1,0.1-0.2,0.3-0.3,0.5 c-0.1,0.2-0.1,0.4-0.2,0.6c-1.9-0.6-3.4-1.7-4.6-3.4c-0.6,0.8-1.4,1.7-2.5,2.5c0.6,0,1.5,0.1,2.6,0.1s2,0,2.6-0.1v0.9 c-0.5,0-1.2-0.1-2.2-0.1v1.3c1.5,0,2.6,0,3.1-0.1v0.9c-0.5,0-1.6-0.1-3.1-0.1v2.2l1,0c0.3-0.7,0.5-1.4,0.6-1.9 c0.4,0.2,0.7,0.3,0.9,0.3c0.1,0,0.1,0.1,0.1,0.1c0,0.1,0,0.1-0.1,0.1c-0.1,0.1-0.4,0.5-0.9,1.3c0.8,0,1.5,0,2.1-0.1v1 c-1.2-0.1-2.7-0.1-4.4-0.1c-1.7,0-3,0-4,0.1v-1c0.9,0.1,2.2,0.1,3.7,0.1v-2.2c-1.4,0-2.4,0-3.1,0.1v-0.9c0.7,0,1.8,0.1,3.1,0.1 v-1.3c-1,0-1.7,0-2.2,0.1v-0.8c-0.6,0.5-1.1,0.8-1.5,1c-0.1-0.3-0.3-0.5-0.7-0.7c0.5-0.2,1-0.5,1.5-0.9s0.9-0.8,1.3-1.2 s0.7-0.7,0.9-1c0.2-0.3,0.3-0.6,0.5-0.9c0.5,0.2,0.8,0.3,1,0.3s0.2,0.1,0.2,0.1C175.8,193.2,175.7,193.3,175.6,193.3z M173.7,200.7 l-0.9,0.4c-0.2-0.6-0.5-1-0.7-1.3l0.9-0.4C173.2,200,173.5,200.4,173.7,200.7z"/><path id="XMLID_226_" class="st5" d="M181.7,198.6c0-0.4,0-0.7-0.1-0.9c0.6,0.1,1.3,0.1,2.2,0.1s1.6,0,2.2-0.1 c0,0.2-0.1,0.5-0.1,0.9v2.8c0,0.3-0.1,0.5-0.3,0.7c-0.2,0.2-0.5,0.3-1,0.3c0-0.3-0.1-0.6-0.2-0.8c0.2,0,0.3,0,0.4,0 c0.1,0,0.2,0,0.3-0.1s0.1-0.2,0.1-0.3v-2.7h-2.8v4h-0.8c0.1-0.4,0.1-0.8,0.1-1.2V198.6z M186.1,194.3c-0.5,0-1.3-0.1-2.2-0.1 c-0.9,0-1.7,0-2.2,0.1v-0.9c0.5,0.1,1.2,0.1,2.1,0.1c0.9,0,1.7,0,2.2-0.1V194.3z M182.1,194.9c0.5,0.1,1.1,0.1,1.8,0.1 c0.7,0,1.3,0,1.8-0.1c0,0.3-0.1,0.7-0.1,1.1s0,0.8,0.1,1.2c-0.4-0.1-1-0.1-1.8-0.1s-1.4,0-1.8,0.1c0-0.3,0.1-0.7,0.1-1.1 S182.1,195.2,182.1,194.9z M183.8,200c0.1-0.4,0.2-0.8,0.3-1.3c0.3,0.1,0.5,0.2,0.7,0.2c0,0,0.1,0,0.1,0s0,0.1-0.1,0.1 c-0.1,0-0.2,0.4-0.5,0.9c0.2,0,0.4,0,0.5-0.1v0.7c-0.3,0-0.5-0.1-0.9-0.1v0.8c0,0.2,0,0.4,0,0.5h-0.6c0-0.1,0-0.3,0-0.5v-0.8 c-0.3,0-0.5,0-0.7,0.1v-0.7C183,199.9,183.4,200,183.8,200z M183.3,198.8c0.1,0.4,0.2,0.6,0.3,0.7l-0.6,0.2 c-0.1-0.3-0.1-0.5-0.2-0.8L183.3,198.8z M182.9,195.6v0.9h2v-0.9H182.9z M188.8,195c0.9,0,1.4,0,1.7-0.1c0,0.3-0.1,0.6-0.1,1v1.7 c0,0.4,0,0.9,0.1,1.3c-0.3-0.1-0.9-0.1-1.7-0.1v2.3l1-0.2c-0.1-0.5-0.2-0.9-0.3-1.1l0.7-0.2c0.3,0.6,0.5,1.5,0.8,2.4l-0.8,0.3 c0-0.3-0.1-0.5-0.2-0.8l-2.1,0.5c-0.6,0.1-1,0.3-1.4,0.5c-0.1-0.3-0.1-0.7-0.3-1.1c0.4,0,1,0,1.9-0.1v-2.5h-0.8v0.7h-0.8 c0-0.4,0.1-0.7,0.1-1.1v-2.4c0-0.4,0-0.8-0.1-1c0.4,0,0.9,0.1,1.6,0.1c0-1.2,0-1.9-0.1-2c0.4,0.1,0.7,0.1,0.9,0.1 c0.1,0,0.2,0,0.2,0.1c0,0,0,0.1-0.1,0.1c-0.1,0-0.1,0.1-0.2,0.2c0,0.1-0.1,0.3-0.1,0.4V195z M188.1,198v-2.3h-0.8v2.3H188.1z M188.8,195.7v2.3h0.9v-2.3H188.8z"/><path id="XMLID_236_" class="st5" d="M193.4,197.7c-0.3,0.9-0.7,1.7-1.1,2.5c-0.1-0.3-0.3-0.6-0.5-1c0.4-0.4,0.7-0.9,0.9-1.4 s0.5-1.2,0.7-2v-0.1c-0.6,0-1.1,0-1.5,0.1v-0.8c0.3,0,0.8,0.1,1.5,0.1c0-1,0-1.8-0.1-2.2c0.2,0,0.4,0,0.6,0l0.4,0 c0.1,0,0.1,0,0.1,0.1s0,0.1-0.1,0.2s-0.1,0.2-0.1,0.3v1.6c0.7,0,1.2,0,1.5-0.1v0.8c-0.4-0.1-0.9-0.1-1.5-0.1v4.7c0,0.6,0,1.3,0.1,2 h-1.1c0.1-0.7,0.1-1.4,0.1-2V197.7z M196,198.6l-0.7,0.4c-0.2-0.5-0.5-1-0.8-1.6l0.7-0.3C195.4,197.5,195.7,198,196,198.6z M201.7,200.7c-0.1,0.5-0.3,0.9-0.4,1.1c-0.1,0.2-0.2,0.3-0.4,0.4c-0.2,0.1-0.4,0.1-0.8,0.1s-0.6,0-0.8-0.1c-0.1,0-0.3-0.2-0.3-0.4 s-0.1-0.5-0.1-0.9l0.1-6.5h-1.7c0,0.4,0,1,0,1.8s0,1.5-0.1,2.3c-0.1,0.8-0.2,1.5-0.4,2.2c-0.2,0.7-0.7,1.3-1.2,2 c-0.3-0.3-0.6-0.5-1-0.6c0.8-0.6,1.3-1.3,1.6-2.1c0.2-0.8,0.4-1.9,0.4-3.2c0-0.7,0-1.8-0.1-3.3c0.5,0.1,1.1,0.1,1.9,0.1 s1.4,0,1.8-0.1c-0.1,0.3-0.1,0.8-0.1,1.4l-0.1,6c0,0.2,0,0.3,0.1,0.4c0.1,0.1,0.2,0.1,0.4,0.1c0.2,0,0.3-0.1,0.3-0.3 s0.1-0.5,0.1-1.1C201,200.4,201.3,200.6,201.7,200.7z"/><path id="XMLID_240_" class="st5" d="M204.2,197.8c-0.4,1.1-0.8,1.9-1.2,2.5c-0.2-0.4-0.4-0.7-0.6-1c0.7-0.6,1.3-1.8,1.8-3.4 c-0.5,0-1,0-1.4,0.1v-0.9c0.3,0.1,0.8,0.1,1.4,0.1c0-1.1,0-1.9-0.1-2.3c0.3,0,0.5,0.1,0.8,0.1l0.3,0c0.1,0,0.1,0,0.1,0.1 c0,0,0,0.1-0.1,0.2c-0.1,0.1-0.1,0.2-0.1,0.3v1.7c0.4,0,0.8,0,1.1-0.1v0.9c-0.3,0-0.7-0.1-1.1-0.1v4.5c0,0.7,0,1.4,0.1,2.2H204 c0.1-0.8,0.1-1.5,0.1-2.2V197.8z M206.5,198.6l-0.8,0.4c-0.2-0.5-0.4-1-0.6-1.4l0.6-0.3C206,197.8,206.3,198.2,206.5,198.6z M208.1,194.7h1.9c0.8,0,1.5,0,2-0.1l-0.3,6.4c0,0.6-0.2,1-0.5,1.2s-0.9,0.4-1.6,0.5c-0.1-0.4-0.3-0.8-0.5-1.1 c0.2,0,0.5,0.1,0.7,0.1c0.7,0,1.1-0.3,1.1-0.8l0.3-5.4h-3.4c-0.3,0.7-0.6,1.2-0.8,1.7c-0.3-0.2-0.6-0.3-1-0.4 c0.3-0.3,0.7-0.9,1.1-1.7c0.4-0.8,0.6-1.6,0.7-2.3c0.4,0.2,0.8,0.3,1.1,0.4c0.1,0,0.1,0,0.1,0.1c0,0,0,0.1-0.1,0.2 C208.7,193.5,208.5,193.9,208.1,194.7z M209.3,199.4c-0.1-0.4-0.2-0.8-0.4-1.3l0.7-0.2c0.3,0.7,0.6,1.5,0.9,2.5l-0.9,0.3 c0-0.2-0.1-0.5-0.1-0.7l-1.8,0.3c-0.3,0-0.6,0.1-1,0.3c-0.1-0.3-0.1-0.6-0.3-0.8c0.2-0.1,0.5-0.6,0.8-1.4c0.3-0.8,0.5-1.5,0.6-2.1 c0.4,0.1,0.7,0.2,0.9,0.3c0.1,0,0.2,0.1,0.2,0.1c0,0,0,0.1-0.1,0.2s-0.2,0.4-0.5,0.9s-0.5,1.2-1,2L209.3,199.4z"/></g><circle id="XMLID_29_" class="st5" cx="320.6" cy="42.3" r="22.2"/><g id="XMLID_28_"><path id="XMLID_213_" class="st2" d="M303.9,42l-0.7-1.6c0.2-0.1,0.4-0.2,0.7-0.4c0.9-0.5,1.5-0.9,1.9-1.1c0.1,0.1,0.1,0.3,0.2,0.6 c0.1,0.2,0.3,0.5,0.4,0.9C305.5,41,304.6,41.5,303.9,42z M308.3,43.7h1.7c-0.1,0.5-0.2,0.9-0.3,1.3c0.8,0.2,2.3,0.6,4.5,1.3 c-1.8-0.6-1.7-0.5,0.3,0.1l-0.8,1.4c-1.7-0.6-3.3-1.1-4.8-1.6c-0.8,0.8-2.4,1.4-4.8,1.6c-0.2-0.5-0.5-0.9-0.8-1.5 c1.9-0.1,3.2-0.4,4-0.8C307.8,45.2,308.2,44.6,308.3,43.7z M303.4,37.6l1-1.2c0.8,0.5,1.4,1,1.9,1.3c-0.1,0.1-0.4,0.5-1,1.3 C304.7,38.5,304.1,38,303.4,37.6z M309,37.2h5.4v1.1l-0.8,1.4l-1.2-0.4l0.4-0.8h-1.7c0,0.1-0.1,0.2-0.1,0.4c0.7,1,2,1.6,3.8,1.8 c-0.3,0.6-0.5,1-0.7,1.4c-1.8-0.3-3-0.9-3.7-1.9c-0.6,1-1.7,1.6-3.2,1.9h6.2v3.3h-1.6v-1.9h-5.6v2h-1.6V42h2.1 c0-0.1-0.1-0.3-0.3-0.5c-0.2-0.3-0.3-0.5-0.4-0.7c2.1-0.3,3.3-1.1,3.6-2.3h-1.3c-0.3,0.5-0.6,0.9-0.9,1.3c-0.1-0.1-0.3-0.2-0.5-0.3 c-0.3-0.2-0.6-0.4-0.7-0.5c0.7-0.7,1.2-1.6,1.6-2.5l1.6,0.1c0,0.1-0.1,0.2-0.1,0.3C309.1,37,309.1,37.1,309,37.2z"/><path id="XMLID_218_" class="st2" d="M316.9,42.7v-1.6h2.2c0,0-0.1-0.1-0.1-0.1c-0.2-0.3-0.6-0.7-1-1.2l1.2-0.7h-3.1v-1.5h4.6 c0-0.1-0.1-0.2-0.1-0.4c-0.1-0.3-0.2-0.4-0.2-0.5l1.9-0.3c0.1,0.5,0.2,0.9,0.3,1.3h4.5v1.5h-3.2l1.5,0.7c-0.5,0.6-0.9,1-1.2,1.4 h2.7v1.5h-8.4v0.3c0,1.7-0.5,3.3-1.5,4.9c-0.3-0.3-0.7-0.7-1.2-1.2C316.4,45.4,316.8,44.1,316.9,42.7z M320.9,40.8l-0.6,0.3h1.9 c0.5-0.6,1-1.3,1.5-2.1h-4.2c0.1,0.1,0.3,0.4,0.6,0.7C320.4,40.2,320.7,40.6,320.9,40.8z"/><path id="XMLID_221_" class="st2" d="M338,45.4c0,1.4-0.7,2.1-2,2.1c-0.1,0-0.4,0-0.8,0c-0.7,0-1.3,0-1.7,0 c-0.1-0.2-0.1-0.5-0.2-0.9c-0.1-0.4-0.1-0.6-0.2-0.8c1.1,0,1.8,0,2.1,0c0.6,0,0.9-0.3,1-0.8c0.1-1.3,0.1-2.1,0.1-2.5h-3.7 c-0.3,2.2-1.4,3.9-3.3,5.3c-0.2-0.3-0.6-0.8-1.2-1.5c1.8-1.2,2.7-2.7,2.8-4.7c0-0.2,0-0.6,0-1.1c0-0.5,0-0.8,0-1.1h-2.6v-1.5h4.8 c-0.2-0.5-0.3-0.9-0.5-1.2l1.9-0.4c0.3,0.6,0.5,1.2,0.6,1.6h4.2v1.5h-6.6c0,0.2,0,0.4,0,0.7c0,0.3,0,0.6,0,0.7h5.4 C338.2,42.5,338.1,44,338,45.4z"/></g><circle id="XMLID_25_" class="st6" cx="457.3" cy="239.1" r="22.2"/><g id="XMLID_24_"><path id="XMLID_202_" class="st2" d="M440.6,238.4l-0.7-1.6c0.2-0.1,0.4-0.2,0.7-0.4c0.9-0.5,1.5-0.9,1.9-1.1 c0.1,0.1,0.1,0.3,0.2,0.6c0.1,0.2,0.3,0.5,0.4,0.9C442.1,237.4,441.3,237.9,440.6,238.4z M445,240.1h1.7c-0.1,0.5-0.2,0.9-0.3,1.3 c0.8,0.2,2.3,0.6,4.5,1.3c-1.8-0.6-1.7-0.5,0.3,0.1l-0.8,1.4c-1.7-0.6-3.3-1.1-4.8-1.6c-0.8,0.8-2.4,1.4-4.8,1.6 c-0.2-0.5-0.5-0.9-0.8-1.5c1.9-0.1,3.2-0.4,4-0.8C444.5,241.6,444.9,241,445,240.1z M440.1,234l1-1.2c0.8,0.5,1.4,1,1.9,1.3 c-0.1,0.1-0.4,0.5-1,1.3C441.4,234.9,440.8,234.4,440.1,234z M445.7,233.6h5.4v1.1l-0.8,1.4l-1.2-0.4l0.4-0.8h-1.7 c0,0.1-0.1,0.2-0.1,0.4c0.7,1,2,1.6,3.8,1.8c-0.3,0.6-0.5,1-0.7,1.4c-1.8-0.3-3-0.9-3.7-1.9c-0.6,1-1.7,1.6-3.2,1.9h6.2v3.3h-1.6 v-1.9h-5.6v2h-1.6v-3.4h2.1c0-0.1-0.1-0.3-0.3-0.5c-0.2-0.3-0.3-0.5-0.4-0.7c2.1-0.3,3.3-1.1,3.6-2.3H445c-0.3,0.5-0.6,0.9-0.9,1.3 c-0.1-0.1-0.3-0.2-0.5-0.3c-0.3-0.2-0.6-0.4-0.7-0.5c0.7-0.7,1.2-1.6,1.6-2.5l1.6,0.1c0,0.1-0.1,0.2-0.1,0.3 C445.8,233.4,445.7,233.5,445.7,233.6z"/><path id="XMLID_207_" class="st2" d="M452.7,243.8v-1.3h2.5c-0.1-0.1-0.2-0.3-0.4-0.6c-0.3-0.4-0.5-0.7-0.7-0.9l1.3-0.8 c0.4,0.5,0.8,1,1.3,1.5l-1.1,0.7h1.8v-2.3h-3.7v-1.4h3.7v-1h-2.2v-0.9c-0.2,0.1-0.4,0.2-0.7,0.4c-0.5,0.3-0.9,0.6-1.1,0.7 c-0.1-0.2-0.3-0.5-0.6-0.9c-0.2-0.3-0.3-0.5-0.4-0.6c2.3-1,4-2.2,5.1-3.6h2.4l-0.5,0.5c1.2,1.3,2.8,2.2,4.7,2.8 c-0.2,0.4-0.5,0.8-0.9,1.5c0,0,0,0.1,0,0.1c-0.3-0.1-0.6-0.3-1.1-0.6c-0.3-0.2-0.5-0.3-0.7-0.3v1H459v1h3.7v1.4h-1.8l1.4,0.7 c-0.4,0.6-0.8,1.1-1.2,1.6h2.5v1.3H452.7z M458.2,234.4c-0.7,0.7-1.5,1.4-2.4,2h4.8C459.5,235.7,458.7,235,458.2,234.4z M460.9,240.2H459v2.3h1.8l-1.1-0.6c0.1-0.2,0.3-0.5,0.6-0.8C460.6,240.7,460.7,240.4,460.9,240.2z"/><path id="XMLID_211_" class="st2" d="M474.7,241.8c0,1.4-0.7,2.1-2,2.1c-0.1,0-0.4,0-0.8,0c-0.7,0-1.3,0-1.7,0 c-0.1-0.2-0.1-0.5-0.2-0.9c-0.1-0.4-0.1-0.6-0.2-0.8c1.1,0,1.8,0,2.1,0c0.6,0,0.9-0.3,1-0.8c0.1-1.3,0.1-2.1,0.1-2.5h-3.7 c-0.3,2.2-1.4,3.9-3.3,5.3c-0.2-0.3-0.6-0.8-1.2-1.5c1.8-1.2,2.7-2.7,2.8-4.7c0-0.2,0-0.6,0-1.1c0-0.5,0-0.8,0-1.1h-2.6v-1.5h4.8 c-0.2-0.5-0.3-0.9-0.5-1.2l1.9-0.4c0.3,0.6,0.5,1.2,0.6,1.6h4.2v1.5h-6.6c0,0.2,0,0.4,0,0.7c0,0.3,0,0.6,0,0.7h5.4 C474.8,238.9,474.8,240.4,474.7,241.8z"/></g><path id="XMLID_23_" class="st10" d="M376.8 20.2L366.7 28.4 376.7 35.9"/><path id="XMLID_22_" class="st10" d="M414.7 245.8L405.8 255.6 416.3 262.2"/><path id="XMLID_21_" class="st8" d="M238.7,235.1c0,4.9-4.3,8.9-7.2,8.9h-32.5c-2.9,0-7.2-4-7.2-8.9v-6.5c0-4.9,4.3-8.9,7.2-8.9 h32.5c2.9,0,7.2,4,7.2,8.9V235.1z"/><g id="XMLID_20_"><path id="XMLID_191_" class="st5" d="M208.1,228.9c0-0.4,0-0.9-0.1-1.2c0.3,0,0.6,0.1,1.1,0.1c0.1,0,0.1,0,0.1,0c0,0,0,0.1-0.1,0.1 c-0.1,0.1-0.1,0.2-0.1,0.3v0.7h3.1c0-0.6,0-1-0.1-1.4c0.3,0.1,0.7,0.1,1,0.1c0.1,0,0.2,0,0.2,0.1c0,0,0,0.1-0.1,0.1 c-0.1,0.1-0.1,0.2-0.1,0.3v0.7c0.7,0,1.3,0,1.8-0.1v0.9c-0.5,0-1.1-0.1-1.8-0.1v4.4c0.8,0,1.6,0,2.3-0.1v0.9 c-0.7-0.1-2.3-0.1-4.7-0.1s-4,0-4.7,0.1v-0.9c0.7,0.1,1.5,0.1,2.3,0.1v-4.4c-0.6,0-1.3,0-1.9,0.1v-0.9 C206.8,228.9,207.4,228.9,208.1,228.9z M209,235.1c0.3,0.3,0.5,0.5,0.8,0.7c0,0,0.1,0.1,0.1,0.1s0,0-0.1,0c-0.2,0-0.4,0.1-0.7,0.2 c-0.3,0.1-1.1,0.6-2.3,1.2c-0.1-0.2-0.3-0.5-0.6-0.8C207.2,236.4,208.1,235.8,209,235.1z M208.9,230.6h3.1v-0.9h-3.1V230.6z M212,231.3h-3.1v1h3.1V231.3z M208.9,232.9v1.1h3.1v-1.1H208.9z M214.6,236.4l-0.6,0.8c-0.8-0.6-1.6-1-2.7-1.4l0.5-0.7 C212.8,235.5,213.7,235.9,214.6,236.4z"/><path id="XMLID_198_" class="st5" d="M216.7,228.9c0.7,0,2.1,0.1,4.4,0.1s3.7,0,4.4-0.1v2.2h-0.9v-1.3h-6.9v1.6h-0.9V228.9z M219.4,233.9v1.7c0,0.2,0,0.3,0.1,0.4s0.3,0.2,0.5,0.2s0.7,0.1,1.2,0.1c1.4,0,2.2-0.1,2.5-0.2c0.3-0.1,0.5-0.5,0.6-1.2 c0.3,0.3,0.6,0.5,1,0.7c-0.1,0.5-0.3,0.8-0.4,1c-0.1,0.2-0.3,0.3-0.6,0.4c-0.3,0.1-0.7,0.2-1.4,0.2c-0.7,0-1.3,0.1-2,0.1 c-0.6,0-1.1,0-1.5-0.1c-0.3-0.1-0.6-0.2-0.8-0.3c-0.2-0.2-0.3-0.4-0.3-0.9v-4c0-0.4,0-0.8-0.1-1.1c0.2,0,0.4,0,0.7,0l0.4,0 c0.1,0,0.2,0,0.2,0.1c0,0,0,0.1-0.1,0.1c-0.1,0-0.2,0.1-0.2,0.3v1.7c2.6-0.6,4.1-1.2,4.6-1.5c0.2,0.4,0.4,0.8,0.6,1 c0,0,0.1,0.1,0.1,0.1s0,0-0.1,0l-0.2,0C224.2,232.7,222.5,233.1,219.4,233.9z M220.3,227.7l1-0.3c0.2,0.5,0.3,0.9,0.5,1.3l-1,0.2 C220.7,228.5,220.5,228.1,220.3,227.7z"/></g><path id="XMLID_17_" class="st0" d="M615.7,30.2c0,4.9-3.5,8.9-7.8,8.9h-67.3c-4.3,0-7.8-4-7.8-8.9v-6.5c0-4.9,3.5-8.9,7.8-8.9h67.3 c4.3,0,7.8,4,7.8,8.9V30.2z"/><path id="XMLID_16_" class="st7" d="M498.9 86.9L519.6 27.5 532.8 27.5"/><g id="XMLID_15_"><path id="XMLID_169_" class="st6" d="M554.8,29.8c0.8,0,1.5,0,2.2-0.1v1c-1-0.1-2.5-0.1-4.4-0.1c-2,0-3.5,0-4.4,0.1v-1 c0.8,0.1,2.8,0.1,5.8,0.1l0.2-1.7l-2.3,0.1c-0.9,0-1.6,0.1-2,0.1c0.1-0.3,0.2-0.8,0.3-1.5l0.6-3.4c-1,0-1.7,0.1-2.3,0.1v-1 c0.8,0.1,2.2,0.1,4,0.1s3.2,0,4.2-0.1v1c-1-0.1-2.6-0.1-5-0.1l-0.3,1.5h2.1c0.8,0,1.5,0,1.9-0.1c-0.1,0.2-0.1,0.7-0.2,1.5 L554.8,29.8z M551.3,25.6l-0.4,1.9l3.2-0.1l0.2-1.8H551.3z"/><path id="XMLID_172_" class="st6" d="M559.1,23c-0.2,0-0.4,0-0.6,0.1v-0.9c0.4,0,1.1,0.1,2.2,0.1c1.1,0,1.8,0,2.2-0.1V23 c-0.3,0-0.5,0-0.6-0.1v5.6c0.3-0.1,0.6-0.2,0.9-0.3c-0.1,0.2-0.1,0.3-0.1,0.5s0,0.3,0,0.4c-0.3,0-0.5,0.1-0.8,0.1 c0,0.9,0,1.6,0.1,2h-1c0.1-0.5,0.1-1.1,0.1-1.8c-1,0.2-1.9,0.5-2.7,0.8c-0.1-0.4-0.2-0.7-0.3-1l0.7-0.1V23z M561.3,23h-1.5v1.5h1.5 V23z M561.3,26.6v-1.5h-1.5v1.5H561.3z M561.3,28.8v-1.4h-1.5v1.7C560.4,29,560.8,28.9,561.3,28.8z M565.2,28.1 c-0.1,0.6-0.4,1.2-0.7,1.7c-0.3,0.5-0.8,1-1.4,1.6c-0.2-0.2-0.4-0.4-0.7-0.6c0.7-0.5,1.2-1,1.5-1.5c0.3-0.6,0.5-1.2,0.6-2 c-0.7,0-1.3,0-1.9,0.1v-0.9c0.5,0.1,1.2,0.1,1.9,0.1c0-0.6,0-1.3,0-1.9c-0.7,0-1.3,0-1.8,0.1v-0.9c0.7,0.1,1.5,0.1,2.5,0.1 c0.4-0.9,0.7-1.7,0.9-2.3c0.3,0.2,0.6,0.3,0.9,0.3c0.1,0,0.1,0,0.1,0.1s0,0.1-0.2,0.2c-0.1,0.1-0.5,0.7-1,1.6 c0.7,0,1.2-0.1,1.6-0.1v0.9c-0.6-0.1-1.3-0.1-2.2-0.1c0,0.8,0,1.5-0.1,1.9c1,0,1.9,0,2.5-0.1v0.9c-0.6-0.1-1.5-0.1-2.5-0.1 c0.3,0.9,0.6,1.6,1.1,2.1c0.4,0.5,1,0.8,1.7,1c-0.3,0.2-0.5,0.5-0.6,1c-0.7-0.5-1.3-1-1.6-1.5C565.5,29.3,565.3,28.7,565.2,28.1z M564.7,23.2l-0.9,0.3c-0.2-0.5-0.3-1-0.5-1.4l0.8-0.3C564.4,22.3,564.6,22.7,564.7,23.2z"/><path id="XMLID_179_" class="st6" d="M578,22.3c-0.1,0.4-0.1,1-0.1,2V30c0,0.4,0,0.7-0.1,0.9c-0.1,0.2-0.2,0.3-0.4,0.3 s-0.6,0.1-1.2,0.2c0-0.3-0.2-0.7-0.4-1c0.3,0,0.5,0,0.7,0c0.2,0,0.3,0,0.4-0.1c0.1-0.1,0.1-0.3,0.1-0.6v-6.6h-6.3v8h-1 c0.1-0.7,0.2-1.3,0.2-2v-5c0-0.9,0-1.6-0.1-1.9c0.6,0.1,1.9,0.1,4.1,0.1S577.5,22.4,578,22.3z M572.6,26c0.2-0.6,0.4-1.3,0.5-2.1 c0.3,0.1,0.6,0.2,0.9,0.3c0.1,0,0.1,0,0.1,0.1c0,0,0,0.1-0.1,0.1c-0.1,0.1-0.3,0.4-0.4,0.9c-0.1,0.5-0.3,1-0.6,1.7 c0.3,0.7,0.6,1.2,0.8,1.6l-0.6,0.4c-0.1-0.3-0.2-0.7-0.5-1.2c-0.4,0.9-0.8,1.6-1.2,2.2c-0.2-0.2-0.4-0.3-0.6-0.4 c0.6-0.8,1.1-1.6,1.5-2.5c-0.5-1-0.9-1.7-1.2-2.2l0.6-0.3C571.9,24.7,572.2,25.2,572.6,26z M575.2,26.2c0.3-0.8,0.5-1.5,0.5-2.3 c0.3,0.2,0.6,0.2,0.9,0.3c0.1,0,0.1,0,0.1,0.1c0,0,0,0.1-0.1,0.1c-0.1,0.1-0.3,0.3-0.4,0.8c-0.2,0.6-0.4,1.2-0.7,1.8 c0.5,1,0.8,1.6,0.9,2l-0.7,0.3c-0.1-0.4-0.3-0.9-0.6-1.6c-0.5,0.9-0.9,1.6-1.2,2c-0.2-0.1-0.5-0.2-0.7-0.3c0.6-0.6,1.1-1.5,1.6-2.5 c-0.4-0.9-0.8-1.6-1.1-2l0.5-0.3C574.6,25.1,574.9,25.6,575.2,26.2z"/><path id="XMLID_183_" class="st6" d="M585.2,27.2c1.7,0,3.1,0,4.1-0.1v1c-1-0.1-2.4-0.1-4.1-0.1v1.9c0,0.5,0,1,0.1,1.7h-1.1 c0.1-0.6,0.1-1.2,0.1-1.7V28c-1.8,0-3.1,0-4.2,0.1v-1c1,0.1,2.4,0.1,4.2,0.1v-4c-1.4,0-2.5,0-3.3,0.1v-1c0.9,0.1,2.2,0.1,3.8,0.1 s2.9,0,3.7-0.1v1c-0.8-0.1-1.9-0.1-3.3-0.1V27.2z M583.2,26.2l-0.9,0.4c-0.2-0.8-0.5-1.5-0.9-2.1l0.9-0.4 C582.6,24.8,582.9,25.5,583.2,26.2z M587.1,24c0.4,0.2,0.8,0.3,1,0.4c0.1,0,0.1,0.1,0.1,0.1s0,0.1-0.1,0.1c0,0-0.1,0.1-0.2,0.1 c-0.1,0.1-0.1,0.2-0.2,0.3c-0.4,0.7-0.7,1.2-0.9,1.6c-0.3-0.1-0.6-0.2-0.9-0.3C586.5,25.8,586.9,25,587.1,24z"/><path id="XMLID_187_" class="st6" d="M598.2,25.6c-2.1,0.1-3.8,0.2-4.9,0.3c-1.1,0.1-1.9,0.2-2.3,0.3c-0.1-0.3-0.1-0.6-0.3-0.9 c0.6-0.1,1-0.3,1.3-0.6c0.3-0.3,0.8-0.7,1.4-1.4c0.6-0.6,1.1-1.2,1.4-1.7c0.4,0.3,0.8,0.4,1.1,0.5c0.1,0.1,0.2,0.1,0.2,0.2 s-0.1,0.1-0.2,0.1c-0.2,0-0.4,0.2-0.7,0.5c-0.9,0.9-1.8,1.7-2.5,2.2l4.9-0.2c-0.4-0.4-0.9-0.9-1.4-1.3l0.7-0.5 c0.9,0.7,1.8,1.6,2.7,2.6l-0.9,0.6C598.6,26,598.4,25.7,598.2,25.6z M592.8,30.6v0.7h-1c0.1-0.6,0.1-1.1,0.1-1.6V28 c0-0.4,0-0.7-0.1-1c0.4,0,1.5,0.1,3.3,0.1s3,0,3.5-0.1c0,0.2-0.1,0.5-0.1,1v1.6c0,0.6,0,1.2,0.1,1.6h-1v-0.6H592.8z M597.7,29.8v-2 h-4.8v2H597.7z"/></g><g id="XMLID_13_"><path id="XMLID_155_" class="st5" d="M189.7,29.8c2,0,3.5,0,4.6-0.1v1.1c-1.1-0.1-2.6-0.1-4.7-0.1s-3.6,0-4.7,0.1v-1.1 c0.9,0.1,2.2,0.1,3.8,0.1v-5.2c0-1.5,0-2.4-0.1-2.7c0.4,0.1,0.8,0.1,1.2,0.1c0.1,0,0.2,0,0.2,0.1c0,0,0,0.1-0.1,0.1 c-0.1,0.1-0.1,0.2-0.2,0.3s-0.1,0.4-0.1,0.6v1.4h1.4c0.9,0,1.7,0,2.3-0.1v1.1c-0.5-0.1-1.2-0.1-2.3-0.1h-1.4V29.8z"/><path id="XMLID_157_" class="st5" d="M199.8,24.1c-1.8,0-3.1,0-4.1,0.1v-1c1,0.1,2.6,0.1,4.6,0.1s3.6,0,4.6-0.1v1 c-1-0.1-2.4-0.1-4.2-0.1v1.4c1.3,0,2.3,0,3.1-0.1v3.9c0,0.3,0,0.5-0.1,0.7c-0.1,0.2-0.2,0.3-0.5,0.4c-0.2,0.1-0.6,0.2-1.2,0.3 c0-0.5-0.2-0.8-0.5-1.1c0.4,0.1,0.7,0.1,0.9,0.1c0.2,0,0.3,0,0.4-0.1c0.1-0.1,0.1-0.2,0.1-0.5v-2.8h-2.1v3.4c0,0.5,0,1.1,0.1,1.8 h-1.1c0.1-0.7,0.1-1.3,0.1-1.8v-3.4h-2v4.3h-1c0.1-0.5,0.1-1,0.1-1.5v-3.6c0.9,0,1.9,0.1,2.9,0.1V24.1z M200.9,22.9l-1,0.3 c-0.1-0.5-0.3-0.9-0.6-1.3l1-0.3C200.5,22,200.7,22.5,200.9,22.9z"/><path id="XMLID_160_" class="st5" d="M209.1,22.2c0.4,0.2,0.7,0.3,1,0.4c0.1,0,0.1,0,0.1,0.1s0,0.1-0.1,0.1c-0.1,0-0.2,0.2-0.3,0.4 c-0.1,0.2-0.2,0.4-0.4,0.6c-0.2,0.4-0.5,1-1,1.7s-1,1.4-1.5,1.8c-0.2-0.2-0.6-0.4-1-0.6c0.7-0.5,1.3-1.1,1.9-2 C208.5,23.8,208.9,23,209.1,22.2z M212.9,29.5c-0.3-0.5-0.6-1-0.9-1.5l0.8-0.4c0.8,1,1.5,2,2.1,3l-1,0.6c-0.1-0.2-0.2-0.6-0.5-1 c-2.9,0.2-4.8,0.4-5.7,0.7c-0.1-0.3-0.2-0.7-0.4-1c0.3,0,0.8-0.6,1.5-1.6s1.2-2,1.4-2.8c0.5,0.2,0.8,0.4,1.1,0.5 c0.1,0,0.2,0.1,0.2,0.1s-0.1,0.1-0.2,0.1c-0.1,0.1-0.3,0.2-0.5,0.6c-0.7,1.1-1.4,2.1-2.1,3.1L212.9,29.5z M216,26.3 c-0.4,0.2-0.7,0.6-0.9,1c-1.7-1.5-2.8-3.1-3.4-5c0.4,0,0.7-0.1,1-0.2C213.2,24,214.3,25.4,216,26.3z"/><path id="XMLID_164_" class="st5" d="M223.6,25.3c-0.7-0.1-1.6-0.1-2.9-0.1c-1.3,0-2.4,0-3.3,0.1v-0.9c1,0.1,2.1,0.1,3.4,0.1 s2.2,0,2.8-0.1V25.3z M222.3,29.3H219v1.1h-1c0.1-0.6,0.1-1.2,0.1-1.7v-1.4c0-0.4,0-0.8-0.1-1.1c0.5,0.1,1.3,0.1,2.6,0.1 s2.1,0,2.5-0.1c-0.1,0.3-0.1,0.7-0.1,1.1v1.4c0,0.4,0,0.9,0.1,1.2h-0.9V29.3z M225.5,22.3c0,0.2,0,0.7,0,1.3v6.6 c0,0.5-0.2,0.9-0.5,1.1c-0.3,0.2-0.8,0.2-1.6,0.2c0-0.4-0.2-0.7-0.4-1.1c0.3,0,0.6,0,0.8,0s0.4,0,0.5-0.1s0.2-0.2,0.2-0.4v-6.7 h-3.1c-1.8,0-2.9,0-3.4,0.1v-1c0.7,0.1,1.8,0.1,3.5,0.1S224.5,22.4,225.5,22.3z M219,28.6h3.2v-1.5H219V28.6z"/></g><path id="XMLID_12_" class="st9" d="M276.6 90.6L252.5 28.2 239.5 28.2"/><path id="XMLID_11_" class="st9" d="M275 195.5L253 234 239 234"/><path id="XMLID_10_" class="st8" d="M238.5,30.4c0,5-3.2,9-7.2,9H181c-3.9,0-7.2-4-7.2-9v-6.6c0-5,3.2-9,7.2-9h50.3 c3.9,0,7.2,4,7.2,9V30.4z"/><circle id="XMLID_9_" class="st2" cx="269.1" cy="176.1" r="2"/><circle id="XMLID_7_" class="st2" cx="276.6" cy="88.6" r="2"/><circle id="XMLID_6_" class="st2" cx="504.9" cy="107.5" r="2"/><g id="XMLID_5_"><path id="XMLID_130_" class="st6" d="M575.7,92.8c-0.4,0.5-0.8,0.9-1.2,1.4c-0.1-0.2-0.4-0.4-0.9-0.4c0.4-0.3,0.9-0.7,1.3-1.1 c0.4-0.5,0.7-1,1-1.6c0.3,0.1,0.6,0.2,1,0.3c0.1,0,0.1,0,0.1,0.1c0,0,0,0.1-0.1,0.1c-0.2,0.1-0.4,0.3-0.7,0.7h0.7 c0.7,0,1.3,0,1.7-0.1v0.8c-0.2,0-0.7-0.1-1.5-0.1c0.1,0.3,0.3,0.6,0.4,0.9l-0.9,0.2c0-0.3-0.1-0.7-0.3-1.1H575.7z M578.4,95.7v-0.9 c-1.1,0-2.3,0-3.5,0.1V94c1.2,0.1,2.5,0.1,3.8,0.1c1.3,0,2.5,0,3.6-0.1c0,0.3-0.1,0.7-0.1,1.2s0,0.9,0.1,1.2 c-0.7,0-1.7-0.1-3.1-0.1v0.9c1.6,0,2.9,0,3.7-0.1c0,0.2-0.1,0.5-0.1,0.8l-0.1,0.8c0,0.3-0.1,0.5-0.2,0.6c-0.1,0.1-0.3,0.2-0.6,0.3 s-0.7,0.2-1.4,0.3c-0.1-0.3-0.2-0.6-0.4-1c0.3,0,0.6,0.1,0.8,0.1c0.5,0,0.8-0.1,0.8-0.4l0.1-0.8h-2.8v0.9c0,0.5,0,1.1,0.1,1.9h-1 c0.1-0.7,0.1-1.3,0.1-1.9v-0.8c-1,1.1-2.2,1.9-3.8,2.4c-0.1-0.3-0.4-0.6-0.8-0.8c1.5-0.2,2.7-0.8,3.8-1.7c-0.9,0-1.8,0-2.8,0.1 c0.1-0.8,0.2-1.4,0.2-1.6c0-0.3,0-0.5,0-0.8C576,95.6,577.1,95.7,578.4,95.7z M578.4,97.2v-0.9h-2.6l-0.1,0.9H578.4z M580.2,92.7 l-0.9,1.2c-0.2-0.2-0.5-0.3-0.8-0.3c0.7-0.6,1.3-1.4,1.8-2.5c0.3,0.1,0.6,0.2,1,0.3c0.1,0,0.1,0,0.1,0.1c0,0,0,0.1-0.1,0.1 c-0.2,0.1-0.4,0.3-0.7,0.6h1.2c0.7,0,1.2,0,1.5-0.1v0.8c-0.1,0-0.7-0.1-1.8-0.1c0.1,0.3,0.3,0.5,0.4,0.8l-0.9,0.2 c0-0.3-0.1-0.6-0.3-1H580.2z M579.2,94.8v0.9h2.2v-0.9H579.2z"/><path id="XMLID_136_" class="st6" d="M593.8,99.7c-1-0.1-2.5-0.1-4.5-0.1s-3.5,0-4.5,0.1v-1.1c1,0.1,2.5,0.1,4.5,0.1s3.5,0,4.5-0.1 V99.7z M593,93c-0.8-0.1-2.1-0.1-3.7-0.1c-1.6,0-2.9,0-3.7,0.1V92c0.8,0.1,2.1,0.1,3.7,0.1s2.9,0,3.7-0.1V93z M592.3,96.2 c-0.7-0.1-1.7-0.1-3.1-0.1c-1.3,0-2.4,0-3.1,0.1v-1.1c0.7,0.1,1.7,0.1,3.1,0.1s2.4,0,3-0.1V96.2z"/><path id="XMLID_140_" class="st6" d="M599.4,95h2.8c0.4,0,0.8,0,1.1-0.1l-0.3,3.9c0,0.4-0.1,0.7-0.2,0.9s-0.3,0.3-0.6,0.5 c-0.3,0.1-0.7,0.2-1.3,0.3c-0.1-0.5-0.3-0.9-0.7-1.3c0.3,0.1,0.6,0.1,0.9,0.1c0.5,0,0.9-0.2,0.9-0.7l0.3-2.8h-2.9 c-0.1,1-0.4,1.8-0.7,2.5c-0.4,0.6-1,1.4-1.9,2.2c-0.2-0.4-0.6-0.6-1-0.7c0.5-0.2,1-0.6,1.3-1c0.4-0.4,0.7-0.8,0.9-1.3 c0.2-0.5,0.4-1,0.5-1.6c0.1-0.6,0.1-1.3,0.2-2.2c-1.3,0-2.3,0-3.1,0.1v-1c1,0,2.6,0.1,4.6,0.1c2.1,0,3.6,0,4.6-0.1v1 c-1,0-2.7-0.1-5.1-0.1C599.5,94.1,599.5,94.6,599.4,95z M600.8,92.3l-1.1,0.4c-0.1-0.5-0.3-1-0.6-1.5l1.2-0.4 C600.3,91.3,600.5,91.8,600.8,92.3z"/><path id="XMLID_143_" class="st6" d="M607.3,92.5c-0.4,0-0.9,0-1.2,0.1v-0.9c0.4,0,0.9,0.1,1.7,0.1s1.3,0,1.7-0.1v0.9 c-0.3,0-0.8-0.1-1.3-0.1v2.3c0.5,0,0.9,0,1.2-0.1v0.9c-0.4,0-0.8-0.1-1.2-0.1v2.5c0.4-0.1,0.8-0.3,1.2-0.5c0,0.2,0,0.4,0,0.5 s0,0.3,0,0.4c-1.3,0.4-2.4,0.9-3.2,1.4c0-0.2,0-0.4-0.1-0.7c-0.1-0.3-0.1-0.5-0.2-0.6c0.5,0,1-0.1,1.5-0.3v-2.8c-0.5,0-1,0-1.2,0.1 v-0.9c0.3,0,0.8,0.1,1.2,0.1V92.5z M612.7,98.2v1.2c1.1,0,2,0,2.8-0.1v0.9c-0.8-0.1-1.9-0.1-3.3-0.1s-2.6,0-3.3,0.1v-0.9 c0.8,0,1.8,0.1,3,0.1v-1.2c-0.8,0-1.5,0-2.1,0.1v-0.9c0.5,0.1,1.2,0.1,2.1,0.1v-1.1c-1.3,0-2,0-2.2,0.1c0-0.8,0.1-1.7,0.1-2.6 s0-1.7-0.1-2.4c0.2,0.1,1.1,0.1,2.7,0.1c1.6,0,2.4,0,2.6-0.1c0,0.6-0.1,1.3-0.1,2.2c0,0.9,0,1.8,0.1,2.8c-0.1,0-0.9-0.1-2.3-0.1 v1.1c0.9,0,1.6,0,2.2-0.1v0.9C614.4,98.2,613.7,98.2,612.7,98.2z M611.9,93.6v-1.3h-1.3v1.3H611.9z M611.9,95.7v-1.4h-1.3v1.4 H611.9z M612.7,92.3v1.3h1.4v-1.3H612.7z M612.7,94.3v1.4h1.4v-1.4H612.7z"/><path id="XMLID_150_" class="st6" d="M618.7,93.2c0.2,0,0.5,0.1,0.9,0.1c0.1,0,0.1,0,0.1,0.1s0,0.1-0.1,0.2 c-0.1,0.1-0.1,0.3-0.1,0.7c0,1.5-0.1,2.6-0.1,3.1c-0.1,0.5-0.3,1.1-0.7,1.7c-0.4,0.6-0.8,1.1-1.4,1.4c-0.2-0.2-0.5-0.4-0.8-0.6 c0.6-0.4,1.1-0.8,1.5-1.3s0.6-1,0.7-1.6s0.1-1.2,0.1-2S618.8,93.7,618.7,93.2z M621.2,97.6h-0.9v-5.3H618v5.5h-0.8 c0-0.5,0.1-1,0.1-1.6v-3.1c0-0.7,0-1.3-0.1-1.7c0.2,0.1,0.9,0.1,2,0.1c1.1,0,1.8,0,2.1-0.1c-0.1,0.4-0.1,1-0.1,1.7V96 C621.1,96.5,621.2,97,621.2,97.6z M621.4,99.4l-0.7,0.7c-0.5-0.7-1-1.2-1.5-1.6l0.6-0.5C620.3,98.3,620.8,98.8,621.4,99.4z M624.1,93.1c0-1-0.1-1.7-0.1-2.3c0.3,0.1,0.7,0.1,1,0.1c0.1,0,0.2,0,0.2,0.1s0,0.1-0.1,0.2c-0.1,0.1-0.1,0.3-0.1,0.5v1.4 c0.5,0,0.9,0,1.2-0.1V94c-0.3-0.1-0.7-0.1-1.2-0.1v5.6c0,0.3,0,0.6-0.1,0.7c-0.1,0.1-0.2,0.2-0.4,0.3c-0.2,0.1-0.6,0.1-1.1,0.2 c0-0.3-0.2-0.7-0.4-1c0.3,0,0.5,0.1,0.7,0.1s0.3,0,0.4-0.1s0.1-0.2,0.1-0.3v-4.9c-0.5,1.7-1.3,3.1-2.4,4.4 c-0.2-0.2-0.4-0.4-0.7-0.5c1.1-1,2-2.5,2.6-4.4c-1.1,0-1.7,0-2,0.1V93C621.8,93.1,622.7,93.1,624.1,93.1z"/></g><g id="XMLID_3_"><path id="XMLID_8_" class="st6" d="M573.5,160.6c-0.4,0.7-0.8,1.2-1.2,1.6c-0.1-0.3-0.3-0.5-0.5-0.8c0.7-0.7,1.4-1.8,1.9-3.3 c0.3,0.2,0.6,0.4,0.9,0.4c0.1,0,0.2,0.1,0.2,0.1c0,0-0.1,0.1-0.2,0.2s-0.3,0.4-0.7,1c1,0,1.7,0,2-0.1v0.9 C575.7,160.6,574.8,160.6,573.5,160.6z M574.6,164.3v2.1c0.5-0.3,1-0.7,1.3-0.9c0,0.4,0.1,0.7,0.2,0.9l-1.3,1 c-0.4,0.3-0.7,0.6-0.8,0.7c-0.1-0.3-0.2-0.5-0.5-0.9c0.1-0.1,0.2-0.2,0.3-0.3s0.1-0.3,0.1-0.5v-2c-0.6,0-1,0-1.4,0.1v-0.9 c0.4,0,0.9,0.1,1.4,0.1v-1.3c-0.4,0-0.6,0-0.8,0.1v-0.9c0.4,0.1,0.8,0.1,1.4,0.1c0.6,0,1,0,1.4-0.1v0.9c-0.3,0-0.7-0.1-1.2-0.1v1.3 c0.6,0,1.1,0,1.5-0.1v0.9C575.7,164.3,575.2,164.3,574.6,164.3z M579.4,164.4c0.4-0.3,0.8-0.8,1.2-1.3c0.2,0.2,0.5,0.4,0.7,0.6 c0,0,0,0,0,0.1s0,0-0.1,0.1c-0.2,0.1-0.7,0.4-1.5,1.2c0.5,0.8,1.3,1.3,2.2,1.6c-0.3,0.2-0.5,0.5-0.7,0.9c-0.3-0.2-0.7-0.4-1.1-0.8 c-0.4-0.4-0.8-0.9-1.2-1.4c-0.3-0.6-0.6-1.3-0.7-2.3h-0.8v3.6c0.5-0.3,0.9-0.5,1.2-0.8c0,0.2,0.1,0.5,0.2,0.8l-1.1,0.8 c-0.4,0.3-0.6,0.5-0.7,0.7c-0.1-0.3-0.3-0.6-0.6-0.8c0.1-0.1,0.2-0.2,0.2-0.2s0.1-0.2,0.1-0.4v-6.6c0-0.4,0-0.9-0.1-1.3 c0.5,0.1,1.2,0.1,2.2,0.1c1,0,1.7,0,2.2-0.1c0,0.5-0.1,0.9-0.1,1.3v1.7c0,0.3,0,0.8,0.1,1.4c-0.2,0-0.9-0.1-2.1-0.1 C579,163.5,579.1,164,579.4,164.4z M580.1,159.3h-2.7v1.1h2.7V159.3z M580.1,161.1h-2.7v1.1h2.7V161.1z"/><path id="XMLID_30_" class="st6" d="M585.1,162.6v5.2h-1c0.1-0.6,0.1-1.2,0.1-1.7v-2.4c-0.2,0.2-0.5,0.6-0.9,1 c-0.1-0.3-0.3-0.5-0.6-0.8c1-0.8,1.9-1.9,2.6-3.2c0.2,0.2,0.5,0.4,0.9,0.6c0.1,0,0.1,0.1,0.1,0.1s0,0.1-0.1,0.1 c-0.1,0-0.2,0.1-0.4,0.3C585.5,162,585.3,162.3,585.1,162.6z M585,158.2c0.4,0.3,0.7,0.5,0.9,0.6c0.1,0,0.1,0.1,0.1,0.1 s-0.1,0.1-0.2,0.1c-0.2,0-0.5,0.3-0.8,0.7c-0.4,0.4-0.9,1-1.6,1.6c-0.1-0.2-0.4-0.4-0.7-0.6c0.4-0.3,0.9-0.7,1.3-1.3 C584.6,159,584.8,158.5,585,158.2z M590.4,162.6v4.1c0,0.3-0.1,0.5-0.2,0.7c-0.1,0.2-0.3,0.3-0.6,0.3c-0.3,0.1-0.7,0.1-1.4,0.2 c0-0.3-0.2-0.7-0.5-1.1c0.3,0,0.6,0.1,0.8,0.1c0.6,0,0.9-0.2,0.9-0.5v-3.8c-1.3,0-2.2,0-2.9,0.1v-1c0.6,0.1,1.6,0.1,2.9,0.1 s2.3,0,2.9-0.1v1C591.8,162.6,591.2,162.6,590.4,162.6z M591.6,159.9c-0.5-0.1-1.3-0.1-2.2-0.1s-1.7,0-2.2,0.1v-1 c0.5,0.1,1.2,0.1,2.2,0.1s1.8,0,2.2-0.1V159.9z"/><path id="XMLID_88_" class="st6" d="M595.4,159.9c-0.4,0.5-0.7,0.9-1.1,1.3c-0.2-0.2-0.4-0.4-0.8-0.4c0.3-0.2,0.7-0.6,1.2-1.1 c0.4-0.6,0.7-1.1,0.9-1.6c0.3,0.1,0.6,0.3,1,0.4c0.1,0,0.1,0,0.1,0.1s0,0.1-0.1,0.1c-0.1,0.1-0.3,0.3-0.6,0.6h0.6 c0.9,0,1.4,0,1.6-0.1v0.9c-0.3-0.1-0.7-0.1-1.2-0.1c0.1,0.5,0.2,0.9,0.3,1.1l-1,0.1c0-0.3,0-0.7-0.1-1.2H595.4z M597.8,162.4 c-1.1,0-2,0-2.9,0.1v-0.9c0.8,0.1,1.7,0.1,2.9,0.1c0-0.3,0-0.6-0.1-0.8c0.2,0,0.5,0.1,1,0.1c0.1,0,0.1,0,0.1,0s0,0.1-0.1,0.1 s-0.1,0.2-0.1,0.5c1.2,0,2.1,0,2.9-0.1v0.9c-0.8-0.1-1.8-0.1-2.9-0.1v0.8c1.7,0,3.1,0,4.1-0.1v0.9c-0.8,0-1.5-0.1-2.1-0.1v0.8 c0.9,0,1.4-0.1,1.6-0.1v0.9c-0.2,0-0.7-0.1-1.6-0.1v1.3c0,0.3,0,0.5-0.1,0.7c-0.1,0.1-0.2,0.2-0.5,0.3c-0.2,0.1-0.7,0.1-1.3,0.2 c0-0.4-0.2-0.7-0.4-1c0.3,0,0.6,0.1,0.8,0.1s0.4,0,0.5-0.1s0.2-0.2,0.2-0.5v-0.9H596c-0.7,0-1.3,0-1.8,0.1v-0.9 c0.4,0.1,1,0.1,1.8,0.1h3.8v-0.8c-3.2,0-5.2,0-6,0.1v-0.9c1,0.1,2.3,0.1,4,0.1V162.4z M597.5,166.7l-0.9,0.5 c-0.2-0.4-0.5-0.8-0.8-1.1l0.8-0.5C596.9,165.9,597.2,166.3,597.5,166.7z M599.3,159.9c-0.2,0.4-0.4,0.6-0.5,0.8 c-0.3-0.2-0.6-0.3-0.8-0.4c0.2-0.2,0.5-0.5,0.8-1c0.3-0.5,0.5-1,0.5-1.4c0.3,0.2,0.7,0.2,1,0.3c0.1,0,0.1,0,0.1,0.1 c0,0,0,0.1-0.1,0.1c-0.1,0.1-0.4,0.3-0.7,0.8h1c1,0,1.6-0.1,2-0.2v1c-0.4,0-0.9-0.1-1.5-0.1c0.1,0.5,0.2,0.9,0.3,1.1l-1,0.2 c0-0.3-0.1-0.7-0.2-1.3H599.3z"/><path id="XMLID_108_" class="st6" d="M609.2,158.6c0.7,0.8,1.4,1.4,2.1,1.8c0.7,0.4,1.5,0.7,2.5,1c-0.1,0.1-0.2,0.3-0.3,0.5 c-0.1,0.2-0.1,0.4-0.2,0.6c-1.9-0.6-3.4-1.7-4.6-3.4c-0.6,0.8-1.4,1.7-2.5,2.5c0.6,0,1.5,0.1,2.6,0.1s2,0,2.6-0.1v0.9 c-0.5,0-1.2-0.1-2.2-0.1v1.3c1.5,0,2.6,0,3.1-0.1v0.9c-0.6,0-1.6-0.1-3.1-0.1v2.2l1,0c0.3-0.7,0.5-1.4,0.6-1.9 c0.4,0.2,0.7,0.3,0.9,0.3c0.1,0,0.1,0.1,0.1,0.1c0,0.1,0,0.1-0.1,0.1c-0.1,0.1-0.4,0.5-0.9,1.3c0.8,0,1.5,0,2.1-0.1v1 c-1.2-0.1-2.7-0.1-4.4-0.1s-3,0-4,0.1v-1c0.9,0.1,2.2,0.1,3.7,0.1v-2.2c-1.4,0-2.4,0-3.1,0.1v-0.9c0.7,0.1,1.8,0.1,3.1,0.1v-1.3 c-1,0-1.7,0-2.2,0.1v-0.8c-0.6,0.5-1.1,0.8-1.5,1c-0.1-0.3-0.3-0.5-0.7-0.7c0.5-0.2,1-0.5,1.5-0.9c0.5-0.4,0.9-0.8,1.3-1.2 c0.4-0.4,0.7-0.8,0.9-1s0.3-0.6,0.5-0.9c0.5,0.2,0.8,0.3,1,0.3c0.2,0,0.2,0.1,0.2,0.1S609.4,158.6,609.2,158.6z M607.3,166 l-0.9,0.4c-0.2-0.6-0.5-1-0.7-1.3l0.9-0.4C606.9,165.2,607.1,165.7,607.3,166z"/><path id="XMLID_111_" class="st6" d="M615.4,163.9c0-0.4,0-0.7-0.1-0.9c0.6,0.1,1.3,0.1,2.2,0.1s1.6,0,2.2-0.1 c0,0.2-0.1,0.5-0.1,0.9v2.8c0,0.3-0.1,0.5-0.3,0.7s-0.5,0.3-1,0.3c0-0.3-0.1-0.6-0.2-0.8c0.2,0,0.3,0,0.4,0s0.2,0,0.3-0.1 s0.1-0.2,0.1-0.3v-2.7h-2.8v4h-0.8c0.1-0.4,0.1-0.8,0.1-1.2V163.9z M619.7,159.6c-0.5,0-1.3-0.1-2.2-0.1s-1.7,0-2.2,0.1v-0.9 c0.5,0.1,1.2,0.1,2.1,0.1c0.9,0,1.7,0,2.2-0.1V159.6z M615.7,160.2c0.5,0.1,1.1,0.1,1.8,0.1c0.7,0,1.3,0,1.8-0.1 c0,0.3-0.1,0.7-0.1,1.1s0,0.8,0.1,1.2c-0.4-0.1-1-0.1-1.8-0.1s-1.4,0-1.8,0.1c0.1-0.3,0.1-0.7,0.1-1.1 C615.8,160.9,615.8,160.5,615.7,160.2z M617.5,165.2c0.1-0.4,0.2-0.8,0.3-1.3c0.3,0.1,0.5,0.2,0.7,0.2c0,0,0.1,0,0.1,0 s0,0.1-0.1,0.1c-0.1,0-0.2,0.4-0.5,0.9c0.2,0,0.4,0,0.5-0.1v0.7c-0.3,0-0.5-0.1-0.9-0.1v0.8c0,0.2,0,0.4,0,0.5H617 c0-0.1,0-0.3,0-0.5v-0.8c-0.3,0-0.5,0-0.7,0.1v-0.7C616.7,165.2,617,165.2,617.5,165.2z M617,164.1c0.1,0.4,0.2,0.6,0.3,0.7 l-0.6,0.2c-0.1-0.3-0.1-0.5-0.2-0.8L617,164.1z M616.5,160.9v0.9h2v-0.9H616.5z M622.4,160.3c0.9,0,1.4,0,1.7-0.1 c-0.1,0.3-0.1,0.6-0.1,1v1.7c0,0.4,0,0.9,0.1,1.3c-0.3-0.1-0.9-0.1-1.7-0.1v2.3l1-0.2c-0.1-0.5-0.2-0.9-0.3-1.1l0.7-0.2 c0.3,0.6,0.6,1.5,0.8,2.4l-0.8,0.3c0-0.3-0.1-0.5-0.2-0.8l-2.1,0.5c-0.6,0.1-1,0.3-1.4,0.5c-0.1-0.3-0.2-0.7-0.3-1.1 c0.4,0,1,0,1.9-0.1V164h-0.8v0.7h-0.8c0.1-0.4,0.1-0.7,0.1-1.1v-2.4c0-0.4,0-0.8-0.1-1c0.4,0,0.9,0.1,1.6,0.1c0-1.2,0-1.9-0.1-2 c0.4,0.1,0.7,0.1,0.9,0.1c0.1,0,0.2,0,0.2,0.1c0,0,0,0.1-0.1,0.1c-0.1,0-0.1,0.1-0.2,0.2c-0.1,0.1-0.1,0.3-0.1,0.4V160.3z M621.7,163.3V161h-0.8v2.3H621.7z M622.4,161v2.3h0.9V161H622.4z"/><path id="XMLID_121_" class="st6" d="M627.1,163c-0.3,0.9-0.7,1.7-1.1,2.5c-0.1-0.3-0.3-0.6-0.5-1c0.4-0.4,0.7-0.9,0.9-1.4 c0.2-0.5,0.5-1.2,0.7-2v-0.1c-0.6,0-1.1,0-1.5,0.1v-0.8c0.3,0,0.8,0.1,1.5,0.1c0-1,0-1.8-0.1-2.2c0.2,0,0.4,0,0.6,0l0.4,0 c0.1,0,0.1,0,0.1,0.1s0,0.1-0.1,0.2c-0.1,0.1-0.1,0.2-0.1,0.3v1.6c0.7,0,1.2,0,1.5-0.1v0.8c-0.4,0-0.9-0.1-1.5-0.1v4.7 c0,0.6,0,1.3,0.1,2H627c0.1-0.7,0.1-1.4,0.1-2V163z M629.7,163.8l-0.8,0.4c-0.2-0.5-0.5-1-0.8-1.6l0.7-0.3 C629,162.8,629.3,163.3,629.7,163.8z M635.4,165.9c-0.1,0.5-0.3,0.9-0.4,1.1c-0.1,0.2-0.2,0.3-0.4,0.4c-0.2,0.1-0.4,0.1-0.8,0.1 s-0.6,0-0.8-0.1s-0.3-0.2-0.3-0.4c-0.1-0.2-0.1-0.5-0.1-0.9l0.1-6.5H631c0,0.4,0,1,0,1.8s0,1.5-0.1,2.3c-0.1,0.8-0.2,1.5-0.4,2.2 c-0.2,0.7-0.7,1.3-1.2,2c-0.3-0.3-0.6-0.5-1-0.6c0.8-0.6,1.3-1.3,1.6-2.1c0.2-0.8,0.4-1.9,0.4-3.2c0-0.7,0-1.8-0.1-3.3 c0.5,0.1,1.1,0.1,1.9,0.1s1.4,0,1.8-0.1c-0.1,0.3-0.1,0.8-0.1,1.4l-0.1,6c0,0.2,0,0.3,0.1,0.4c0.1,0.1,0.2,0.1,0.4,0.1 c0.2,0,0.3-0.1,0.3-0.3s0.1-0.5,0.1-1.1C634.6,165.6,635,165.9,635.4,165.9z"/><path id="XMLID_125_" class="st6" d="M637.8,163.1c-0.4,1.1-0.8,1.9-1.2,2.5c-0.2-0.4-0.4-0.7-0.6-1c0.7-0.6,1.3-1.8,1.8-3.4 c-0.5,0-1,0-1.4,0.1v-0.9c0.3,0,0.8,0.1,1.4,0.1c0-1.1,0-1.9-0.1-2.3c0.3,0,0.5,0.1,0.8,0.1l0.3,0c0.1,0,0.1,0,0.1,0.1 s0,0.1-0.1,0.2c-0.1,0.1-0.1,0.2-0.1,0.3v1.7c0.4,0,0.8,0,1.1-0.1v0.9c-0.3,0-0.7-0.1-1.1-0.1v4.5c0,0.7,0,1.4,0.1,2.2h-1.1 c0.1-0.8,0.1-1.5,0.1-2.2V163.1z M640.1,163.8l-0.8,0.4c-0.2-0.5-0.4-1-0.6-1.4l0.6-0.3C639.7,163,639.9,163.5,640.1,163.8z M641.8,160h1.9c0.8,0,1.5,0,2-0.1l-0.3,6.4c0,0.6-0.2,1-0.5,1.2c-0.3,0.2-0.9,0.4-1.6,0.5c-0.1-0.5-0.3-0.8-0.5-1.1 c0.2,0,0.5,0.1,0.7,0.1c0.7,0,1.1-0.3,1.1-0.8l0.3-5.4h-3.4c-0.3,0.7-0.6,1.2-0.8,1.7c-0.3-0.2-0.6-0.3-1-0.4 c0.3-0.3,0.7-0.9,1.1-1.7s0.6-1.6,0.7-2.3c0.4,0.2,0.8,0.3,1.1,0.4c0.1,0,0.1,0,0.1,0.1s0,0.1-0.1,0.2 C642.4,158.8,642.1,159.2,641.8,160z M643,164.7c-0.1-0.4-0.2-0.8-0.4-1.3l0.7-0.2c0.3,0.7,0.6,1.5,0.9,2.5l-0.9,0.3 c0-0.2-0.1-0.5-0.1-0.7l-1.8,0.3c-0.3,0-0.6,0.1-1,0.3c-0.1-0.3-0.1-0.6-0.3-0.8c0.2-0.1,0.5-0.6,0.8-1.4c0.3-0.8,0.6-1.5,0.6-2.1 c0.4,0.1,0.7,0.2,0.9,0.3c0.1,0,0.2,0.1,0.2,0.1s0,0.1-0.1,0.2s-0.2,0.4-0.5,0.9s-0.5,1.2-1,2L643,164.7z"/></g><path id="XMLID_2_" class="st0" d="M603.3,200.5c0,4.9-3.8,8.9-6.2,8.9h-35c-2.5,0-6.2-4-6.2-8.9V194c0-4.9,3.8-8.9,6.2-8.9h34.1 c2.5,0,7.1,4,7.1,8.9V200.5z"/></svg>