<svg version="1.1" xmlns="http://www.w3.org/2000/svg" xmlns:xlink="http://www.w3.org/1999/xlink" x="0" y="0" width="68.699" height="56.872" viewBox="0 0 68.699 56.872" xml:space="preserve"><defs><path id="a" d="M0 0H68.699V56.872H0z"/></defs><clipPath id="b"><use xlink:href="#a" overflow="visible"/></clipPath><path clip-path="url(#b)" fill="#FFF" d="M37.46,44.569c0-4.113-11.12-7.464-11.12-7.464 c-4.266-2.134-0.457-10.359-0.457-10.359s2.944-6.744,2.944-9.863c0-5.869-4.348-10.626-9.711-10.626 c-5.364,0-9.711,4.757-9.711,10.626c0,2.412,0.728,5.255,1.959,7.766c0.334,0.683,1.011,1.945,1.011,1.945 s3.808,8.226-0.457,10.358c0,0-11.12,3.352-11.12,7.465c0,0-0.69,4.21,3.178,4.538l29.828,0.184 C38.222,49.139,37.46,44.569,37.46,44.569"/><path clip-path="url(#b)" fill="none" stroke="#EB6100" stroke-width="1.5" stroke-linecap="round" stroke-linejoin="round" stroke-miterlimit="10" d="M37.46,44.569c0-4.113-11.12-7.464-11.12-7.464c-4.266-2.134-0.457-10.359-0.457-10.359s2.944-6.744,2.944-9.863 c0-5.869-4.348-10.626-9.711-10.626c-5.364,0-9.711,4.757-9.711,10.626c0,2.412,0.728,5.255,1.959,7.766 c0.334,0.683,1.011,1.945,1.011,1.945s3.808,8.226-0.457,10.358c0,0-11.12,3.352-11.12,7.465c0,0-0.69,4.21,3.178,4.538 l29.828,0.184C38.222,49.139,37.46,44.569,37.46,44.569z"/><path clip-path="url(#b)" fill="#FFF" d="M67.885,50.221c0-5.311-14.36-9.638-14.36-9.638 c-5.507-2.754-0.59-13.376-0.59-13.376s3.802-8.709,3.802-12.737c0-7.577-5.613-13.72-12.54-13.72 c-6.925,0-12.539,6.143-12.539,13.72c0,3.115,0.94,6.786,2.529,10.029c0.432,0.881,1.306,2.511,1.306,2.511 s4.918,10.622-0.59,13.376c0,0-14.359,4.327-14.359,9.639c0,0-0.891,5.437,4.104,5.859l38.517,0.238 C68.867,56.122,67.885,50.221,67.885,50.221"/><path clip-path="url(#b)" fill="none" stroke="#EB6100" stroke-width="1.5" stroke-linecap="round" stroke-linejoin="round" stroke-miterlimit="10" d="M67.885,50.221c0-5.311-14.36-9.638-14.36-9.638c-5.507-2.754-0.59-13.376-0.59-13.376s3.802-8.709,3.802-12.737 c0-7.577-5.613-13.72-12.54-13.72c-6.925,0-12.539,6.143-12.539,13.72c0,3.115,0.94,6.786,2.529,10.029 c0.432,0.881,1.306,2.511,1.306,2.511s4.918,10.622-0.59,13.376c0,0-14.359,4.327-14.359,9.639c0,0-0.891,5.437,4.104,5.859 l38.517,0.238C68.867,56.122,67.885,50.221,67.885,50.221z"/></svg>